%TF.GenerationSoftware,KiCad,Pcbnew,9.0.1*%
%TF.CreationDate,2025-06-03T11:42:51+02:00*%
%TF.ProjectId,esc,6573632e-6b69-4636-9164-5f7063625858,rev?*%
%TF.SameCoordinates,Original*%
%TF.FileFunction,Copper,L2,Inr*%
%TF.FilePolarity,Positive*%
%FSLAX46Y46*%
G04 Gerber Fmt 4.6, Leading zero omitted, Abs format (unit mm)*
G04 Created by KiCad (PCBNEW 9.0.1) date 2025-06-03 11:42:51*
%MOMM*%
%LPD*%
G01*
G04 APERTURE LIST*
G04 Aperture macros list*
%AMRoundRect*
0 Rectangle with rounded corners*
0 $1 Rounding radius*
0 $2 $3 $4 $5 $6 $7 $8 $9 X,Y pos of 4 corners*
0 Add a 4 corners polygon primitive as box body*
4,1,4,$2,$3,$4,$5,$6,$7,$8,$9,$2,$3,0*
0 Add four circle primitives for the rounded corners*
1,1,$1+$1,$2,$3*
1,1,$1+$1,$4,$5*
1,1,$1+$1,$6,$7*
1,1,$1+$1,$8,$9*
0 Add four rect primitives between the rounded corners*
20,1,$1+$1,$2,$3,$4,$5,0*
20,1,$1+$1,$4,$5,$6,$7,0*
20,1,$1+$1,$6,$7,$8,$9,0*
20,1,$1+$1,$8,$9,$2,$3,0*%
G04 Aperture macros list end*
%TA.AperFunction,ComponentPad*%
%ADD10C,2.280000*%
%TD*%
%TA.AperFunction,ComponentPad*%
%ADD11C,2.850000*%
%TD*%
%TA.AperFunction,ComponentPad*%
%ADD12RoundRect,0.250002X-1.699998X-1.699998X1.699998X-1.699998X1.699998X1.699998X-1.699998X1.699998X0*%
%TD*%
%TA.AperFunction,ComponentPad*%
%ADD13RoundRect,0.250000X0.600000X0.725000X-0.600000X0.725000X-0.600000X-0.725000X0.600000X-0.725000X0*%
%TD*%
%TA.AperFunction,ComponentPad*%
%ADD14O,1.700000X1.950000*%
%TD*%
%TA.AperFunction,ComponentPad*%
%ADD15C,5.460000*%
%TD*%
%TA.AperFunction,ComponentPad*%
%ADD16C,4.743000*%
%TD*%
%TA.AperFunction,ComponentPad*%
%ADD17C,4.656000*%
%TD*%
%TA.AperFunction,ViaPad*%
%ADD18C,0.700000*%
%TD*%
%TA.AperFunction,ViaPad*%
%ADD19C,0.900000*%
%TD*%
%TA.AperFunction,ViaPad*%
%ADD20C,0.800000*%
%TD*%
G04 APERTURE END LIST*
D10*
%TO.N,GND*%
%TO.C,J7*%
X172150000Y-92870000D03*
D11*
X176150000Y-92870000D03*
X176150000Y-81630000D03*
D10*
X172150000Y-81630000D03*
%TD*%
D12*
%TO.N,/VPH_A*%
%TO.C,J1*%
X142400000Y-137200999D03*
%TD*%
D13*
%TO.N,GND*%
%TO.C,FSENS2*%
X148600007Y-58050000D03*
D14*
%TO.N,/Amplifier/IN_R-*%
X146100007Y-58050000D03*
%TO.N,/Amplifier/IN_R+*%
X143600007Y-58050000D03*
%TO.N,3V3*%
X141100007Y-58050000D03*
%TD*%
D12*
%TO.N,/VPH_C*%
%TO.C,J3*%
X136200000Y-137200999D03*
%TD*%
D15*
%TO.N,VCC*%
%TO.C,J4*%
X164500000Y-65000000D03*
D16*
%TO.N,GND*%
X170750000Y-65000000D03*
D17*
%TO.N,unconnected-(J4-Pad3)*%
X167500000Y-60200000D03*
%TD*%
D13*
%TO.N,GND*%
%TO.C,FSENS1*%
X134600000Y-58051000D03*
D14*
%TO.N,/Amplifier1/IN_R-*%
X132100000Y-58051000D03*
%TO.N,/Amplifier1/IN_R+*%
X129600000Y-58051000D03*
%TO.N,3V3*%
X127100000Y-58051000D03*
%TD*%
D12*
%TO.N,/VPH_B*%
%TO.C,J2*%
X130000000Y-137200999D03*
%TD*%
D13*
%TO.N,GND*%
%TO.C,FSENS3*%
X120600002Y-58051000D03*
D14*
%TO.N,/Amplifier2/IN_R-*%
X118100002Y-58051000D03*
%TO.N,/Amplifier2/IN_R+*%
X115600002Y-58051000D03*
%TO.N,3V3*%
X113100002Y-58051000D03*
%TD*%
D18*
%TO.N,/VSENSE_B*%
X110000000Y-95300000D03*
D19*
X111400000Y-101000000D03*
%TO.N,/VSENSE_C*%
X116400000Y-91200000D03*
X115400000Y-94200000D03*
D18*
X123200000Y-97300000D03*
X136500000Y-107100000D03*
X146800000Y-108600000D03*
X130300000Y-101400000D03*
D19*
%TO.N,/VSENSE_A*%
X116600000Y-93650000D03*
X117400000Y-90000000D03*
X122400000Y-88851415D03*
X171200000Y-104200000D03*
D20*
%TO.N,GND*%
X164000000Y-89000000D03*
D18*
X133849998Y-69726000D03*
X145000000Y-89750000D03*
X152750000Y-89750000D03*
D19*
X123399999Y-105200000D03*
X106999999Y-125600000D03*
D18*
X115750000Y-85350000D03*
X124349998Y-65476000D03*
X119150000Y-103100000D03*
X139100004Y-72475000D03*
D19*
X144800000Y-97600000D03*
D20*
X169000000Y-91500000D03*
D18*
X121850000Y-65476000D03*
X129750000Y-89750000D03*
X124250000Y-87100000D03*
X110350000Y-65476000D03*
X122250000Y-103100000D03*
D19*
X133140000Y-111465000D03*
D18*
X135000000Y-96500000D03*
D19*
X146000000Y-105800999D03*
X137500000Y-92750000D03*
D18*
X105750000Y-87850000D03*
D19*
X163000000Y-74400000D03*
X131740000Y-125600000D03*
D18*
X149850004Y-65475000D03*
D19*
X120199999Y-114000000D03*
X171800000Y-105600999D03*
D18*
X138600004Y-66475000D03*
D19*
X134140000Y-117265000D03*
D18*
X120290000Y-76850000D03*
X118250000Y-84600000D03*
D19*
X159800000Y-63600000D03*
X108399999Y-111465000D03*
X156400000Y-125600000D03*
X156000000Y-115265000D03*
D18*
X107050000Y-87100000D03*
D19*
X158250000Y-77500000D03*
D18*
X127500000Y-88100000D03*
X123250000Y-90000000D03*
D19*
X109399999Y-117265000D03*
D18*
X146000000Y-94500000D03*
X113750000Y-100100000D03*
D19*
X133000000Y-93700000D03*
X139600000Y-100400000D03*
X157800000Y-111465000D03*
X161500000Y-94000000D03*
D18*
X119850000Y-69726000D03*
X138350004Y-65475000D03*
X139500000Y-89750000D03*
D19*
X106599999Y-115265000D03*
D18*
X124599998Y-66476000D03*
D19*
X152250000Y-73750000D03*
D18*
X111500000Y-84100000D03*
X111000000Y-91100000D03*
X117000000Y-80600000D03*
D20*
X169000000Y-83000000D03*
D19*
X173200000Y-105400999D03*
D18*
X133750000Y-89750000D03*
X121250000Y-103850000D03*
D19*
X173000000Y-77400000D03*
X156200000Y-67000000D03*
D18*
X111100000Y-72476000D03*
X111750000Y-99250000D03*
X110250000Y-85100000D03*
D19*
X147600000Y-105400999D03*
X137540000Y-108000000D03*
D20*
X122000000Y-97000000D03*
D19*
X143800000Y-100000000D03*
D20*
X165750000Y-83000000D03*
D19*
X153400000Y-62400000D03*
X167600000Y-73200000D03*
X169000000Y-106800000D03*
X144940000Y-114000000D03*
D18*
X125250000Y-97850000D03*
D19*
X169600000Y-114000000D03*
D18*
X147850004Y-69725000D03*
X110600000Y-66476000D03*
D19*
X158800000Y-117265000D03*
X119599999Y-106800000D03*
X136600000Y-77000000D03*
D18*
X129750000Y-91500000D03*
D19*
X165200000Y-71200000D03*
X122199999Y-105200000D03*
X163300000Y-94000000D03*
D18*
X107000000Y-93100000D03*
D19*
X135000000Y-86000000D03*
D18*
X112000000Y-86850000D03*
X125099998Y-72476000D03*
D20*
X162500000Y-87500000D03*
D19*
X162200000Y-108000000D03*
D18*
X114500000Y-85600000D03*
D19*
X144340000Y-106800000D03*
D18*
X135849998Y-65476000D03*
D19*
X112799999Y-108000000D03*
X158200000Y-70800000D03*
X131340000Y-115265000D03*
D18*
X149250000Y-89750000D03*
X105300000Y-88850000D03*
X129000000Y-92600000D03*
X124750000Y-100100000D03*
D19*
%TO.N,/SG_1*%
X120600000Y-94600000D03*
X125600000Y-77200000D03*
%TO.N,/SG_2*%
X119200000Y-95800000D03*
X118400000Y-77200000D03*
%TO.N,/SG_3*%
X118400000Y-96800000D03*
X117200000Y-77200000D03*
D18*
%TO.N,3V3*%
X139000005Y-71300000D03*
X124000000Y-103350000D03*
X143200000Y-92900000D03*
D19*
X156000000Y-111665000D03*
D18*
X114000000Y-84850000D03*
X126250000Y-88100000D03*
X118250001Y-73051000D03*
X123750000Y-77350000D03*
X125499999Y-63051000D03*
X102500000Y-92850000D03*
X132249999Y-73051000D03*
D19*
X131340000Y-111665000D03*
D18*
X111750000Y-97850000D03*
X146250005Y-73050000D03*
D19*
X139076000Y-83750000D03*
X106599999Y-111665000D03*
D18*
X124999999Y-71301000D03*
X107000000Y-80600000D03*
X111000001Y-71301000D03*
X123750000Y-99850000D03*
X111500001Y-63051000D03*
X175750000Y-71750000D03*
X139500005Y-63050000D03*
%TO.N,/SSD*%
X141850000Y-98025000D03*
D19*
%TO.N,/VPH_A*%
X164000000Y-117000000D03*
X168000000Y-118800000D03*
X174800000Y-111600000D03*
D18*
%TO.N,/HIN_B*%
X127100000Y-103000000D03*
X128700000Y-105899000D03*
X115530999Y-108200000D03*
X128800000Y-108500000D03*
X130400000Y-96800000D03*
X128700000Y-99100000D03*
D19*
%TO.N,/VISENSE_A*%
X159800000Y-108000000D03*
X122600000Y-92600000D03*
%TO.N,/VCC_SENSE*%
X121600000Y-92000000D03*
X124200000Y-85600000D03*
%TO.N,/VPH_B*%
X118599999Y-118800000D03*
X125399999Y-111600000D03*
X114599999Y-117000000D03*
%TO.N,/VPH_C*%
X139340000Y-117000000D03*
X143340000Y-118800000D03*
X150140000Y-111600000D03*
D18*
%TO.N,/MG_Z*%
X138850000Y-97775000D03*
%TO.N,/MG_PWM*%
X132900000Y-92200000D03*
%TO.N,/SSCK*%
X143100000Y-95025000D03*
D19*
%TO.N,Net-(Q2-G)*%
X161000000Y-123200000D03*
X165000000Y-131800000D03*
%TO.N,Net-(Q4-G)*%
X115599999Y-131800000D03*
X111599999Y-123200000D03*
%TO.N,Net-(Q6-G)*%
X140340000Y-131800000D03*
X136340000Y-123200000D03*
%TO.N,VCC*%
X164200000Y-106400000D03*
X125275999Y-117341000D03*
X153250000Y-117000000D03*
X139400000Y-105600000D03*
D18*
%TO.N,/MG_B*%
X136100000Y-94900000D03*
%TO.N,/MGH_SPI1_MISO*%
X140300000Y-102600000D03*
X137400000Y-94200000D03*
X116700000Y-97200000D03*
%TO.N,/LIN_B*%
X127800000Y-104400000D03*
X114600000Y-108400000D03*
X129300000Y-100500000D03*
X127600000Y-108400000D03*
X127200000Y-105800000D03*
X132700000Y-99900000D03*
D19*
%TO.N,/LIN_C*%
X127600000Y-97200000D03*
X129000000Y-96200000D03*
D18*
%TO.N,/MGH_SPI1_NSS*%
X134800000Y-101900000D03*
X117600000Y-103800000D03*
X133800000Y-100600000D03*
%TO.N,/MGH_SPI1_SCK*%
X116800000Y-101900000D03*
%TO.N,/MGH_SPI1_MOSI*%
X117899000Y-101801000D03*
%TO.N,/MGH_MGH*%
X133700000Y-99400000D03*
X120700000Y-96000000D03*
X135655025Y-101244975D03*
%TO.N,VBUS*%
X158300000Y-90600000D03*
X163300000Y-92350000D03*
%TO.N,/MGH_MGL*%
X122400000Y-94200000D03*
D19*
%TO.N,/Phase_A/VHO_R*%
X166400000Y-120800000D03*
X177200000Y-128800000D03*
%TO.N,/Phase_B/VHO_R*%
X127799999Y-128800000D03*
X116999999Y-120800000D03*
%TO.N,/Phase_C/VHO_R*%
X152540000Y-128800000D03*
X141740000Y-120800000D03*
D18*
%TO.N,/MG_A*%
X140350000Y-98525000D03*
%TD*%
%TA.AperFunction,Conductor*%
%TO.N,GND*%
G36*
X101399878Y-52649997D02*
G01*
X101375817Y-62587407D01*
X101375765Y-62608425D01*
X101399878Y-52649997D01*
G37*
%TD.AperFunction*%
%TA.AperFunction,Conductor*%
G36*
X104452448Y-49499927D02*
G01*
X104452440Y-49499927D01*
X157240544Y-49427316D01*
X104452448Y-49499927D01*
G37*
%TD.AperFunction*%
%TD*%
%TA.AperFunction,Conductor*%
%TO.N,GND*%
G36*
X168865215Y-62762400D02*
G01*
X168873623Y-62770069D01*
X169822904Y-63719350D01*
X169720047Y-63794081D01*
X169544081Y-63970047D01*
X169469350Y-64072904D01*
X168549834Y-63153388D01*
X168404431Y-63335720D01*
X168404428Y-63335724D01*
X168232834Y-63608814D01*
X168092900Y-63899389D01*
X167986381Y-64203802D01*
X167986377Y-64203814D01*
X167930006Y-64450792D01*
X167895897Y-64511770D01*
X167834236Y-64544628D01*
X167764598Y-64538933D01*
X167709095Y-64496493D01*
X167688224Y-64450791D01*
X167609134Y-64104274D01*
X167609130Y-64104262D01*
X167538180Y-63901499D01*
X167489295Y-63761793D01*
X167331864Y-63434884D01*
X167193344Y-63214431D01*
X167174345Y-63147195D01*
X167194713Y-63080360D01*
X167247981Y-63035146D01*
X167312223Y-63025240D01*
X167333819Y-63027673D01*
X167341154Y-63028500D01*
X167341155Y-63028500D01*
X167658848Y-63028500D01*
X167658848Y-63028499D01*
X167974538Y-62992930D01*
X168284263Y-62922237D01*
X168584126Y-62817311D01*
X168732143Y-62746029D01*
X168801081Y-62734678D01*
X168865215Y-62762400D01*
G37*
%TD.AperFunction*%
%TA.AperFunction,Conductor*%
G36*
X177103145Y-49419679D02*
G01*
X177137152Y-49452013D01*
X179576997Y-52867796D01*
X179599945Y-52933790D01*
X179600094Y-52939574D01*
X179712494Y-100091233D01*
X179712494Y-136309942D01*
X179712345Y-136316027D01*
X179695941Y-136649923D01*
X179694748Y-136662033D01*
X179660201Y-136894928D01*
X179630893Y-136958353D01*
X179622528Y-136967030D01*
X176656884Y-139758225D01*
X176594575Y-139789837D01*
X176590092Y-139790586D01*
X176562031Y-139794748D01*
X176549923Y-139795941D01*
X176234847Y-139811420D01*
X176216025Y-139812345D01*
X176209943Y-139812494D01*
X144489063Y-139812494D01*
X144422024Y-139792809D01*
X144376269Y-139740005D01*
X144366325Y-139670847D01*
X144395350Y-139607291D01*
X144423966Y-139582956D01*
X144509276Y-139530334D01*
X144568655Y-139493710D01*
X144692711Y-139369654D01*
X144784814Y-139220332D01*
X144839999Y-139053795D01*
X144850500Y-138951006D01*
X144850499Y-136278048D01*
X172139500Y-136278048D01*
X172139500Y-136521951D01*
X172156349Y-136649923D01*
X172171334Y-136763744D01*
X172234456Y-136999320D01*
X172234459Y-136999330D01*
X172327786Y-137224640D01*
X172327791Y-137224651D01*
X172449727Y-137435848D01*
X172449738Y-137435864D01*
X172598199Y-137629343D01*
X172598205Y-137629350D01*
X172770649Y-137801794D01*
X172770655Y-137801799D01*
X172964144Y-137950268D01*
X172964151Y-137950272D01*
X173175348Y-138072208D01*
X173175353Y-138072210D01*
X173175356Y-138072212D01*
X173400679Y-138165544D01*
X173636256Y-138228666D01*
X173878056Y-138260500D01*
X173878063Y-138260500D01*
X174121937Y-138260500D01*
X174121944Y-138260500D01*
X174363744Y-138228666D01*
X174599321Y-138165544D01*
X174824644Y-138072212D01*
X175035856Y-137950268D01*
X175229345Y-137801799D01*
X175401799Y-137629345D01*
X175550268Y-137435856D01*
X175672212Y-137224644D01*
X175765544Y-136999321D01*
X175828666Y-136763744D01*
X175860500Y-136521944D01*
X175860500Y-136278056D01*
X175828666Y-136036256D01*
X175765544Y-135800679D01*
X175672212Y-135575356D01*
X175672210Y-135575353D01*
X175672208Y-135575348D01*
X175550272Y-135364151D01*
X175550268Y-135364144D01*
X175401799Y-135170655D01*
X175401794Y-135170649D01*
X175229350Y-134998205D01*
X175229343Y-134998199D01*
X175035864Y-134849738D01*
X175035862Y-134849736D01*
X175035856Y-134849732D01*
X175035851Y-134849729D01*
X175035848Y-134849727D01*
X174824651Y-134727791D01*
X174824640Y-134727786D01*
X174599330Y-134634459D01*
X174599323Y-134634457D01*
X174599321Y-134634456D01*
X174363744Y-134571334D01*
X174323333Y-134566013D01*
X174121951Y-134539500D01*
X174121944Y-134539500D01*
X173878056Y-134539500D01*
X173878048Y-134539500D01*
X173647896Y-134569801D01*
X173636256Y-134571334D01*
X173400679Y-134634456D01*
X173400669Y-134634459D01*
X173175359Y-134727786D01*
X173175348Y-134727791D01*
X172964151Y-134849727D01*
X172964135Y-134849738D01*
X172770656Y-134998199D01*
X172770649Y-134998205D01*
X172598205Y-135170649D01*
X172598199Y-135170656D01*
X172449738Y-135364135D01*
X172449727Y-135364151D01*
X172327791Y-135575348D01*
X172327786Y-135575359D01*
X172234459Y-135800669D01*
X172234456Y-135800679D01*
X172171335Y-136036253D01*
X172171333Y-136036264D01*
X172139500Y-136278048D01*
X144850499Y-136278048D01*
X144850499Y-135450993D01*
X144839999Y-135348203D01*
X144784814Y-135181666D01*
X144692711Y-135032344D01*
X144568655Y-134908288D01*
X144419333Y-134816185D01*
X144252796Y-134761000D01*
X144252794Y-134760999D01*
X144150008Y-134750499D01*
X140650000Y-134750499D01*
X140649983Y-134750500D01*
X140547204Y-134760999D01*
X140547201Y-134761000D01*
X140380669Y-134816184D01*
X140380664Y-134816186D01*
X140231343Y-134908289D01*
X140107290Y-135032342D01*
X140015187Y-135181663D01*
X140015186Y-135181666D01*
X139960001Y-135348203D01*
X139960001Y-135348204D01*
X139960000Y-135348204D01*
X139949500Y-135450984D01*
X139949500Y-138950998D01*
X139949501Y-138951015D01*
X139960000Y-139053794D01*
X139960001Y-139053797D01*
X140015185Y-139220329D01*
X140015187Y-139220334D01*
X140107290Y-139369655D01*
X140231344Y-139493709D01*
X140231348Y-139493712D01*
X140376034Y-139582956D01*
X140422759Y-139634904D01*
X140433980Y-139703866D01*
X140406137Y-139767948D01*
X140348068Y-139806804D01*
X140310937Y-139812494D01*
X138289063Y-139812494D01*
X138222024Y-139792809D01*
X138176269Y-139740005D01*
X138166325Y-139670847D01*
X138195350Y-139607291D01*
X138223966Y-139582956D01*
X138309276Y-139530334D01*
X138368655Y-139493710D01*
X138492711Y-139369654D01*
X138584814Y-139220332D01*
X138639999Y-139053795D01*
X138650500Y-138951006D01*
X138650499Y-135450993D01*
X138639999Y-135348203D01*
X138584814Y-135181666D01*
X138492711Y-135032344D01*
X138368655Y-134908288D01*
X138219333Y-134816185D01*
X138052796Y-134761000D01*
X138052794Y-134760999D01*
X137950008Y-134750499D01*
X134450000Y-134750499D01*
X134449983Y-134750500D01*
X134347204Y-134760999D01*
X134347201Y-134761000D01*
X134180669Y-134816184D01*
X134180664Y-134816186D01*
X134031343Y-134908289D01*
X133907290Y-135032342D01*
X133815187Y-135181663D01*
X133815186Y-135181666D01*
X133760001Y-135348203D01*
X133760001Y-135348204D01*
X133760000Y-135348204D01*
X133749500Y-135450984D01*
X133749500Y-138950998D01*
X133749501Y-138951015D01*
X133760000Y-139053794D01*
X133760001Y-139053797D01*
X133815185Y-139220329D01*
X133815187Y-139220334D01*
X133907290Y-139369655D01*
X134031344Y-139493709D01*
X134031348Y-139493712D01*
X134176034Y-139582956D01*
X134222759Y-139634904D01*
X134233980Y-139703866D01*
X134206137Y-139767948D01*
X134148068Y-139806804D01*
X134110937Y-139812494D01*
X132089063Y-139812494D01*
X132022024Y-139792809D01*
X131976269Y-139740005D01*
X131966325Y-139670847D01*
X131995350Y-139607291D01*
X132023966Y-139582956D01*
X132109276Y-139530334D01*
X132168655Y-139493710D01*
X132292711Y-139369654D01*
X132384814Y-139220332D01*
X132439999Y-139053795D01*
X132450500Y-138951006D01*
X132450499Y-135450993D01*
X132439999Y-135348203D01*
X132384814Y-135181666D01*
X132292711Y-135032344D01*
X132168655Y-134908288D01*
X132019333Y-134816185D01*
X131852796Y-134761000D01*
X131852794Y-134760999D01*
X131750008Y-134750499D01*
X128250000Y-134750499D01*
X128249983Y-134750500D01*
X128147204Y-134760999D01*
X128147201Y-134761000D01*
X127980669Y-134816184D01*
X127980664Y-134816186D01*
X127831343Y-134908289D01*
X127707290Y-135032342D01*
X127615187Y-135181663D01*
X127615186Y-135181666D01*
X127560001Y-135348203D01*
X127560001Y-135348204D01*
X127560000Y-135348204D01*
X127549500Y-135450984D01*
X127549500Y-138950998D01*
X127549501Y-138951015D01*
X127560000Y-139053794D01*
X127560001Y-139053797D01*
X127615185Y-139220329D01*
X127615187Y-139220334D01*
X127707290Y-139369655D01*
X127831344Y-139493709D01*
X127831348Y-139493712D01*
X127976034Y-139582956D01*
X128022759Y-139634904D01*
X128033980Y-139703866D01*
X128006137Y-139767948D01*
X127948068Y-139806804D01*
X127910937Y-139812494D01*
X104790057Y-139812494D01*
X104783974Y-139812345D01*
X104764048Y-139811366D01*
X104450076Y-139795941D01*
X104437967Y-139794748D01*
X104241746Y-139765642D01*
X104194547Y-139748339D01*
X101969972Y-138367569D01*
X101935767Y-138336080D01*
X101880903Y-138262104D01*
X101874142Y-138251986D01*
X101860163Y-138228664D01*
X101703848Y-137967865D01*
X101698113Y-137957134D01*
X101645902Y-137846743D01*
X101635687Y-137814124D01*
X101379675Y-136278048D01*
X104339500Y-136278048D01*
X104339500Y-136521951D01*
X104356349Y-136649923D01*
X104371334Y-136763744D01*
X104434456Y-136999320D01*
X104434459Y-136999330D01*
X104527786Y-137224640D01*
X104527791Y-137224651D01*
X104649727Y-137435848D01*
X104649738Y-137435864D01*
X104798199Y-137629343D01*
X104798205Y-137629350D01*
X104970649Y-137801794D01*
X104970655Y-137801799D01*
X105164144Y-137950268D01*
X105164151Y-137950272D01*
X105375348Y-138072208D01*
X105375353Y-138072210D01*
X105375356Y-138072212D01*
X105600679Y-138165544D01*
X105836256Y-138228666D01*
X106078056Y-138260500D01*
X106078063Y-138260500D01*
X106321937Y-138260500D01*
X106321944Y-138260500D01*
X106563744Y-138228666D01*
X106799321Y-138165544D01*
X107024644Y-138072212D01*
X107235856Y-137950268D01*
X107429345Y-137801799D01*
X107601799Y-137629345D01*
X107750268Y-137435856D01*
X107872212Y-137224644D01*
X107965544Y-136999321D01*
X108028666Y-136763744D01*
X108060500Y-136521944D01*
X108060500Y-136278056D01*
X108028666Y-136036256D01*
X107965544Y-135800679D01*
X107872212Y-135575356D01*
X107872210Y-135575353D01*
X107872208Y-135575348D01*
X107750272Y-135364151D01*
X107750268Y-135364144D01*
X107601799Y-135170655D01*
X107601794Y-135170649D01*
X107429350Y-134998205D01*
X107429343Y-134998199D01*
X107235864Y-134849738D01*
X107235862Y-134849736D01*
X107235856Y-134849732D01*
X107235851Y-134849729D01*
X107235848Y-134849727D01*
X107024651Y-134727791D01*
X107024640Y-134727786D01*
X106799330Y-134634459D01*
X106799323Y-134634457D01*
X106799321Y-134634456D01*
X106563744Y-134571334D01*
X106523333Y-134566013D01*
X106321951Y-134539500D01*
X106321944Y-134539500D01*
X106078056Y-134539500D01*
X106078048Y-134539500D01*
X105847896Y-134569801D01*
X105836256Y-134571334D01*
X105600679Y-134634456D01*
X105600669Y-134634459D01*
X105375359Y-134727786D01*
X105375348Y-134727791D01*
X105164151Y-134849727D01*
X105164135Y-134849738D01*
X104970656Y-134998199D01*
X104970649Y-134998205D01*
X104798205Y-135170649D01*
X104798199Y-135170656D01*
X104649738Y-135364135D01*
X104649727Y-135364151D01*
X104527791Y-135575348D01*
X104527786Y-135575359D01*
X104434459Y-135800669D01*
X104434456Y-135800679D01*
X104371335Y-136036253D01*
X104371333Y-136036264D01*
X104339500Y-136278048D01*
X101379675Y-136278048D01*
X101289902Y-135739412D01*
X101288217Y-135718903D01*
X101293021Y-131706379D01*
X114649499Y-131706379D01*
X114649499Y-131893620D01*
X114686024Y-132077243D01*
X114686026Y-132077251D01*
X114757675Y-132250228D01*
X114757680Y-132250237D01*
X114861696Y-132405907D01*
X114861699Y-132405911D01*
X114994087Y-132538299D01*
X114994091Y-132538302D01*
X115149761Y-132642318D01*
X115149767Y-132642321D01*
X115149768Y-132642322D01*
X115322748Y-132713973D01*
X115506378Y-132750499D01*
X115506382Y-132750500D01*
X115506383Y-132750500D01*
X115693616Y-132750500D01*
X115693617Y-132750499D01*
X115877250Y-132713973D01*
X116050230Y-132642322D01*
X116205907Y-132538302D01*
X116338301Y-132405908D01*
X116442321Y-132250231D01*
X116513972Y-132077251D01*
X116550499Y-131893616D01*
X116550499Y-131706384D01*
X116550498Y-131706379D01*
X139389500Y-131706379D01*
X139389500Y-131893620D01*
X139426025Y-132077243D01*
X139426027Y-132077251D01*
X139497676Y-132250228D01*
X139497681Y-132250237D01*
X139601697Y-132405907D01*
X139601700Y-132405911D01*
X139734088Y-132538299D01*
X139734092Y-132538302D01*
X139889762Y-132642318D01*
X139889768Y-132642321D01*
X139889769Y-132642322D01*
X140062749Y-132713973D01*
X140246379Y-132750499D01*
X140246383Y-132750500D01*
X140246384Y-132750500D01*
X140433617Y-132750500D01*
X140433618Y-132750499D01*
X140617251Y-132713973D01*
X140790231Y-132642322D01*
X140945908Y-132538302D01*
X141078302Y-132405908D01*
X141182322Y-132250231D01*
X141253973Y-132077251D01*
X141290500Y-131893616D01*
X141290500Y-131706384D01*
X141290499Y-131706379D01*
X164049500Y-131706379D01*
X164049500Y-131893620D01*
X164086025Y-132077243D01*
X164086027Y-132077251D01*
X164157676Y-132250228D01*
X164157681Y-132250237D01*
X164261697Y-132405907D01*
X164261700Y-132405911D01*
X164394088Y-132538299D01*
X164394092Y-132538302D01*
X164549762Y-132642318D01*
X164549768Y-132642321D01*
X164549769Y-132642322D01*
X164722749Y-132713973D01*
X164906379Y-132750499D01*
X164906383Y-132750500D01*
X164906384Y-132750500D01*
X165093617Y-132750500D01*
X165093618Y-132750499D01*
X165277251Y-132713973D01*
X165450231Y-132642322D01*
X165605908Y-132538302D01*
X165738302Y-132405908D01*
X165842322Y-132250231D01*
X165913973Y-132077251D01*
X165950500Y-131893616D01*
X165950500Y-131706384D01*
X165913973Y-131522749D01*
X165842322Y-131349769D01*
X165842321Y-131349768D01*
X165842318Y-131349762D01*
X165738302Y-131194092D01*
X165738299Y-131194088D01*
X165605911Y-131061700D01*
X165605907Y-131061697D01*
X165450237Y-130957681D01*
X165450228Y-130957676D01*
X165277251Y-130886027D01*
X165277243Y-130886025D01*
X165093620Y-130849500D01*
X165093616Y-130849500D01*
X164906384Y-130849500D01*
X164906379Y-130849500D01*
X164722756Y-130886025D01*
X164722748Y-130886027D01*
X164549771Y-130957676D01*
X164549762Y-130957681D01*
X164394092Y-131061697D01*
X164394088Y-131061700D01*
X164261700Y-131194088D01*
X164261697Y-131194092D01*
X164157681Y-131349762D01*
X164157676Y-131349771D01*
X164086027Y-131522748D01*
X164086025Y-131522756D01*
X164049500Y-131706379D01*
X141290499Y-131706379D01*
X141253973Y-131522749D01*
X141182322Y-131349769D01*
X141182321Y-131349768D01*
X141182318Y-131349762D01*
X141078302Y-131194092D01*
X141078299Y-131194088D01*
X140945911Y-131061700D01*
X140945907Y-131061697D01*
X140790237Y-130957681D01*
X140790228Y-130957676D01*
X140617251Y-130886027D01*
X140617243Y-130886025D01*
X140433620Y-130849500D01*
X140433616Y-130849500D01*
X140246384Y-130849500D01*
X140246379Y-130849500D01*
X140062756Y-130886025D01*
X140062748Y-130886027D01*
X139889771Y-130957676D01*
X139889762Y-130957681D01*
X139734092Y-131061697D01*
X139734088Y-131061700D01*
X139601700Y-131194088D01*
X139601697Y-131194092D01*
X139497681Y-131349762D01*
X139497676Y-131349771D01*
X139426027Y-131522748D01*
X139426025Y-131522756D01*
X139389500Y-131706379D01*
X116550498Y-131706379D01*
X116513972Y-131522749D01*
X116442321Y-131349769D01*
X116442320Y-131349768D01*
X116442317Y-131349762D01*
X116338301Y-131194092D01*
X116338298Y-131194088D01*
X116205910Y-131061700D01*
X116205906Y-131061697D01*
X116050236Y-130957681D01*
X116050227Y-130957676D01*
X115877250Y-130886027D01*
X115877242Y-130886025D01*
X115693619Y-130849500D01*
X115693615Y-130849500D01*
X115506383Y-130849500D01*
X115506378Y-130849500D01*
X115322755Y-130886025D01*
X115322747Y-130886027D01*
X115149770Y-130957676D01*
X115149761Y-130957681D01*
X114994091Y-131061697D01*
X114994087Y-131061700D01*
X114861699Y-131194088D01*
X114861696Y-131194092D01*
X114757680Y-131349762D01*
X114757675Y-131349771D01*
X114686026Y-131522748D01*
X114686024Y-131522756D01*
X114649499Y-131706379D01*
X101293021Y-131706379D01*
X101296613Y-128706379D01*
X126849499Y-128706379D01*
X126849499Y-128893620D01*
X126886024Y-129077243D01*
X126886026Y-129077251D01*
X126957675Y-129250228D01*
X126957680Y-129250237D01*
X127061696Y-129405907D01*
X127061699Y-129405911D01*
X127194087Y-129538299D01*
X127194091Y-129538302D01*
X127349761Y-129642318D01*
X127349767Y-129642321D01*
X127349768Y-129642322D01*
X127522748Y-129713973D01*
X127706378Y-129750499D01*
X127706382Y-129750500D01*
X127706383Y-129750500D01*
X127893616Y-129750500D01*
X127893617Y-129750499D01*
X128077250Y-129713973D01*
X128250230Y-129642322D01*
X128405907Y-129538302D01*
X128538301Y-129405908D01*
X128642321Y-129250231D01*
X128713972Y-129077251D01*
X128750499Y-128893616D01*
X128750499Y-128706384D01*
X128750498Y-128706379D01*
X151589500Y-128706379D01*
X151589500Y-128893620D01*
X151626025Y-129077243D01*
X151626027Y-129077251D01*
X151697676Y-129250228D01*
X151697681Y-129250237D01*
X151801697Y-129405907D01*
X151801700Y-129405911D01*
X151934088Y-129538299D01*
X151934092Y-129538302D01*
X152089762Y-129642318D01*
X152089768Y-129642321D01*
X152089769Y-129642322D01*
X152262749Y-129713973D01*
X152446379Y-129750499D01*
X152446383Y-129750500D01*
X152446384Y-129750500D01*
X152633617Y-129750500D01*
X152633618Y-129750499D01*
X152817251Y-129713973D01*
X152990231Y-129642322D01*
X153145908Y-129538302D01*
X153278302Y-129405908D01*
X153382322Y-129250231D01*
X153453973Y-129077251D01*
X153490500Y-128893616D01*
X153490500Y-128706384D01*
X153490499Y-128706379D01*
X176249500Y-128706379D01*
X176249500Y-128893620D01*
X176286025Y-129077243D01*
X176286027Y-129077251D01*
X176357676Y-129250228D01*
X176357681Y-129250237D01*
X176461697Y-129405907D01*
X176461700Y-129405911D01*
X176594088Y-129538299D01*
X176594092Y-129538302D01*
X176749762Y-129642318D01*
X176749768Y-129642321D01*
X176749769Y-129642322D01*
X176922749Y-129713973D01*
X177106379Y-129750499D01*
X177106383Y-129750500D01*
X177106384Y-129750500D01*
X177293617Y-129750500D01*
X177293618Y-129750499D01*
X177477251Y-129713973D01*
X177650231Y-129642322D01*
X177805908Y-129538302D01*
X177938302Y-129405908D01*
X178042322Y-129250231D01*
X178113973Y-129077251D01*
X178150500Y-128893616D01*
X178150500Y-128706384D01*
X178113973Y-128522749D01*
X178042322Y-128349769D01*
X178042321Y-128349768D01*
X178042318Y-128349762D01*
X177938302Y-128194092D01*
X177938299Y-128194088D01*
X177805911Y-128061700D01*
X177805907Y-128061697D01*
X177650237Y-127957681D01*
X177650228Y-127957676D01*
X177477251Y-127886027D01*
X177477243Y-127886025D01*
X177293620Y-127849500D01*
X177293616Y-127849500D01*
X177106384Y-127849500D01*
X177106379Y-127849500D01*
X176922756Y-127886025D01*
X176922748Y-127886027D01*
X176749771Y-127957676D01*
X176749762Y-127957681D01*
X176594092Y-128061697D01*
X176594088Y-128061700D01*
X176461700Y-128194088D01*
X176461697Y-128194092D01*
X176357681Y-128349762D01*
X176357676Y-128349771D01*
X176286027Y-128522748D01*
X176286025Y-128522756D01*
X176249500Y-128706379D01*
X153490499Y-128706379D01*
X153453973Y-128522749D01*
X153382322Y-128349769D01*
X153382321Y-128349768D01*
X153382318Y-128349762D01*
X153278302Y-128194092D01*
X153278299Y-128194088D01*
X153145911Y-128061700D01*
X153145907Y-128061697D01*
X152990237Y-127957681D01*
X152990228Y-127957676D01*
X152817251Y-127886027D01*
X152817243Y-127886025D01*
X152633620Y-127849500D01*
X152633616Y-127849500D01*
X152446384Y-127849500D01*
X152446379Y-127849500D01*
X152262756Y-127886025D01*
X152262748Y-127886027D01*
X152089771Y-127957676D01*
X152089762Y-127957681D01*
X151934092Y-128061697D01*
X151934088Y-128061700D01*
X151801700Y-128194088D01*
X151801697Y-128194092D01*
X151697681Y-128349762D01*
X151697676Y-128349771D01*
X151626027Y-128522748D01*
X151626025Y-128522756D01*
X151589500Y-128706379D01*
X128750498Y-128706379D01*
X128713972Y-128522749D01*
X128642321Y-128349769D01*
X128642320Y-128349768D01*
X128642317Y-128349762D01*
X128538301Y-128194092D01*
X128538298Y-128194088D01*
X128405910Y-128061700D01*
X128405906Y-128061697D01*
X128250236Y-127957681D01*
X128250227Y-127957676D01*
X128077250Y-127886027D01*
X128077242Y-127886025D01*
X127893619Y-127849500D01*
X127893615Y-127849500D01*
X127706383Y-127849500D01*
X127706378Y-127849500D01*
X127522755Y-127886025D01*
X127522747Y-127886027D01*
X127349770Y-127957676D01*
X127349761Y-127957681D01*
X127194091Y-128061697D01*
X127194087Y-128061700D01*
X127061699Y-128194088D01*
X127061696Y-128194092D01*
X126957680Y-128349762D01*
X126957675Y-128349771D01*
X126886026Y-128522748D01*
X126886024Y-128522756D01*
X126849499Y-128706379D01*
X101296613Y-128706379D01*
X101303317Y-123106379D01*
X110649499Y-123106379D01*
X110649499Y-123293620D01*
X110686024Y-123477243D01*
X110686026Y-123477251D01*
X110757675Y-123650228D01*
X110757680Y-123650237D01*
X110861696Y-123805907D01*
X110861699Y-123805911D01*
X110994087Y-123938299D01*
X110994091Y-123938302D01*
X111149761Y-124042318D01*
X111149767Y-124042321D01*
X111149768Y-124042322D01*
X111322748Y-124113973D01*
X111506378Y-124150499D01*
X111506382Y-124150500D01*
X111506383Y-124150500D01*
X111693616Y-124150500D01*
X111693617Y-124150499D01*
X111877250Y-124113973D01*
X112050230Y-124042322D01*
X112205907Y-123938302D01*
X112338301Y-123805908D01*
X112442321Y-123650231D01*
X112513972Y-123477251D01*
X112550499Y-123293616D01*
X112550499Y-123106384D01*
X112550498Y-123106379D01*
X135389500Y-123106379D01*
X135389500Y-123293620D01*
X135426025Y-123477243D01*
X135426027Y-123477251D01*
X135497676Y-123650228D01*
X135497681Y-123650237D01*
X135601697Y-123805907D01*
X135601700Y-123805911D01*
X135734088Y-123938299D01*
X135734092Y-123938302D01*
X135889762Y-124042318D01*
X135889768Y-124042321D01*
X135889769Y-124042322D01*
X136062749Y-124113973D01*
X136246379Y-124150499D01*
X136246383Y-124150500D01*
X136246384Y-124150500D01*
X136433617Y-124150500D01*
X136433618Y-124150499D01*
X136617251Y-124113973D01*
X136790231Y-124042322D01*
X136945908Y-123938302D01*
X137078302Y-123805908D01*
X137182322Y-123650231D01*
X137253973Y-123477251D01*
X137290500Y-123293616D01*
X137290500Y-123106384D01*
X137290499Y-123106379D01*
X160049500Y-123106379D01*
X160049500Y-123293620D01*
X160086025Y-123477243D01*
X160086027Y-123477251D01*
X160157676Y-123650228D01*
X160157681Y-123650237D01*
X160261697Y-123805907D01*
X160261700Y-123805911D01*
X160394088Y-123938299D01*
X160394092Y-123938302D01*
X160549762Y-124042318D01*
X160549768Y-124042321D01*
X160549769Y-124042322D01*
X160722749Y-124113973D01*
X160906379Y-124150499D01*
X160906383Y-124150500D01*
X160906384Y-124150500D01*
X161093617Y-124150500D01*
X161093618Y-124150499D01*
X161277251Y-124113973D01*
X161450231Y-124042322D01*
X161605908Y-123938302D01*
X161738302Y-123805908D01*
X161842322Y-123650231D01*
X161913973Y-123477251D01*
X161950500Y-123293616D01*
X161950500Y-123106384D01*
X161913973Y-122922749D01*
X161842322Y-122749769D01*
X161842321Y-122749768D01*
X161842318Y-122749762D01*
X161738302Y-122594092D01*
X161738299Y-122594088D01*
X161605911Y-122461700D01*
X161605907Y-122461697D01*
X161450237Y-122357681D01*
X161450228Y-122357676D01*
X161277251Y-122286027D01*
X161277243Y-122286025D01*
X161093620Y-122249500D01*
X161093616Y-122249500D01*
X160906384Y-122249500D01*
X160906379Y-122249500D01*
X160722756Y-122286025D01*
X160722748Y-122286027D01*
X160549771Y-122357676D01*
X160549762Y-122357681D01*
X160394092Y-122461697D01*
X160394088Y-122461700D01*
X160261700Y-122594088D01*
X160261697Y-122594092D01*
X160157681Y-122749762D01*
X160157676Y-122749771D01*
X160086027Y-122922748D01*
X160086025Y-122922756D01*
X160049500Y-123106379D01*
X137290499Y-123106379D01*
X137253973Y-122922749D01*
X137182322Y-122749769D01*
X137182321Y-122749768D01*
X137182318Y-122749762D01*
X137078302Y-122594092D01*
X137078299Y-122594088D01*
X136945911Y-122461700D01*
X136945907Y-122461697D01*
X136790237Y-122357681D01*
X136790228Y-122357676D01*
X136617251Y-122286027D01*
X136617243Y-122286025D01*
X136433620Y-122249500D01*
X136433616Y-122249500D01*
X136246384Y-122249500D01*
X136246379Y-122249500D01*
X136062756Y-122286025D01*
X136062748Y-122286027D01*
X135889771Y-122357676D01*
X135889762Y-122357681D01*
X135734092Y-122461697D01*
X135734088Y-122461700D01*
X135601700Y-122594088D01*
X135601697Y-122594092D01*
X135497681Y-122749762D01*
X135497676Y-122749771D01*
X135426027Y-122922748D01*
X135426025Y-122922756D01*
X135389500Y-123106379D01*
X112550498Y-123106379D01*
X112513972Y-122922749D01*
X112442321Y-122749769D01*
X112442320Y-122749768D01*
X112442317Y-122749762D01*
X112338301Y-122594092D01*
X112338298Y-122594088D01*
X112205910Y-122461700D01*
X112205906Y-122461697D01*
X112050236Y-122357681D01*
X112050227Y-122357676D01*
X111877250Y-122286027D01*
X111877242Y-122286025D01*
X111693619Y-122249500D01*
X111693615Y-122249500D01*
X111506383Y-122249500D01*
X111506378Y-122249500D01*
X111322755Y-122286025D01*
X111322747Y-122286027D01*
X111149770Y-122357676D01*
X111149761Y-122357681D01*
X110994091Y-122461697D01*
X110994087Y-122461700D01*
X110861699Y-122594088D01*
X110861696Y-122594092D01*
X110757680Y-122749762D01*
X110757675Y-122749771D01*
X110686026Y-122922748D01*
X110686024Y-122922756D01*
X110649499Y-123106379D01*
X101303317Y-123106379D01*
X101306190Y-120706379D01*
X116049499Y-120706379D01*
X116049499Y-120893620D01*
X116086024Y-121077243D01*
X116086026Y-121077251D01*
X116157675Y-121250228D01*
X116157680Y-121250237D01*
X116261696Y-121405907D01*
X116261699Y-121405911D01*
X116394087Y-121538299D01*
X116394091Y-121538302D01*
X116549761Y-121642318D01*
X116549767Y-121642321D01*
X116549768Y-121642322D01*
X116722748Y-121713973D01*
X116906378Y-121750499D01*
X116906382Y-121750500D01*
X116906383Y-121750500D01*
X117093616Y-121750500D01*
X117093617Y-121750499D01*
X117277250Y-121713973D01*
X117450230Y-121642322D01*
X117605907Y-121538302D01*
X117738301Y-121405908D01*
X117842321Y-121250231D01*
X117913972Y-121077251D01*
X117950499Y-120893616D01*
X117950499Y-120706384D01*
X117950498Y-120706379D01*
X140789500Y-120706379D01*
X140789500Y-120893620D01*
X140826025Y-121077243D01*
X140826027Y-121077251D01*
X140897676Y-121250228D01*
X140897681Y-121250237D01*
X141001697Y-121405907D01*
X141001700Y-121405911D01*
X141134088Y-121538299D01*
X141134092Y-121538302D01*
X141289762Y-121642318D01*
X141289768Y-121642321D01*
X141289769Y-121642322D01*
X141462749Y-121713973D01*
X141646379Y-121750499D01*
X141646383Y-121750500D01*
X141646384Y-121750500D01*
X141833617Y-121750500D01*
X141833618Y-121750499D01*
X142017251Y-121713973D01*
X142190231Y-121642322D01*
X142345908Y-121538302D01*
X142478302Y-121405908D01*
X142582322Y-121250231D01*
X142653973Y-121077251D01*
X142690500Y-120893616D01*
X142690500Y-120706384D01*
X142690499Y-120706379D01*
X165449500Y-120706379D01*
X165449500Y-120893620D01*
X165486025Y-121077243D01*
X165486027Y-121077251D01*
X165557676Y-121250228D01*
X165557681Y-121250237D01*
X165661697Y-121405907D01*
X165661700Y-121405911D01*
X165794088Y-121538299D01*
X165794092Y-121538302D01*
X165949762Y-121642318D01*
X165949768Y-121642321D01*
X165949769Y-121642322D01*
X166122749Y-121713973D01*
X166306379Y-121750499D01*
X166306383Y-121750500D01*
X166306384Y-121750500D01*
X166493617Y-121750500D01*
X166493618Y-121750499D01*
X166677251Y-121713973D01*
X166850231Y-121642322D01*
X167005908Y-121538302D01*
X167138302Y-121405908D01*
X167242322Y-121250231D01*
X167313973Y-121077251D01*
X167350500Y-120893616D01*
X167350500Y-120706384D01*
X167313973Y-120522749D01*
X167242322Y-120349769D01*
X167242321Y-120349768D01*
X167242318Y-120349762D01*
X167138302Y-120194092D01*
X167138299Y-120194088D01*
X167005911Y-120061700D01*
X167005907Y-120061697D01*
X166850237Y-119957681D01*
X166850228Y-119957676D01*
X166677251Y-119886027D01*
X166677243Y-119886025D01*
X166493620Y-119849500D01*
X166493616Y-119849500D01*
X166306384Y-119849500D01*
X166306379Y-119849500D01*
X166122756Y-119886025D01*
X166122748Y-119886027D01*
X165949771Y-119957676D01*
X165949762Y-119957681D01*
X165794092Y-120061697D01*
X165794088Y-120061700D01*
X165661700Y-120194088D01*
X165661697Y-120194092D01*
X165557681Y-120349762D01*
X165557676Y-120349771D01*
X165486027Y-120522748D01*
X165486025Y-120522756D01*
X165449500Y-120706379D01*
X142690499Y-120706379D01*
X142653973Y-120522749D01*
X142582322Y-120349769D01*
X142582321Y-120349768D01*
X142582318Y-120349762D01*
X142478302Y-120194092D01*
X142478299Y-120194088D01*
X142345911Y-120061700D01*
X142345907Y-120061697D01*
X142190237Y-119957681D01*
X142190228Y-119957676D01*
X142017251Y-119886027D01*
X142017243Y-119886025D01*
X141833620Y-119849500D01*
X141833616Y-119849500D01*
X141646384Y-119849500D01*
X141646379Y-119849500D01*
X141462756Y-119886025D01*
X141462748Y-119886027D01*
X141289771Y-119957676D01*
X141289762Y-119957681D01*
X141134092Y-120061697D01*
X141134088Y-120061700D01*
X141001700Y-120194088D01*
X141001697Y-120194092D01*
X140897681Y-120349762D01*
X140897676Y-120349771D01*
X140826027Y-120522748D01*
X140826025Y-120522756D01*
X140789500Y-120706379D01*
X117950498Y-120706379D01*
X117913972Y-120522749D01*
X117842321Y-120349769D01*
X117842320Y-120349768D01*
X117842317Y-120349762D01*
X117738301Y-120194092D01*
X117738298Y-120194088D01*
X117605910Y-120061700D01*
X117605906Y-120061697D01*
X117450236Y-119957681D01*
X117450227Y-119957676D01*
X117277250Y-119886027D01*
X117277242Y-119886025D01*
X117093619Y-119849500D01*
X117093615Y-119849500D01*
X116906383Y-119849500D01*
X116906378Y-119849500D01*
X116722755Y-119886025D01*
X116722747Y-119886027D01*
X116549770Y-119957676D01*
X116549761Y-119957681D01*
X116394091Y-120061697D01*
X116394087Y-120061700D01*
X116261699Y-120194088D01*
X116261696Y-120194092D01*
X116157680Y-120349762D01*
X116157675Y-120349771D01*
X116086026Y-120522748D01*
X116086024Y-120522756D01*
X116049499Y-120706379D01*
X101306190Y-120706379D01*
X101308585Y-118706379D01*
X117649499Y-118706379D01*
X117649499Y-118893620D01*
X117686024Y-119077243D01*
X117686026Y-119077251D01*
X117757675Y-119250228D01*
X117757680Y-119250237D01*
X117861696Y-119405907D01*
X117861699Y-119405911D01*
X117994087Y-119538299D01*
X117994091Y-119538302D01*
X118149761Y-119642318D01*
X118149767Y-119642321D01*
X118149768Y-119642322D01*
X118322748Y-119713973D01*
X118506378Y-119750499D01*
X118506382Y-119750500D01*
X118506383Y-119750500D01*
X118693616Y-119750500D01*
X118693617Y-119750499D01*
X118877250Y-119713973D01*
X119050230Y-119642322D01*
X119205907Y-119538302D01*
X119338301Y-119405908D01*
X119442321Y-119250231D01*
X119513972Y-119077251D01*
X119550499Y-118893616D01*
X119550499Y-118706384D01*
X119550498Y-118706379D01*
X142389500Y-118706379D01*
X142389500Y-118893620D01*
X142426025Y-119077243D01*
X142426027Y-119077251D01*
X142497676Y-119250228D01*
X142497681Y-119250237D01*
X142601697Y-119405907D01*
X142601700Y-119405911D01*
X142734088Y-119538299D01*
X142734092Y-119538302D01*
X142889762Y-119642318D01*
X142889768Y-119642321D01*
X142889769Y-119642322D01*
X143062749Y-119713973D01*
X143246379Y-119750499D01*
X143246383Y-119750500D01*
X143246384Y-119750500D01*
X143433617Y-119750500D01*
X143433618Y-119750499D01*
X143617251Y-119713973D01*
X143790231Y-119642322D01*
X143945908Y-119538302D01*
X144078302Y-119405908D01*
X144182322Y-119250231D01*
X144253973Y-119077251D01*
X144290500Y-118893616D01*
X144290500Y-118706384D01*
X144290499Y-118706379D01*
X167049500Y-118706379D01*
X167049500Y-118893620D01*
X167086025Y-119077243D01*
X167086027Y-119077251D01*
X167157676Y-119250228D01*
X167157681Y-119250237D01*
X167261697Y-119405907D01*
X167261700Y-119405911D01*
X167394088Y-119538299D01*
X167394092Y-119538302D01*
X167549762Y-119642318D01*
X167549768Y-119642321D01*
X167549769Y-119642322D01*
X167722749Y-119713973D01*
X167906379Y-119750499D01*
X167906383Y-119750500D01*
X167906384Y-119750500D01*
X168093617Y-119750500D01*
X168093618Y-119750499D01*
X168277251Y-119713973D01*
X168450231Y-119642322D01*
X168605908Y-119538302D01*
X168738302Y-119405908D01*
X168842322Y-119250231D01*
X168913973Y-119077251D01*
X168950500Y-118893616D01*
X168950500Y-118706384D01*
X168913973Y-118522749D01*
X168842322Y-118349769D01*
X168842321Y-118349768D01*
X168842318Y-118349762D01*
X168738302Y-118194092D01*
X168738299Y-118194088D01*
X168605911Y-118061700D01*
X168605907Y-118061697D01*
X168450237Y-117957681D01*
X168450228Y-117957676D01*
X168277251Y-117886027D01*
X168277243Y-117886025D01*
X168093620Y-117849500D01*
X168093616Y-117849500D01*
X167906384Y-117849500D01*
X167906379Y-117849500D01*
X167722756Y-117886025D01*
X167722748Y-117886027D01*
X167549771Y-117957676D01*
X167549762Y-117957681D01*
X167394092Y-118061697D01*
X167394088Y-118061700D01*
X167261700Y-118194088D01*
X167261697Y-118194092D01*
X167157681Y-118349762D01*
X167157676Y-118349771D01*
X167086027Y-118522748D01*
X167086025Y-118522756D01*
X167049500Y-118706379D01*
X144290499Y-118706379D01*
X144253973Y-118522749D01*
X144182322Y-118349769D01*
X144182321Y-118349768D01*
X144182318Y-118349762D01*
X144078302Y-118194092D01*
X144078299Y-118194088D01*
X143945911Y-118061700D01*
X143945907Y-118061697D01*
X143790237Y-117957681D01*
X143790228Y-117957676D01*
X143617251Y-117886027D01*
X143617243Y-117886025D01*
X143433620Y-117849500D01*
X143433616Y-117849500D01*
X143246384Y-117849500D01*
X143246379Y-117849500D01*
X143062756Y-117886025D01*
X143062748Y-117886027D01*
X142889771Y-117957676D01*
X142889762Y-117957681D01*
X142734092Y-118061697D01*
X142734088Y-118061700D01*
X142601700Y-118194088D01*
X142601697Y-118194092D01*
X142497681Y-118349762D01*
X142497676Y-118349771D01*
X142426027Y-118522748D01*
X142426025Y-118522756D01*
X142389500Y-118706379D01*
X119550498Y-118706379D01*
X119513972Y-118522749D01*
X119442321Y-118349769D01*
X119442320Y-118349768D01*
X119442317Y-118349762D01*
X119338301Y-118194092D01*
X119338298Y-118194088D01*
X119205910Y-118061700D01*
X119205906Y-118061697D01*
X119050236Y-117957681D01*
X119050227Y-117957676D01*
X118877250Y-117886027D01*
X118877242Y-117886025D01*
X118693619Y-117849500D01*
X118693615Y-117849500D01*
X118506383Y-117849500D01*
X118506378Y-117849500D01*
X118322755Y-117886025D01*
X118322747Y-117886027D01*
X118149770Y-117957676D01*
X118149761Y-117957681D01*
X117994091Y-118061697D01*
X117994087Y-118061700D01*
X117861699Y-118194088D01*
X117861696Y-118194092D01*
X117757680Y-118349762D01*
X117757675Y-118349771D01*
X117686026Y-118522748D01*
X117686024Y-118522756D01*
X117649499Y-118706379D01*
X101308585Y-118706379D01*
X101310740Y-116906379D01*
X113649499Y-116906379D01*
X113649499Y-117093620D01*
X113686024Y-117277243D01*
X113686026Y-117277251D01*
X113757675Y-117450228D01*
X113757680Y-117450237D01*
X113861696Y-117605907D01*
X113861699Y-117605911D01*
X113994087Y-117738299D01*
X113994091Y-117738302D01*
X114149761Y-117842318D01*
X114149767Y-117842321D01*
X114149768Y-117842322D01*
X114322748Y-117913973D01*
X114488320Y-117946907D01*
X114506378Y-117950499D01*
X114506382Y-117950500D01*
X114506383Y-117950500D01*
X114693616Y-117950500D01*
X114693617Y-117950499D01*
X114877250Y-117913973D01*
X115050230Y-117842322D01*
X115205907Y-117738302D01*
X115338301Y-117605908D01*
X115442321Y-117450231D01*
X115513972Y-117277251D01*
X115519913Y-117247379D01*
X124325499Y-117247379D01*
X124325499Y-117434620D01*
X124362024Y-117618243D01*
X124362026Y-117618251D01*
X124433675Y-117791228D01*
X124433680Y-117791237D01*
X124537696Y-117946907D01*
X124537699Y-117946911D01*
X124670087Y-118079299D01*
X124670091Y-118079302D01*
X124825761Y-118183318D01*
X124825767Y-118183321D01*
X124825768Y-118183322D01*
X124998748Y-118254973D01*
X125182378Y-118291499D01*
X125182382Y-118291500D01*
X125182383Y-118291500D01*
X125369616Y-118291500D01*
X125369617Y-118291499D01*
X125553250Y-118254973D01*
X125726230Y-118183322D01*
X125881907Y-118079302D01*
X126014301Y-117946908D01*
X126118321Y-117791231D01*
X126189972Y-117618251D01*
X126226499Y-117434616D01*
X126226499Y-117247384D01*
X126189972Y-117063749D01*
X126124787Y-116906379D01*
X138389500Y-116906379D01*
X138389500Y-117093620D01*
X138426025Y-117277243D01*
X138426027Y-117277251D01*
X138497676Y-117450228D01*
X138497681Y-117450237D01*
X138601697Y-117605907D01*
X138601700Y-117605911D01*
X138734088Y-117738299D01*
X138734092Y-117738302D01*
X138889762Y-117842318D01*
X138889768Y-117842321D01*
X138889769Y-117842322D01*
X139062749Y-117913973D01*
X139228321Y-117946907D01*
X139246379Y-117950499D01*
X139246383Y-117950500D01*
X139246384Y-117950500D01*
X139433617Y-117950500D01*
X139433618Y-117950499D01*
X139617251Y-117913973D01*
X139790231Y-117842322D01*
X139945908Y-117738302D01*
X140078302Y-117605908D01*
X140182322Y-117450231D01*
X140253973Y-117277251D01*
X140290500Y-117093616D01*
X140290500Y-116906384D01*
X140290499Y-116906379D01*
X152299500Y-116906379D01*
X152299500Y-117093620D01*
X152336025Y-117277243D01*
X152336027Y-117277251D01*
X152407676Y-117450228D01*
X152407681Y-117450237D01*
X152511697Y-117605907D01*
X152511700Y-117605911D01*
X152644088Y-117738299D01*
X152644092Y-117738302D01*
X152799762Y-117842318D01*
X152799768Y-117842321D01*
X152799769Y-117842322D01*
X152972749Y-117913973D01*
X153138321Y-117946907D01*
X153156379Y-117950499D01*
X153156383Y-117950500D01*
X153156384Y-117950500D01*
X153343617Y-117950500D01*
X153343618Y-117950499D01*
X153527251Y-117913973D01*
X153700231Y-117842322D01*
X153855908Y-117738302D01*
X153988302Y-117605908D01*
X154092322Y-117450231D01*
X154163973Y-117277251D01*
X154200500Y-117093616D01*
X154200500Y-116906384D01*
X154200499Y-116906379D01*
X163049500Y-116906379D01*
X163049500Y-117093620D01*
X163086025Y-117277243D01*
X163086027Y-117277251D01*
X163157676Y-117450228D01*
X163157681Y-117450237D01*
X163261697Y-117605907D01*
X163261700Y-117605911D01*
X163394088Y-117738299D01*
X163394092Y-117738302D01*
X163549762Y-117842318D01*
X163549768Y-117842321D01*
X163549769Y-117842322D01*
X163722749Y-117913973D01*
X163888321Y-117946907D01*
X163906379Y-117950499D01*
X163906383Y-117950500D01*
X163906384Y-117950500D01*
X164093617Y-117950500D01*
X164093618Y-117950499D01*
X164277251Y-117913973D01*
X164450231Y-117842322D01*
X164605908Y-117738302D01*
X164738302Y-117605908D01*
X164842322Y-117450231D01*
X164913973Y-117277251D01*
X164950500Y-117093616D01*
X164950500Y-116906384D01*
X164913973Y-116722749D01*
X164842322Y-116549769D01*
X164842321Y-116549768D01*
X164842318Y-116549762D01*
X164738302Y-116394092D01*
X164738299Y-116394088D01*
X164605911Y-116261700D01*
X164605907Y-116261697D01*
X164450237Y-116157681D01*
X164450228Y-116157676D01*
X164277251Y-116086027D01*
X164277243Y-116086025D01*
X164093620Y-116049500D01*
X164093616Y-116049500D01*
X163906384Y-116049500D01*
X163906379Y-116049500D01*
X163722756Y-116086025D01*
X163722748Y-116086027D01*
X163549771Y-116157676D01*
X163549762Y-116157681D01*
X163394092Y-116261697D01*
X163394088Y-116261700D01*
X163261700Y-116394088D01*
X163261697Y-116394092D01*
X163157681Y-116549762D01*
X163157676Y-116549771D01*
X163086027Y-116722748D01*
X163086025Y-116722756D01*
X163049500Y-116906379D01*
X154200499Y-116906379D01*
X154163973Y-116722749D01*
X154092322Y-116549769D01*
X154092321Y-116549768D01*
X154092318Y-116549762D01*
X153988302Y-116394092D01*
X153988299Y-116394088D01*
X153855911Y-116261700D01*
X153855907Y-116261697D01*
X153700237Y-116157681D01*
X153700228Y-116157676D01*
X153527251Y-116086027D01*
X153527243Y-116086025D01*
X153343620Y-116049500D01*
X153343616Y-116049500D01*
X153156384Y-116049500D01*
X153156379Y-116049500D01*
X152972756Y-116086025D01*
X152972748Y-116086027D01*
X152799771Y-116157676D01*
X152799762Y-116157681D01*
X152644092Y-116261697D01*
X152644088Y-116261700D01*
X152511700Y-116394088D01*
X152511697Y-116394092D01*
X152407681Y-116549762D01*
X152407676Y-116549771D01*
X152336027Y-116722748D01*
X152336025Y-116722756D01*
X152299500Y-116906379D01*
X140290499Y-116906379D01*
X140253973Y-116722749D01*
X140182322Y-116549769D01*
X140182321Y-116549768D01*
X140182318Y-116549762D01*
X140078302Y-116394092D01*
X140078299Y-116394088D01*
X139945911Y-116261700D01*
X139945907Y-116261697D01*
X139790237Y-116157681D01*
X139790228Y-116157676D01*
X139617251Y-116086027D01*
X139617243Y-116086025D01*
X139433620Y-116049500D01*
X139433616Y-116049500D01*
X139246384Y-116049500D01*
X139246379Y-116049500D01*
X139062756Y-116086025D01*
X139062748Y-116086027D01*
X138889771Y-116157676D01*
X138889762Y-116157681D01*
X138734092Y-116261697D01*
X138734088Y-116261700D01*
X138601700Y-116394088D01*
X138601697Y-116394092D01*
X138497681Y-116549762D01*
X138497676Y-116549771D01*
X138426027Y-116722748D01*
X138426025Y-116722756D01*
X138389500Y-116906379D01*
X126124787Y-116906379D01*
X126118324Y-116890775D01*
X126118317Y-116890762D01*
X126014301Y-116735092D01*
X126014298Y-116735088D01*
X125881910Y-116602700D01*
X125881906Y-116602697D01*
X125726236Y-116498681D01*
X125726227Y-116498676D01*
X125553250Y-116427027D01*
X125553242Y-116427025D01*
X125369619Y-116390500D01*
X125369615Y-116390500D01*
X125182383Y-116390500D01*
X125182378Y-116390500D01*
X124998755Y-116427025D01*
X124998747Y-116427027D01*
X124825770Y-116498676D01*
X124825761Y-116498681D01*
X124670091Y-116602697D01*
X124670087Y-116602700D01*
X124537699Y-116735088D01*
X124537696Y-116735092D01*
X124433680Y-116890762D01*
X124433675Y-116890771D01*
X124362026Y-117063748D01*
X124362024Y-117063756D01*
X124325499Y-117247379D01*
X115519913Y-117247379D01*
X115520394Y-117244963D01*
X115525937Y-117217101D01*
X115550498Y-117093620D01*
X115550499Y-117093617D01*
X115550499Y-116906383D01*
X115550498Y-116906379D01*
X115513973Y-116722756D01*
X115513972Y-116722749D01*
X115442321Y-116549769D01*
X115442320Y-116549768D01*
X115442317Y-116549762D01*
X115338301Y-116394092D01*
X115338298Y-116394088D01*
X115205910Y-116261700D01*
X115205906Y-116261697D01*
X115050236Y-116157681D01*
X115050227Y-116157676D01*
X114877250Y-116086027D01*
X114877242Y-116086025D01*
X114693619Y-116049500D01*
X114693615Y-116049500D01*
X114506383Y-116049500D01*
X114506378Y-116049500D01*
X114322755Y-116086025D01*
X114322747Y-116086027D01*
X114149770Y-116157676D01*
X114149761Y-116157681D01*
X113994091Y-116261697D01*
X113994087Y-116261700D01*
X113861699Y-116394088D01*
X113861696Y-116394092D01*
X113757680Y-116549762D01*
X113757675Y-116549771D01*
X113686026Y-116722748D01*
X113686024Y-116722756D01*
X113649499Y-116906379D01*
X101310740Y-116906379D01*
X101317127Y-111571379D01*
X105649499Y-111571379D01*
X105649499Y-111758620D01*
X105686024Y-111942243D01*
X105686026Y-111942251D01*
X105757675Y-112115228D01*
X105757680Y-112115237D01*
X105861696Y-112270907D01*
X105861699Y-112270911D01*
X105994087Y-112403299D01*
X105994091Y-112403302D01*
X106149761Y-112507318D01*
X106149767Y-112507321D01*
X106149768Y-112507322D01*
X106322748Y-112578973D01*
X106506378Y-112615499D01*
X106506382Y-112615500D01*
X106506383Y-112615500D01*
X106693616Y-112615500D01*
X106693617Y-112615499D01*
X106877250Y-112578973D01*
X107050230Y-112507322D01*
X107205907Y-112403302D01*
X107338301Y-112270908D01*
X107442321Y-112115231D01*
X107513972Y-111942251D01*
X107550499Y-111758616D01*
X107550499Y-111571384D01*
X107537569Y-111506379D01*
X124449499Y-111506379D01*
X124449499Y-111693620D01*
X124486024Y-111877243D01*
X124486026Y-111877251D01*
X124557675Y-112050228D01*
X124557680Y-112050237D01*
X124661696Y-112205907D01*
X124661699Y-112205911D01*
X124794087Y-112338299D01*
X124794091Y-112338302D01*
X124949761Y-112442318D01*
X124949767Y-112442321D01*
X124949768Y-112442322D01*
X125122748Y-112513973D01*
X125306378Y-112550499D01*
X125306382Y-112550500D01*
X125306383Y-112550500D01*
X125493616Y-112550500D01*
X125493617Y-112550499D01*
X125677250Y-112513973D01*
X125850230Y-112442322D01*
X126005907Y-112338302D01*
X126138301Y-112205908D01*
X126242321Y-112050231D01*
X126313972Y-111877251D01*
X126350499Y-111693616D01*
X126350499Y-111571379D01*
X130389500Y-111571379D01*
X130389500Y-111758620D01*
X130426025Y-111942243D01*
X130426027Y-111942251D01*
X130497676Y-112115228D01*
X130497681Y-112115237D01*
X130601697Y-112270907D01*
X130601700Y-112270911D01*
X130734088Y-112403299D01*
X130734092Y-112403302D01*
X130889762Y-112507318D01*
X130889768Y-112507321D01*
X130889769Y-112507322D01*
X131062749Y-112578973D01*
X131246379Y-112615499D01*
X131246383Y-112615500D01*
X131246384Y-112615500D01*
X131433617Y-112615500D01*
X131433618Y-112615499D01*
X131617251Y-112578973D01*
X131790231Y-112507322D01*
X131945908Y-112403302D01*
X132078302Y-112270908D01*
X132182322Y-112115231D01*
X132253973Y-111942251D01*
X132290500Y-111758616D01*
X132290500Y-111571384D01*
X132277570Y-111506379D01*
X149189500Y-111506379D01*
X149189500Y-111693620D01*
X149226025Y-111877243D01*
X149226027Y-111877251D01*
X149297676Y-112050228D01*
X149297681Y-112050237D01*
X149401697Y-112205907D01*
X149401700Y-112205911D01*
X149534088Y-112338299D01*
X149534092Y-112338302D01*
X149689762Y-112442318D01*
X149689768Y-112442321D01*
X149689769Y-112442322D01*
X149862749Y-112513973D01*
X150046379Y-112550499D01*
X150046383Y-112550500D01*
X150046384Y-112550500D01*
X150233617Y-112550500D01*
X150233618Y-112550499D01*
X150417251Y-112513973D01*
X150590231Y-112442322D01*
X150745908Y-112338302D01*
X150878302Y-112205908D01*
X150982322Y-112050231D01*
X151053973Y-111877251D01*
X151090500Y-111693616D01*
X151090500Y-111571379D01*
X155049500Y-111571379D01*
X155049500Y-111758620D01*
X155086025Y-111942243D01*
X155086027Y-111942251D01*
X155157676Y-112115228D01*
X155157681Y-112115237D01*
X155261697Y-112270907D01*
X155261700Y-112270911D01*
X155394088Y-112403299D01*
X155394092Y-112403302D01*
X155549762Y-112507318D01*
X155549768Y-112507321D01*
X155549769Y-112507322D01*
X155722749Y-112578973D01*
X155906379Y-112615499D01*
X155906383Y-112615500D01*
X155906384Y-112615500D01*
X156093617Y-112615500D01*
X156093618Y-112615499D01*
X156277251Y-112578973D01*
X156450231Y-112507322D01*
X156605908Y-112403302D01*
X156738302Y-112270908D01*
X156842322Y-112115231D01*
X156913973Y-111942251D01*
X156950500Y-111758616D01*
X156950500Y-111571384D01*
X156937570Y-111506379D01*
X173849500Y-111506379D01*
X173849500Y-111693620D01*
X173886025Y-111877243D01*
X173886027Y-111877251D01*
X173957676Y-112050228D01*
X173957681Y-112050237D01*
X174061697Y-112205907D01*
X174061700Y-112205911D01*
X174194088Y-112338299D01*
X174194092Y-112338302D01*
X174349762Y-112442318D01*
X174349768Y-112442321D01*
X174349769Y-112442322D01*
X174522749Y-112513973D01*
X174706379Y-112550499D01*
X174706383Y-112550500D01*
X174706384Y-112550500D01*
X174893617Y-112550500D01*
X174893618Y-112550499D01*
X175077251Y-112513973D01*
X175250231Y-112442322D01*
X175405908Y-112338302D01*
X175538302Y-112205908D01*
X175642322Y-112050231D01*
X175713973Y-111877251D01*
X175750500Y-111693616D01*
X175750500Y-111506384D01*
X175713973Y-111322749D01*
X175642322Y-111149769D01*
X175642321Y-111149768D01*
X175642318Y-111149762D01*
X175538302Y-110994092D01*
X175538299Y-110994088D01*
X175405911Y-110861700D01*
X175405907Y-110861697D01*
X175250237Y-110757681D01*
X175250228Y-110757676D01*
X175077251Y-110686027D01*
X175077243Y-110686025D01*
X174893620Y-110649500D01*
X174893616Y-110649500D01*
X174706384Y-110649500D01*
X174706379Y-110649500D01*
X174522756Y-110686025D01*
X174522748Y-110686027D01*
X174349771Y-110757676D01*
X174349762Y-110757681D01*
X174194092Y-110861697D01*
X174194088Y-110861700D01*
X174061700Y-110994088D01*
X174061697Y-110994092D01*
X173957681Y-111149762D01*
X173957676Y-111149771D01*
X173886027Y-111322748D01*
X173886025Y-111322756D01*
X173849500Y-111506379D01*
X156937570Y-111506379D01*
X156913973Y-111387749D01*
X156842322Y-111214769D01*
X156842321Y-111214768D01*
X156842318Y-111214762D01*
X156738302Y-111059092D01*
X156738299Y-111059088D01*
X156605911Y-110926700D01*
X156605907Y-110926697D01*
X156450237Y-110822681D01*
X156450228Y-110822676D01*
X156277251Y-110751027D01*
X156277243Y-110751025D01*
X156093620Y-110714500D01*
X156093616Y-110714500D01*
X155906384Y-110714500D01*
X155906379Y-110714500D01*
X155722756Y-110751025D01*
X155722748Y-110751027D01*
X155549771Y-110822676D01*
X155549762Y-110822681D01*
X155394092Y-110926697D01*
X155394088Y-110926700D01*
X155261700Y-111059088D01*
X155261697Y-111059092D01*
X155157681Y-111214762D01*
X155157676Y-111214771D01*
X155086027Y-111387748D01*
X155086025Y-111387756D01*
X155049500Y-111571379D01*
X151090500Y-111571379D01*
X151090500Y-111506384D01*
X151053973Y-111322749D01*
X150982322Y-111149769D01*
X150982321Y-111149768D01*
X150982318Y-111149762D01*
X150878302Y-110994092D01*
X150878299Y-110994088D01*
X150745911Y-110861700D01*
X150745907Y-110861697D01*
X150590237Y-110757681D01*
X150590228Y-110757676D01*
X150417251Y-110686027D01*
X150417243Y-110686025D01*
X150233620Y-110649500D01*
X150233616Y-110649500D01*
X150046384Y-110649500D01*
X150046379Y-110649500D01*
X149862756Y-110686025D01*
X149862748Y-110686027D01*
X149689771Y-110757676D01*
X149689762Y-110757681D01*
X149534092Y-110861697D01*
X149534088Y-110861700D01*
X149401700Y-110994088D01*
X149401697Y-110994092D01*
X149297681Y-111149762D01*
X149297676Y-111149771D01*
X149226027Y-111322748D01*
X149226025Y-111322756D01*
X149189500Y-111506379D01*
X132277570Y-111506379D01*
X132253973Y-111387749D01*
X132182322Y-111214769D01*
X132182321Y-111214768D01*
X132182318Y-111214762D01*
X132078302Y-111059092D01*
X132078299Y-111059088D01*
X131945911Y-110926700D01*
X131945907Y-110926697D01*
X131790237Y-110822681D01*
X131790228Y-110822676D01*
X131617251Y-110751027D01*
X131617243Y-110751025D01*
X131433620Y-110714500D01*
X131433616Y-110714500D01*
X131246384Y-110714500D01*
X131246379Y-110714500D01*
X131062756Y-110751025D01*
X131062748Y-110751027D01*
X130889771Y-110822676D01*
X130889762Y-110822681D01*
X130734092Y-110926697D01*
X130734088Y-110926700D01*
X130601700Y-111059088D01*
X130601697Y-111059092D01*
X130497681Y-111214762D01*
X130497676Y-111214771D01*
X130426027Y-111387748D01*
X130426025Y-111387756D01*
X130389500Y-111571379D01*
X126350499Y-111571379D01*
X126350499Y-111506384D01*
X126313972Y-111322749D01*
X126242321Y-111149769D01*
X126242320Y-111149768D01*
X126242317Y-111149762D01*
X126138301Y-110994092D01*
X126138298Y-110994088D01*
X126005910Y-110861700D01*
X126005906Y-110861697D01*
X125850236Y-110757681D01*
X125850227Y-110757676D01*
X125677250Y-110686027D01*
X125677242Y-110686025D01*
X125493619Y-110649500D01*
X125493615Y-110649500D01*
X125306383Y-110649500D01*
X125306378Y-110649500D01*
X125122755Y-110686025D01*
X125122747Y-110686027D01*
X124949770Y-110757676D01*
X124949761Y-110757681D01*
X124794091Y-110861697D01*
X124794087Y-110861700D01*
X124661699Y-110994088D01*
X124661696Y-110994092D01*
X124557680Y-111149762D01*
X124557675Y-111149771D01*
X124486026Y-111322748D01*
X124486024Y-111322756D01*
X124449499Y-111506379D01*
X107537569Y-111506379D01*
X107513972Y-111387749D01*
X107442321Y-111214769D01*
X107442320Y-111214768D01*
X107442317Y-111214762D01*
X107338301Y-111059092D01*
X107338298Y-111059088D01*
X107205910Y-110926700D01*
X107205906Y-110926697D01*
X107050236Y-110822681D01*
X107050227Y-110822676D01*
X106877250Y-110751027D01*
X106877242Y-110751025D01*
X106693619Y-110714500D01*
X106693615Y-110714500D01*
X106506383Y-110714500D01*
X106506378Y-110714500D01*
X106322755Y-110751025D01*
X106322747Y-110751027D01*
X106149770Y-110822676D01*
X106149761Y-110822681D01*
X105994091Y-110926697D01*
X105994087Y-110926700D01*
X105861699Y-111059088D01*
X105861696Y-111059092D01*
X105757680Y-111214762D01*
X105757675Y-111214771D01*
X105686026Y-111387748D01*
X105686024Y-111387756D01*
X105649499Y-111571379D01*
X101317127Y-111571379D01*
X101321024Y-108316228D01*
X113749500Y-108316228D01*
X113749500Y-108483771D01*
X113782182Y-108648074D01*
X113782184Y-108648082D01*
X113846295Y-108802860D01*
X113939373Y-108942162D01*
X114057837Y-109060626D01*
X114150494Y-109122537D01*
X114197137Y-109153703D01*
X114351918Y-109217816D01*
X114516228Y-109250499D01*
X114516232Y-109250500D01*
X114516233Y-109250500D01*
X114683768Y-109250500D01*
X114683769Y-109250499D01*
X114848082Y-109217816D01*
X115002863Y-109153703D01*
X115142162Y-109060626D01*
X115155215Y-109047572D01*
X115216533Y-109014089D01*
X115278904Y-109016597D01*
X115282903Y-109017810D01*
X115282917Y-109017816D01*
X115282931Y-109017818D01*
X115282932Y-109017819D01*
X115447227Y-109050499D01*
X115447231Y-109050500D01*
X115447232Y-109050500D01*
X115614767Y-109050500D01*
X115614768Y-109050499D01*
X115779081Y-109017816D01*
X115933862Y-108953703D01*
X116073161Y-108860626D01*
X116191625Y-108742162D01*
X116284702Y-108602863D01*
X116348815Y-108448082D01*
X116375042Y-108316228D01*
X126749500Y-108316228D01*
X126749500Y-108483771D01*
X126782182Y-108648074D01*
X126782184Y-108648082D01*
X126846295Y-108802860D01*
X126939373Y-108942162D01*
X127057837Y-109060626D01*
X127150494Y-109122537D01*
X127197137Y-109153703D01*
X127351918Y-109217816D01*
X127516228Y-109250499D01*
X127516232Y-109250500D01*
X127516233Y-109250500D01*
X127683768Y-109250500D01*
X127683769Y-109250499D01*
X127848082Y-109217816D01*
X128002863Y-109153703D01*
X128066945Y-109110884D01*
X128133620Y-109090006D01*
X128201001Y-109108490D01*
X128223516Y-109126305D01*
X128257837Y-109160626D01*
X128343430Y-109217817D01*
X128397137Y-109253703D01*
X128551918Y-109317816D01*
X128716228Y-109350499D01*
X128716232Y-109350500D01*
X128716233Y-109350500D01*
X128883768Y-109350500D01*
X128883769Y-109350499D01*
X129048082Y-109317816D01*
X129202863Y-109253703D01*
X129342162Y-109160626D01*
X129460626Y-109042162D01*
X129553703Y-108902863D01*
X129617816Y-108748082D01*
X129650500Y-108583767D01*
X129650500Y-108516228D01*
X145949500Y-108516228D01*
X145949500Y-108683771D01*
X145982182Y-108848074D01*
X145982184Y-108848082D01*
X146046295Y-109002860D01*
X146139373Y-109142162D01*
X146257837Y-109260626D01*
X146343430Y-109317817D01*
X146397137Y-109353703D01*
X146551918Y-109417816D01*
X146716228Y-109450499D01*
X146716232Y-109450500D01*
X146716233Y-109450500D01*
X146883768Y-109450500D01*
X146883769Y-109450499D01*
X147048082Y-109417816D01*
X147202863Y-109353703D01*
X147342162Y-109260626D01*
X147460626Y-109142162D01*
X147553703Y-109002863D01*
X147617816Y-108848082D01*
X147650500Y-108683767D01*
X147650500Y-108516233D01*
X147617816Y-108351918D01*
X147553703Y-108197137D01*
X147522537Y-108150494D01*
X147460626Y-108057837D01*
X147342162Y-107939373D01*
X147292783Y-107906379D01*
X158849500Y-107906379D01*
X158849500Y-108093620D01*
X158886025Y-108277243D01*
X158886027Y-108277251D01*
X158957676Y-108450228D01*
X158957681Y-108450237D01*
X159061697Y-108605907D01*
X159061700Y-108605911D01*
X159194088Y-108738299D01*
X159194092Y-108738302D01*
X159349762Y-108842318D01*
X159349768Y-108842321D01*
X159349769Y-108842322D01*
X159522749Y-108913973D01*
X159664466Y-108942162D01*
X159706379Y-108950499D01*
X159706383Y-108950500D01*
X159706384Y-108950500D01*
X159893617Y-108950500D01*
X159893618Y-108950499D01*
X160077251Y-108913973D01*
X160250231Y-108842322D01*
X160405908Y-108738302D01*
X160538302Y-108605908D01*
X160642322Y-108450231D01*
X160713973Y-108277251D01*
X160750500Y-108093616D01*
X160750500Y-107906384D01*
X160713973Y-107722749D01*
X160642322Y-107549769D01*
X160642321Y-107549768D01*
X160642318Y-107549762D01*
X160538302Y-107394092D01*
X160538299Y-107394088D01*
X160405911Y-107261700D01*
X160405907Y-107261697D01*
X160250237Y-107157681D01*
X160250228Y-107157676D01*
X160077251Y-107086027D01*
X160077243Y-107086025D01*
X159893620Y-107049500D01*
X159893616Y-107049500D01*
X159706384Y-107049500D01*
X159706379Y-107049500D01*
X159522756Y-107086025D01*
X159522748Y-107086027D01*
X159349771Y-107157676D01*
X159349762Y-107157681D01*
X159194092Y-107261697D01*
X159194088Y-107261700D01*
X159061700Y-107394088D01*
X159061697Y-107394092D01*
X158957681Y-107549762D01*
X158957676Y-107549771D01*
X158886027Y-107722748D01*
X158886025Y-107722756D01*
X158849500Y-107906379D01*
X147292783Y-107906379D01*
X147202860Y-107846295D01*
X147048082Y-107782184D01*
X147048074Y-107782182D01*
X146883771Y-107749500D01*
X146883767Y-107749500D01*
X146716233Y-107749500D01*
X146716228Y-107749500D01*
X146551925Y-107782182D01*
X146551917Y-107782184D01*
X146397139Y-107846295D01*
X146257837Y-107939373D01*
X146139373Y-108057837D01*
X146046295Y-108197139D01*
X145982184Y-108351917D01*
X145982182Y-108351925D01*
X145949500Y-108516228D01*
X129650500Y-108516228D01*
X129650500Y-108416233D01*
X129617816Y-108251918D01*
X129561613Y-108116233D01*
X129553704Y-108097139D01*
X129460626Y-107957837D01*
X129342162Y-107839373D01*
X129202860Y-107746295D01*
X129048082Y-107682184D01*
X129048074Y-107682182D01*
X128883771Y-107649500D01*
X128883767Y-107649500D01*
X128716233Y-107649500D01*
X128716228Y-107649500D01*
X128551925Y-107682182D01*
X128551917Y-107682184D01*
X128397140Y-107746295D01*
X128333054Y-107789116D01*
X128266377Y-107809993D01*
X128198997Y-107791508D01*
X128176483Y-107773694D01*
X128142162Y-107739373D01*
X128002860Y-107646295D01*
X127848082Y-107582184D01*
X127848074Y-107582182D01*
X127683771Y-107549500D01*
X127683767Y-107549500D01*
X127516233Y-107549500D01*
X127516228Y-107549500D01*
X127351925Y-107582182D01*
X127351917Y-107582184D01*
X127197139Y-107646295D01*
X127057837Y-107739373D01*
X126939373Y-107857837D01*
X126846295Y-107997139D01*
X126782184Y-108151917D01*
X126782182Y-108151925D01*
X126749500Y-108316228D01*
X116375042Y-108316228D01*
X116381499Y-108283767D01*
X116381499Y-108116233D01*
X116348815Y-107951918D01*
X116284702Y-107797137D01*
X116235002Y-107722756D01*
X116191625Y-107657837D01*
X116073161Y-107539373D01*
X115933859Y-107446295D01*
X115779081Y-107382184D01*
X115779073Y-107382182D01*
X115614770Y-107349500D01*
X115614766Y-107349500D01*
X115447232Y-107349500D01*
X115447227Y-107349500D01*
X115282924Y-107382182D01*
X115282916Y-107382184D01*
X115128138Y-107446295D01*
X114988840Y-107539371D01*
X114975782Y-107552429D01*
X114914458Y-107585912D01*
X114852102Y-107583404D01*
X114848074Y-107582181D01*
X114683771Y-107549500D01*
X114683767Y-107549500D01*
X114516233Y-107549500D01*
X114516228Y-107549500D01*
X114351925Y-107582182D01*
X114351917Y-107582184D01*
X114197139Y-107646295D01*
X114057837Y-107739373D01*
X113939373Y-107857837D01*
X113846295Y-107997139D01*
X113782184Y-108151917D01*
X113782182Y-108151925D01*
X113749500Y-108316228D01*
X101321024Y-108316228D01*
X101322581Y-107016228D01*
X135649500Y-107016228D01*
X135649500Y-107183771D01*
X135682182Y-107348074D01*
X135682184Y-107348082D01*
X135746295Y-107502860D01*
X135839373Y-107642162D01*
X135957837Y-107760626D01*
X136050494Y-107822537D01*
X136097137Y-107853703D01*
X136097138Y-107853703D01*
X136097139Y-107853704D01*
X136132201Y-107868227D01*
X136251918Y-107917816D01*
X136416228Y-107950499D01*
X136416232Y-107950500D01*
X136416233Y-107950500D01*
X136583768Y-107950500D01*
X136583769Y-107950499D01*
X136748082Y-107917816D01*
X136902863Y-107853703D01*
X137042162Y-107760626D01*
X137160626Y-107642162D01*
X137253703Y-107502863D01*
X137317816Y-107348082D01*
X137350500Y-107183767D01*
X137350500Y-107016233D01*
X137317816Y-106851918D01*
X137253703Y-106697137D01*
X137161821Y-106559626D01*
X137160626Y-106557837D01*
X137042162Y-106439373D01*
X136902860Y-106346295D01*
X136748082Y-106282184D01*
X136748074Y-106282182D01*
X136583771Y-106249500D01*
X136583767Y-106249500D01*
X136416233Y-106249500D01*
X136416228Y-106249500D01*
X136251925Y-106282182D01*
X136251917Y-106282184D01*
X136097139Y-106346295D01*
X135957837Y-106439373D01*
X135839373Y-106557837D01*
X135746295Y-106697139D01*
X135682184Y-106851917D01*
X135682182Y-106851925D01*
X135649500Y-107016228D01*
X101322581Y-107016228D01*
X101326504Y-103739373D01*
X101326532Y-103716228D01*
X116749500Y-103716228D01*
X116749500Y-103883771D01*
X116782182Y-104048074D01*
X116782184Y-104048082D01*
X116846295Y-104202860D01*
X116939373Y-104342162D01*
X117057837Y-104460626D01*
X117150494Y-104522537D01*
X117197137Y-104553703D01*
X117351918Y-104617816D01*
X117504037Y-104648074D01*
X117516228Y-104650499D01*
X117516232Y-104650500D01*
X117516233Y-104650500D01*
X117683768Y-104650500D01*
X117683769Y-104650499D01*
X117848082Y-104617816D01*
X118002863Y-104553703D01*
X118142162Y-104460626D01*
X118260626Y-104342162D01*
X118353703Y-104202863D01*
X118417816Y-104048082D01*
X118450500Y-103883767D01*
X118450500Y-103716233D01*
X118417816Y-103551918D01*
X118353703Y-103397137D01*
X118266232Y-103266228D01*
X123149500Y-103266228D01*
X123149500Y-103433771D01*
X123182182Y-103598074D01*
X123182184Y-103598082D01*
X123246295Y-103752860D01*
X123339373Y-103892162D01*
X123457837Y-104010626D01*
X123550494Y-104072537D01*
X123597137Y-104103703D01*
X123751918Y-104167816D01*
X123916228Y-104200499D01*
X123916232Y-104200500D01*
X123916233Y-104200500D01*
X124083768Y-104200500D01*
X124083769Y-104200499D01*
X124248082Y-104167816D01*
X124402863Y-104103703D01*
X124542162Y-104010626D01*
X124660626Y-103892162D01*
X124753703Y-103752863D01*
X124817816Y-103598082D01*
X124850500Y-103433767D01*
X124850500Y-103266233D01*
X124817816Y-103101918D01*
X124776786Y-103002863D01*
X124758035Y-102957594D01*
X124758034Y-102957593D01*
X124753705Y-102947140D01*
X124753704Y-102947139D01*
X124733053Y-102916233D01*
X124733050Y-102916228D01*
X126249500Y-102916228D01*
X126249500Y-103083771D01*
X126282182Y-103248074D01*
X126282184Y-103248082D01*
X126346295Y-103402860D01*
X126439373Y-103542162D01*
X126557837Y-103660626D01*
X126641052Y-103716228D01*
X126697137Y-103753703D01*
X126851918Y-103817816D01*
X126907872Y-103828945D01*
X126951932Y-103837710D01*
X127013843Y-103870094D01*
X127048417Y-103930810D01*
X127044678Y-104000579D01*
X127042302Y-104006780D01*
X126982184Y-104151917D01*
X126982182Y-104151925D01*
X126949500Y-104316228D01*
X126949500Y-104483771D01*
X126982182Y-104648074D01*
X126982184Y-104648082D01*
X127048628Y-104808491D01*
X127046858Y-104809223D01*
X127059292Y-104868927D01*
X127034294Y-104934171D01*
X126977991Y-104975544D01*
X126959885Y-104980599D01*
X126951921Y-104982183D01*
X126951917Y-104982184D01*
X126797139Y-105046295D01*
X126657837Y-105139373D01*
X126539373Y-105257837D01*
X126446295Y-105397139D01*
X126382184Y-105551917D01*
X126382182Y-105551925D01*
X126349500Y-105716228D01*
X126349500Y-105883771D01*
X126382182Y-106048074D01*
X126382184Y-106048082D01*
X126446295Y-106202860D01*
X126539373Y-106342162D01*
X126657837Y-106460626D01*
X126750494Y-106522537D01*
X126797137Y-106553703D01*
X126797138Y-106553703D01*
X126797139Y-106553704D01*
X126811436Y-106559626D01*
X126951918Y-106617816D01*
X127116228Y-106650499D01*
X127116232Y-106650500D01*
X127116233Y-106650500D01*
X127283768Y-106650500D01*
X127283769Y-106650499D01*
X127448082Y-106617816D01*
X127602863Y-106553703D01*
X127742162Y-106460626D01*
X127821285Y-106381502D01*
X127882606Y-106348019D01*
X127952298Y-106353003D01*
X128008232Y-106394874D01*
X128012057Y-106400280D01*
X128029230Y-106425980D01*
X128039375Y-106441164D01*
X128157837Y-106559626D01*
X128244924Y-106617815D01*
X128297137Y-106652703D01*
X128451918Y-106716816D01*
X128616228Y-106749499D01*
X128616232Y-106749500D01*
X128616233Y-106749500D01*
X128783768Y-106749500D01*
X128783769Y-106749499D01*
X128948082Y-106716816D01*
X129102863Y-106652703D01*
X129242162Y-106559626D01*
X129360626Y-106441162D01*
X129453703Y-106301863D01*
X129517816Y-106147082D01*
X129550500Y-105982767D01*
X129550500Y-105815233D01*
X129517816Y-105650918D01*
X129476811Y-105551925D01*
X129475080Y-105547745D01*
X129457946Y-105506379D01*
X138449500Y-105506379D01*
X138449500Y-105693620D01*
X138486025Y-105877243D01*
X138486027Y-105877251D01*
X138557676Y-106050228D01*
X138557681Y-106050237D01*
X138661697Y-106205907D01*
X138661700Y-106205911D01*
X138794088Y-106338299D01*
X138794092Y-106338302D01*
X138949762Y-106442318D01*
X138949768Y-106442321D01*
X138949769Y-106442322D01*
X139122749Y-106513973D01*
X139306379Y-106550499D01*
X139306383Y-106550500D01*
X139306384Y-106550500D01*
X139493617Y-106550500D01*
X139493618Y-106550499D01*
X139677251Y-106513973D01*
X139850231Y-106442322D01*
X140005908Y-106338302D01*
X140037831Y-106306379D01*
X163249500Y-106306379D01*
X163249500Y-106493620D01*
X163286025Y-106677243D01*
X163286027Y-106677251D01*
X163357676Y-106850228D01*
X163357681Y-106850237D01*
X163461697Y-107005907D01*
X163461700Y-107005911D01*
X163594088Y-107138299D01*
X163594092Y-107138302D01*
X163749762Y-107242318D01*
X163749768Y-107242321D01*
X163749769Y-107242322D01*
X163922749Y-107313973D01*
X164094188Y-107348074D01*
X164106379Y-107350499D01*
X164106383Y-107350500D01*
X164106384Y-107350500D01*
X164293617Y-107350500D01*
X164293618Y-107350499D01*
X164477251Y-107313973D01*
X164650231Y-107242322D01*
X164805908Y-107138302D01*
X164938302Y-107005908D01*
X165042322Y-106850231D01*
X165113973Y-106677251D01*
X165150500Y-106493616D01*
X165150500Y-106306384D01*
X165113973Y-106122749D01*
X165042322Y-105949769D01*
X165042321Y-105949768D01*
X165042318Y-105949762D01*
X164938302Y-105794092D01*
X164938299Y-105794088D01*
X164805911Y-105661700D01*
X164805907Y-105661697D01*
X164650237Y-105557681D01*
X164650228Y-105557676D01*
X164477251Y-105486027D01*
X164477243Y-105486025D01*
X164293620Y-105449500D01*
X164293616Y-105449500D01*
X164106384Y-105449500D01*
X164106379Y-105449500D01*
X163922756Y-105486025D01*
X163922748Y-105486027D01*
X163749771Y-105557676D01*
X163749762Y-105557681D01*
X163594092Y-105661697D01*
X163594088Y-105661700D01*
X163461700Y-105794088D01*
X163461697Y-105794092D01*
X163357681Y-105949762D01*
X163357676Y-105949771D01*
X163286027Y-106122748D01*
X163286025Y-106122756D01*
X163249500Y-106306379D01*
X140037831Y-106306379D01*
X140062028Y-106282182D01*
X140131600Y-106212611D01*
X140138299Y-106205911D01*
X140138302Y-106205908D01*
X140242322Y-106050231D01*
X140313973Y-105877251D01*
X140350500Y-105693616D01*
X140350500Y-105506384D01*
X140313973Y-105322749D01*
X140242625Y-105150500D01*
X140242323Y-105149771D01*
X140242318Y-105149762D01*
X140138302Y-104994092D01*
X140138299Y-104994088D01*
X140005911Y-104861700D01*
X140005907Y-104861697D01*
X139850237Y-104757681D01*
X139850228Y-104757676D01*
X139677251Y-104686027D01*
X139677243Y-104686025D01*
X139493620Y-104649500D01*
X139493616Y-104649500D01*
X139306384Y-104649500D01*
X139306379Y-104649500D01*
X139122756Y-104686025D01*
X139122748Y-104686027D01*
X138949771Y-104757676D01*
X138949762Y-104757681D01*
X138794092Y-104861697D01*
X138794088Y-104861700D01*
X138661700Y-104994088D01*
X138661697Y-104994092D01*
X138557681Y-105149762D01*
X138557676Y-105149771D01*
X138486027Y-105322748D01*
X138486025Y-105322756D01*
X138449500Y-105506379D01*
X129457946Y-105506379D01*
X129453704Y-105496139D01*
X129446947Y-105486027D01*
X129422537Y-105449494D01*
X129360626Y-105356837D01*
X129242162Y-105238373D01*
X129102860Y-105145295D01*
X128948082Y-105081184D01*
X128948074Y-105081182D01*
X128783771Y-105048500D01*
X128783767Y-105048500D01*
X128621561Y-105048500D01*
X128554522Y-105028815D01*
X128508767Y-104976011D01*
X128498823Y-104906853D01*
X128518459Y-104855609D01*
X128553703Y-104802863D01*
X128617816Y-104648082D01*
X128650500Y-104483767D01*
X128650500Y-104316233D01*
X128617816Y-104151918D01*
X128598953Y-104106379D01*
X170249500Y-104106379D01*
X170249500Y-104293620D01*
X170286025Y-104477243D01*
X170286027Y-104477251D01*
X170357676Y-104650228D01*
X170357681Y-104650237D01*
X170461697Y-104805907D01*
X170461700Y-104805911D01*
X170594088Y-104938299D01*
X170594092Y-104938302D01*
X170749762Y-105042318D01*
X170749771Y-105042323D01*
X170759365Y-105046297D01*
X170922749Y-105113973D01*
X171080217Y-105145295D01*
X171106379Y-105150499D01*
X171106383Y-105150500D01*
X171106384Y-105150500D01*
X171293617Y-105150500D01*
X171293618Y-105150499D01*
X171477251Y-105113973D01*
X171650231Y-105042322D01*
X171805908Y-104938302D01*
X171938302Y-104805908D01*
X172042322Y-104650231D01*
X172113973Y-104477251D01*
X172150500Y-104293616D01*
X172150500Y-104106384D01*
X172113973Y-103922749D01*
X172042322Y-103749769D01*
X172042321Y-103749768D01*
X172042318Y-103749762D01*
X171938302Y-103594092D01*
X171938299Y-103594088D01*
X171805911Y-103461700D01*
X171805907Y-103461697D01*
X171650237Y-103357681D01*
X171650228Y-103357676D01*
X171477251Y-103286027D01*
X171477243Y-103286025D01*
X171293620Y-103249500D01*
X171293616Y-103249500D01*
X171106384Y-103249500D01*
X171106379Y-103249500D01*
X170922756Y-103286025D01*
X170922748Y-103286027D01*
X170749771Y-103357676D01*
X170749762Y-103357681D01*
X170594092Y-103461697D01*
X170594088Y-103461700D01*
X170461700Y-103594088D01*
X170461697Y-103594092D01*
X170357681Y-103749762D01*
X170357676Y-103749771D01*
X170286027Y-103922748D01*
X170286025Y-103922756D01*
X170249500Y-104106379D01*
X128598953Y-104106379D01*
X128588304Y-104080672D01*
X128553704Y-103997138D01*
X128460626Y-103857837D01*
X128342162Y-103739373D01*
X128202860Y-103646295D01*
X128048082Y-103582184D01*
X128048076Y-103582182D01*
X127948066Y-103562289D01*
X127886156Y-103529904D01*
X127851581Y-103469188D01*
X127855321Y-103399419D01*
X127857688Y-103393242D01*
X127917816Y-103248082D01*
X127950500Y-103083767D01*
X127950500Y-102916233D01*
X127917816Y-102751918D01*
X127853703Y-102597137D01*
X127809966Y-102531680D01*
X127760626Y-102457837D01*
X127642162Y-102339373D01*
X127502860Y-102246295D01*
X127348082Y-102182184D01*
X127348074Y-102182182D01*
X127183771Y-102149500D01*
X127183767Y-102149500D01*
X127016233Y-102149500D01*
X127016228Y-102149500D01*
X126851925Y-102182182D01*
X126851917Y-102182184D01*
X126697139Y-102246295D01*
X126557837Y-102339373D01*
X126439373Y-102457837D01*
X126346295Y-102597139D01*
X126282184Y-102751917D01*
X126282182Y-102751925D01*
X126249500Y-102916228D01*
X124733050Y-102916228D01*
X124722537Y-102900494D01*
X124660626Y-102807837D01*
X124542162Y-102689373D01*
X124402860Y-102596295D01*
X124248082Y-102532184D01*
X124248074Y-102532182D01*
X124083771Y-102499500D01*
X124083767Y-102499500D01*
X123916233Y-102499500D01*
X123916228Y-102499500D01*
X123751925Y-102532182D01*
X123751917Y-102532184D01*
X123597139Y-102596295D01*
X123457837Y-102689373D01*
X123339373Y-102807837D01*
X123246295Y-102947139D01*
X123182184Y-103101917D01*
X123182182Y-103101925D01*
X123149500Y-103266228D01*
X118266232Y-103266228D01*
X118260626Y-103257838D01*
X118260625Y-103257837D01*
X118260624Y-103257835D01*
X118142162Y-103139373D01*
X118002860Y-103046295D01*
X117848082Y-102982184D01*
X117848074Y-102982182D01*
X117683771Y-102949500D01*
X117683767Y-102949500D01*
X117516233Y-102949500D01*
X117516228Y-102949500D01*
X117351925Y-102982182D01*
X117351917Y-102982184D01*
X117197139Y-103046295D01*
X117057837Y-103139373D01*
X116939373Y-103257837D01*
X116846295Y-103397139D01*
X116782184Y-103551917D01*
X116782182Y-103551925D01*
X116749500Y-103716228D01*
X101326532Y-103716228D01*
X101326539Y-103709993D01*
X101329896Y-100906379D01*
X110449500Y-100906379D01*
X110449500Y-101093620D01*
X110486025Y-101277243D01*
X110486027Y-101277251D01*
X110557676Y-101450228D01*
X110557681Y-101450237D01*
X110661697Y-101605907D01*
X110661700Y-101605911D01*
X110794088Y-101738299D01*
X110794092Y-101738302D01*
X110949762Y-101842318D01*
X110949771Y-101842323D01*
X110959365Y-101846297D01*
X111122749Y-101913973D01*
X111264466Y-101942162D01*
X111306379Y-101950499D01*
X111306383Y-101950500D01*
X111306384Y-101950500D01*
X111493617Y-101950500D01*
X111493618Y-101950499D01*
X111677251Y-101913973D01*
X111850231Y-101842322D01*
X111889283Y-101816228D01*
X115949500Y-101816228D01*
X115949500Y-101983771D01*
X115982182Y-102148074D01*
X115982184Y-102148082D01*
X116046295Y-102302860D01*
X116139373Y-102442162D01*
X116257837Y-102560626D01*
X116311220Y-102596295D01*
X116397137Y-102653703D01*
X116551918Y-102717816D01*
X116716228Y-102750499D01*
X116716232Y-102750500D01*
X116716233Y-102750500D01*
X116883768Y-102750500D01*
X116883769Y-102750499D01*
X117048082Y-102717816D01*
X117202863Y-102653703D01*
X117342162Y-102560626D01*
X117342172Y-102560615D01*
X117344141Y-102559001D01*
X117345386Y-102558471D01*
X117347227Y-102557242D01*
X117347460Y-102557590D01*
X117408448Y-102531680D01*
X117477317Y-102543464D01*
X117491699Y-102551738D01*
X117496137Y-102554703D01*
X117650918Y-102618816D01*
X117815228Y-102651499D01*
X117815232Y-102651500D01*
X117815233Y-102651500D01*
X117982768Y-102651500D01*
X117982769Y-102651499D01*
X118147082Y-102618816D01*
X118301863Y-102554703D01*
X118441162Y-102461626D01*
X118559626Y-102343162D01*
X118652703Y-102203863D01*
X118716816Y-102049082D01*
X118749500Y-101884767D01*
X118749500Y-101717233D01*
X118716816Y-101552918D01*
X118652703Y-101398137D01*
X118599034Y-101317816D01*
X118559626Y-101258837D01*
X118441162Y-101140373D01*
X118301860Y-101047295D01*
X118147082Y-100983184D01*
X118147074Y-100983182D01*
X117982771Y-100950500D01*
X117982767Y-100950500D01*
X117815233Y-100950500D01*
X117815228Y-100950500D01*
X117650925Y-100983182D01*
X117650917Y-100983184D01*
X117496139Y-101047295D01*
X117356834Y-101140376D01*
X117354842Y-101142011D01*
X117353595Y-101142540D01*
X117351773Y-101143758D01*
X117351542Y-101143412D01*
X117290530Y-101169320D01*
X117221663Y-101157524D01*
X117207297Y-101149259D01*
X117202867Y-101146299D01*
X117202859Y-101146295D01*
X117048082Y-101082184D01*
X117048074Y-101082182D01*
X116883771Y-101049500D01*
X116883767Y-101049500D01*
X116716233Y-101049500D01*
X116716228Y-101049500D01*
X116551925Y-101082182D01*
X116551917Y-101082184D01*
X116397139Y-101146295D01*
X116257837Y-101239373D01*
X116139373Y-101357837D01*
X116046295Y-101497139D01*
X115982184Y-101651917D01*
X115982182Y-101651925D01*
X115949500Y-101816228D01*
X111889283Y-101816228D01*
X112005908Y-101738302D01*
X112005911Y-101738299D01*
X112021751Y-101722460D01*
X112138299Y-101605911D01*
X112138302Y-101605908D01*
X112242322Y-101450231D01*
X112313973Y-101277251D01*
X112350500Y-101093616D01*
X112350500Y-100906384D01*
X112313973Y-100722749D01*
X112256406Y-100583771D01*
X112242323Y-100549771D01*
X112242318Y-100549762D01*
X112138302Y-100394092D01*
X112138299Y-100394088D01*
X112005911Y-100261700D01*
X112005907Y-100261697D01*
X111850237Y-100157681D01*
X111850228Y-100157676D01*
X111677251Y-100086027D01*
X111677243Y-100086025D01*
X111493620Y-100049500D01*
X111493616Y-100049500D01*
X111306384Y-100049500D01*
X111306379Y-100049500D01*
X111122756Y-100086025D01*
X111122748Y-100086027D01*
X110949771Y-100157676D01*
X110949762Y-100157681D01*
X110794092Y-100261697D01*
X110794088Y-100261700D01*
X110661700Y-100394088D01*
X110661697Y-100394092D01*
X110557681Y-100549762D01*
X110557676Y-100549771D01*
X110486027Y-100722748D01*
X110486025Y-100722756D01*
X110449500Y-100906379D01*
X101329896Y-100906379D01*
X101329903Y-100900144D01*
X101331261Y-99766228D01*
X122899500Y-99766228D01*
X122899500Y-99933771D01*
X122932182Y-100098074D01*
X122932184Y-100098082D01*
X122996295Y-100252860D01*
X123089373Y-100392162D01*
X123207837Y-100510626D01*
X123266409Y-100549762D01*
X123347137Y-100603703D01*
X123501918Y-100667816D01*
X123666228Y-100700499D01*
X123666232Y-100700500D01*
X123666233Y-100700500D01*
X123833768Y-100700500D01*
X123833769Y-100700499D01*
X123998082Y-100667816D01*
X124152863Y-100603703D01*
X124292162Y-100510626D01*
X124410626Y-100392162D01*
X124503703Y-100252863D01*
X124567816Y-100098082D01*
X124600500Y-99933767D01*
X124600500Y-99766233D01*
X124567816Y-99601918D01*
X124503703Y-99447137D01*
X124472537Y-99400494D01*
X124410626Y-99307837D01*
X124292162Y-99189373D01*
X124178224Y-99113243D01*
X124152860Y-99096295D01*
X123998082Y-99032184D01*
X123998074Y-99032182D01*
X123917868Y-99016228D01*
X127849500Y-99016228D01*
X127849500Y-99183771D01*
X127882182Y-99348074D01*
X127882184Y-99348082D01*
X127946295Y-99502860D01*
X128039373Y-99642162D01*
X128157837Y-99760626D01*
X128166229Y-99766233D01*
X128297137Y-99853703D01*
X128451918Y-99917816D01*
X128451920Y-99917816D01*
X128451922Y-99917817D01*
X128456788Y-99918784D01*
X128459877Y-99919399D01*
X128521789Y-99951781D01*
X128556366Y-100012495D01*
X128552630Y-100082265D01*
X128548568Y-100091484D01*
X128548628Y-100091509D01*
X128482184Y-100251917D01*
X128482182Y-100251925D01*
X128449500Y-100416228D01*
X128449500Y-100583771D01*
X128482182Y-100748074D01*
X128482184Y-100748082D01*
X128546295Y-100902860D01*
X128639373Y-101042162D01*
X128757837Y-101160626D01*
X128770849Y-101169320D01*
X128897137Y-101253703D01*
X129051918Y-101317816D01*
X129216228Y-101350499D01*
X129216232Y-101350500D01*
X129325500Y-101350500D01*
X129392539Y-101370185D01*
X129438294Y-101422989D01*
X129449500Y-101474500D01*
X129449500Y-101483771D01*
X129482182Y-101648074D01*
X129482184Y-101648082D01*
X129546295Y-101802860D01*
X129639373Y-101942162D01*
X129757837Y-102060626D01*
X129809993Y-102095475D01*
X129897137Y-102153703D01*
X130051918Y-102217816D01*
X130195093Y-102246295D01*
X130216228Y-102250499D01*
X130216232Y-102250500D01*
X130216233Y-102250500D01*
X130383768Y-102250500D01*
X130383769Y-102250499D01*
X130548082Y-102217816D01*
X130702863Y-102153703D01*
X130842162Y-102060626D01*
X130960626Y-101942162D01*
X131053703Y-101802863D01*
X131117816Y-101648082D01*
X131150500Y-101483767D01*
X131150500Y-101316233D01*
X131117816Y-101151918D01*
X131061171Y-101015167D01*
X131053704Y-100997139D01*
X131053544Y-100996900D01*
X130993063Y-100906383D01*
X130960626Y-100857837D01*
X130842162Y-100739373D01*
X130702860Y-100646295D01*
X130548082Y-100582184D01*
X130548074Y-100582182D01*
X130383771Y-100549500D01*
X130383767Y-100549500D01*
X130274500Y-100549500D01*
X130207461Y-100529815D01*
X130161706Y-100477011D01*
X130150500Y-100425500D01*
X130150500Y-100416232D01*
X130150499Y-100416228D01*
X130137707Y-100351917D01*
X130117816Y-100251918D01*
X130068227Y-100132201D01*
X130053704Y-100097139D01*
X130049925Y-100091484D01*
X129977954Y-99983771D01*
X129960626Y-99957837D01*
X129842162Y-99839373D01*
X129807523Y-99816228D01*
X131849500Y-99816228D01*
X131849500Y-99983771D01*
X131882182Y-100148074D01*
X131882184Y-100148082D01*
X131946295Y-100302860D01*
X132039373Y-100442162D01*
X132157837Y-100560626D01*
X132250494Y-100622537D01*
X132297137Y-100653703D01*
X132451918Y-100717816D01*
X132565658Y-100740440D01*
X132616228Y-100750499D01*
X132616232Y-100750500D01*
X132616233Y-100750500D01*
X132783768Y-100750500D01*
X132783768Y-100750499D01*
X132834342Y-100740440D01*
X132903934Y-100746667D01*
X132959111Y-100789530D01*
X132980151Y-100837863D01*
X132982183Y-100848078D01*
X132982184Y-100848082D01*
X133046295Y-101002860D01*
X133139373Y-101142162D01*
X133257837Y-101260626D01*
X133343430Y-101317817D01*
X133397137Y-101353703D01*
X133397138Y-101353703D01*
X133397139Y-101353704D01*
X133432201Y-101368227D01*
X133551918Y-101417816D01*
X133714866Y-101450228D01*
X133716228Y-101450499D01*
X133716232Y-101450500D01*
X133880035Y-101450500D01*
X133947074Y-101470185D01*
X133992829Y-101522989D01*
X134002773Y-101592147D01*
X133994596Y-101621952D01*
X133982185Y-101651913D01*
X133982182Y-101651925D01*
X133949500Y-101816228D01*
X133949500Y-101983771D01*
X133982182Y-102148074D01*
X133982184Y-102148082D01*
X134046295Y-102302860D01*
X134139373Y-102442162D01*
X134257837Y-102560626D01*
X134311220Y-102596295D01*
X134397137Y-102653703D01*
X134551918Y-102717816D01*
X134716228Y-102750499D01*
X134716232Y-102750500D01*
X134716233Y-102750500D01*
X134883768Y-102750500D01*
X134883769Y-102750499D01*
X135048082Y-102717816D01*
X135202863Y-102653703D01*
X135342162Y-102560626D01*
X135386560Y-102516228D01*
X139449500Y-102516228D01*
X139449500Y-102683771D01*
X139482182Y-102848074D01*
X139482184Y-102848082D01*
X139546295Y-103002860D01*
X139639373Y-103142162D01*
X139757837Y-103260626D01*
X139766229Y-103266233D01*
X139897137Y-103353703D01*
X139897138Y-103353703D01*
X139897139Y-103353704D01*
X139932201Y-103368227D01*
X140051918Y-103417816D01*
X140216228Y-103450499D01*
X140216232Y-103450500D01*
X140216233Y-103450500D01*
X140383768Y-103450500D01*
X140383769Y-103450499D01*
X140548082Y-103417816D01*
X140702863Y-103353703D01*
X140842162Y-103260626D01*
X140960626Y-103142162D01*
X141053703Y-103002863D01*
X141117816Y-102848082D01*
X141150500Y-102683767D01*
X141150500Y-102516233D01*
X141117816Y-102351918D01*
X141053703Y-102197137D01*
X141000571Y-102117619D01*
X140960626Y-102057837D01*
X140842162Y-101939373D01*
X140702860Y-101846295D01*
X140548082Y-101782184D01*
X140548074Y-101782182D01*
X140383771Y-101749500D01*
X140383767Y-101749500D01*
X140216233Y-101749500D01*
X140216228Y-101749500D01*
X140051925Y-101782182D01*
X140051917Y-101782184D01*
X139897139Y-101846295D01*
X139757837Y-101939373D01*
X139639373Y-102057837D01*
X139546295Y-102197139D01*
X139482184Y-102351917D01*
X139482182Y-102351925D01*
X139449500Y-102516228D01*
X135386560Y-102516228D01*
X135460626Y-102442162D01*
X135460843Y-102441836D01*
X135461238Y-102441247D01*
X135461239Y-102441245D01*
X135488513Y-102400426D01*
X135553703Y-102302863D01*
X135607900Y-102172020D01*
X135651740Y-102117619D01*
X135718034Y-102095554D01*
X135722460Y-102095475D01*
X135738793Y-102095475D01*
X135738794Y-102095474D01*
X135903107Y-102062791D01*
X136057888Y-101998678D01*
X136197187Y-101905601D01*
X136315651Y-101787137D01*
X136408728Y-101647838D01*
X136472841Y-101493057D01*
X136505525Y-101328742D01*
X136505525Y-101161208D01*
X136472841Y-100996893D01*
X136408728Y-100842112D01*
X136345894Y-100748074D01*
X136315651Y-100702812D01*
X136197187Y-100584348D01*
X136057885Y-100491270D01*
X135903107Y-100427159D01*
X135903099Y-100427157D01*
X135738796Y-100394475D01*
X135738792Y-100394475D01*
X135571258Y-100394475D01*
X135571253Y-100394475D01*
X135406950Y-100427157D01*
X135406942Y-100427159D01*
X135252164Y-100491270D01*
X135112862Y-100584348D01*
X134994398Y-100702812D01*
X134901321Y-100842113D01*
X134877284Y-100900144D01*
X134847124Y-100972954D01*
X134834582Y-100988518D01*
X134826278Y-101006703D01*
X134813107Y-101015167D01*
X134803285Y-101027356D01*
X134784317Y-101033668D01*
X134767500Y-101044477D01*
X134739939Y-101048439D01*
X134736991Y-101049421D01*
X134732565Y-101049500D01*
X134719965Y-101049500D01*
X134652926Y-101029815D01*
X134607171Y-100977011D01*
X134597227Y-100907853D01*
X134605404Y-100878048D01*
X134617814Y-100848086D01*
X134617816Y-100848082D01*
X134650500Y-100683767D01*
X134650500Y-100516233D01*
X134617816Y-100351918D01*
X134553703Y-100197137D01*
X134520920Y-100148074D01*
X134460626Y-100057837D01*
X134426305Y-100023516D01*
X134392820Y-99962193D01*
X134397804Y-99892501D01*
X134410881Y-99866948D01*
X134453703Y-99802863D01*
X134517816Y-99648082D01*
X134550500Y-99483767D01*
X134550500Y-99316233D01*
X134517816Y-99151918D01*
X134461613Y-99016233D01*
X134453704Y-98997139D01*
X134360626Y-98857837D01*
X134242162Y-98739373D01*
X134102860Y-98646295D01*
X133948082Y-98582184D01*
X133948074Y-98582182D01*
X133783771Y-98549500D01*
X133783767Y-98549500D01*
X133616233Y-98549500D01*
X133616228Y-98549500D01*
X133451925Y-98582182D01*
X133451917Y-98582184D01*
X133297139Y-98646295D01*
X133157837Y-98739373D01*
X133039373Y-98857837D01*
X132942913Y-99002202D01*
X132940734Y-99000746D01*
X132899696Y-99042469D01*
X132831548Y-99057884D01*
X132815181Y-99055748D01*
X132783771Y-99049500D01*
X132783767Y-99049500D01*
X132616233Y-99049500D01*
X132616228Y-99049500D01*
X132451925Y-99082182D01*
X132451917Y-99082184D01*
X132297139Y-99146295D01*
X132157837Y-99239373D01*
X132039373Y-99357837D01*
X131946295Y-99497139D01*
X131882184Y-99651917D01*
X131882182Y-99651925D01*
X131849500Y-99816228D01*
X129807523Y-99816228D01*
X129702860Y-99746295D01*
X129548082Y-99682184D01*
X129548077Y-99682183D01*
X129540115Y-99680599D01*
X129478205Y-99648213D01*
X129443631Y-99587497D01*
X129447372Y-99517728D01*
X129451432Y-99508515D01*
X129451372Y-99508491D01*
X129476785Y-99447139D01*
X129517816Y-99348082D01*
X129550500Y-99183767D01*
X129550500Y-99016233D01*
X129517816Y-98851918D01*
X129453703Y-98697137D01*
X129419731Y-98646295D01*
X129360626Y-98557837D01*
X129242162Y-98439373D01*
X129102860Y-98346295D01*
X128948082Y-98282184D01*
X128948074Y-98282182D01*
X128783771Y-98249500D01*
X128783767Y-98249500D01*
X128616233Y-98249500D01*
X128616228Y-98249500D01*
X128451925Y-98282182D01*
X128451917Y-98282184D01*
X128297139Y-98346295D01*
X128157837Y-98439373D01*
X128039373Y-98557837D01*
X127946295Y-98697139D01*
X127882184Y-98851917D01*
X127882182Y-98851925D01*
X127849500Y-99016228D01*
X123917868Y-99016228D01*
X123833771Y-98999500D01*
X123833767Y-98999500D01*
X123666233Y-98999500D01*
X123666228Y-98999500D01*
X123501925Y-99032182D01*
X123501917Y-99032184D01*
X123347139Y-99096295D01*
X123207837Y-99189373D01*
X123089373Y-99307837D01*
X122996295Y-99447139D01*
X122932184Y-99601917D01*
X122932182Y-99601925D01*
X122899500Y-99766228D01*
X101331261Y-99766228D01*
X101331268Y-99759993D01*
X101331599Y-99483767D01*
X101333655Y-97766228D01*
X110899500Y-97766228D01*
X110899500Y-97933771D01*
X110932182Y-98098074D01*
X110932184Y-98098082D01*
X110996295Y-98252860D01*
X111089373Y-98392162D01*
X111207837Y-98510626D01*
X111278494Y-98557837D01*
X111347137Y-98603703D01*
X111501918Y-98667816D01*
X111635717Y-98694430D01*
X111666228Y-98700499D01*
X111666232Y-98700500D01*
X111666233Y-98700500D01*
X111833768Y-98700500D01*
X111833769Y-98700499D01*
X111998082Y-98667816D01*
X112152863Y-98603703D01*
X112292162Y-98510626D01*
X112410626Y-98392162D01*
X112503703Y-98252863D01*
X112567816Y-98098082D01*
X112600500Y-97933767D01*
X112600500Y-97766233D01*
X112567816Y-97601918D01*
X112509290Y-97460626D01*
X112503704Y-97447139D01*
X112410626Y-97307837D01*
X112292162Y-97189373D01*
X112182692Y-97116228D01*
X115849500Y-97116228D01*
X115849500Y-97283771D01*
X115882182Y-97448074D01*
X115882184Y-97448082D01*
X115946295Y-97602860D01*
X116039373Y-97742162D01*
X116157837Y-97860626D01*
X116250494Y-97922537D01*
X116297137Y-97953703D01*
X116451918Y-98017816D01*
X116616228Y-98050499D01*
X116616232Y-98050500D01*
X116616233Y-98050500D01*
X116783768Y-98050500D01*
X116783769Y-98050499D01*
X116948082Y-98017816D01*
X117102863Y-97953703D01*
X117242162Y-97860626D01*
X117360626Y-97742162D01*
X117453703Y-97602863D01*
X117454095Y-97601918D01*
X117467075Y-97570580D01*
X117501292Y-97487971D01*
X117545133Y-97433570D01*
X117611427Y-97411505D01*
X117679126Y-97428784D01*
X117703534Y-97447745D01*
X117794088Y-97538299D01*
X117794092Y-97538302D01*
X117949762Y-97642318D01*
X117949771Y-97642323D01*
X117968863Y-97650231D01*
X118122749Y-97713973D01*
X118264466Y-97742162D01*
X118306379Y-97750499D01*
X118306383Y-97750500D01*
X118306384Y-97750500D01*
X118493617Y-97750500D01*
X118493618Y-97750499D01*
X118677251Y-97713973D01*
X118850231Y-97642322D01*
X119005908Y-97538302D01*
X119138302Y-97405908D01*
X119242322Y-97250231D01*
X119256407Y-97216228D01*
X122349500Y-97216228D01*
X122349500Y-97383771D01*
X122382182Y-97548074D01*
X122382184Y-97548082D01*
X122446295Y-97702860D01*
X122539373Y-97842162D01*
X122657837Y-97960626D01*
X122743430Y-98017817D01*
X122797137Y-98053703D01*
X122951918Y-98117816D01*
X123116228Y-98150499D01*
X123116232Y-98150500D01*
X123116233Y-98150500D01*
X123283768Y-98150500D01*
X123283769Y-98150499D01*
X123448082Y-98117816D01*
X123602863Y-98053703D01*
X123742162Y-97960626D01*
X123860626Y-97842162D01*
X123953703Y-97702863D01*
X124017816Y-97548082D01*
X124050500Y-97383767D01*
X124050500Y-97216233D01*
X124028649Y-97106379D01*
X126649500Y-97106379D01*
X126649500Y-97293620D01*
X126686025Y-97477243D01*
X126686027Y-97477251D01*
X126757676Y-97650228D01*
X126757681Y-97650237D01*
X126861697Y-97805907D01*
X126861700Y-97805911D01*
X126994088Y-97938299D01*
X126994092Y-97938302D01*
X127149762Y-98042318D01*
X127149768Y-98042321D01*
X127149769Y-98042322D01*
X127322749Y-98113973D01*
X127506379Y-98150499D01*
X127506383Y-98150500D01*
X127506384Y-98150500D01*
X127693617Y-98150500D01*
X127693618Y-98150499D01*
X127877251Y-98113973D01*
X128050231Y-98042322D01*
X128205908Y-97938302D01*
X128338302Y-97805908D01*
X128414929Y-97691228D01*
X137999500Y-97691228D01*
X137999500Y-97858771D01*
X138032182Y-98023074D01*
X138032184Y-98023082D01*
X138096295Y-98177860D01*
X138189373Y-98317162D01*
X138307837Y-98435626D01*
X138389807Y-98490396D01*
X138447137Y-98528703D01*
X138447138Y-98528703D01*
X138447139Y-98528704D01*
X138480141Y-98542374D01*
X138601918Y-98592816D01*
X138766228Y-98625499D01*
X138766232Y-98625500D01*
X138766233Y-98625500D01*
X138933768Y-98625500D01*
X138933769Y-98625499D01*
X139098082Y-98592816D01*
X139252863Y-98528703D01*
X139306612Y-98492788D01*
X139373286Y-98471912D01*
X139440666Y-98490396D01*
X139487357Y-98542374D01*
X139499500Y-98595892D01*
X139499500Y-98608771D01*
X139532182Y-98773074D01*
X139532184Y-98773082D01*
X139596295Y-98927860D01*
X139689373Y-99067162D01*
X139807837Y-99185626D01*
X139888276Y-99239373D01*
X139947137Y-99278703D01*
X140101918Y-99342816D01*
X140266228Y-99375499D01*
X140266232Y-99375500D01*
X140266233Y-99375500D01*
X140433768Y-99375500D01*
X140433769Y-99375499D01*
X140598082Y-99342816D01*
X140752863Y-99278703D01*
X140892162Y-99185626D01*
X141010626Y-99067162D01*
X141103703Y-98927863D01*
X141167816Y-98773082D01*
X141167816Y-98773079D01*
X141168720Y-98770898D01*
X141212561Y-98716495D01*
X141278855Y-98694430D01*
X141346554Y-98711709D01*
X141352167Y-98715246D01*
X141447137Y-98778703D01*
X141601918Y-98842816D01*
X141766228Y-98875499D01*
X141766232Y-98875500D01*
X141766233Y-98875500D01*
X141933768Y-98875500D01*
X141933769Y-98875499D01*
X142098082Y-98842816D01*
X142252863Y-98778703D01*
X142392162Y-98685626D01*
X142510626Y-98567162D01*
X142603703Y-98427863D01*
X142667816Y-98273082D01*
X142700500Y-98108767D01*
X142700500Y-97941233D01*
X142667816Y-97776918D01*
X142603703Y-97622137D01*
X142554221Y-97548082D01*
X142510626Y-97482837D01*
X142392162Y-97364373D01*
X142252860Y-97271295D01*
X142098082Y-97207184D01*
X142098074Y-97207182D01*
X141933771Y-97174500D01*
X141933767Y-97174500D01*
X141766233Y-97174500D01*
X141766228Y-97174500D01*
X141601925Y-97207182D01*
X141601917Y-97207184D01*
X141447139Y-97271295D01*
X141307837Y-97364373D01*
X141189373Y-97482837D01*
X141096295Y-97622139D01*
X141031279Y-97779101D01*
X140987437Y-97833505D01*
X140921143Y-97855569D01*
X140853444Y-97838289D01*
X140847827Y-97834750D01*
X140752860Y-97771295D01*
X140598082Y-97707184D01*
X140598074Y-97707182D01*
X140433771Y-97674500D01*
X140433767Y-97674500D01*
X140266233Y-97674500D01*
X140266228Y-97674500D01*
X140101925Y-97707182D01*
X140101917Y-97707184D01*
X139947138Y-97771296D01*
X139947134Y-97771298D01*
X139893390Y-97807209D01*
X139826713Y-97828087D01*
X139759333Y-97809602D01*
X139712643Y-97757623D01*
X139700500Y-97704107D01*
X139700500Y-97691232D01*
X139700499Y-97691228D01*
X139692398Y-97650500D01*
X139667816Y-97526918D01*
X139603703Y-97372137D01*
X139560739Y-97307837D01*
X139510626Y-97232837D01*
X139392162Y-97114373D01*
X139252860Y-97021295D01*
X139098082Y-96957184D01*
X139098074Y-96957182D01*
X138933771Y-96924500D01*
X138933767Y-96924500D01*
X138766233Y-96924500D01*
X138766228Y-96924500D01*
X138601925Y-96957182D01*
X138601917Y-96957184D01*
X138447139Y-97021295D01*
X138307837Y-97114373D01*
X138189373Y-97232837D01*
X138096295Y-97372139D01*
X138032184Y-97526917D01*
X138032182Y-97526925D01*
X137999500Y-97691228D01*
X128414929Y-97691228D01*
X128442322Y-97650231D01*
X128513973Y-97477251D01*
X128550500Y-97293616D01*
X128550500Y-97228204D01*
X128570185Y-97161165D01*
X128622989Y-97115410D01*
X128692147Y-97105466D01*
X128716905Y-97112258D01*
X128716922Y-97112205D01*
X128718935Y-97112815D01*
X128721954Y-97113644D01*
X128722743Y-97113971D01*
X128722745Y-97113971D01*
X128722749Y-97113973D01*
X128906379Y-97150499D01*
X128906383Y-97150500D01*
X128906384Y-97150500D01*
X129093617Y-97150500D01*
X129093618Y-97150499D01*
X129277251Y-97113973D01*
X129446262Y-97043965D01*
X129515732Y-97036497D01*
X129578211Y-97067772D01*
X129608276Y-97111074D01*
X129646295Y-97202860D01*
X129739373Y-97342162D01*
X129857837Y-97460626D01*
X129950494Y-97522537D01*
X129997137Y-97553703D01*
X130151918Y-97617816D01*
X130314866Y-97650228D01*
X130316228Y-97650499D01*
X130316232Y-97650500D01*
X130316233Y-97650500D01*
X130483768Y-97650500D01*
X130483769Y-97650499D01*
X130648082Y-97617816D01*
X130802863Y-97553703D01*
X130942162Y-97460626D01*
X131060626Y-97342162D01*
X131153703Y-97202863D01*
X131217816Y-97048082D01*
X131250500Y-96883767D01*
X131250500Y-96716233D01*
X131217816Y-96551918D01*
X131153703Y-96397137D01*
X131085145Y-96294533D01*
X131060626Y-96257837D01*
X130942162Y-96139373D01*
X130802860Y-96046295D01*
X130648082Y-95982184D01*
X130648074Y-95982182D01*
X130483771Y-95949500D01*
X130483767Y-95949500D01*
X130316233Y-95949500D01*
X130316228Y-95949500D01*
X130151925Y-95982182D01*
X130151913Y-95982185D01*
X130082600Y-96010896D01*
X130013131Y-96018365D01*
X129950652Y-95987090D01*
X129915907Y-95928530D01*
X129915742Y-95928581D01*
X129915537Y-95927906D01*
X129915000Y-95927001D01*
X129914221Y-95923569D01*
X129913974Y-95922755D01*
X129913973Y-95922749D01*
X129842625Y-95750500D01*
X129842323Y-95749771D01*
X129842318Y-95749762D01*
X129738302Y-95594092D01*
X129738299Y-95594088D01*
X129605911Y-95461700D01*
X129605907Y-95461697D01*
X129450237Y-95357681D01*
X129450228Y-95357676D01*
X129277251Y-95286027D01*
X129277243Y-95286025D01*
X129093620Y-95249500D01*
X129093616Y-95249500D01*
X128906384Y-95249500D01*
X128906379Y-95249500D01*
X128722756Y-95286025D01*
X128722748Y-95286027D01*
X128549771Y-95357676D01*
X128549762Y-95357681D01*
X128394092Y-95461697D01*
X128394088Y-95461700D01*
X128261700Y-95594088D01*
X128261697Y-95594092D01*
X128157681Y-95749762D01*
X128157676Y-95749771D01*
X128086027Y-95922748D01*
X128086025Y-95922756D01*
X128049500Y-96106379D01*
X128049500Y-96171795D01*
X128029815Y-96238834D01*
X127977011Y-96284589D01*
X127907853Y-96294533D01*
X127883093Y-96287742D01*
X127883078Y-96287795D01*
X127881119Y-96287200D01*
X127878061Y-96286362D01*
X127877256Y-96286029D01*
X127877255Y-96286028D01*
X127877251Y-96286027D01*
X127877246Y-96286026D01*
X127877243Y-96286025D01*
X127693620Y-96249500D01*
X127693616Y-96249500D01*
X127506384Y-96249500D01*
X127506379Y-96249500D01*
X127322756Y-96286025D01*
X127322748Y-96286027D01*
X127149771Y-96357676D01*
X127149762Y-96357681D01*
X126994092Y-96461697D01*
X126994088Y-96461700D01*
X126861700Y-96594088D01*
X126861697Y-96594092D01*
X126757681Y-96749762D01*
X126757676Y-96749771D01*
X126686027Y-96922748D01*
X126686025Y-96922756D01*
X126649500Y-97106379D01*
X124028649Y-97106379D01*
X124017816Y-97051918D01*
X123953703Y-96897137D01*
X123900702Y-96817815D01*
X123860626Y-96757837D01*
X123742162Y-96639373D01*
X123602860Y-96546295D01*
X123448082Y-96482184D01*
X123448074Y-96482182D01*
X123283771Y-96449500D01*
X123283767Y-96449500D01*
X123116233Y-96449500D01*
X123116228Y-96449500D01*
X122951925Y-96482182D01*
X122951917Y-96482184D01*
X122797139Y-96546295D01*
X122657837Y-96639373D01*
X122539373Y-96757837D01*
X122446295Y-96897139D01*
X122382184Y-97051917D01*
X122382182Y-97051925D01*
X122349500Y-97216228D01*
X119256407Y-97216228D01*
X119313973Y-97077251D01*
X119350500Y-96893616D01*
X119350500Y-96840949D01*
X119370185Y-96773910D01*
X119422989Y-96728155D01*
X119450305Y-96719332D01*
X119477251Y-96713973D01*
X119650231Y-96642322D01*
X119805908Y-96538302D01*
X119837475Y-96506734D01*
X119898794Y-96473251D01*
X119968485Y-96478233D01*
X120024420Y-96520103D01*
X120028257Y-96525525D01*
X120039373Y-96542161D01*
X120039376Y-96542165D01*
X120157837Y-96660626D01*
X120237677Y-96713973D01*
X120297137Y-96753703D01*
X120297138Y-96753703D01*
X120297139Y-96753704D01*
X120332201Y-96768227D01*
X120451918Y-96817816D01*
X120616228Y-96850499D01*
X120616232Y-96850500D01*
X120616233Y-96850500D01*
X120783768Y-96850500D01*
X120783769Y-96850499D01*
X120948082Y-96817816D01*
X121102863Y-96753703D01*
X121242162Y-96660626D01*
X121360626Y-96542162D01*
X121453703Y-96402863D01*
X121517816Y-96248082D01*
X121550500Y-96083767D01*
X121550500Y-95916233D01*
X121517816Y-95751918D01*
X121453703Y-95597137D01*
X121404003Y-95522756D01*
X121360626Y-95457837D01*
X121311180Y-95408391D01*
X121277695Y-95347068D01*
X121282679Y-95277376D01*
X121311177Y-95233031D01*
X121338302Y-95205908D01*
X121442322Y-95050231D01*
X121513973Y-94877251D01*
X121528524Y-94804096D01*
X121560907Y-94742190D01*
X121621622Y-94707615D01*
X121691391Y-94711354D01*
X121737821Y-94740610D01*
X121857837Y-94860626D01*
X121895853Y-94886027D01*
X121997137Y-94953703D01*
X121997138Y-94953703D01*
X121997139Y-94953704D01*
X122032201Y-94968227D01*
X122151918Y-95017816D01*
X122314866Y-95050228D01*
X122316228Y-95050499D01*
X122316232Y-95050500D01*
X122316233Y-95050500D01*
X122483768Y-95050500D01*
X122483769Y-95050499D01*
X122648082Y-95017816D01*
X122802863Y-94953703D01*
X122942162Y-94860626D01*
X122986560Y-94816228D01*
X135249500Y-94816228D01*
X135249500Y-94983771D01*
X135282182Y-95148074D01*
X135282184Y-95148082D01*
X135346295Y-95302860D01*
X135439373Y-95442162D01*
X135557837Y-95560626D01*
X135607917Y-95594088D01*
X135697137Y-95653703D01*
X135851918Y-95717816D01*
X136012523Y-95749762D01*
X136016228Y-95750499D01*
X136016232Y-95750500D01*
X136016233Y-95750500D01*
X136183768Y-95750500D01*
X136183769Y-95750499D01*
X136348082Y-95717816D01*
X136502863Y-95653703D01*
X136642162Y-95560626D01*
X136760626Y-95442162D01*
X136853703Y-95302863D01*
X136917816Y-95148082D01*
X136930098Y-95086334D01*
X136962482Y-95024425D01*
X137023197Y-94989851D01*
X137092967Y-94993590D01*
X137099167Y-94995965D01*
X137151918Y-95017816D01*
X137314866Y-95050228D01*
X137316228Y-95050499D01*
X137316232Y-95050500D01*
X137316233Y-95050500D01*
X137483768Y-95050500D01*
X137483769Y-95050499D01*
X137648082Y-95017816D01*
X137802863Y-94953703D01*
X137821533Y-94941228D01*
X142249500Y-94941228D01*
X142249500Y-95108771D01*
X142282182Y-95273074D01*
X142282184Y-95273082D01*
X142346295Y-95427860D01*
X142439373Y-95567162D01*
X142557837Y-95685626D01*
X142606015Y-95717817D01*
X142697137Y-95778703D01*
X142851918Y-95842816D01*
X142997853Y-95871844D01*
X143016228Y-95875499D01*
X143016232Y-95875500D01*
X143016233Y-95875500D01*
X143183768Y-95875500D01*
X143183769Y-95875499D01*
X143348082Y-95842816D01*
X143502863Y-95778703D01*
X143642162Y-95685626D01*
X143760626Y-95567162D01*
X143853703Y-95427863D01*
X143917816Y-95273082D01*
X143950500Y-95108767D01*
X143950500Y-94941233D01*
X143917816Y-94776918D01*
X143860843Y-94639374D01*
X143853704Y-94622139D01*
X143839245Y-94600500D01*
X143803027Y-94546295D01*
X143760626Y-94482837D01*
X143642162Y-94364373D01*
X143502860Y-94271295D01*
X143502858Y-94271294D01*
X143476047Y-94260189D01*
X143476046Y-94260189D01*
X143465708Y-94255907D01*
X143348082Y-94207184D01*
X143348074Y-94207182D01*
X143183771Y-94174500D01*
X143183767Y-94174500D01*
X143016233Y-94174500D01*
X143016228Y-94174500D01*
X142851925Y-94207182D01*
X142851917Y-94207184D01*
X142697139Y-94271295D01*
X142557837Y-94364373D01*
X142439373Y-94482837D01*
X142346295Y-94622139D01*
X142282184Y-94776917D01*
X142282182Y-94776925D01*
X142249500Y-94941228D01*
X137821533Y-94941228D01*
X137942162Y-94860626D01*
X137942165Y-94860623D01*
X137955329Y-94847460D01*
X138060623Y-94742165D01*
X138060626Y-94742162D01*
X138081211Y-94711354D01*
X138153703Y-94602863D01*
X138217816Y-94448082D01*
X138250500Y-94283767D01*
X138250500Y-94116233D01*
X138217816Y-93951918D01*
X138153703Y-93797137D01*
X138104323Y-93723235D01*
X138060626Y-93657837D01*
X137942162Y-93539373D01*
X137802860Y-93446295D01*
X137648082Y-93382184D01*
X137648074Y-93382182D01*
X137483771Y-93349500D01*
X137483767Y-93349500D01*
X137316233Y-93349500D01*
X137316228Y-93349500D01*
X137151925Y-93382182D01*
X137151917Y-93382184D01*
X136997139Y-93446295D01*
X136857837Y-93539373D01*
X136739373Y-93657837D01*
X136646295Y-93797139D01*
X136582184Y-93951917D01*
X136582182Y-93951923D01*
X136569901Y-94013664D01*
X136537515Y-94075575D01*
X136476799Y-94110149D01*
X136407030Y-94106408D01*
X136400832Y-94104033D01*
X136348086Y-94082185D01*
X136348074Y-94082182D01*
X136183771Y-94049500D01*
X136183767Y-94049500D01*
X136016233Y-94049500D01*
X136016228Y-94049500D01*
X135851925Y-94082182D01*
X135851917Y-94082184D01*
X135697139Y-94146295D01*
X135557837Y-94239373D01*
X135439373Y-94357837D01*
X135346295Y-94497139D01*
X135282184Y-94651917D01*
X135282182Y-94651925D01*
X135249500Y-94816228D01*
X122986560Y-94816228D01*
X123060626Y-94742162D01*
X123060843Y-94741836D01*
X123061238Y-94741247D01*
X123061239Y-94741245D01*
X123090969Y-94696751D01*
X123153703Y-94602863D01*
X123217816Y-94448082D01*
X123250500Y-94283767D01*
X123250500Y-94116233D01*
X123217816Y-93951918D01*
X123153703Y-93797137D01*
X123104323Y-93723235D01*
X123060626Y-93657837D01*
X123034110Y-93631321D01*
X123000625Y-93569998D01*
X123005609Y-93500306D01*
X123047481Y-93444373D01*
X123052876Y-93440554D01*
X123205908Y-93338302D01*
X123338302Y-93205908D01*
X123442322Y-93050231D01*
X123513973Y-92877251D01*
X123550500Y-92693616D01*
X123550500Y-92506384D01*
X123513973Y-92322749D01*
X123442322Y-92149769D01*
X123442320Y-92149766D01*
X123442318Y-92149762D01*
X123419911Y-92116228D01*
X132049500Y-92116228D01*
X132049500Y-92283771D01*
X132082182Y-92448074D01*
X132082184Y-92448082D01*
X132146295Y-92602860D01*
X132239373Y-92742162D01*
X132357837Y-92860626D01*
X132450494Y-92922537D01*
X132497137Y-92953703D01*
X132497138Y-92953703D01*
X132497139Y-92953704D01*
X132532201Y-92968227D01*
X132651918Y-93017816D01*
X132814866Y-93050228D01*
X132816228Y-93050499D01*
X132816232Y-93050500D01*
X132816233Y-93050500D01*
X132983768Y-93050500D01*
X132983769Y-93050499D01*
X133148082Y-93017816D01*
X133302863Y-92953703D01*
X133442162Y-92860626D01*
X133486560Y-92816228D01*
X142349500Y-92816228D01*
X142349500Y-92983771D01*
X142382182Y-93148074D01*
X142382184Y-93148082D01*
X142446295Y-93302860D01*
X142539373Y-93442162D01*
X142657837Y-93560626D01*
X142750494Y-93622537D01*
X142797137Y-93653703D01*
X142797138Y-93653703D01*
X142797139Y-93653704D01*
X142831206Y-93667815D01*
X142951918Y-93717816D01*
X143081630Y-93743617D01*
X143116228Y-93750499D01*
X143116232Y-93750500D01*
X143116233Y-93750500D01*
X143283768Y-93750500D01*
X143283769Y-93750499D01*
X143448082Y-93717816D01*
X143602863Y-93653703D01*
X143742162Y-93560626D01*
X143860626Y-93442162D01*
X143953703Y-93302863D01*
X144017816Y-93148082D01*
X144050500Y-92983767D01*
X144050500Y-92816233D01*
X144017816Y-92651918D01*
X143953703Y-92497137D01*
X143879128Y-92385528D01*
X143860626Y-92357837D01*
X143769017Y-92266228D01*
X162449500Y-92266228D01*
X162449500Y-92433771D01*
X162482182Y-92598074D01*
X162482184Y-92598082D01*
X162546295Y-92752860D01*
X162639373Y-92892162D01*
X162757837Y-93010626D01*
X162817512Y-93050499D01*
X162897137Y-93103703D01*
X163051918Y-93167816D01*
X163212523Y-93199762D01*
X163216228Y-93200499D01*
X163216232Y-93200500D01*
X163216233Y-93200500D01*
X163383768Y-93200500D01*
X163383769Y-93200499D01*
X163548082Y-93167816D01*
X163702863Y-93103703D01*
X163842162Y-93010626D01*
X163960626Y-92892162D01*
X164053703Y-92752863D01*
X164058649Y-92740923D01*
X170510000Y-92740923D01*
X170510000Y-92999076D01*
X170550381Y-93254030D01*
X170630154Y-93499543D01*
X170747346Y-93729547D01*
X170827111Y-93839333D01*
X170827111Y-93839334D01*
X171464767Y-93201677D01*
X171476497Y-93229995D01*
X171559670Y-93354472D01*
X171665528Y-93460330D01*
X171790005Y-93543503D01*
X171818321Y-93555231D01*
X171180664Y-94192887D01*
X171290452Y-94272653D01*
X171520456Y-94389845D01*
X171765969Y-94469618D01*
X172020924Y-94510000D01*
X172279076Y-94510000D01*
X172534030Y-94469618D01*
X172779543Y-94389845D01*
X173009551Y-94272651D01*
X173043256Y-94248162D01*
X173043262Y-94248158D01*
X173119333Y-94192887D01*
X173119334Y-94192887D01*
X172481678Y-93555232D01*
X172509995Y-93543503D01*
X172634472Y-93460330D01*
X172740330Y-93354472D01*
X172823503Y-93229995D01*
X172835232Y-93201678D01*
X173472887Y-93839334D01*
X173472887Y-93839333D01*
X173552653Y-93729547D01*
X173669845Y-93499543D01*
X173749618Y-93254030D01*
X173790000Y-92999076D01*
X173790000Y-92743821D01*
X174225000Y-92743821D01*
X174225000Y-92996178D01*
X174257938Y-93246353D01*
X174323248Y-93490097D01*
X174419810Y-93723220D01*
X174419817Y-93723235D01*
X174545986Y-93941766D01*
X174623569Y-94042875D01*
X174623570Y-94042875D01*
X175323474Y-93342971D01*
X175412087Y-93475590D01*
X175544410Y-93607913D01*
X175677027Y-93696525D01*
X174977123Y-94396428D01*
X174977123Y-94396429D01*
X175078233Y-94474013D01*
X175296764Y-94600182D01*
X175296779Y-94600189D01*
X175529902Y-94696751D01*
X175773646Y-94762061D01*
X176023821Y-94794999D01*
X176023836Y-94795000D01*
X176276164Y-94795000D01*
X176276178Y-94794999D01*
X176526353Y-94762061D01*
X176770097Y-94696751D01*
X177003220Y-94600189D01*
X177003234Y-94600182D01*
X177221767Y-94474012D01*
X177322875Y-94396428D01*
X176622972Y-93696525D01*
X176755590Y-93607913D01*
X176887913Y-93475590D01*
X176976525Y-93342972D01*
X177676428Y-94042875D01*
X177754012Y-93941767D01*
X177880182Y-93723234D01*
X177880189Y-93723220D01*
X177976751Y-93490097D01*
X178042061Y-93246353D01*
X178074999Y-92996178D01*
X178075000Y-92996164D01*
X178075000Y-92743835D01*
X178074999Y-92743821D01*
X178042061Y-92493646D01*
X177976751Y-92249902D01*
X177880189Y-92016779D01*
X177880182Y-92016764D01*
X177754013Y-91798233D01*
X177676429Y-91697123D01*
X177676428Y-91697123D01*
X176976524Y-92397026D01*
X176887913Y-92264410D01*
X176755590Y-92132087D01*
X176622971Y-92043473D01*
X177322875Y-91343570D01*
X177322875Y-91343569D01*
X177221766Y-91265986D01*
X177003235Y-91139817D01*
X177003220Y-91139810D01*
X176770097Y-91043248D01*
X176526353Y-90977938D01*
X176276178Y-90945000D01*
X176023821Y-90945000D01*
X175773646Y-90977938D01*
X175529902Y-91043248D01*
X175296779Y-91139810D01*
X175296764Y-91139817D01*
X175078242Y-91265980D01*
X175078235Y-91265986D01*
X174977123Y-91343569D01*
X174977123Y-91343570D01*
X175677027Y-92043474D01*
X175544410Y-92132087D01*
X175412087Y-92264410D01*
X175323474Y-92397027D01*
X174623570Y-91697123D01*
X174623569Y-91697123D01*
X174545986Y-91798235D01*
X174545980Y-91798242D01*
X174419817Y-92016764D01*
X174419810Y-92016779D01*
X174323248Y-92249902D01*
X174257938Y-92493646D01*
X174225000Y-92743821D01*
X173790000Y-92743821D01*
X173790000Y-92740923D01*
X173749618Y-92485969D01*
X173669845Y-92240456D01*
X173552653Y-92010452D01*
X173472887Y-91900665D01*
X173472887Y-91900664D01*
X172835231Y-92538320D01*
X172823503Y-92510005D01*
X172740330Y-92385528D01*
X172634472Y-92279670D01*
X172509995Y-92196497D01*
X172481678Y-92184767D01*
X173119334Y-91547111D01*
X173043261Y-91491841D01*
X173009547Y-91467346D01*
X172779543Y-91350154D01*
X172534030Y-91270381D01*
X172279076Y-91230000D01*
X172020924Y-91230000D01*
X171765969Y-91270381D01*
X171520456Y-91350154D01*
X171290454Y-91467345D01*
X171180664Y-91547111D01*
X171818321Y-92184767D01*
X171790005Y-92196497D01*
X171665528Y-92279670D01*
X171559670Y-92385528D01*
X171476497Y-92510005D01*
X171464768Y-92538321D01*
X170827111Y-91900664D01*
X170747345Y-92010454D01*
X170630154Y-92240456D01*
X170550381Y-92485969D01*
X170510000Y-92740923D01*
X164058649Y-92740923D01*
X164117816Y-92598082D01*
X164150500Y-92433767D01*
X164150500Y-92266233D01*
X164117816Y-92101918D01*
X164055686Y-91951925D01*
X164053704Y-91947139D01*
X164047799Y-91938302D01*
X163996616Y-91861700D01*
X163960626Y-91807837D01*
X163842169Y-91689380D01*
X163842157Y-91689370D01*
X163702860Y-91596295D01*
X163548082Y-91532184D01*
X163548074Y-91532182D01*
X163383771Y-91499500D01*
X163383767Y-91499500D01*
X163216233Y-91499500D01*
X163216228Y-91499500D01*
X163051925Y-91532182D01*
X163051917Y-91532184D01*
X162897139Y-91596295D01*
X162757837Y-91689373D01*
X162639373Y-91807837D01*
X162546295Y-91947139D01*
X162482184Y-92101917D01*
X162482182Y-92101925D01*
X162449500Y-92266228D01*
X143769017Y-92266228D01*
X143742162Y-92239373D01*
X143602860Y-92146295D01*
X143448082Y-92082184D01*
X143448074Y-92082182D01*
X143283771Y-92049500D01*
X143283767Y-92049500D01*
X143116233Y-92049500D01*
X143116228Y-92049500D01*
X142951925Y-92082182D01*
X142951917Y-92082184D01*
X142797139Y-92146295D01*
X142657837Y-92239373D01*
X142539373Y-92357837D01*
X142446295Y-92497139D01*
X142382184Y-92651917D01*
X142382182Y-92651925D01*
X142349500Y-92816228D01*
X133486560Y-92816228D01*
X133560626Y-92742162D01*
X133560843Y-92741836D01*
X133561238Y-92741247D01*
X133561239Y-92741245D01*
X133593063Y-92693617D01*
X133653703Y-92602863D01*
X133717816Y-92448082D01*
X133750500Y-92283767D01*
X133750500Y-92116233D01*
X133717816Y-91951918D01*
X133653703Y-91797137D01*
X133604003Y-91722756D01*
X133560626Y-91657837D01*
X133442162Y-91539373D01*
X133302860Y-91446295D01*
X133148082Y-91382184D01*
X133148074Y-91382182D01*
X132983771Y-91349500D01*
X132983767Y-91349500D01*
X132816233Y-91349500D01*
X132816228Y-91349500D01*
X132651925Y-91382182D01*
X132651917Y-91382184D01*
X132497139Y-91446295D01*
X132357837Y-91539373D01*
X132239373Y-91657837D01*
X132146295Y-91797139D01*
X132082184Y-91951917D01*
X132082182Y-91951925D01*
X132049500Y-92116228D01*
X123419911Y-92116228D01*
X123338302Y-91994092D01*
X123338299Y-91994088D01*
X123205911Y-91861700D01*
X123205907Y-91861697D01*
X123050237Y-91757681D01*
X123050228Y-91757676D01*
X122877251Y-91686027D01*
X122877243Y-91686025D01*
X122693620Y-91649500D01*
X122693616Y-91649500D01*
X122566486Y-91649500D01*
X122499447Y-91629815D01*
X122453692Y-91577011D01*
X122451939Y-91572987D01*
X122442322Y-91549769D01*
X122442320Y-91549766D01*
X122442318Y-91549762D01*
X122338302Y-91394092D01*
X122338299Y-91394088D01*
X122205911Y-91261700D01*
X122205907Y-91261697D01*
X122050237Y-91157681D01*
X122050228Y-91157676D01*
X121877251Y-91086027D01*
X121877243Y-91086025D01*
X121693620Y-91049500D01*
X121693616Y-91049500D01*
X121506384Y-91049500D01*
X121506379Y-91049500D01*
X121322756Y-91086025D01*
X121322748Y-91086027D01*
X121149771Y-91157676D01*
X121149762Y-91157681D01*
X120994092Y-91261697D01*
X120994088Y-91261700D01*
X120861700Y-91394088D01*
X120861697Y-91394092D01*
X120757681Y-91549762D01*
X120757676Y-91549771D01*
X120686027Y-91722748D01*
X120686025Y-91722756D01*
X120649500Y-91906379D01*
X120649500Y-92093620D01*
X120686025Y-92277243D01*
X120686027Y-92277251D01*
X120757676Y-92450228D01*
X120757681Y-92450237D01*
X120861697Y-92605907D01*
X120861700Y-92605911D01*
X120994088Y-92738299D01*
X120994092Y-92738302D01*
X121149762Y-92842318D01*
X121149768Y-92842321D01*
X121149769Y-92842322D01*
X121322749Y-92913973D01*
X121485360Y-92946318D01*
X121506379Y-92950499D01*
X121506383Y-92950500D01*
X121633513Y-92950500D01*
X121700552Y-92970185D01*
X121746307Y-93022989D01*
X121748073Y-93027045D01*
X121757675Y-93050225D01*
X121757681Y-93050237D01*
X121861697Y-93205907D01*
X121861700Y-93205911D01*
X121953209Y-93297420D01*
X121986694Y-93358743D01*
X121981710Y-93428435D01*
X121939838Y-93484368D01*
X121934419Y-93488203D01*
X121857838Y-93539373D01*
X121857834Y-93539376D01*
X121739373Y-93657837D01*
X121646295Y-93797139D01*
X121582184Y-93951917D01*
X121582181Y-93951927D01*
X121578173Y-93972075D01*
X121545786Y-94033985D01*
X121485069Y-94068557D01*
X121415300Y-94064814D01*
X121358629Y-94023946D01*
X121353454Y-94016769D01*
X121351379Y-94013664D01*
X121338302Y-93994092D01*
X121338300Y-93994089D01*
X121205911Y-93861700D01*
X121205907Y-93861697D01*
X121050237Y-93757681D01*
X121050228Y-93757676D01*
X120877251Y-93686027D01*
X120877243Y-93686025D01*
X120693620Y-93649500D01*
X120693616Y-93649500D01*
X120506384Y-93649500D01*
X120506379Y-93649500D01*
X120322756Y-93686025D01*
X120322748Y-93686027D01*
X120149771Y-93757676D01*
X120149762Y-93757681D01*
X119994092Y-93861697D01*
X119994088Y-93861700D01*
X119861700Y-93994088D01*
X119861697Y-93994092D01*
X119757681Y-94149762D01*
X119757676Y-94149771D01*
X119686027Y-94322748D01*
X119686025Y-94322756D01*
X119649500Y-94506379D01*
X119649500Y-94693614D01*
X119661417Y-94753529D01*
X119655188Y-94823121D01*
X119612325Y-94878297D01*
X119546435Y-94901541D01*
X119492348Y-94892280D01*
X119477251Y-94886027D01*
X119477247Y-94886026D01*
X119477243Y-94886025D01*
X119293620Y-94849500D01*
X119293616Y-94849500D01*
X119106384Y-94849500D01*
X119106379Y-94849500D01*
X118922756Y-94886025D01*
X118922748Y-94886027D01*
X118749771Y-94957676D01*
X118749762Y-94957681D01*
X118594092Y-95061697D01*
X118594088Y-95061700D01*
X118461700Y-95194088D01*
X118461697Y-95194092D01*
X118357681Y-95349762D01*
X118357676Y-95349771D01*
X118286027Y-95522748D01*
X118286025Y-95522756D01*
X118249500Y-95706379D01*
X118249500Y-95759050D01*
X118229815Y-95826089D01*
X118177011Y-95871844D01*
X118149693Y-95880667D01*
X118122753Y-95886025D01*
X118122748Y-95886027D01*
X117949771Y-95957676D01*
X117949762Y-95957681D01*
X117794092Y-96061697D01*
X117794088Y-96061700D01*
X117661700Y-96194088D01*
X117661697Y-96194092D01*
X117557681Y-96349762D01*
X117557676Y-96349771D01*
X117486023Y-96522757D01*
X117485450Y-96524648D01*
X117484881Y-96525515D01*
X117483696Y-96528377D01*
X117483153Y-96528152D01*
X117447147Y-96583083D01*
X117383333Y-96611534D01*
X117314267Y-96600967D01*
X117279112Y-96576323D01*
X117242162Y-96539373D01*
X117102860Y-96446295D01*
X116948082Y-96382184D01*
X116948074Y-96382182D01*
X116783771Y-96349500D01*
X116783767Y-96349500D01*
X116616233Y-96349500D01*
X116616228Y-96349500D01*
X116451925Y-96382182D01*
X116451917Y-96382184D01*
X116297139Y-96446295D01*
X116157837Y-96539373D01*
X116039373Y-96657837D01*
X115946295Y-96797139D01*
X115882184Y-96951917D01*
X115882182Y-96951925D01*
X115849500Y-97116228D01*
X112182692Y-97116228D01*
X112152860Y-97096295D01*
X111998082Y-97032184D01*
X111998074Y-97032182D01*
X111833771Y-96999500D01*
X111833767Y-96999500D01*
X111666233Y-96999500D01*
X111666228Y-96999500D01*
X111501925Y-97032182D01*
X111501917Y-97032184D01*
X111347139Y-97096295D01*
X111207837Y-97189373D01*
X111089373Y-97307837D01*
X110996295Y-97447139D01*
X110932184Y-97601917D01*
X110932182Y-97601925D01*
X110899500Y-97766228D01*
X101333655Y-97766228D01*
X101336708Y-95216228D01*
X109149500Y-95216228D01*
X109149500Y-95383771D01*
X109182182Y-95548074D01*
X109182184Y-95548082D01*
X109246295Y-95702860D01*
X109339373Y-95842162D01*
X109457837Y-95960626D01*
X109533072Y-96010896D01*
X109597137Y-96053703D01*
X109751918Y-96117816D01*
X109916228Y-96150499D01*
X109916232Y-96150500D01*
X109916233Y-96150500D01*
X110083768Y-96150500D01*
X110083769Y-96150499D01*
X110248082Y-96117816D01*
X110402863Y-96053703D01*
X110542162Y-95960626D01*
X110660626Y-95842162D01*
X110753703Y-95702863D01*
X110817816Y-95548082D01*
X110850500Y-95383767D01*
X110850500Y-95216233D01*
X110817816Y-95051918D01*
X110753703Y-94897137D01*
X110704247Y-94823121D01*
X110660626Y-94757837D01*
X110542162Y-94639373D01*
X110402860Y-94546295D01*
X110248082Y-94482184D01*
X110248074Y-94482182D01*
X110083771Y-94449500D01*
X110083767Y-94449500D01*
X109916233Y-94449500D01*
X109916228Y-94449500D01*
X109751925Y-94482182D01*
X109751917Y-94482184D01*
X109597139Y-94546295D01*
X109457837Y-94639373D01*
X109339373Y-94757837D01*
X109246295Y-94897139D01*
X109182184Y-95051917D01*
X109182182Y-95051925D01*
X109149500Y-95216228D01*
X101336708Y-95216228D01*
X101338037Y-94106379D01*
X114449500Y-94106379D01*
X114449500Y-94293620D01*
X114486025Y-94477243D01*
X114486027Y-94477251D01*
X114557676Y-94650228D01*
X114557681Y-94650237D01*
X114661697Y-94805907D01*
X114661700Y-94805911D01*
X114794088Y-94938299D01*
X114794092Y-94938302D01*
X114949762Y-95042318D01*
X114949771Y-95042323D01*
X114988956Y-95058554D01*
X115122749Y-95113973D01*
X115294188Y-95148074D01*
X115306379Y-95150499D01*
X115306383Y-95150500D01*
X115306384Y-95150500D01*
X115493617Y-95150500D01*
X115493618Y-95150499D01*
X115677251Y-95113973D01*
X115850231Y-95042322D01*
X116005908Y-94938302D01*
X116138302Y-94805908D01*
X116242322Y-94650231D01*
X116242509Y-94649777D01*
X116242672Y-94649576D01*
X116245190Y-94644865D01*
X116246083Y-94645342D01*
X116286347Y-94595375D01*
X116352641Y-94573308D01*
X116381262Y-94575612D01*
X116429333Y-94585173D01*
X116506381Y-94600499D01*
X116506383Y-94600500D01*
X116506384Y-94600500D01*
X116693617Y-94600500D01*
X116693618Y-94600499D01*
X116877251Y-94563973D01*
X117050231Y-94492322D01*
X117205908Y-94388302D01*
X117338302Y-94255908D01*
X117442322Y-94100231D01*
X117513973Y-93927251D01*
X117550500Y-93743616D01*
X117550500Y-93556384D01*
X117513973Y-93372749D01*
X117444865Y-93205908D01*
X117442323Y-93199771D01*
X117442318Y-93199762D01*
X117338302Y-93044092D01*
X117338299Y-93044088D01*
X117205911Y-92911700D01*
X117205907Y-92911697D01*
X117050237Y-92807681D01*
X117050228Y-92807676D01*
X116877251Y-92736027D01*
X116877243Y-92736025D01*
X116693620Y-92699500D01*
X116693616Y-92699500D01*
X116506384Y-92699500D01*
X116506379Y-92699500D01*
X116322756Y-92736025D01*
X116322748Y-92736027D01*
X116149771Y-92807676D01*
X116149762Y-92807681D01*
X115994092Y-92911697D01*
X115994088Y-92911700D01*
X115861700Y-93044088D01*
X115861694Y-93044096D01*
X115757679Y-93199766D01*
X115757674Y-93199776D01*
X115757484Y-93200235D01*
X115757320Y-93200438D01*
X115754803Y-93205147D01*
X115753909Y-93204669D01*
X115713637Y-93254634D01*
X115647341Y-93276691D01*
X115618737Y-93274387D01*
X115493620Y-93249500D01*
X115493616Y-93249500D01*
X115306384Y-93249500D01*
X115306379Y-93249500D01*
X115122756Y-93286025D01*
X115122748Y-93286027D01*
X114949771Y-93357676D01*
X114949762Y-93357681D01*
X114794092Y-93461697D01*
X114794088Y-93461700D01*
X114661700Y-93594088D01*
X114661697Y-93594092D01*
X114557681Y-93749762D01*
X114557676Y-93749771D01*
X114486027Y-93922748D01*
X114486025Y-93922756D01*
X114449500Y-94106379D01*
X101338037Y-94106379D01*
X101339641Y-92766228D01*
X101649500Y-92766228D01*
X101649500Y-92933771D01*
X101682182Y-93098074D01*
X101682184Y-93098082D01*
X101746295Y-93252860D01*
X101839373Y-93392162D01*
X101957837Y-93510626D01*
X102026312Y-93556379D01*
X102097137Y-93603703D01*
X102097138Y-93603703D01*
X102097139Y-93603704D01*
X102132201Y-93618227D01*
X102251918Y-93667816D01*
X102416228Y-93700499D01*
X102416232Y-93700500D01*
X102416233Y-93700500D01*
X102583768Y-93700500D01*
X102583769Y-93700499D01*
X102748082Y-93667816D01*
X102902863Y-93603703D01*
X103042162Y-93510626D01*
X103160626Y-93392162D01*
X103253703Y-93252863D01*
X103317816Y-93098082D01*
X103350500Y-92933767D01*
X103350500Y-92766233D01*
X103317816Y-92601918D01*
X103254985Y-92450231D01*
X103253704Y-92447139D01*
X103235574Y-92420006D01*
X103194035Y-92357838D01*
X103160626Y-92307837D01*
X103042162Y-92189373D01*
X102902860Y-92096295D01*
X102748082Y-92032184D01*
X102748074Y-92032182D01*
X102583771Y-91999500D01*
X102583767Y-91999500D01*
X102416233Y-91999500D01*
X102416228Y-91999500D01*
X102251925Y-92032182D01*
X102251917Y-92032184D01*
X102097139Y-92096295D01*
X101957837Y-92189373D01*
X101839373Y-92307837D01*
X101746295Y-92447139D01*
X101682184Y-92601917D01*
X101682182Y-92601925D01*
X101649500Y-92766228D01*
X101339641Y-92766228D01*
X101341628Y-91106379D01*
X115449500Y-91106379D01*
X115449500Y-91293620D01*
X115486025Y-91477243D01*
X115486027Y-91477251D01*
X115557676Y-91650228D01*
X115557681Y-91650237D01*
X115661697Y-91805907D01*
X115661700Y-91805911D01*
X115794088Y-91938299D01*
X115794092Y-91938302D01*
X115949762Y-92042318D01*
X115949768Y-92042321D01*
X115949769Y-92042322D01*
X116122749Y-92113973D01*
X116249610Y-92139207D01*
X116306379Y-92150499D01*
X116306383Y-92150500D01*
X116306384Y-92150500D01*
X116493617Y-92150500D01*
X116493618Y-92150499D01*
X116677251Y-92113973D01*
X116850231Y-92042322D01*
X117005908Y-91938302D01*
X117138302Y-91805908D01*
X117242322Y-91650231D01*
X117313973Y-91477251D01*
X117350500Y-91293616D01*
X117350500Y-91106384D01*
X117348970Y-91098692D01*
X117355196Y-91029102D01*
X117398058Y-90973924D01*
X117463948Y-90950678D01*
X117470587Y-90950500D01*
X117493617Y-90950500D01*
X117493618Y-90950499D01*
X117677251Y-90913973D01*
X117850231Y-90842322D01*
X118005908Y-90738302D01*
X118138302Y-90605908D01*
X118198224Y-90516228D01*
X157449500Y-90516228D01*
X157449500Y-90683771D01*
X157482182Y-90848074D01*
X157482184Y-90848082D01*
X157546295Y-91002860D01*
X157639373Y-91142162D01*
X157757837Y-91260626D01*
X157850494Y-91322537D01*
X157897137Y-91353703D01*
X158051918Y-91417816D01*
X158195093Y-91446295D01*
X158216228Y-91450499D01*
X158216232Y-91450500D01*
X158216233Y-91450500D01*
X158383768Y-91450500D01*
X158383769Y-91450499D01*
X158548082Y-91417816D01*
X158702863Y-91353703D01*
X158842162Y-91260626D01*
X158960626Y-91142162D01*
X159053703Y-91002863D01*
X159117816Y-90848082D01*
X159150500Y-90683767D01*
X159150500Y-90516233D01*
X159117816Y-90351918D01*
X159053703Y-90197137D01*
X159022537Y-90150494D01*
X158960626Y-90057837D01*
X158842162Y-89939373D01*
X158702860Y-89846295D01*
X158548082Y-89782184D01*
X158548074Y-89782182D01*
X158383771Y-89749500D01*
X158383767Y-89749500D01*
X158216233Y-89749500D01*
X158216228Y-89749500D01*
X158051925Y-89782182D01*
X158051917Y-89782184D01*
X157897139Y-89846295D01*
X157757837Y-89939373D01*
X157639373Y-90057837D01*
X157546295Y-90197139D01*
X157482184Y-90351917D01*
X157482182Y-90351925D01*
X157449500Y-90516228D01*
X118198224Y-90516228D01*
X118242322Y-90450231D01*
X118313973Y-90277251D01*
X118350500Y-90093616D01*
X118350500Y-89906384D01*
X118313973Y-89722749D01*
X118242322Y-89549769D01*
X118242321Y-89549768D01*
X118242318Y-89549762D01*
X118138302Y-89394092D01*
X118138299Y-89394088D01*
X118005911Y-89261700D01*
X118005907Y-89261697D01*
X117850237Y-89157681D01*
X117850228Y-89157676D01*
X117677251Y-89086027D01*
X117677243Y-89086025D01*
X117493620Y-89049500D01*
X117493616Y-89049500D01*
X117306384Y-89049500D01*
X117306379Y-89049500D01*
X117122756Y-89086025D01*
X117122748Y-89086027D01*
X116949771Y-89157676D01*
X116949762Y-89157681D01*
X116794092Y-89261697D01*
X116794088Y-89261700D01*
X116661700Y-89394088D01*
X116661697Y-89394092D01*
X116557681Y-89549762D01*
X116557676Y-89549771D01*
X116486027Y-89722748D01*
X116486025Y-89722756D01*
X116449500Y-89906379D01*
X116449500Y-90093615D01*
X116451030Y-90101307D01*
X116444804Y-90170898D01*
X116401942Y-90226076D01*
X116336052Y-90249322D01*
X116329413Y-90249500D01*
X116306379Y-90249500D01*
X116122756Y-90286025D01*
X116122748Y-90286027D01*
X115949771Y-90357676D01*
X115949762Y-90357681D01*
X115794092Y-90461697D01*
X115794088Y-90461700D01*
X115661700Y-90594088D01*
X115661697Y-90594092D01*
X115557681Y-90749762D01*
X115557676Y-90749771D01*
X115486027Y-90922748D01*
X115486025Y-90922756D01*
X115449500Y-91106379D01*
X101341628Y-91106379D01*
X101344440Y-88757794D01*
X121449500Y-88757794D01*
X121449500Y-88945035D01*
X121486025Y-89128658D01*
X121486027Y-89128666D01*
X121557676Y-89301643D01*
X121557681Y-89301652D01*
X121661697Y-89457322D01*
X121661700Y-89457326D01*
X121794088Y-89589714D01*
X121794092Y-89589717D01*
X121949762Y-89693733D01*
X121949768Y-89693736D01*
X121949769Y-89693737D01*
X122122749Y-89765388D01*
X122306379Y-89801914D01*
X122306383Y-89801915D01*
X122306384Y-89801915D01*
X122493617Y-89801915D01*
X122493618Y-89801914D01*
X122677251Y-89765388D01*
X122850231Y-89693737D01*
X123005908Y-89589717D01*
X123138302Y-89457323D01*
X123242322Y-89301646D01*
X123313973Y-89128666D01*
X123350500Y-88945031D01*
X123350500Y-88757799D01*
X123313973Y-88574164D01*
X123242322Y-88401184D01*
X123242321Y-88401183D01*
X123242318Y-88401177D01*
X123138302Y-88245507D01*
X123138299Y-88245503D01*
X123005908Y-88113112D01*
X122860911Y-88016228D01*
X125399500Y-88016228D01*
X125399500Y-88183771D01*
X125432182Y-88348074D01*
X125432184Y-88348082D01*
X125496295Y-88502860D01*
X125589373Y-88642162D01*
X125707837Y-88760626D01*
X125800494Y-88822537D01*
X125847137Y-88853703D01*
X126001918Y-88917816D01*
X126166228Y-88950499D01*
X126166232Y-88950500D01*
X126166233Y-88950500D01*
X126333768Y-88950500D01*
X126333769Y-88950499D01*
X126498082Y-88917816D01*
X126652863Y-88853703D01*
X126792162Y-88760626D01*
X126910626Y-88642162D01*
X127003703Y-88502863D01*
X127067816Y-88348082D01*
X127100500Y-88183767D01*
X127100500Y-88016233D01*
X127067816Y-87851918D01*
X127003703Y-87697137D01*
X126972537Y-87650494D01*
X126910626Y-87557837D01*
X126792162Y-87439373D01*
X126652860Y-87346295D01*
X126498082Y-87282184D01*
X126498074Y-87282182D01*
X126333771Y-87249500D01*
X126333767Y-87249500D01*
X126166233Y-87249500D01*
X126166228Y-87249500D01*
X126001925Y-87282182D01*
X126001917Y-87282184D01*
X125847139Y-87346295D01*
X125707837Y-87439373D01*
X125589373Y-87557837D01*
X125496295Y-87697139D01*
X125432184Y-87851917D01*
X125432182Y-87851925D01*
X125399500Y-88016228D01*
X122860911Y-88016228D01*
X122850237Y-88009096D01*
X122850228Y-88009091D01*
X122677251Y-87937442D01*
X122677243Y-87937440D01*
X122493620Y-87900915D01*
X122493616Y-87900915D01*
X122306384Y-87900915D01*
X122306379Y-87900915D01*
X122122756Y-87937440D01*
X122122748Y-87937442D01*
X121949771Y-88009091D01*
X121949762Y-88009096D01*
X121794092Y-88113112D01*
X121794088Y-88113115D01*
X121661700Y-88245503D01*
X121661697Y-88245507D01*
X121557681Y-88401177D01*
X121557676Y-88401186D01*
X121486027Y-88574163D01*
X121486025Y-88574171D01*
X121449500Y-88757794D01*
X101344440Y-88757794D01*
X101349219Y-84766228D01*
X113149500Y-84766228D01*
X113149500Y-84933771D01*
X113182182Y-85098074D01*
X113182184Y-85098082D01*
X113246295Y-85252860D01*
X113339373Y-85392162D01*
X113457837Y-85510626D01*
X113550494Y-85572537D01*
X113597137Y-85603703D01*
X113751918Y-85667816D01*
X113881630Y-85693617D01*
X113916228Y-85700499D01*
X113916232Y-85700500D01*
X113916233Y-85700500D01*
X114083768Y-85700500D01*
X114083769Y-85700499D01*
X114248082Y-85667816D01*
X114402863Y-85603703D01*
X114542162Y-85510626D01*
X114546409Y-85506379D01*
X123249500Y-85506379D01*
X123249500Y-85693620D01*
X123286025Y-85877243D01*
X123286027Y-85877251D01*
X123357676Y-86050228D01*
X123357681Y-86050237D01*
X123461697Y-86205907D01*
X123461700Y-86205911D01*
X123594088Y-86338299D01*
X123594092Y-86338302D01*
X123749762Y-86442318D01*
X123749768Y-86442321D01*
X123749769Y-86442322D01*
X123922749Y-86513973D01*
X124106379Y-86550499D01*
X124106383Y-86550500D01*
X124106384Y-86550500D01*
X124293617Y-86550500D01*
X124293618Y-86550499D01*
X124477251Y-86513973D01*
X124650231Y-86442322D01*
X124805908Y-86338302D01*
X124938302Y-86205908D01*
X125042322Y-86050231D01*
X125113973Y-85877251D01*
X125150500Y-85693616D01*
X125150500Y-85506384D01*
X125113973Y-85322749D01*
X125042322Y-85149769D01*
X125042321Y-85149768D01*
X125042318Y-85149762D01*
X124938302Y-84994092D01*
X124938299Y-84994088D01*
X124805911Y-84861700D01*
X124805907Y-84861697D01*
X124650237Y-84757681D01*
X124650228Y-84757676D01*
X124477251Y-84686027D01*
X124477243Y-84686025D01*
X124293620Y-84649500D01*
X124293616Y-84649500D01*
X124106384Y-84649500D01*
X124106379Y-84649500D01*
X123922756Y-84686025D01*
X123922748Y-84686027D01*
X123749771Y-84757676D01*
X123749762Y-84757681D01*
X123594092Y-84861697D01*
X123594088Y-84861700D01*
X123461700Y-84994088D01*
X123461697Y-84994092D01*
X123357681Y-85149762D01*
X123357676Y-85149771D01*
X123286027Y-85322748D01*
X123286025Y-85322756D01*
X123249500Y-85506379D01*
X114546409Y-85506379D01*
X114640178Y-85412611D01*
X114660623Y-85392165D01*
X114660626Y-85392162D01*
X114753703Y-85252863D01*
X114817816Y-85098082D01*
X114850500Y-84933767D01*
X114850500Y-84766233D01*
X114817816Y-84601918D01*
X114753703Y-84447137D01*
X114722537Y-84400494D01*
X114660626Y-84307837D01*
X114542162Y-84189373D01*
X114402860Y-84096295D01*
X114248082Y-84032184D01*
X114248074Y-84032182D01*
X114083771Y-83999500D01*
X114083767Y-83999500D01*
X113916233Y-83999500D01*
X113916228Y-83999500D01*
X113751925Y-84032182D01*
X113751917Y-84032184D01*
X113597139Y-84096295D01*
X113457837Y-84189373D01*
X113339373Y-84307837D01*
X113246295Y-84447139D01*
X113182184Y-84601917D01*
X113182182Y-84601925D01*
X113149500Y-84766228D01*
X101349219Y-84766228D01*
X101350548Y-83656379D01*
X138125500Y-83656379D01*
X138125500Y-83843620D01*
X138162025Y-84027243D01*
X138162027Y-84027251D01*
X138233676Y-84200228D01*
X138233681Y-84200237D01*
X138337697Y-84355907D01*
X138337700Y-84355911D01*
X138470088Y-84488299D01*
X138470092Y-84488302D01*
X138625762Y-84592318D01*
X138625771Y-84592323D01*
X138664956Y-84608554D01*
X138798749Y-84663973D01*
X138982379Y-84700499D01*
X138982383Y-84700500D01*
X138982384Y-84700500D01*
X139169617Y-84700500D01*
X139169618Y-84700499D01*
X139353251Y-84663973D01*
X139526231Y-84592322D01*
X139681908Y-84488302D01*
X139814302Y-84355908D01*
X139918322Y-84200231D01*
X139989973Y-84027251D01*
X140026500Y-83843616D01*
X140026500Y-83656384D01*
X139989973Y-83472749D01*
X139918322Y-83299769D01*
X139918321Y-83299768D01*
X139918318Y-83299762D01*
X139814302Y-83144092D01*
X139814299Y-83144088D01*
X139681909Y-83011698D01*
X139677465Y-83008729D01*
X139677464Y-83008728D01*
X139526237Y-82907681D01*
X139526228Y-82907676D01*
X139353251Y-82836027D01*
X139353243Y-82836025D01*
X139169620Y-82799500D01*
X139169616Y-82799500D01*
X138982384Y-82799500D01*
X138982379Y-82799500D01*
X138798756Y-82836025D01*
X138798748Y-82836027D01*
X138625771Y-82907676D01*
X138625762Y-82907681D01*
X138470092Y-83011697D01*
X138470088Y-83011700D01*
X138337700Y-83144088D01*
X138337697Y-83144092D01*
X138233681Y-83299762D01*
X138233676Y-83299771D01*
X138162027Y-83472748D01*
X138162025Y-83472756D01*
X138125500Y-83656379D01*
X101350548Y-83656379D01*
X101353080Y-81541555D01*
X117914200Y-81541555D01*
X117914200Y-81690444D01*
X117943243Y-81836451D01*
X117943245Y-81836459D01*
X118000217Y-81974004D01*
X118082931Y-82097794D01*
X118188205Y-82203068D01*
X118311995Y-82285782D01*
X118380767Y-82314268D01*
X118449541Y-82342755D01*
X118576019Y-82367913D01*
X118595555Y-82371799D01*
X118595558Y-82371800D01*
X118595560Y-82371800D01*
X118744442Y-82371800D01*
X118744443Y-82371799D01*
X118890459Y-82342755D01*
X119028006Y-82285781D01*
X119151794Y-82203068D01*
X119257068Y-82097794D01*
X119339781Y-81974006D01*
X119396755Y-81836459D01*
X119425800Y-81690440D01*
X119425800Y-81541560D01*
X119417717Y-81500923D01*
X170510000Y-81500923D01*
X170510000Y-81759076D01*
X170550381Y-82014030D01*
X170630154Y-82259543D01*
X170747346Y-82489547D01*
X170827111Y-82599333D01*
X170827111Y-82599334D01*
X171464767Y-81961677D01*
X171476497Y-81989995D01*
X171559670Y-82114472D01*
X171665528Y-82220330D01*
X171790005Y-82303503D01*
X171818321Y-82315231D01*
X171180664Y-82952887D01*
X171290452Y-83032653D01*
X171520456Y-83149845D01*
X171765969Y-83229618D01*
X172020924Y-83270000D01*
X172279076Y-83270000D01*
X172534030Y-83229618D01*
X172779543Y-83149845D01*
X173009551Y-83032651D01*
X173043256Y-83008162D01*
X173043262Y-83008158D01*
X173119333Y-82952887D01*
X173119334Y-82952887D01*
X172481678Y-82315232D01*
X172509995Y-82303503D01*
X172634472Y-82220330D01*
X172740330Y-82114472D01*
X172823503Y-81989995D01*
X172835232Y-81961678D01*
X173472887Y-82599334D01*
X173472887Y-82599333D01*
X173552653Y-82489547D01*
X173669845Y-82259543D01*
X173749618Y-82014030D01*
X173790000Y-81759076D01*
X173790000Y-81503821D01*
X174225000Y-81503821D01*
X174225000Y-81756178D01*
X174257938Y-82006353D01*
X174323248Y-82250097D01*
X174419810Y-82483220D01*
X174419817Y-82483235D01*
X174545986Y-82701766D01*
X174623569Y-82802875D01*
X174623570Y-82802875D01*
X175323474Y-82102971D01*
X175412087Y-82235590D01*
X175544410Y-82367913D01*
X175677027Y-82456525D01*
X174977123Y-83156428D01*
X174977123Y-83156429D01*
X175078233Y-83234013D01*
X175296764Y-83360182D01*
X175296779Y-83360189D01*
X175529902Y-83456751D01*
X175773646Y-83522061D01*
X176023821Y-83554999D01*
X176023836Y-83555000D01*
X176276164Y-83555000D01*
X176276178Y-83554999D01*
X176526353Y-83522061D01*
X176770097Y-83456751D01*
X177003220Y-83360189D01*
X177003234Y-83360182D01*
X177221767Y-83234012D01*
X177322875Y-83156428D01*
X176622972Y-82456525D01*
X176755590Y-82367913D01*
X176887913Y-82235590D01*
X176976525Y-82102972D01*
X177676428Y-82802875D01*
X177754012Y-82701767D01*
X177880182Y-82483234D01*
X177880189Y-82483220D01*
X177976751Y-82250097D01*
X178042061Y-82006353D01*
X178074999Y-81756178D01*
X178075000Y-81756164D01*
X178075000Y-81503835D01*
X178074999Y-81503821D01*
X178042061Y-81253646D01*
X177976751Y-81009902D01*
X177880189Y-80776779D01*
X177880182Y-80776764D01*
X177754013Y-80558233D01*
X177676429Y-80457123D01*
X177676428Y-80457123D01*
X176976524Y-81157026D01*
X176887913Y-81024410D01*
X176755590Y-80892087D01*
X176622971Y-80803473D01*
X177322875Y-80103570D01*
X177322875Y-80103569D01*
X177221766Y-80025986D01*
X177003235Y-79899817D01*
X177003220Y-79899810D01*
X176770097Y-79803248D01*
X176526353Y-79737938D01*
X176276178Y-79705000D01*
X176023821Y-79705000D01*
X175773646Y-79737938D01*
X175529902Y-79803248D01*
X175296779Y-79899810D01*
X175296764Y-79899817D01*
X175078242Y-80025980D01*
X175078235Y-80025986D01*
X174977123Y-80103569D01*
X174977123Y-80103570D01*
X175677027Y-80803474D01*
X175544410Y-80892087D01*
X175412087Y-81024410D01*
X175323474Y-81157027D01*
X174623570Y-80457123D01*
X174623569Y-80457123D01*
X174545986Y-80558235D01*
X174545980Y-80558242D01*
X174419817Y-80776764D01*
X174419810Y-80776779D01*
X174323248Y-81009902D01*
X174257938Y-81253646D01*
X174225000Y-81503821D01*
X173790000Y-81503821D01*
X173790000Y-81500923D01*
X173749618Y-81245969D01*
X173669845Y-81000456D01*
X173552653Y-80770452D01*
X173472887Y-80660665D01*
X173472887Y-80660664D01*
X172835231Y-81298320D01*
X172823503Y-81270005D01*
X172740330Y-81145528D01*
X172634472Y-81039670D01*
X172509995Y-80956497D01*
X172481678Y-80944767D01*
X173119334Y-80307111D01*
X173043261Y-80251841D01*
X173009547Y-80227346D01*
X172779543Y-80110154D01*
X172534030Y-80030381D01*
X172279076Y-79990000D01*
X172020924Y-79990000D01*
X171765969Y-80030381D01*
X171520456Y-80110154D01*
X171290454Y-80227345D01*
X171180664Y-80307111D01*
X171818321Y-80944767D01*
X171790005Y-80956497D01*
X171665528Y-81039670D01*
X171559670Y-81145528D01*
X171476497Y-81270005D01*
X171464768Y-81298321D01*
X170827111Y-80660664D01*
X170747345Y-80770454D01*
X170630154Y-81000456D01*
X170550381Y-81245969D01*
X170510000Y-81500923D01*
X119417717Y-81500923D01*
X119396755Y-81395541D01*
X119368262Y-81326754D01*
X119339782Y-81257995D01*
X119257068Y-81134205D01*
X119151794Y-81028931D01*
X119028004Y-80946217D01*
X118890459Y-80889245D01*
X118890451Y-80889243D01*
X118744443Y-80860200D01*
X118744440Y-80860200D01*
X118595560Y-80860200D01*
X118595557Y-80860200D01*
X118449548Y-80889243D01*
X118449540Y-80889245D01*
X118311995Y-80946217D01*
X118188205Y-81028931D01*
X118082931Y-81134205D01*
X118000217Y-81257995D01*
X117943245Y-81395540D01*
X117943243Y-81395548D01*
X117914200Y-81541555D01*
X101353080Y-81541555D01*
X101354307Y-80516228D01*
X106149500Y-80516228D01*
X106149500Y-80683771D01*
X106182182Y-80848074D01*
X106182184Y-80848082D01*
X106246295Y-81002860D01*
X106339373Y-81142162D01*
X106457837Y-81260626D01*
X106550494Y-81322537D01*
X106597137Y-81353703D01*
X106597138Y-81353703D01*
X106597139Y-81353704D01*
X106632201Y-81368227D01*
X106751918Y-81417816D01*
X106916228Y-81450499D01*
X106916232Y-81450500D01*
X106916233Y-81450500D01*
X107083768Y-81450500D01*
X107083769Y-81450499D01*
X107165924Y-81434158D01*
X107248078Y-81417817D01*
X107248078Y-81417816D01*
X107248082Y-81417816D01*
X107402863Y-81353703D01*
X107542162Y-81260626D01*
X107660626Y-81142162D01*
X107753703Y-81002863D01*
X107817816Y-80848082D01*
X107850500Y-80683767D01*
X107850500Y-80525555D01*
X122994200Y-80525555D01*
X122994200Y-80674444D01*
X123023243Y-80820451D01*
X123023245Y-80820459D01*
X123080217Y-80958004D01*
X123162931Y-81081794D01*
X123268205Y-81187068D01*
X123391995Y-81269782D01*
X123460767Y-81298268D01*
X123529541Y-81326755D01*
X123660956Y-81352895D01*
X123675555Y-81355799D01*
X123675558Y-81355800D01*
X123675560Y-81355800D01*
X123824442Y-81355800D01*
X123824443Y-81355799D01*
X123970459Y-81326755D01*
X124091915Y-81276446D01*
X124108004Y-81269782D01*
X124108004Y-81269781D01*
X124108006Y-81269781D01*
X124231794Y-81187068D01*
X124337068Y-81081794D01*
X124419781Y-80958006D01*
X124476755Y-80820459D01*
X124505800Y-80674440D01*
X124505800Y-80525560D01*
X124505800Y-80525557D01*
X124505799Y-80525555D01*
X124476757Y-80379550D01*
X124476756Y-80379547D01*
X124476755Y-80379541D01*
X124424664Y-80253782D01*
X124419782Y-80241995D01*
X124337068Y-80118205D01*
X124231794Y-80012931D01*
X124108004Y-79930217D01*
X123970459Y-79873245D01*
X123970451Y-79873243D01*
X123824443Y-79844200D01*
X123824440Y-79844200D01*
X123675560Y-79844200D01*
X123675557Y-79844200D01*
X123529548Y-79873243D01*
X123529540Y-79873245D01*
X123391995Y-79930217D01*
X123268205Y-80012931D01*
X123162931Y-80118205D01*
X123080217Y-80241995D01*
X123023245Y-80379540D01*
X123023243Y-80379548D01*
X122994200Y-80525555D01*
X107850500Y-80525555D01*
X107850500Y-80516233D01*
X107817816Y-80351918D01*
X107753703Y-80197137D01*
X107695583Y-80110154D01*
X107660626Y-80057837D01*
X107542162Y-79939373D01*
X107402860Y-79846295D01*
X107248082Y-79782184D01*
X107248074Y-79782182D01*
X107083771Y-79749500D01*
X107083767Y-79749500D01*
X106916233Y-79749500D01*
X106916228Y-79749500D01*
X106751925Y-79782182D01*
X106751917Y-79782184D01*
X106597139Y-79846295D01*
X106457837Y-79939373D01*
X106339373Y-80057837D01*
X106246295Y-80197139D01*
X106182184Y-80351917D01*
X106182182Y-80351925D01*
X106149500Y-80516228D01*
X101354307Y-80516228D01*
X101355512Y-79509555D01*
X117914200Y-79509555D01*
X117914200Y-79658444D01*
X117943243Y-79804451D01*
X117943245Y-79804459D01*
X118000217Y-79942004D01*
X118082931Y-80065794D01*
X118188205Y-80171068D01*
X118311995Y-80253782D01*
X118380767Y-80282268D01*
X118449541Y-80310755D01*
X118595555Y-80339799D01*
X118595558Y-80339800D01*
X118595560Y-80339800D01*
X118744442Y-80339800D01*
X118744443Y-80339799D01*
X118890459Y-80310755D01*
X119028006Y-80253781D01*
X119151794Y-80171068D01*
X119257068Y-80065794D01*
X119339781Y-79942006D01*
X119396755Y-79804459D01*
X119425800Y-79658440D01*
X119425800Y-79509560D01*
X119425800Y-79509557D01*
X119425799Y-79509555D01*
X119396756Y-79363548D01*
X119396755Y-79363541D01*
X119368268Y-79294767D01*
X119339782Y-79225995D01*
X119257068Y-79102205D01*
X119151794Y-78996931D01*
X119028004Y-78914217D01*
X118890459Y-78857245D01*
X118890451Y-78857243D01*
X118744443Y-78828200D01*
X118744440Y-78828200D01*
X118595560Y-78828200D01*
X118595557Y-78828200D01*
X118449548Y-78857243D01*
X118449540Y-78857245D01*
X118311995Y-78914217D01*
X118188205Y-78996931D01*
X118082931Y-79102205D01*
X118000217Y-79225995D01*
X117943245Y-79363540D01*
X117943243Y-79363548D01*
X117914200Y-79509555D01*
X101355512Y-79509555D01*
X101358389Y-77106379D01*
X116249500Y-77106379D01*
X116249500Y-77293620D01*
X116286025Y-77477243D01*
X116286027Y-77477251D01*
X116357676Y-77650228D01*
X116357681Y-77650237D01*
X116461697Y-77805907D01*
X116461700Y-77805911D01*
X116594088Y-77938299D01*
X116594092Y-77938302D01*
X116749762Y-78042318D01*
X116749768Y-78042321D01*
X116749769Y-78042322D01*
X116922749Y-78113973D01*
X117106379Y-78150499D01*
X117106383Y-78150500D01*
X117106384Y-78150500D01*
X117293617Y-78150500D01*
X117293618Y-78150499D01*
X117477251Y-78113973D01*
X117650231Y-78042322D01*
X117731111Y-77988279D01*
X117797786Y-77967402D01*
X117865166Y-77985886D01*
X117868861Y-77988261D01*
X117949769Y-78042322D01*
X118122749Y-78113973D01*
X118306379Y-78150499D01*
X118306383Y-78150500D01*
X118306384Y-78150500D01*
X118493617Y-78150500D01*
X118493618Y-78150499D01*
X118677251Y-78113973D01*
X118850231Y-78042322D01*
X119005908Y-77938302D01*
X119138302Y-77805908D01*
X119242322Y-77650231D01*
X119313973Y-77477251D01*
X119350500Y-77293616D01*
X119350500Y-77266228D01*
X122899500Y-77266228D01*
X122899500Y-77433771D01*
X122932182Y-77598074D01*
X122932184Y-77598082D01*
X122996295Y-77752860D01*
X123089373Y-77892162D01*
X123207837Y-78010626D01*
X123300494Y-78072537D01*
X123347137Y-78103703D01*
X123501918Y-78167816D01*
X123666228Y-78200499D01*
X123666232Y-78200500D01*
X123666233Y-78200500D01*
X123833768Y-78200500D01*
X123833769Y-78200499D01*
X123998082Y-78167816D01*
X124152863Y-78103703D01*
X124292162Y-78010626D01*
X124410626Y-77892162D01*
X124503703Y-77752863D01*
X124538360Y-77669193D01*
X124582201Y-77614790D01*
X124648495Y-77592725D01*
X124716194Y-77610004D01*
X124756023Y-77647755D01*
X124861697Y-77805907D01*
X124861700Y-77805911D01*
X124994088Y-77938299D01*
X124994092Y-77938302D01*
X125149762Y-78042318D01*
X125149768Y-78042321D01*
X125149769Y-78042322D01*
X125322749Y-78113973D01*
X125506379Y-78150499D01*
X125506383Y-78150500D01*
X125506384Y-78150500D01*
X125693617Y-78150500D01*
X125693618Y-78150499D01*
X125877251Y-78113973D01*
X126050231Y-78042322D01*
X126205908Y-77938302D01*
X126338302Y-77805908D01*
X126442322Y-77650231D01*
X126513973Y-77477251D01*
X126550500Y-77293616D01*
X126550500Y-77106384D01*
X126513973Y-76922749D01*
X126442322Y-76749769D01*
X126442321Y-76749768D01*
X126442318Y-76749762D01*
X126338302Y-76594092D01*
X126338299Y-76594088D01*
X126205911Y-76461700D01*
X126205907Y-76461697D01*
X126050237Y-76357681D01*
X126050228Y-76357676D01*
X125877251Y-76286027D01*
X125877243Y-76286025D01*
X125693620Y-76249500D01*
X125693616Y-76249500D01*
X125506384Y-76249500D01*
X125506379Y-76249500D01*
X125322756Y-76286025D01*
X125322748Y-76286027D01*
X125149771Y-76357676D01*
X125149762Y-76357681D01*
X124994092Y-76461697D01*
X124994088Y-76461700D01*
X124861700Y-76594088D01*
X124861697Y-76594092D01*
X124757681Y-76749762D01*
X124757676Y-76749772D01*
X124698796Y-76891921D01*
X124654955Y-76946324D01*
X124588660Y-76968389D01*
X124520961Y-76951110D01*
X124481133Y-76913359D01*
X124410626Y-76807837D01*
X124292162Y-76689373D01*
X124152860Y-76596295D01*
X123998082Y-76532184D01*
X123998074Y-76532182D01*
X123833771Y-76499500D01*
X123833767Y-76499500D01*
X123666233Y-76499500D01*
X123666228Y-76499500D01*
X123501925Y-76532182D01*
X123501917Y-76532184D01*
X123347139Y-76596295D01*
X123207837Y-76689373D01*
X123089373Y-76807837D01*
X122996295Y-76947139D01*
X122932184Y-77101917D01*
X122932182Y-77101925D01*
X122899500Y-77266228D01*
X119350500Y-77266228D01*
X119350500Y-77106384D01*
X119313973Y-76922749D01*
X119242322Y-76749769D01*
X119242321Y-76749768D01*
X119242318Y-76749762D01*
X119138302Y-76594092D01*
X119138299Y-76594088D01*
X119005911Y-76461700D01*
X119005907Y-76461697D01*
X118850237Y-76357681D01*
X118850228Y-76357676D01*
X118677251Y-76286027D01*
X118677243Y-76286025D01*
X118493620Y-76249500D01*
X118493616Y-76249500D01*
X118306384Y-76249500D01*
X118306379Y-76249500D01*
X118122756Y-76286025D01*
X118122748Y-76286027D01*
X117949769Y-76357677D01*
X117868891Y-76411719D01*
X117802213Y-76432597D01*
X117734833Y-76414112D01*
X117731109Y-76411719D01*
X117650230Y-76357677D01*
X117477251Y-76286027D01*
X117477243Y-76286025D01*
X117293620Y-76249500D01*
X117293616Y-76249500D01*
X117106384Y-76249500D01*
X117106379Y-76249500D01*
X116922756Y-76286025D01*
X116922748Y-76286027D01*
X116749771Y-76357676D01*
X116749762Y-76357681D01*
X116594092Y-76461697D01*
X116594088Y-76461700D01*
X116461700Y-76594088D01*
X116461697Y-76594092D01*
X116357681Y-76749762D01*
X116357676Y-76749771D01*
X116286027Y-76922748D01*
X116286025Y-76922756D01*
X116249500Y-77106379D01*
X101358389Y-77106379D01*
X101363345Y-72967228D01*
X117399501Y-72967228D01*
X117399501Y-73134771D01*
X117432183Y-73299074D01*
X117432185Y-73299082D01*
X117496296Y-73453860D01*
X117589374Y-73593162D01*
X117707838Y-73711626D01*
X117800495Y-73773537D01*
X117847138Y-73804703D01*
X118001919Y-73868816D01*
X118161202Y-73900499D01*
X118166229Y-73901499D01*
X118166233Y-73901500D01*
X118166234Y-73901500D01*
X118333769Y-73901500D01*
X118333770Y-73901499D01*
X118498083Y-73868816D01*
X118652864Y-73804703D01*
X118792163Y-73711626D01*
X118910627Y-73593162D01*
X119003704Y-73453863D01*
X119067817Y-73299082D01*
X119100501Y-73134767D01*
X119100501Y-72967233D01*
X119100500Y-72967230D01*
X119100500Y-72967228D01*
X131399499Y-72967228D01*
X131399499Y-73134771D01*
X131432181Y-73299074D01*
X131432183Y-73299082D01*
X131496294Y-73453860D01*
X131589372Y-73593162D01*
X131707836Y-73711626D01*
X131800493Y-73773537D01*
X131847136Y-73804703D01*
X132001917Y-73868816D01*
X132161200Y-73900499D01*
X132166227Y-73901499D01*
X132166231Y-73901500D01*
X132166232Y-73901500D01*
X132333767Y-73901500D01*
X132333768Y-73901499D01*
X132498081Y-73868816D01*
X132652862Y-73804703D01*
X132792161Y-73711626D01*
X132910625Y-73593162D01*
X133003702Y-73453863D01*
X133067815Y-73299082D01*
X133100499Y-73134767D01*
X133100499Y-72967233D01*
X133100499Y-72967232D01*
X133100499Y-72967230D01*
X133100300Y-72966228D01*
X145399505Y-72966228D01*
X145399505Y-73133771D01*
X145432187Y-73298074D01*
X145432189Y-73298082D01*
X145496300Y-73452860D01*
X145589378Y-73592162D01*
X145707842Y-73710626D01*
X145800499Y-73772537D01*
X145847142Y-73803703D01*
X145847143Y-73803703D01*
X145847144Y-73803704D01*
X145882206Y-73818227D01*
X146001923Y-73867816D01*
X146166233Y-73900499D01*
X146166237Y-73900500D01*
X146166238Y-73900500D01*
X146333773Y-73900500D01*
X146333774Y-73900499D01*
X146498087Y-73867816D01*
X146652868Y-73803703D01*
X146792167Y-73710626D01*
X146910631Y-73592162D01*
X147003708Y-73452863D01*
X147067821Y-73298082D01*
X147100505Y-73133767D01*
X147100505Y-72966233D01*
X147067821Y-72801918D01*
X147003708Y-72647137D01*
X146950707Y-72567815D01*
X146910631Y-72507837D01*
X146792167Y-72389373D01*
X146652865Y-72296295D01*
X146498087Y-72232184D01*
X146498079Y-72232182D01*
X146333776Y-72199500D01*
X146333772Y-72199500D01*
X146166238Y-72199500D01*
X146166233Y-72199500D01*
X146001930Y-72232182D01*
X146001922Y-72232184D01*
X145847144Y-72296295D01*
X145707842Y-72389373D01*
X145589378Y-72507837D01*
X145496300Y-72647139D01*
X145432189Y-72801917D01*
X145432187Y-72801925D01*
X145399505Y-72966228D01*
X133100300Y-72966228D01*
X133067816Y-72802925D01*
X133067815Y-72802918D01*
X133003702Y-72648137D01*
X132950033Y-72567816D01*
X132910625Y-72508837D01*
X132792161Y-72390373D01*
X132652859Y-72297295D01*
X132498081Y-72233184D01*
X132498073Y-72233182D01*
X132333770Y-72200500D01*
X132333766Y-72200500D01*
X132166232Y-72200500D01*
X132166227Y-72200500D01*
X132001924Y-72233182D01*
X132001916Y-72233184D01*
X131847138Y-72297295D01*
X131707836Y-72390373D01*
X131589372Y-72508837D01*
X131496294Y-72648139D01*
X131432183Y-72802917D01*
X131432181Y-72802925D01*
X131399499Y-72967228D01*
X119100500Y-72967228D01*
X119067818Y-72802925D01*
X119067817Y-72802918D01*
X119003704Y-72648137D01*
X118950035Y-72567816D01*
X118910627Y-72508837D01*
X118792163Y-72390373D01*
X118652861Y-72297295D01*
X118498083Y-72233184D01*
X118498075Y-72233182D01*
X118333772Y-72200500D01*
X118333768Y-72200500D01*
X118166234Y-72200500D01*
X118166229Y-72200500D01*
X118001926Y-72233182D01*
X118001918Y-72233184D01*
X117847140Y-72297295D01*
X117707838Y-72390373D01*
X117589374Y-72508837D01*
X117496296Y-72648139D01*
X117432185Y-72802917D01*
X117432183Y-72802925D01*
X117399501Y-72967228D01*
X101363345Y-72967228D01*
X101365440Y-71217228D01*
X110149501Y-71217228D01*
X110149501Y-71384771D01*
X110182183Y-71549074D01*
X110182185Y-71549082D01*
X110246296Y-71703860D01*
X110339374Y-71843162D01*
X110457838Y-71961626D01*
X110512387Y-71998074D01*
X110597138Y-72054703D01*
X110751919Y-72118816D01*
X110911202Y-72150499D01*
X110916229Y-72151499D01*
X110916233Y-72151500D01*
X110916234Y-72151500D01*
X111083769Y-72151500D01*
X111083770Y-72151499D01*
X111248083Y-72118816D01*
X111402864Y-72054703D01*
X111542163Y-71961626D01*
X111660627Y-71843162D01*
X111753704Y-71703863D01*
X111817817Y-71549082D01*
X111850501Y-71384767D01*
X111850501Y-71217233D01*
X111850500Y-71217230D01*
X111850500Y-71217228D01*
X124149499Y-71217228D01*
X124149499Y-71384771D01*
X124182181Y-71549074D01*
X124182183Y-71549082D01*
X124246294Y-71703860D01*
X124339372Y-71843162D01*
X124457836Y-71961626D01*
X124512385Y-71998074D01*
X124597136Y-72054703D01*
X124751917Y-72118816D01*
X124911200Y-72150499D01*
X124916227Y-72151499D01*
X124916231Y-72151500D01*
X124916232Y-72151500D01*
X125083767Y-72151500D01*
X125083768Y-72151499D01*
X125248081Y-72118816D01*
X125402862Y-72054703D01*
X125542161Y-71961626D01*
X125660625Y-71843162D01*
X125753702Y-71703863D01*
X125817815Y-71549082D01*
X125850499Y-71384767D01*
X125850499Y-71217233D01*
X125850499Y-71217232D01*
X125850499Y-71217230D01*
X125850300Y-71216228D01*
X138149505Y-71216228D01*
X138149505Y-71383771D01*
X138182187Y-71548074D01*
X138182189Y-71548082D01*
X138246300Y-71702860D01*
X138339378Y-71842162D01*
X138457842Y-71960626D01*
X138550499Y-72022537D01*
X138597142Y-72053703D01*
X138597143Y-72053703D01*
X138597144Y-72053704D01*
X138632206Y-72068227D01*
X138751923Y-72117816D01*
X138916233Y-72150499D01*
X138916237Y-72150500D01*
X138916238Y-72150500D01*
X139083773Y-72150500D01*
X139083774Y-72150499D01*
X139248087Y-72117816D01*
X139402868Y-72053703D01*
X139542167Y-71960626D01*
X139660631Y-71842162D01*
X139753708Y-71702863D01*
X139768883Y-71666228D01*
X174899500Y-71666228D01*
X174899500Y-71833771D01*
X174932182Y-71998074D01*
X174932184Y-71998082D01*
X174996295Y-72152860D01*
X175089373Y-72292162D01*
X175207837Y-72410626D01*
X175300494Y-72472537D01*
X175347137Y-72503703D01*
X175347138Y-72503703D01*
X175347139Y-72503704D01*
X175359531Y-72508837D01*
X175501918Y-72567816D01*
X175666228Y-72600499D01*
X175666232Y-72600500D01*
X175666233Y-72600500D01*
X175833768Y-72600500D01*
X175833769Y-72600499D01*
X175998082Y-72567816D01*
X176152863Y-72503703D01*
X176292162Y-72410626D01*
X176410626Y-72292162D01*
X176503703Y-72152863D01*
X176567816Y-71998082D01*
X176600500Y-71833767D01*
X176600500Y-71666233D01*
X176567816Y-71501918D01*
X176503703Y-71347137D01*
X176416902Y-71217230D01*
X176410626Y-71207837D01*
X176292162Y-71089373D01*
X176152860Y-70996295D01*
X175998082Y-70932184D01*
X175998074Y-70932182D01*
X175833771Y-70899500D01*
X175833767Y-70899500D01*
X175666233Y-70899500D01*
X175666228Y-70899500D01*
X175501925Y-70932182D01*
X175501917Y-70932184D01*
X175347139Y-70996295D01*
X175207837Y-71089373D01*
X175089373Y-71207837D01*
X174996295Y-71347139D01*
X174932184Y-71501917D01*
X174932182Y-71501925D01*
X174899500Y-71666228D01*
X139768883Y-71666228D01*
X139817821Y-71548082D01*
X139850505Y-71383767D01*
X139850505Y-71216233D01*
X139817821Y-71051918D01*
X139753708Y-70897137D01*
X139722542Y-70850494D01*
X139660631Y-70757837D01*
X139542167Y-70639373D01*
X139402865Y-70546295D01*
X139248087Y-70482184D01*
X139248079Y-70482182D01*
X139083776Y-70449500D01*
X139083772Y-70449500D01*
X138916238Y-70449500D01*
X138916233Y-70449500D01*
X138751930Y-70482182D01*
X138751922Y-70482184D01*
X138597144Y-70546295D01*
X138457842Y-70639373D01*
X138339378Y-70757837D01*
X138246300Y-70897139D01*
X138182189Y-71051917D01*
X138182187Y-71051925D01*
X138149505Y-71216228D01*
X125850300Y-71216228D01*
X125817816Y-71052925D01*
X125817815Y-71052918D01*
X125753702Y-70898137D01*
X125722536Y-70851494D01*
X125660625Y-70758837D01*
X125542161Y-70640373D01*
X125402859Y-70547295D01*
X125248081Y-70483184D01*
X125248073Y-70483182D01*
X125083770Y-70450500D01*
X125083766Y-70450500D01*
X124916232Y-70450500D01*
X124916227Y-70450500D01*
X124751924Y-70483182D01*
X124751916Y-70483184D01*
X124597138Y-70547295D01*
X124457836Y-70640373D01*
X124339372Y-70758837D01*
X124246294Y-70898139D01*
X124182183Y-71052917D01*
X124182181Y-71052925D01*
X124149499Y-71217228D01*
X111850500Y-71217228D01*
X111817818Y-71052925D01*
X111817817Y-71052918D01*
X111753704Y-70898137D01*
X111722538Y-70851494D01*
X111660627Y-70758837D01*
X111542163Y-70640373D01*
X111402861Y-70547295D01*
X111248083Y-70483184D01*
X111248075Y-70483182D01*
X111083772Y-70450500D01*
X111083768Y-70450500D01*
X110916234Y-70450500D01*
X110916229Y-70450500D01*
X110751926Y-70483182D01*
X110751918Y-70483184D01*
X110597140Y-70547295D01*
X110457838Y-70640373D01*
X110339374Y-70758837D01*
X110246296Y-70898139D01*
X110182185Y-71052917D01*
X110182183Y-71052925D01*
X110149501Y-71217228D01*
X101365440Y-71217228D01*
X101373100Y-64818574D01*
X161269500Y-64818574D01*
X161269500Y-65181425D01*
X161310124Y-65541968D01*
X161310126Y-65541980D01*
X161390866Y-65895729D01*
X161390869Y-65895737D01*
X161510706Y-66238210D01*
X161668134Y-66565113D01*
X161727855Y-66660159D01*
X161861179Y-66872343D01*
X162087408Y-67156024D01*
X162343976Y-67412592D01*
X162627657Y-67638821D01*
X162934884Y-67831864D01*
X163261793Y-67989295D01*
X163519010Y-68079299D01*
X163604262Y-68109130D01*
X163604270Y-68109133D01*
X163604273Y-68109133D01*
X163604274Y-68109134D01*
X163958019Y-68189874D01*
X164318574Y-68230499D01*
X164318575Y-68230500D01*
X164318579Y-68230500D01*
X164681425Y-68230500D01*
X164681425Y-68230499D01*
X165041981Y-68189874D01*
X165395726Y-68109134D01*
X165738207Y-67989295D01*
X166065116Y-67831864D01*
X166372343Y-67638821D01*
X166656024Y-67412592D01*
X166912592Y-67156024D01*
X167138821Y-66872343D01*
X167331864Y-66565116D01*
X167489295Y-66238207D01*
X167609134Y-65895726D01*
X167688224Y-65549206D01*
X167722332Y-65488229D01*
X167783994Y-65455371D01*
X167853631Y-65461066D01*
X167909135Y-65503506D01*
X167930006Y-65549207D01*
X167986377Y-65796185D01*
X167986381Y-65796197D01*
X168092900Y-66100610D01*
X168232834Y-66391185D01*
X168404422Y-66664265D01*
X168549835Y-66846609D01*
X169469349Y-65927095D01*
X169544081Y-66029953D01*
X169720047Y-66205919D01*
X169822903Y-66280649D01*
X168903388Y-67200164D01*
X169085722Y-67345570D01*
X169085724Y-67345571D01*
X169358814Y-67517165D01*
X169649389Y-67657099D01*
X169953802Y-67763618D01*
X169953814Y-67763622D01*
X170268248Y-67835389D01*
X170268262Y-67835392D01*
X170588733Y-67871499D01*
X170588737Y-67871500D01*
X170911263Y-67871500D01*
X170911266Y-67871499D01*
X171231737Y-67835392D01*
X171231751Y-67835389D01*
X171546185Y-67763622D01*
X171546197Y-67763618D01*
X171850610Y-67657099D01*
X172141185Y-67517165D01*
X172414271Y-67345573D01*
X172596610Y-67200164D01*
X171677095Y-66280649D01*
X171779953Y-66205919D01*
X171955919Y-66029953D01*
X172030649Y-65927095D01*
X172950164Y-66846610D01*
X173095573Y-66664271D01*
X173267165Y-66391185D01*
X173407099Y-66100610D01*
X173513618Y-65796197D01*
X173513622Y-65796185D01*
X173585389Y-65481751D01*
X173585392Y-65481737D01*
X173621499Y-65161266D01*
X173621500Y-65161262D01*
X173621500Y-64838737D01*
X173621499Y-64838733D01*
X173585392Y-64518262D01*
X173585389Y-64518248D01*
X173513622Y-64203814D01*
X173513618Y-64203802D01*
X173407099Y-63899389D01*
X173267165Y-63608814D01*
X173095571Y-63335724D01*
X173095570Y-63335722D01*
X172950164Y-63153388D01*
X172030648Y-64072903D01*
X171955919Y-63970047D01*
X171779953Y-63794081D01*
X171677095Y-63719350D01*
X172596609Y-62799835D01*
X172414265Y-62654422D01*
X172141185Y-62482834D01*
X171850610Y-62342900D01*
X171546197Y-62236381D01*
X171546185Y-62236377D01*
X171231751Y-62164610D01*
X171231737Y-62164607D01*
X170911266Y-62128500D01*
X170588733Y-62128500D01*
X170268262Y-62164607D01*
X170268248Y-62164610D01*
X169953816Y-62236377D01*
X169712721Y-62320740D01*
X169642942Y-62324301D01*
X169582314Y-62289572D01*
X169550087Y-62227579D01*
X169556492Y-62158003D01*
X169584082Y-62116020D01*
X169612372Y-62087731D01*
X169810449Y-61839351D01*
X169979470Y-61570355D01*
X170117311Y-61284126D01*
X170222237Y-60984263D01*
X170292930Y-60674538D01*
X170328500Y-60358845D01*
X170328500Y-60041155D01*
X170292930Y-59725462D01*
X170222237Y-59415737D01*
X170117311Y-59115874D01*
X169979470Y-58829645D01*
X169810449Y-58560649D01*
X169612372Y-58312269D01*
X169387731Y-58087628D01*
X169139351Y-57889551D01*
X168870355Y-57720530D01*
X168870352Y-57720528D01*
X168584127Y-57582689D01*
X168284264Y-57477763D01*
X168284266Y-57477763D01*
X167976807Y-57407588D01*
X167974538Y-57407070D01*
X167974534Y-57407069D01*
X167974525Y-57407068D01*
X167658849Y-57371500D01*
X167658845Y-57371500D01*
X167341155Y-57371500D01*
X167341150Y-57371500D01*
X167025474Y-57407068D01*
X167025462Y-57407070D01*
X166715734Y-57477763D01*
X166415872Y-57582689D01*
X166129647Y-57720528D01*
X165860650Y-57889550D01*
X165612269Y-58087627D01*
X165387627Y-58312269D01*
X165189550Y-58560650D01*
X165020528Y-58829647D01*
X164882689Y-59115872D01*
X164777763Y-59415734D01*
X164707070Y-59725462D01*
X164707068Y-59725474D01*
X164671500Y-60041150D01*
X164671500Y-60358849D01*
X164707068Y-60674525D01*
X164707070Y-60674537D01*
X164777763Y-60984265D01*
X164882689Y-61284127D01*
X165020529Y-61570354D01*
X165044039Y-61607769D01*
X165063040Y-61675006D01*
X165042673Y-61741841D01*
X164989405Y-61787055D01*
X164925163Y-61796962D01*
X164681427Y-61769500D01*
X164681421Y-61769500D01*
X164318579Y-61769500D01*
X164318575Y-61769500D01*
X163958031Y-61810124D01*
X163958019Y-61810126D01*
X163604270Y-61890866D01*
X163604262Y-61890869D01*
X163261789Y-62010706D01*
X162934886Y-62168134D01*
X162627658Y-62361178D01*
X162343976Y-62587407D01*
X162087407Y-62843976D01*
X161861178Y-63127658D01*
X161668134Y-63434886D01*
X161510706Y-63761789D01*
X161390869Y-64104262D01*
X161390866Y-64104270D01*
X161310126Y-64458019D01*
X161310124Y-64458031D01*
X161269500Y-64818574D01*
X101373100Y-64818574D01*
X101375316Y-62967228D01*
X110649501Y-62967228D01*
X110649501Y-63134771D01*
X110682183Y-63299074D01*
X110682185Y-63299082D01*
X110746296Y-63453860D01*
X110839374Y-63593162D01*
X110957838Y-63711626D01*
X111032913Y-63761789D01*
X111097138Y-63804703D01*
X111251919Y-63868816D01*
X111405621Y-63899389D01*
X111416229Y-63901499D01*
X111416233Y-63901500D01*
X111416234Y-63901500D01*
X111583769Y-63901500D01*
X111583770Y-63901499D01*
X111748083Y-63868816D01*
X111902864Y-63804703D01*
X112042163Y-63711626D01*
X112160627Y-63593162D01*
X112253704Y-63453863D01*
X112317817Y-63299082D01*
X112350501Y-63134767D01*
X112350501Y-62967233D01*
X112350500Y-62967230D01*
X112350500Y-62967228D01*
X124649499Y-62967228D01*
X124649499Y-63134771D01*
X124682181Y-63299074D01*
X124682183Y-63299082D01*
X124746294Y-63453860D01*
X124839372Y-63593162D01*
X124957836Y-63711626D01*
X125032911Y-63761789D01*
X125097136Y-63804703D01*
X125251917Y-63868816D01*
X125405619Y-63899389D01*
X125416227Y-63901499D01*
X125416231Y-63901500D01*
X125416232Y-63901500D01*
X125583767Y-63901500D01*
X125583768Y-63901499D01*
X125748081Y-63868816D01*
X125902862Y-63804703D01*
X126042161Y-63711626D01*
X126160625Y-63593162D01*
X126253702Y-63453863D01*
X126317815Y-63299082D01*
X126350499Y-63134767D01*
X126350499Y-62967233D01*
X126350499Y-62967232D01*
X126350499Y-62967230D01*
X126350300Y-62966228D01*
X138649505Y-62966228D01*
X138649505Y-63133771D01*
X138682187Y-63298074D01*
X138682189Y-63298082D01*
X138746300Y-63452860D01*
X138839378Y-63592162D01*
X138957842Y-63710626D01*
X139050499Y-63772537D01*
X139097142Y-63803703D01*
X139097143Y-63803703D01*
X139097144Y-63803704D01*
X139132206Y-63818227D01*
X139251923Y-63867816D01*
X139410653Y-63899389D01*
X139416233Y-63900499D01*
X139416237Y-63900500D01*
X139416238Y-63900500D01*
X139583773Y-63900500D01*
X139583774Y-63900499D01*
X139748087Y-63867816D01*
X139902868Y-63803703D01*
X140042167Y-63710626D01*
X140160631Y-63592162D01*
X140253708Y-63452863D01*
X140317821Y-63298082D01*
X140350505Y-63133767D01*
X140350505Y-62966233D01*
X140317821Y-62801918D01*
X140253708Y-62647137D01*
X140162376Y-62510449D01*
X140160631Y-62507837D01*
X140042167Y-62389373D01*
X139902865Y-62296295D01*
X139748087Y-62232184D01*
X139748079Y-62232182D01*
X139583776Y-62199500D01*
X139583772Y-62199500D01*
X139416238Y-62199500D01*
X139416233Y-62199500D01*
X139251930Y-62232182D01*
X139251922Y-62232184D01*
X139097144Y-62296295D01*
X138957842Y-62389373D01*
X138839378Y-62507837D01*
X138746300Y-62647139D01*
X138682189Y-62801917D01*
X138682187Y-62801925D01*
X138649505Y-62966228D01*
X126350300Y-62966228D01*
X126320678Y-62817311D01*
X126317815Y-62802918D01*
X126253702Y-62648137D01*
X126213123Y-62587407D01*
X126160625Y-62508837D01*
X126042161Y-62390373D01*
X125902859Y-62297295D01*
X125748081Y-62233184D01*
X125748073Y-62233182D01*
X125583770Y-62200500D01*
X125583766Y-62200500D01*
X125416232Y-62200500D01*
X125416227Y-62200500D01*
X125251924Y-62233182D01*
X125251916Y-62233184D01*
X125097138Y-62297295D01*
X124957836Y-62390373D01*
X124839372Y-62508837D01*
X124746294Y-62648139D01*
X124682183Y-62802917D01*
X124682181Y-62802925D01*
X124649499Y-62967228D01*
X112350500Y-62967228D01*
X112320680Y-62817311D01*
X112317817Y-62802918D01*
X112253704Y-62648137D01*
X112213125Y-62587407D01*
X112160627Y-62508837D01*
X112042163Y-62390373D01*
X111902861Y-62297295D01*
X111748083Y-62233184D01*
X111748075Y-62233182D01*
X111583772Y-62200500D01*
X111583768Y-62200500D01*
X111416234Y-62200500D01*
X111416229Y-62200500D01*
X111251926Y-62233182D01*
X111251918Y-62233184D01*
X111097140Y-62297295D01*
X110957838Y-62390373D01*
X110839374Y-62508837D01*
X110746296Y-62648139D01*
X110682185Y-62802917D01*
X110682183Y-62802925D01*
X110649501Y-62967228D01*
X101375316Y-62967228D01*
X101375727Y-62624263D01*
X101375817Y-62587407D01*
X101387361Y-57819713D01*
X111749502Y-57819713D01*
X111749502Y-58282287D01*
X111752466Y-58301000D01*
X111782597Y-58491243D01*
X111782756Y-58492243D01*
X111793724Y-58526000D01*
X111848446Y-58694414D01*
X111944953Y-58883820D01*
X112069892Y-59055786D01*
X112220215Y-59206109D01*
X112392181Y-59331048D01*
X112392183Y-59331049D01*
X112392186Y-59331051D01*
X112581590Y-59427557D01*
X112783759Y-59493246D01*
X112993715Y-59526500D01*
X112993716Y-59526500D01*
X113206288Y-59526500D01*
X113206289Y-59526500D01*
X113416245Y-59493246D01*
X113618414Y-59427557D01*
X113807818Y-59331051D01*
X113829791Y-59315086D01*
X113979788Y-59206109D01*
X113979790Y-59206106D01*
X113979794Y-59206104D01*
X114130106Y-59055792D01*
X114249685Y-58891204D01*
X114305013Y-58848540D01*
X114374626Y-58842561D01*
X114436422Y-58875166D01*
X114450315Y-58891199D01*
X114477554Y-58928690D01*
X114569898Y-59055792D01*
X114720215Y-59206109D01*
X114892181Y-59331048D01*
X114892183Y-59331049D01*
X114892186Y-59331051D01*
X115081590Y-59427557D01*
X115283759Y-59493246D01*
X115493715Y-59526500D01*
X115493716Y-59526500D01*
X115706288Y-59526500D01*
X115706289Y-59526500D01*
X115916245Y-59493246D01*
X116118414Y-59427557D01*
X116307818Y-59331051D01*
X116329791Y-59315086D01*
X116479788Y-59206109D01*
X116479790Y-59206106D01*
X116479794Y-59206104D01*
X116630106Y-59055792D01*
X116749685Y-58891204D01*
X116805013Y-58848540D01*
X116874626Y-58842561D01*
X116936422Y-58875166D01*
X116950315Y-58891199D01*
X116977554Y-58928690D01*
X117069898Y-59055792D01*
X117220215Y-59206109D01*
X117392181Y-59331048D01*
X117392183Y-59331049D01*
X117392186Y-59331051D01*
X117581590Y-59427557D01*
X117783759Y-59493246D01*
X117993715Y-59526500D01*
X117993716Y-59526500D01*
X118206288Y-59526500D01*
X118206289Y-59526500D01*
X118416245Y-59493246D01*
X118618414Y-59427557D01*
X118807818Y-59331051D01*
X118865143Y-59289402D01*
X118979786Y-59206110D01*
X118979786Y-59206109D01*
X118979794Y-59206104D01*
X119118969Y-59066928D01*
X119180288Y-59033446D01*
X119249980Y-59038430D01*
X119305914Y-59080301D01*
X119312186Y-59089515D01*
X119407686Y-59244345D01*
X119531656Y-59368315D01*
X119680877Y-59460356D01*
X119680882Y-59460358D01*
X119847304Y-59515505D01*
X119847311Y-59515506D01*
X119950021Y-59525999D01*
X120350001Y-59525999D01*
X120350002Y-59525998D01*
X120350002Y-58455145D01*
X120416659Y-58493630D01*
X120537467Y-58526000D01*
X120662537Y-58526000D01*
X120783345Y-58493630D01*
X120850002Y-58455145D01*
X120850002Y-59525999D01*
X121249974Y-59525999D01*
X121249988Y-59525998D01*
X121352699Y-59515505D01*
X121519121Y-59460358D01*
X121519126Y-59460356D01*
X121668347Y-59368315D01*
X121792317Y-59244345D01*
X121884358Y-59095124D01*
X121884360Y-59095119D01*
X121939507Y-58928697D01*
X121939508Y-58928690D01*
X121950001Y-58825986D01*
X121950002Y-58825973D01*
X121950002Y-58301000D01*
X121004148Y-58301000D01*
X121042632Y-58234343D01*
X121075002Y-58113535D01*
X121075002Y-57988465D01*
X121042632Y-57867657D01*
X121014952Y-57819713D01*
X125749500Y-57819713D01*
X125749500Y-58282287D01*
X125752464Y-58301000D01*
X125782595Y-58491243D01*
X125782754Y-58492243D01*
X125793722Y-58526000D01*
X125848444Y-58694414D01*
X125944951Y-58883820D01*
X126069890Y-59055786D01*
X126220213Y-59206109D01*
X126392179Y-59331048D01*
X126392181Y-59331049D01*
X126392184Y-59331051D01*
X126581588Y-59427557D01*
X126783757Y-59493246D01*
X126993713Y-59526500D01*
X126993714Y-59526500D01*
X127206286Y-59526500D01*
X127206287Y-59526500D01*
X127416243Y-59493246D01*
X127618412Y-59427557D01*
X127807816Y-59331051D01*
X127829789Y-59315086D01*
X127979786Y-59206109D01*
X127979788Y-59206106D01*
X127979792Y-59206104D01*
X128130104Y-59055792D01*
X128249683Y-58891204D01*
X128305011Y-58848540D01*
X128374624Y-58842561D01*
X128436420Y-58875166D01*
X128450313Y-58891199D01*
X128477552Y-58928690D01*
X128569896Y-59055792D01*
X128720213Y-59206109D01*
X128892179Y-59331048D01*
X128892181Y-59331049D01*
X128892184Y-59331051D01*
X129081588Y-59427557D01*
X129283757Y-59493246D01*
X129493713Y-59526500D01*
X129493714Y-59526500D01*
X129706286Y-59526500D01*
X129706287Y-59526500D01*
X129916243Y-59493246D01*
X130118412Y-59427557D01*
X130307816Y-59331051D01*
X130329789Y-59315086D01*
X130479786Y-59206109D01*
X130479788Y-59206106D01*
X130479792Y-59206104D01*
X130630104Y-59055792D01*
X130749683Y-58891204D01*
X130805011Y-58848540D01*
X130874624Y-58842561D01*
X130936420Y-58875166D01*
X130950313Y-58891199D01*
X130977552Y-58928690D01*
X131069896Y-59055792D01*
X131220213Y-59206109D01*
X131392179Y-59331048D01*
X131392181Y-59331049D01*
X131392184Y-59331051D01*
X131581588Y-59427557D01*
X131783757Y-59493246D01*
X131993713Y-59526500D01*
X131993714Y-59526500D01*
X132206286Y-59526500D01*
X132206287Y-59526500D01*
X132416243Y-59493246D01*
X132618412Y-59427557D01*
X132807816Y-59331051D01*
X132865141Y-59289402D01*
X132979784Y-59206110D01*
X132979784Y-59206109D01*
X132979792Y-59206104D01*
X133118967Y-59066928D01*
X133180286Y-59033446D01*
X133249978Y-59038430D01*
X133305912Y-59080301D01*
X133312184Y-59089515D01*
X133407684Y-59244345D01*
X133531654Y-59368315D01*
X133680875Y-59460356D01*
X133680880Y-59460358D01*
X133847302Y-59515505D01*
X133847309Y-59515506D01*
X133950019Y-59525999D01*
X134349999Y-59525999D01*
X134350000Y-59525998D01*
X134350000Y-58455145D01*
X134416657Y-58493630D01*
X134537465Y-58526000D01*
X134662535Y-58526000D01*
X134783343Y-58493630D01*
X134850000Y-58455145D01*
X134850000Y-59525999D01*
X135249972Y-59525999D01*
X135249986Y-59525998D01*
X135352697Y-59515505D01*
X135519119Y-59460358D01*
X135519124Y-59460356D01*
X135668345Y-59368315D01*
X135792315Y-59244345D01*
X135884356Y-59095124D01*
X135884358Y-59095119D01*
X135939505Y-58928697D01*
X135939506Y-58928690D01*
X135949999Y-58825986D01*
X135950000Y-58825973D01*
X135950000Y-58301000D01*
X135004146Y-58301000D01*
X135042630Y-58234343D01*
X135075000Y-58113535D01*
X135075000Y-57988465D01*
X135042630Y-57867657D01*
X135014372Y-57818713D01*
X139749507Y-57818713D01*
X139749507Y-58281287D01*
X139782761Y-58491243D01*
X139805312Y-58560649D01*
X139848451Y-58693414D01*
X139944958Y-58882820D01*
X140069897Y-59054786D01*
X140220220Y-59205109D01*
X140392186Y-59330048D01*
X140392188Y-59330049D01*
X140392191Y-59330051D01*
X140581595Y-59426557D01*
X140783764Y-59492246D01*
X140993720Y-59525500D01*
X140993721Y-59525500D01*
X141206293Y-59525500D01*
X141206294Y-59525500D01*
X141416250Y-59492246D01*
X141618419Y-59426557D01*
X141807823Y-59330051D01*
X141829796Y-59314086D01*
X141979793Y-59205109D01*
X141979795Y-59205106D01*
X141979799Y-59205104D01*
X142130111Y-59054792D01*
X142249690Y-58890204D01*
X142305018Y-58847540D01*
X142374631Y-58841561D01*
X142436427Y-58874166D01*
X142450320Y-58890199D01*
X142553668Y-59032446D01*
X142569903Y-59054792D01*
X142720220Y-59205109D01*
X142892186Y-59330048D01*
X142892188Y-59330049D01*
X142892191Y-59330051D01*
X143081595Y-59426557D01*
X143283764Y-59492246D01*
X143493720Y-59525500D01*
X143493721Y-59525500D01*
X143706293Y-59525500D01*
X143706294Y-59525500D01*
X143916250Y-59492246D01*
X144118419Y-59426557D01*
X144307823Y-59330051D01*
X144329796Y-59314086D01*
X144479793Y-59205109D01*
X144479795Y-59205106D01*
X144479799Y-59205104D01*
X144630111Y-59054792D01*
X144749690Y-58890204D01*
X144805018Y-58847540D01*
X144874631Y-58841561D01*
X144936427Y-58874166D01*
X144950320Y-58890199D01*
X145053668Y-59032446D01*
X145069903Y-59054792D01*
X145220220Y-59205109D01*
X145392186Y-59330048D01*
X145392188Y-59330049D01*
X145392191Y-59330051D01*
X145581595Y-59426557D01*
X145783764Y-59492246D01*
X145993720Y-59525500D01*
X145993721Y-59525500D01*
X146206293Y-59525500D01*
X146206294Y-59525500D01*
X146416250Y-59492246D01*
X146618419Y-59426557D01*
X146807823Y-59330051D01*
X146925788Y-59244345D01*
X146979791Y-59205110D01*
X146979791Y-59205109D01*
X146979799Y-59205104D01*
X147118974Y-59065928D01*
X147180293Y-59032446D01*
X147249985Y-59037430D01*
X147305919Y-59079301D01*
X147312191Y-59088515D01*
X147407691Y-59243345D01*
X147531661Y-59367315D01*
X147680882Y-59459356D01*
X147680887Y-59459358D01*
X147847309Y-59514505D01*
X147847316Y-59514506D01*
X147950026Y-59524999D01*
X148350006Y-59524999D01*
X148350007Y-59524998D01*
X148350007Y-58454145D01*
X148416664Y-58492630D01*
X148537472Y-58525000D01*
X148662542Y-58525000D01*
X148783350Y-58492630D01*
X148850007Y-58454145D01*
X148850007Y-59524999D01*
X149249979Y-59524999D01*
X149249993Y-59524998D01*
X149352704Y-59514505D01*
X149519126Y-59459358D01*
X149519131Y-59459356D01*
X149668352Y-59367315D01*
X149792322Y-59243345D01*
X149884363Y-59094124D01*
X149884365Y-59094119D01*
X149939512Y-58927697D01*
X149939513Y-58927690D01*
X149950006Y-58824986D01*
X149950007Y-58824973D01*
X149950007Y-58300000D01*
X149004153Y-58300000D01*
X149042637Y-58233343D01*
X149075007Y-58112535D01*
X149075007Y-57987465D01*
X149042637Y-57866657D01*
X149004153Y-57800000D01*
X149950006Y-57800000D01*
X149950006Y-57275028D01*
X149950005Y-57275013D01*
X149939512Y-57172302D01*
X149884365Y-57005880D01*
X149884363Y-57005875D01*
X149792322Y-56856654D01*
X149668352Y-56732684D01*
X149519131Y-56640643D01*
X149519126Y-56640641D01*
X149352704Y-56585494D01*
X149352697Y-56585493D01*
X149249993Y-56575000D01*
X148850007Y-56575000D01*
X148850007Y-57645854D01*
X148783350Y-57607370D01*
X148662542Y-57575000D01*
X148537472Y-57575000D01*
X148416664Y-57607370D01*
X148350007Y-57645854D01*
X148350007Y-56575000D01*
X147950035Y-56575000D01*
X147950019Y-56575001D01*
X147847309Y-56585494D01*
X147680887Y-56640641D01*
X147680882Y-56640643D01*
X147531661Y-56732684D01*
X147407690Y-56856655D01*
X147407687Y-56856659D01*
X147312190Y-57011484D01*
X147260242Y-57058209D01*
X147191280Y-57069430D01*
X147127198Y-57041587D01*
X147118971Y-57034068D01*
X146979793Y-56894890D01*
X146807827Y-56769951D01*
X146618421Y-56673444D01*
X146618420Y-56673443D01*
X146618419Y-56673443D01*
X146416250Y-56607754D01*
X146416248Y-56607753D01*
X146416247Y-56607753D01*
X146254964Y-56582208D01*
X146206294Y-56574500D01*
X145993720Y-56574500D01*
X145945049Y-56582208D01*
X145783767Y-56607753D01*
X145581592Y-56673444D01*
X145392186Y-56769951D01*
X145220220Y-56894890D01*
X145069901Y-57045209D01*
X145069897Y-57045214D01*
X144950325Y-57209793D01*
X144894996Y-57252459D01*
X144825382Y-57258438D01*
X144763587Y-57225833D01*
X144749689Y-57209793D01*
X144630116Y-57045214D01*
X144630112Y-57045209D01*
X144479793Y-56894890D01*
X144307827Y-56769951D01*
X144118421Y-56673444D01*
X144118420Y-56673443D01*
X144118419Y-56673443D01*
X143916250Y-56607754D01*
X143916248Y-56607753D01*
X143916247Y-56607753D01*
X143754964Y-56582208D01*
X143706294Y-56574500D01*
X143493720Y-56574500D01*
X143445049Y-56582208D01*
X143283767Y-56607753D01*
X143081592Y-56673444D01*
X142892186Y-56769951D01*
X142720220Y-56894890D01*
X142569901Y-57045209D01*
X142569897Y-57045214D01*
X142450325Y-57209793D01*
X142394996Y-57252459D01*
X142325382Y-57258438D01*
X142263587Y-57225833D01*
X142249689Y-57209793D01*
X142130116Y-57045214D01*
X142130112Y-57045209D01*
X141979793Y-56894890D01*
X141807827Y-56769951D01*
X141618421Y-56673444D01*
X141618420Y-56673443D01*
X141618419Y-56673443D01*
X141416250Y-56607754D01*
X141416248Y-56607753D01*
X141416247Y-56607753D01*
X141254964Y-56582208D01*
X141206294Y-56574500D01*
X140993720Y-56574500D01*
X140945049Y-56582208D01*
X140783767Y-56607753D01*
X140581592Y-56673444D01*
X140392186Y-56769951D01*
X140220220Y-56894890D01*
X140069897Y-57045213D01*
X139944958Y-57217179D01*
X139848451Y-57406585D01*
X139782760Y-57608760D01*
X139765058Y-57720528D01*
X139749507Y-57818713D01*
X135014372Y-57818713D01*
X135004146Y-57801000D01*
X135949999Y-57801000D01*
X135949999Y-57276028D01*
X135949998Y-57276013D01*
X135939505Y-57173302D01*
X135884358Y-57006880D01*
X135884356Y-57006875D01*
X135792315Y-56857654D01*
X135668345Y-56733684D01*
X135519124Y-56641643D01*
X135519119Y-56641641D01*
X135352697Y-56586494D01*
X135352690Y-56586493D01*
X135249986Y-56576000D01*
X134850000Y-56576000D01*
X134850000Y-57646854D01*
X134783343Y-57608370D01*
X134662535Y-57576000D01*
X134537465Y-57576000D01*
X134416657Y-57608370D01*
X134350000Y-57646854D01*
X134350000Y-56576000D01*
X133950028Y-56576000D01*
X133950012Y-56576001D01*
X133847302Y-56586494D01*
X133680880Y-56641641D01*
X133680875Y-56641643D01*
X133531654Y-56733684D01*
X133407683Y-56857655D01*
X133407680Y-56857659D01*
X133312183Y-57012484D01*
X133260235Y-57059209D01*
X133191273Y-57070430D01*
X133127191Y-57042587D01*
X133118964Y-57035068D01*
X132979786Y-56895890D01*
X132807820Y-56770951D01*
X132618414Y-56674444D01*
X132618413Y-56674443D01*
X132618412Y-56674443D01*
X132416243Y-56608754D01*
X132416241Y-56608753D01*
X132416240Y-56608753D01*
X132254957Y-56583208D01*
X132206287Y-56575500D01*
X131993713Y-56575500D01*
X131945042Y-56583208D01*
X131783760Y-56608753D01*
X131581585Y-56674444D01*
X131392179Y-56770951D01*
X131220213Y-56895890D01*
X131069894Y-57046209D01*
X131069890Y-57046214D01*
X130950318Y-57210793D01*
X130894989Y-57253459D01*
X130825375Y-57259438D01*
X130763580Y-57226833D01*
X130749682Y-57210793D01*
X130630109Y-57046214D01*
X130630105Y-57046209D01*
X130479786Y-56895890D01*
X130307820Y-56770951D01*
X130118414Y-56674444D01*
X130118413Y-56674443D01*
X130118412Y-56674443D01*
X129916243Y-56608754D01*
X129916241Y-56608753D01*
X129916240Y-56608753D01*
X129754957Y-56583208D01*
X129706287Y-56575500D01*
X129493713Y-56575500D01*
X129445042Y-56583208D01*
X129283760Y-56608753D01*
X129081585Y-56674444D01*
X128892179Y-56770951D01*
X128720213Y-56895890D01*
X128569894Y-57046209D01*
X128569890Y-57046214D01*
X128450318Y-57210793D01*
X128394989Y-57253459D01*
X128325375Y-57259438D01*
X128263580Y-57226833D01*
X128249682Y-57210793D01*
X128130109Y-57046214D01*
X128130105Y-57046209D01*
X127979786Y-56895890D01*
X127807820Y-56770951D01*
X127618414Y-56674444D01*
X127618413Y-56674443D01*
X127618412Y-56674443D01*
X127416243Y-56608754D01*
X127416241Y-56608753D01*
X127416240Y-56608753D01*
X127254957Y-56583208D01*
X127206287Y-56575500D01*
X126993713Y-56575500D01*
X126945042Y-56583208D01*
X126783760Y-56608753D01*
X126581585Y-56674444D01*
X126392179Y-56770951D01*
X126220213Y-56895890D01*
X126069890Y-57046213D01*
X125944951Y-57218179D01*
X125848444Y-57407585D01*
X125782753Y-57609760D01*
X125773227Y-57669905D01*
X125749500Y-57819713D01*
X121014952Y-57819713D01*
X121004148Y-57801000D01*
X121950001Y-57801000D01*
X121950001Y-57276028D01*
X121950000Y-57276013D01*
X121939507Y-57173302D01*
X121884360Y-57006880D01*
X121884358Y-57006875D01*
X121792317Y-56857654D01*
X121668347Y-56733684D01*
X121519126Y-56641643D01*
X121519121Y-56641641D01*
X121352699Y-56586494D01*
X121352692Y-56586493D01*
X121249988Y-56576000D01*
X120850002Y-56576000D01*
X120850002Y-57646854D01*
X120783345Y-57608370D01*
X120662537Y-57576000D01*
X120537467Y-57576000D01*
X120416659Y-57608370D01*
X120350002Y-57646854D01*
X120350002Y-56576000D01*
X119950030Y-56576000D01*
X119950014Y-56576001D01*
X119847304Y-56586494D01*
X119680882Y-56641641D01*
X119680877Y-56641643D01*
X119531656Y-56733684D01*
X119407685Y-56857655D01*
X119407682Y-56857659D01*
X119312185Y-57012484D01*
X119260237Y-57059209D01*
X119191275Y-57070430D01*
X119127193Y-57042587D01*
X119118966Y-57035068D01*
X118979788Y-56895890D01*
X118807822Y-56770951D01*
X118618416Y-56674444D01*
X118618415Y-56674443D01*
X118618414Y-56674443D01*
X118416245Y-56608754D01*
X118416243Y-56608753D01*
X118416242Y-56608753D01*
X118254959Y-56583208D01*
X118206289Y-56575500D01*
X117993715Y-56575500D01*
X117945044Y-56583208D01*
X117783762Y-56608753D01*
X117581587Y-56674444D01*
X117392181Y-56770951D01*
X117220215Y-56895890D01*
X117069896Y-57046209D01*
X117069892Y-57046214D01*
X116950320Y-57210793D01*
X116894991Y-57253459D01*
X116825377Y-57259438D01*
X116763582Y-57226833D01*
X116749684Y-57210793D01*
X116630111Y-57046214D01*
X116630107Y-57046209D01*
X116479788Y-56895890D01*
X116307822Y-56770951D01*
X116118416Y-56674444D01*
X116118415Y-56674443D01*
X116118414Y-56674443D01*
X115916245Y-56608754D01*
X115916243Y-56608753D01*
X115916242Y-56608753D01*
X115754959Y-56583208D01*
X115706289Y-56575500D01*
X115493715Y-56575500D01*
X115445044Y-56583208D01*
X115283762Y-56608753D01*
X115081587Y-56674444D01*
X114892181Y-56770951D01*
X114720215Y-56895890D01*
X114569896Y-57046209D01*
X114569892Y-57046214D01*
X114450320Y-57210793D01*
X114394991Y-57253459D01*
X114325377Y-57259438D01*
X114263582Y-57226833D01*
X114249684Y-57210793D01*
X114130111Y-57046214D01*
X114130107Y-57046209D01*
X113979788Y-56895890D01*
X113807822Y-56770951D01*
X113618416Y-56674444D01*
X113618415Y-56674443D01*
X113618414Y-56674443D01*
X113416245Y-56608754D01*
X113416243Y-56608753D01*
X113416242Y-56608753D01*
X113254959Y-56583208D01*
X113206289Y-56575500D01*
X112993715Y-56575500D01*
X112945044Y-56583208D01*
X112783762Y-56608753D01*
X112581587Y-56674444D01*
X112392181Y-56770951D01*
X112220215Y-56895890D01*
X112069892Y-57046213D01*
X111944953Y-57218179D01*
X111848446Y-57407585D01*
X111782755Y-57609760D01*
X111773229Y-57669905D01*
X111749502Y-57819713D01*
X101387361Y-57819713D01*
X101399326Y-52878048D01*
X104339500Y-52878048D01*
X104339500Y-53121951D01*
X104366013Y-53323333D01*
X104371334Y-53363744D01*
X104371335Y-53363746D01*
X104434456Y-53599320D01*
X104434459Y-53599330D01*
X104527786Y-53824640D01*
X104527791Y-53824651D01*
X104649727Y-54035848D01*
X104649738Y-54035864D01*
X104798199Y-54229343D01*
X104798205Y-54229350D01*
X104970649Y-54401794D01*
X104970655Y-54401799D01*
X105164144Y-54550268D01*
X105164151Y-54550272D01*
X105375348Y-54672208D01*
X105375353Y-54672210D01*
X105375356Y-54672212D01*
X105600679Y-54765544D01*
X105836256Y-54828666D01*
X106078056Y-54860500D01*
X106078063Y-54860500D01*
X106321937Y-54860500D01*
X106321944Y-54860500D01*
X106563744Y-54828666D01*
X106799321Y-54765544D01*
X107024644Y-54672212D01*
X107235856Y-54550268D01*
X107429345Y-54401799D01*
X107601799Y-54229345D01*
X107750268Y-54035856D01*
X107872212Y-53824644D01*
X107965544Y-53599321D01*
X108028666Y-53363744D01*
X108060500Y-53121944D01*
X108060500Y-52878056D01*
X108060499Y-52878048D01*
X172139500Y-52878048D01*
X172139500Y-53121951D01*
X172166013Y-53323333D01*
X172171334Y-53363744D01*
X172171335Y-53363746D01*
X172234456Y-53599320D01*
X172234459Y-53599330D01*
X172327786Y-53824640D01*
X172327791Y-53824651D01*
X172449727Y-54035848D01*
X172449738Y-54035864D01*
X172598199Y-54229343D01*
X172598205Y-54229350D01*
X172770649Y-54401794D01*
X172770655Y-54401799D01*
X172964144Y-54550268D01*
X172964151Y-54550272D01*
X173175348Y-54672208D01*
X173175353Y-54672210D01*
X173175356Y-54672212D01*
X173400679Y-54765544D01*
X173636256Y-54828666D01*
X173878056Y-54860500D01*
X173878063Y-54860500D01*
X174121937Y-54860500D01*
X174121944Y-54860500D01*
X174363744Y-54828666D01*
X174599321Y-54765544D01*
X174824644Y-54672212D01*
X175035856Y-54550268D01*
X175229345Y-54401799D01*
X175401799Y-54229345D01*
X175550268Y-54035856D01*
X175672212Y-53824644D01*
X175765544Y-53599321D01*
X175828666Y-53363744D01*
X175860500Y-53121944D01*
X175860500Y-52878056D01*
X175828666Y-52636256D01*
X175765544Y-52400679D01*
X175672212Y-52175356D01*
X175672210Y-52175353D01*
X175672208Y-52175348D01*
X175550272Y-51964151D01*
X175550268Y-51964144D01*
X175401799Y-51770655D01*
X175401794Y-51770649D01*
X175229350Y-51598205D01*
X175229343Y-51598199D01*
X175035864Y-51449738D01*
X175035862Y-51449736D01*
X175035856Y-51449732D01*
X175035851Y-51449729D01*
X175035848Y-51449727D01*
X174824651Y-51327791D01*
X174824640Y-51327786D01*
X174599330Y-51234459D01*
X174599323Y-51234457D01*
X174599321Y-51234456D01*
X174363744Y-51171334D01*
X174323333Y-51166013D01*
X174121951Y-51139500D01*
X174121944Y-51139500D01*
X173878056Y-51139500D01*
X173878048Y-51139500D01*
X173647896Y-51169801D01*
X173636256Y-51171334D01*
X173400679Y-51234456D01*
X173400669Y-51234459D01*
X173175359Y-51327786D01*
X173175348Y-51327791D01*
X172964151Y-51449727D01*
X172964135Y-51449738D01*
X172770656Y-51598199D01*
X172770649Y-51598205D01*
X172598205Y-51770649D01*
X172598199Y-51770656D01*
X172449738Y-51964135D01*
X172449727Y-51964151D01*
X172327791Y-52175348D01*
X172327786Y-52175359D01*
X172234459Y-52400669D01*
X172234456Y-52400679D01*
X172171335Y-52636253D01*
X172171333Y-52636264D01*
X172139500Y-52878048D01*
X108060499Y-52878048D01*
X108028666Y-52636256D01*
X107965544Y-52400679D01*
X107872212Y-52175356D01*
X107872210Y-52175353D01*
X107872208Y-52175348D01*
X107750272Y-51964151D01*
X107750268Y-51964144D01*
X107601799Y-51770655D01*
X107601794Y-51770649D01*
X107429350Y-51598205D01*
X107429343Y-51598199D01*
X107235864Y-51449738D01*
X107235862Y-51449736D01*
X107235856Y-51449732D01*
X107235851Y-51449729D01*
X107235848Y-51449727D01*
X107024651Y-51327791D01*
X107024640Y-51327786D01*
X106799330Y-51234459D01*
X106799323Y-51234457D01*
X106799321Y-51234456D01*
X106563744Y-51171334D01*
X106523333Y-51166013D01*
X106321951Y-51139500D01*
X106321944Y-51139500D01*
X106078056Y-51139500D01*
X106078048Y-51139500D01*
X105847896Y-51169801D01*
X105836256Y-51171334D01*
X105600679Y-51234456D01*
X105600669Y-51234459D01*
X105375359Y-51327786D01*
X105375348Y-51327791D01*
X105164151Y-51449727D01*
X105164135Y-51449738D01*
X104970656Y-51598199D01*
X104970649Y-51598205D01*
X104798205Y-51770649D01*
X104798199Y-51770656D01*
X104649738Y-51964135D01*
X104649727Y-51964151D01*
X104527791Y-52175348D01*
X104527786Y-52175359D01*
X104434459Y-52400669D01*
X104434456Y-52400679D01*
X104371335Y-52636253D01*
X104371333Y-52636264D01*
X104339500Y-52878048D01*
X101399326Y-52878048D01*
X101399878Y-52649997D01*
X101419725Y-52583009D01*
X101434766Y-52564074D01*
X104363522Y-49537693D01*
X104424286Y-49503209D01*
X104452448Y-49499927D01*
X177036081Y-49400087D01*
X177103145Y-49419679D01*
G37*
%TD.AperFunction*%
%TD*%
M02*
