%TF.GenerationSoftware,KiCad,Pcbnew,9.0.1*%
%TF.CreationDate,2025-06-03T11:42:51+02:00*%
%TF.ProjectId,esc,6573632e-6b69-4636-9164-5f7063625858,rev?*%
%TF.SameCoordinates,Original*%
%TF.FileFunction,Legend,Top*%
%TF.FilePolarity,Positive*%
%FSLAX46Y46*%
G04 Gerber Fmt 4.6, Leading zero omitted, Abs format (unit mm)*
G04 Created by KiCad (PCBNEW 9.0.1) date 2025-06-03 11:42:51*
%MOMM*%
%LPD*%
G01*
G04 APERTURE LIST*
%ADD10C,0.300000*%
%ADD11C,0.150000*%
%ADD12C,0.254000*%
%ADD13C,0.120000*%
%ADD14C,0.200000*%
%ADD15C,0.100000*%
G04 APERTURE END LIST*
D10*
X151304510Y-98300828D02*
X151304510Y-99300828D01*
X151304510Y-98443685D02*
X151375939Y-98372257D01*
X151375939Y-98372257D02*
X151518796Y-98300828D01*
X151518796Y-98300828D02*
X151733082Y-98300828D01*
X151733082Y-98300828D02*
X151875939Y-98372257D01*
X151875939Y-98372257D02*
X151947368Y-98515114D01*
X151947368Y-98515114D02*
X151947368Y-99300828D01*
X152661653Y-99300828D02*
X152661653Y-98300828D01*
X152661653Y-97800828D02*
X152590225Y-97872257D01*
X152590225Y-97872257D02*
X152661653Y-97943685D01*
X152661653Y-97943685D02*
X152733082Y-97872257D01*
X152733082Y-97872257D02*
X152661653Y-97800828D01*
X152661653Y-97800828D02*
X152661653Y-97943685D01*
X153375939Y-99300828D02*
X153375939Y-97800828D01*
X153518797Y-98729400D02*
X153947368Y-99300828D01*
X153947368Y-98300828D02*
X153375939Y-98872257D01*
X154804511Y-99300828D02*
X154661654Y-99229400D01*
X154661654Y-99229400D02*
X154590225Y-99157971D01*
X154590225Y-99157971D02*
X154518797Y-99015114D01*
X154518797Y-99015114D02*
X154518797Y-98586542D01*
X154518797Y-98586542D02*
X154590225Y-98443685D01*
X154590225Y-98443685D02*
X154661654Y-98372257D01*
X154661654Y-98372257D02*
X154804511Y-98300828D01*
X154804511Y-98300828D02*
X155018797Y-98300828D01*
X155018797Y-98300828D02*
X155161654Y-98372257D01*
X155161654Y-98372257D02*
X155233083Y-98443685D01*
X155233083Y-98443685D02*
X155304511Y-98586542D01*
X155304511Y-98586542D02*
X155304511Y-99015114D01*
X155304511Y-99015114D02*
X155233083Y-99157971D01*
X155233083Y-99157971D02*
X155161654Y-99229400D01*
X155161654Y-99229400D02*
X155018797Y-99300828D01*
X155018797Y-99300828D02*
X154804511Y-99300828D01*
X156161654Y-99300828D02*
X156018797Y-99229400D01*
X156018797Y-99229400D02*
X155947368Y-99086542D01*
X155947368Y-99086542D02*
X155947368Y-97800828D01*
X157375940Y-99300828D02*
X157375940Y-98515114D01*
X157375940Y-98515114D02*
X157304511Y-98372257D01*
X157304511Y-98372257D02*
X157161654Y-98300828D01*
X157161654Y-98300828D02*
X156875940Y-98300828D01*
X156875940Y-98300828D02*
X156733082Y-98372257D01*
X157375940Y-99229400D02*
X157233082Y-99300828D01*
X157233082Y-99300828D02*
X156875940Y-99300828D01*
X156875940Y-99300828D02*
X156733082Y-99229400D01*
X156733082Y-99229400D02*
X156661654Y-99086542D01*
X156661654Y-99086542D02*
X156661654Y-98943685D01*
X156661654Y-98943685D02*
X156733082Y-98800828D01*
X156733082Y-98800828D02*
X156875940Y-98729400D01*
X156875940Y-98729400D02*
X157233082Y-98729400D01*
X157233082Y-98729400D02*
X157375940Y-98657971D01*
X158018797Y-99229400D02*
X158161654Y-99300828D01*
X158161654Y-99300828D02*
X158447368Y-99300828D01*
X158447368Y-99300828D02*
X158590225Y-99229400D01*
X158590225Y-99229400D02*
X158661654Y-99086542D01*
X158661654Y-99086542D02*
X158661654Y-99015114D01*
X158661654Y-99015114D02*
X158590225Y-98872257D01*
X158590225Y-98872257D02*
X158447368Y-98800828D01*
X158447368Y-98800828D02*
X158233083Y-98800828D01*
X158233083Y-98800828D02*
X158090225Y-98729400D01*
X158090225Y-98729400D02*
X158018797Y-98586542D01*
X158018797Y-98586542D02*
X158018797Y-98515114D01*
X158018797Y-98515114D02*
X158090225Y-98372257D01*
X158090225Y-98372257D02*
X158233083Y-98300828D01*
X158233083Y-98300828D02*
X158447368Y-98300828D01*
X158447368Y-98300828D02*
X158590225Y-98372257D01*
X159304511Y-99157971D02*
X159375940Y-99229400D01*
X159375940Y-99229400D02*
X159304511Y-99300828D01*
X159304511Y-99300828D02*
X159233083Y-99229400D01*
X159233083Y-99229400D02*
X159304511Y-99157971D01*
X159304511Y-99157971D02*
X159304511Y-99300828D01*
X159875940Y-98300828D02*
X160161655Y-99300828D01*
X160161655Y-99300828D02*
X160447369Y-98586542D01*
X160447369Y-98586542D02*
X160733083Y-99300828D01*
X160733083Y-99300828D02*
X161018797Y-98300828D01*
X161590226Y-99300828D02*
X161590226Y-98300828D01*
X161590226Y-97800828D02*
X161518798Y-97872257D01*
X161518798Y-97872257D02*
X161590226Y-97943685D01*
X161590226Y-97943685D02*
X161661655Y-97872257D01*
X161661655Y-97872257D02*
X161590226Y-97800828D01*
X161590226Y-97800828D02*
X161590226Y-97943685D01*
X162518798Y-99300828D02*
X162375941Y-99229400D01*
X162375941Y-99229400D02*
X162304512Y-99086542D01*
X162304512Y-99086542D02*
X162304512Y-97800828D01*
X163090226Y-99300828D02*
X163090226Y-97800828D01*
X163733084Y-99300828D02*
X163733084Y-98515114D01*
X163733084Y-98515114D02*
X163661655Y-98372257D01*
X163661655Y-98372257D02*
X163518798Y-98300828D01*
X163518798Y-98300828D02*
X163304512Y-98300828D01*
X163304512Y-98300828D02*
X163161655Y-98372257D01*
X163161655Y-98372257D02*
X163090226Y-98443685D01*
X165018798Y-99229400D02*
X164875941Y-99300828D01*
X164875941Y-99300828D02*
X164590227Y-99300828D01*
X164590227Y-99300828D02*
X164447369Y-99229400D01*
X164447369Y-99229400D02*
X164375941Y-99086542D01*
X164375941Y-99086542D02*
X164375941Y-98515114D01*
X164375941Y-98515114D02*
X164447369Y-98372257D01*
X164447369Y-98372257D02*
X164590227Y-98300828D01*
X164590227Y-98300828D02*
X164875941Y-98300828D01*
X164875941Y-98300828D02*
X165018798Y-98372257D01*
X165018798Y-98372257D02*
X165090227Y-98515114D01*
X165090227Y-98515114D02*
X165090227Y-98657971D01*
X165090227Y-98657971D02*
X164375941Y-98800828D01*
X165947369Y-99300828D02*
X165804512Y-99229400D01*
X165804512Y-99229400D02*
X165733083Y-99086542D01*
X165733083Y-99086542D02*
X165733083Y-97800828D01*
X166518797Y-99300828D02*
X166518797Y-98300828D01*
X166518797Y-98443685D02*
X166590226Y-98372257D01*
X166590226Y-98372257D02*
X166733083Y-98300828D01*
X166733083Y-98300828D02*
X166947369Y-98300828D01*
X166947369Y-98300828D02*
X167090226Y-98372257D01*
X167090226Y-98372257D02*
X167161655Y-98515114D01*
X167161655Y-98515114D02*
X167161655Y-99300828D01*
X167161655Y-98515114D02*
X167233083Y-98372257D01*
X167233083Y-98372257D02*
X167375940Y-98300828D01*
X167375940Y-98300828D02*
X167590226Y-98300828D01*
X167590226Y-98300828D02*
X167733083Y-98372257D01*
X167733083Y-98372257D02*
X167804512Y-98515114D01*
X167804512Y-98515114D02*
X167804512Y-99300828D01*
X169447369Y-98586542D02*
X169375940Y-98515114D01*
X169375940Y-98515114D02*
X169233083Y-98443685D01*
X169233083Y-98443685D02*
X169090226Y-98443685D01*
X169090226Y-98443685D02*
X168947369Y-98515114D01*
X168947369Y-98515114D02*
X168875940Y-98586542D01*
X168875940Y-98586542D02*
X168804512Y-98729400D01*
X168804512Y-98729400D02*
X168804512Y-98872257D01*
X168804512Y-98872257D02*
X168875940Y-99015114D01*
X168875940Y-99015114D02*
X168947369Y-99086542D01*
X168947369Y-99086542D02*
X169090226Y-99157971D01*
X169090226Y-99157971D02*
X169233083Y-99157971D01*
X169233083Y-99157971D02*
X169375940Y-99086542D01*
X169375940Y-99086542D02*
X169447369Y-99015114D01*
X169447369Y-98443685D02*
X169447369Y-99015114D01*
X169447369Y-99015114D02*
X169518797Y-99086542D01*
X169518797Y-99086542D02*
X169590226Y-99086542D01*
X169590226Y-99086542D02*
X169733083Y-99015114D01*
X169733083Y-99015114D02*
X169804512Y-98872257D01*
X169804512Y-98872257D02*
X169804512Y-98515114D01*
X169804512Y-98515114D02*
X169661655Y-98300828D01*
X169661655Y-98300828D02*
X169447369Y-98157971D01*
X169447369Y-98157971D02*
X169161655Y-98086542D01*
X169161655Y-98086542D02*
X168875940Y-98157971D01*
X168875940Y-98157971D02*
X168661655Y-98300828D01*
X168661655Y-98300828D02*
X168518797Y-98515114D01*
X168518797Y-98515114D02*
X168447369Y-98800828D01*
X168447369Y-98800828D02*
X168518797Y-99086542D01*
X168518797Y-99086542D02*
X168661655Y-99300828D01*
X168661655Y-99300828D02*
X168875940Y-99443685D01*
X168875940Y-99443685D02*
X169161655Y-99515114D01*
X169161655Y-99515114D02*
X169447369Y-99443685D01*
X169447369Y-99443685D02*
X169661655Y-99300828D01*
X170233083Y-98300828D02*
X170804511Y-98300828D01*
X170447368Y-97800828D02*
X170447368Y-99086542D01*
X170447368Y-99086542D02*
X170518797Y-99229400D01*
X170518797Y-99229400D02*
X170661654Y-99300828D01*
X170661654Y-99300828D02*
X170804511Y-99300828D01*
X171947369Y-98300828D02*
X171947369Y-99300828D01*
X171304511Y-98300828D02*
X171304511Y-99086542D01*
X171304511Y-99086542D02*
X171375940Y-99229400D01*
X171375940Y-99229400D02*
X171518797Y-99300828D01*
X171518797Y-99300828D02*
X171733083Y-99300828D01*
X171733083Y-99300828D02*
X171875940Y-99229400D01*
X171875940Y-99229400D02*
X171947369Y-99157971D01*
X172661654Y-99300828D02*
X172661654Y-98300828D01*
X172661654Y-98443685D02*
X172733083Y-98372257D01*
X172733083Y-98372257D02*
X172875940Y-98300828D01*
X172875940Y-98300828D02*
X173090226Y-98300828D01*
X173090226Y-98300828D02*
X173233083Y-98372257D01*
X173233083Y-98372257D02*
X173304512Y-98515114D01*
X173304512Y-98515114D02*
X173304512Y-99300828D01*
X173304512Y-98515114D02*
X173375940Y-98372257D01*
X173375940Y-98372257D02*
X173518797Y-98300828D01*
X173518797Y-98300828D02*
X173733083Y-98300828D01*
X173733083Y-98300828D02*
X173875940Y-98372257D01*
X173875940Y-98372257D02*
X173947369Y-98515114D01*
X173947369Y-98515114D02*
X173947369Y-99300828D01*
X174661654Y-99157971D02*
X174733083Y-99229400D01*
X174733083Y-99229400D02*
X174661654Y-99300828D01*
X174661654Y-99300828D02*
X174590226Y-99229400D01*
X174590226Y-99229400D02*
X174661654Y-99157971D01*
X174661654Y-99157971D02*
X174661654Y-99300828D01*
X176018798Y-99300828D02*
X176018798Y-97800828D01*
X176018798Y-99229400D02*
X175875940Y-99300828D01*
X175875940Y-99300828D02*
X175590226Y-99300828D01*
X175590226Y-99300828D02*
X175447369Y-99229400D01*
X175447369Y-99229400D02*
X175375940Y-99157971D01*
X175375940Y-99157971D02*
X175304512Y-99015114D01*
X175304512Y-99015114D02*
X175304512Y-98586542D01*
X175304512Y-98586542D02*
X175375940Y-98443685D01*
X175375940Y-98443685D02*
X175447369Y-98372257D01*
X175447369Y-98372257D02*
X175590226Y-98300828D01*
X175590226Y-98300828D02*
X175875940Y-98300828D01*
X175875940Y-98300828D02*
X176018798Y-98372257D01*
X177304512Y-99229400D02*
X177161655Y-99300828D01*
X177161655Y-99300828D02*
X176875941Y-99300828D01*
X176875941Y-99300828D02*
X176733083Y-99229400D01*
X176733083Y-99229400D02*
X176661655Y-99086542D01*
X176661655Y-99086542D02*
X176661655Y-98515114D01*
X176661655Y-98515114D02*
X176733083Y-98372257D01*
X176733083Y-98372257D02*
X176875941Y-98300828D01*
X176875941Y-98300828D02*
X177161655Y-98300828D01*
X177161655Y-98300828D02*
X177304512Y-98372257D01*
X177304512Y-98372257D02*
X177375941Y-98515114D01*
X177375941Y-98515114D02*
X177375941Y-98657971D01*
X177375941Y-98657971D02*
X176661655Y-98800828D01*
D11*
X167384819Y-89467857D02*
X166908628Y-89801190D01*
X167384819Y-90039285D02*
X166384819Y-90039285D01*
X166384819Y-90039285D02*
X166384819Y-89658333D01*
X166384819Y-89658333D02*
X166432438Y-89563095D01*
X166432438Y-89563095D02*
X166480057Y-89515476D01*
X166480057Y-89515476D02*
X166575295Y-89467857D01*
X166575295Y-89467857D02*
X166718152Y-89467857D01*
X166718152Y-89467857D02*
X166813390Y-89515476D01*
X166813390Y-89515476D02*
X166861009Y-89563095D01*
X166861009Y-89563095D02*
X166908628Y-89658333D01*
X166908628Y-89658333D02*
X166908628Y-90039285D01*
X167384819Y-88515476D02*
X167384819Y-89086904D01*
X167384819Y-88801190D02*
X166384819Y-88801190D01*
X166384819Y-88801190D02*
X166527676Y-88896428D01*
X166527676Y-88896428D02*
X166622914Y-88991666D01*
X166622914Y-88991666D02*
X166670533Y-89086904D01*
X166384819Y-87658333D02*
X166384819Y-87848809D01*
X166384819Y-87848809D02*
X166432438Y-87944047D01*
X166432438Y-87944047D02*
X166480057Y-87991666D01*
X166480057Y-87991666D02*
X166622914Y-88086904D01*
X166622914Y-88086904D02*
X166813390Y-88134523D01*
X166813390Y-88134523D02*
X167194342Y-88134523D01*
X167194342Y-88134523D02*
X167289580Y-88086904D01*
X167289580Y-88086904D02*
X167337200Y-88039285D01*
X167337200Y-88039285D02*
X167384819Y-87944047D01*
X167384819Y-87944047D02*
X167384819Y-87753571D01*
X167384819Y-87753571D02*
X167337200Y-87658333D01*
X167337200Y-87658333D02*
X167289580Y-87610714D01*
X167289580Y-87610714D02*
X167194342Y-87563095D01*
X167194342Y-87563095D02*
X166956247Y-87563095D01*
X166956247Y-87563095D02*
X166861009Y-87610714D01*
X166861009Y-87610714D02*
X166813390Y-87658333D01*
X166813390Y-87658333D02*
X166765771Y-87753571D01*
X166765771Y-87753571D02*
X166765771Y-87944047D01*
X166765771Y-87944047D02*
X166813390Y-88039285D01*
X166813390Y-88039285D02*
X166861009Y-88086904D01*
X166861009Y-88086904D02*
X166956247Y-88134523D01*
D12*
X127824318Y-118402381D02*
X126554318Y-118402381D01*
X126554318Y-118402381D02*
X126554318Y-118100000D01*
X126554318Y-118100000D02*
X126614794Y-117918571D01*
X126614794Y-117918571D02*
X126735746Y-117797619D01*
X126735746Y-117797619D02*
X126856699Y-117737142D01*
X126856699Y-117737142D02*
X127098603Y-117676666D01*
X127098603Y-117676666D02*
X127280032Y-117676666D01*
X127280032Y-117676666D02*
X127521937Y-117737142D01*
X127521937Y-117737142D02*
X127642889Y-117797619D01*
X127642889Y-117797619D02*
X127763842Y-117918571D01*
X127763842Y-117918571D02*
X127824318Y-118100000D01*
X127824318Y-118100000D02*
X127824318Y-118402381D01*
X126554318Y-117253333D02*
X126554318Y-116406666D01*
X126554318Y-116406666D02*
X127824318Y-116950952D01*
D11*
X158884819Y-73141666D02*
X158408628Y-73474999D01*
X158884819Y-73713094D02*
X157884819Y-73713094D01*
X157884819Y-73713094D02*
X157884819Y-73332142D01*
X157884819Y-73332142D02*
X157932438Y-73236904D01*
X157932438Y-73236904D02*
X157980057Y-73189285D01*
X157980057Y-73189285D02*
X158075295Y-73141666D01*
X158075295Y-73141666D02*
X158218152Y-73141666D01*
X158218152Y-73141666D02*
X158313390Y-73189285D01*
X158313390Y-73189285D02*
X158361009Y-73236904D01*
X158361009Y-73236904D02*
X158408628Y-73332142D01*
X158408628Y-73332142D02*
X158408628Y-73713094D01*
X158884819Y-72189285D02*
X158884819Y-72760713D01*
X158884819Y-72474999D02*
X157884819Y-72474999D01*
X157884819Y-72474999D02*
X158027676Y-72570237D01*
X158027676Y-72570237D02*
X158122914Y-72665475D01*
X158122914Y-72665475D02*
X158170533Y-72760713D01*
X121409579Y-111932857D02*
X121457199Y-111980476D01*
X121457199Y-111980476D02*
X121504818Y-112123333D01*
X121504818Y-112123333D02*
X121504818Y-112218571D01*
X121504818Y-112218571D02*
X121457199Y-112361428D01*
X121457199Y-112361428D02*
X121361960Y-112456666D01*
X121361960Y-112456666D02*
X121266722Y-112504285D01*
X121266722Y-112504285D02*
X121076246Y-112551904D01*
X121076246Y-112551904D02*
X120933389Y-112551904D01*
X120933389Y-112551904D02*
X120742913Y-112504285D01*
X120742913Y-112504285D02*
X120647675Y-112456666D01*
X120647675Y-112456666D02*
X120552437Y-112361428D01*
X120552437Y-112361428D02*
X120504818Y-112218571D01*
X120504818Y-112218571D02*
X120504818Y-112123333D01*
X120504818Y-112123333D02*
X120552437Y-111980476D01*
X120552437Y-111980476D02*
X120600056Y-111932857D01*
X120504818Y-111599523D02*
X120504818Y-110980476D01*
X120504818Y-110980476D02*
X120885770Y-111313809D01*
X120885770Y-111313809D02*
X120885770Y-111170952D01*
X120885770Y-111170952D02*
X120933389Y-111075714D01*
X120933389Y-111075714D02*
X120981008Y-111028095D01*
X120981008Y-111028095D02*
X121076246Y-110980476D01*
X121076246Y-110980476D02*
X121314341Y-110980476D01*
X121314341Y-110980476D02*
X121409579Y-111028095D01*
X121409579Y-111028095D02*
X121457199Y-111075714D01*
X121457199Y-111075714D02*
X121504818Y-111170952D01*
X121504818Y-111170952D02*
X121504818Y-111456666D01*
X121504818Y-111456666D02*
X121457199Y-111551904D01*
X121457199Y-111551904D02*
X121409579Y-111599523D01*
X120504818Y-110123333D02*
X120504818Y-110313809D01*
X120504818Y-110313809D02*
X120552437Y-110409047D01*
X120552437Y-110409047D02*
X120600056Y-110456666D01*
X120600056Y-110456666D02*
X120742913Y-110551904D01*
X120742913Y-110551904D02*
X120933389Y-110599523D01*
X120933389Y-110599523D02*
X121314341Y-110599523D01*
X121314341Y-110599523D02*
X121409579Y-110551904D01*
X121409579Y-110551904D02*
X121457199Y-110504285D01*
X121457199Y-110504285D02*
X121504818Y-110409047D01*
X121504818Y-110409047D02*
X121504818Y-110218571D01*
X121504818Y-110218571D02*
X121457199Y-110123333D01*
X121457199Y-110123333D02*
X121409579Y-110075714D01*
X121409579Y-110075714D02*
X121314341Y-110028095D01*
X121314341Y-110028095D02*
X121076246Y-110028095D01*
X121076246Y-110028095D02*
X120981008Y-110075714D01*
X120981008Y-110075714D02*
X120933389Y-110123333D01*
X120933389Y-110123333D02*
X120885770Y-110218571D01*
X120885770Y-110218571D02*
X120885770Y-110409047D01*
X120885770Y-110409047D02*
X120933389Y-110504285D01*
X120933389Y-110504285D02*
X120981008Y-110551904D01*
X120981008Y-110551904D02*
X121076246Y-110599523D01*
X164254819Y-120132857D02*
X163778628Y-120466190D01*
X164254819Y-120704285D02*
X163254819Y-120704285D01*
X163254819Y-120704285D02*
X163254819Y-120323333D01*
X163254819Y-120323333D02*
X163302438Y-120228095D01*
X163302438Y-120228095D02*
X163350057Y-120180476D01*
X163350057Y-120180476D02*
X163445295Y-120132857D01*
X163445295Y-120132857D02*
X163588152Y-120132857D01*
X163588152Y-120132857D02*
X163683390Y-120180476D01*
X163683390Y-120180476D02*
X163731009Y-120228095D01*
X163731009Y-120228095D02*
X163778628Y-120323333D01*
X163778628Y-120323333D02*
X163778628Y-120704285D01*
X163350057Y-119751904D02*
X163302438Y-119704285D01*
X163302438Y-119704285D02*
X163254819Y-119609047D01*
X163254819Y-119609047D02*
X163254819Y-119370952D01*
X163254819Y-119370952D02*
X163302438Y-119275714D01*
X163302438Y-119275714D02*
X163350057Y-119228095D01*
X163350057Y-119228095D02*
X163445295Y-119180476D01*
X163445295Y-119180476D02*
X163540533Y-119180476D01*
X163540533Y-119180476D02*
X163683390Y-119228095D01*
X163683390Y-119228095D02*
X164254819Y-119799523D01*
X164254819Y-119799523D02*
X164254819Y-119180476D01*
X163254819Y-118847142D02*
X163254819Y-118180476D01*
X163254819Y-118180476D02*
X164254819Y-118609047D01*
X155833333Y-67359580D02*
X155785714Y-67407200D01*
X155785714Y-67407200D02*
X155642857Y-67454819D01*
X155642857Y-67454819D02*
X155547619Y-67454819D01*
X155547619Y-67454819D02*
X155404762Y-67407200D01*
X155404762Y-67407200D02*
X155309524Y-67311961D01*
X155309524Y-67311961D02*
X155261905Y-67216723D01*
X155261905Y-67216723D02*
X155214286Y-67026247D01*
X155214286Y-67026247D02*
X155214286Y-66883390D01*
X155214286Y-66883390D02*
X155261905Y-66692914D01*
X155261905Y-66692914D02*
X155309524Y-66597676D01*
X155309524Y-66597676D02*
X155404762Y-66502438D01*
X155404762Y-66502438D02*
X155547619Y-66454819D01*
X155547619Y-66454819D02*
X155642857Y-66454819D01*
X155642857Y-66454819D02*
X155785714Y-66502438D01*
X155785714Y-66502438D02*
X155833333Y-66550057D01*
X156690476Y-66788152D02*
X156690476Y-67454819D01*
X156452381Y-66407200D02*
X156214286Y-67121485D01*
X156214286Y-67121485D02*
X156833333Y-67121485D01*
X168083333Y-79704819D02*
X167750000Y-79228628D01*
X167511905Y-79704819D02*
X167511905Y-78704819D01*
X167511905Y-78704819D02*
X167892857Y-78704819D01*
X167892857Y-78704819D02*
X167988095Y-78752438D01*
X167988095Y-78752438D02*
X168035714Y-78800057D01*
X168035714Y-78800057D02*
X168083333Y-78895295D01*
X168083333Y-78895295D02*
X168083333Y-79038152D01*
X168083333Y-79038152D02*
X168035714Y-79133390D01*
X168035714Y-79133390D02*
X167988095Y-79181009D01*
X167988095Y-79181009D02*
X167892857Y-79228628D01*
X167892857Y-79228628D02*
X167511905Y-79228628D01*
X168464286Y-78800057D02*
X168511905Y-78752438D01*
X168511905Y-78752438D02*
X168607143Y-78704819D01*
X168607143Y-78704819D02*
X168845238Y-78704819D01*
X168845238Y-78704819D02*
X168940476Y-78752438D01*
X168940476Y-78752438D02*
X168988095Y-78800057D01*
X168988095Y-78800057D02*
X169035714Y-78895295D01*
X169035714Y-78895295D02*
X169035714Y-78990533D01*
X169035714Y-78990533D02*
X168988095Y-79133390D01*
X168988095Y-79133390D02*
X168416667Y-79704819D01*
X168416667Y-79704819D02*
X169035714Y-79704819D01*
X169989579Y-116707857D02*
X170037199Y-116755476D01*
X170037199Y-116755476D02*
X170084818Y-116898333D01*
X170084818Y-116898333D02*
X170084818Y-116993571D01*
X170084818Y-116993571D02*
X170037199Y-117136428D01*
X170037199Y-117136428D02*
X169941960Y-117231666D01*
X169941960Y-117231666D02*
X169846722Y-117279285D01*
X169846722Y-117279285D02*
X169656246Y-117326904D01*
X169656246Y-117326904D02*
X169513389Y-117326904D01*
X169513389Y-117326904D02*
X169322913Y-117279285D01*
X169322913Y-117279285D02*
X169227675Y-117231666D01*
X169227675Y-117231666D02*
X169132437Y-117136428D01*
X169132437Y-117136428D02*
X169084818Y-116993571D01*
X169084818Y-116993571D02*
X169084818Y-116898333D01*
X169084818Y-116898333D02*
X169132437Y-116755476D01*
X169132437Y-116755476D02*
X169180056Y-116707857D01*
X169180056Y-116326904D02*
X169132437Y-116279285D01*
X169132437Y-116279285D02*
X169084818Y-116184047D01*
X169084818Y-116184047D02*
X169084818Y-115945952D01*
X169084818Y-115945952D02*
X169132437Y-115850714D01*
X169132437Y-115850714D02*
X169180056Y-115803095D01*
X169180056Y-115803095D02*
X169275294Y-115755476D01*
X169275294Y-115755476D02*
X169370532Y-115755476D01*
X169370532Y-115755476D02*
X169513389Y-115803095D01*
X169513389Y-115803095D02*
X170084818Y-116374523D01*
X170084818Y-116374523D02*
X170084818Y-115755476D01*
X170084818Y-115279285D02*
X170084818Y-115088809D01*
X170084818Y-115088809D02*
X170037199Y-114993571D01*
X170037199Y-114993571D02*
X169989579Y-114945952D01*
X169989579Y-114945952D02*
X169846722Y-114850714D01*
X169846722Y-114850714D02*
X169656246Y-114803095D01*
X169656246Y-114803095D02*
X169275294Y-114803095D01*
X169275294Y-114803095D02*
X169180056Y-114850714D01*
X169180056Y-114850714D02*
X169132437Y-114898333D01*
X169132437Y-114898333D02*
X169084818Y-114993571D01*
X169084818Y-114993571D02*
X169084818Y-115184047D01*
X169084818Y-115184047D02*
X169132437Y-115279285D01*
X169132437Y-115279285D02*
X169180056Y-115326904D01*
X169180056Y-115326904D02*
X169275294Y-115374523D01*
X169275294Y-115374523D02*
X169513389Y-115374523D01*
X169513389Y-115374523D02*
X169608627Y-115326904D01*
X169608627Y-115326904D02*
X169656246Y-115279285D01*
X169656246Y-115279285D02*
X169703865Y-115184047D01*
X169703865Y-115184047D02*
X169703865Y-114993571D01*
X169703865Y-114993571D02*
X169656246Y-114898333D01*
X169656246Y-114898333D02*
X169608627Y-114850714D01*
X169608627Y-114850714D02*
X169513389Y-114803095D01*
X105438095Y-132754819D02*
X105438095Y-131754819D01*
X105438095Y-132231009D02*
X106009523Y-132231009D01*
X106009523Y-132754819D02*
X106009523Y-131754819D01*
X106914285Y-132088152D02*
X106914285Y-132754819D01*
X106676190Y-131707200D02*
X106438095Y-132421485D01*
X106438095Y-132421485D02*
X107057142Y-132421485D01*
D12*
X153445270Y-124870952D02*
X153384794Y-124991904D01*
X153384794Y-124991904D02*
X153263842Y-125112857D01*
X153263842Y-125112857D02*
X153082413Y-125294285D01*
X153082413Y-125294285D02*
X153021937Y-125415238D01*
X153021937Y-125415238D02*
X153021937Y-125536190D01*
X153324318Y-125475714D02*
X153263842Y-125596666D01*
X153263842Y-125596666D02*
X153142889Y-125717619D01*
X153142889Y-125717619D02*
X152900984Y-125778095D01*
X152900984Y-125778095D02*
X152477651Y-125778095D01*
X152477651Y-125778095D02*
X152235746Y-125717619D01*
X152235746Y-125717619D02*
X152114794Y-125596666D01*
X152114794Y-125596666D02*
X152054318Y-125475714D01*
X152054318Y-125475714D02*
X152054318Y-125233809D01*
X152054318Y-125233809D02*
X152114794Y-125112857D01*
X152114794Y-125112857D02*
X152235746Y-124991904D01*
X152235746Y-124991904D02*
X152477651Y-124931428D01*
X152477651Y-124931428D02*
X152900984Y-124931428D01*
X152900984Y-124931428D02*
X153142889Y-124991904D01*
X153142889Y-124991904D02*
X153263842Y-125112857D01*
X153263842Y-125112857D02*
X153324318Y-125233809D01*
X153324318Y-125233809D02*
X153324318Y-125475714D01*
X152054318Y-123782381D02*
X152054318Y-124387143D01*
X152054318Y-124387143D02*
X152659080Y-124447619D01*
X152659080Y-124447619D02*
X152598603Y-124387143D01*
X152598603Y-124387143D02*
X152538127Y-124266190D01*
X152538127Y-124266190D02*
X152538127Y-123963809D01*
X152538127Y-123963809D02*
X152598603Y-123842857D01*
X152598603Y-123842857D02*
X152659080Y-123782381D01*
X152659080Y-123782381D02*
X152780032Y-123721904D01*
X152780032Y-123721904D02*
X153082413Y-123721904D01*
X153082413Y-123721904D02*
X153203365Y-123782381D01*
X153203365Y-123782381D02*
X153263842Y-123842857D01*
X153263842Y-123842857D02*
X153324318Y-123963809D01*
X153324318Y-123963809D02*
X153324318Y-124266190D01*
X153324318Y-124266190D02*
X153263842Y-124387143D01*
X153263842Y-124387143D02*
X153203365Y-124447619D01*
D11*
X156134819Y-73041666D02*
X155658628Y-73374999D01*
X156134819Y-73613094D02*
X155134819Y-73613094D01*
X155134819Y-73613094D02*
X155134819Y-73232142D01*
X155134819Y-73232142D02*
X155182438Y-73136904D01*
X155182438Y-73136904D02*
X155230057Y-73089285D01*
X155230057Y-73089285D02*
X155325295Y-73041666D01*
X155325295Y-73041666D02*
X155468152Y-73041666D01*
X155468152Y-73041666D02*
X155563390Y-73089285D01*
X155563390Y-73089285D02*
X155611009Y-73136904D01*
X155611009Y-73136904D02*
X155658628Y-73232142D01*
X155658628Y-73232142D02*
X155658628Y-73613094D01*
X155134819Y-72184523D02*
X155134819Y-72374999D01*
X155134819Y-72374999D02*
X155182438Y-72470237D01*
X155182438Y-72470237D02*
X155230057Y-72517856D01*
X155230057Y-72517856D02*
X155372914Y-72613094D01*
X155372914Y-72613094D02*
X155563390Y-72660713D01*
X155563390Y-72660713D02*
X155944342Y-72660713D01*
X155944342Y-72660713D02*
X156039580Y-72613094D01*
X156039580Y-72613094D02*
X156087200Y-72565475D01*
X156087200Y-72565475D02*
X156134819Y-72470237D01*
X156134819Y-72470237D02*
X156134819Y-72279761D01*
X156134819Y-72279761D02*
X156087200Y-72184523D01*
X156087200Y-72184523D02*
X156039580Y-72136904D01*
X156039580Y-72136904D02*
X155944342Y-72089285D01*
X155944342Y-72089285D02*
X155706247Y-72089285D01*
X155706247Y-72089285D02*
X155611009Y-72136904D01*
X155611009Y-72136904D02*
X155563390Y-72184523D01*
X155563390Y-72184523D02*
X155515771Y-72279761D01*
X155515771Y-72279761D02*
X155515771Y-72470237D01*
X155515771Y-72470237D02*
X155563390Y-72565475D01*
X155563390Y-72565475D02*
X155611009Y-72613094D01*
X155611009Y-72613094D02*
X155706247Y-72660713D01*
X111182143Y-75490580D02*
X111134524Y-75538200D01*
X111134524Y-75538200D02*
X110991667Y-75585819D01*
X110991667Y-75585819D02*
X110896429Y-75585819D01*
X110896429Y-75585819D02*
X110753572Y-75538200D01*
X110753572Y-75538200D02*
X110658334Y-75442961D01*
X110658334Y-75442961D02*
X110610715Y-75347723D01*
X110610715Y-75347723D02*
X110563096Y-75157247D01*
X110563096Y-75157247D02*
X110563096Y-75014390D01*
X110563096Y-75014390D02*
X110610715Y-74823914D01*
X110610715Y-74823914D02*
X110658334Y-74728676D01*
X110658334Y-74728676D02*
X110753572Y-74633438D01*
X110753572Y-74633438D02*
X110896429Y-74585819D01*
X110896429Y-74585819D02*
X110991667Y-74585819D01*
X110991667Y-74585819D02*
X111134524Y-74633438D01*
X111134524Y-74633438D02*
X111182143Y-74681057D01*
X112086905Y-74585819D02*
X111610715Y-74585819D01*
X111610715Y-74585819D02*
X111563096Y-75062009D01*
X111563096Y-75062009D02*
X111610715Y-75014390D01*
X111610715Y-75014390D02*
X111705953Y-74966771D01*
X111705953Y-74966771D02*
X111944048Y-74966771D01*
X111944048Y-74966771D02*
X112039286Y-75014390D01*
X112039286Y-75014390D02*
X112086905Y-75062009D01*
X112086905Y-75062009D02*
X112134524Y-75157247D01*
X112134524Y-75157247D02*
X112134524Y-75395342D01*
X112134524Y-75395342D02*
X112086905Y-75490580D01*
X112086905Y-75490580D02*
X112039286Y-75538200D01*
X112039286Y-75538200D02*
X111944048Y-75585819D01*
X111944048Y-75585819D02*
X111705953Y-75585819D01*
X111705953Y-75585819D02*
X111610715Y-75538200D01*
X111610715Y-75538200D02*
X111563096Y-75490580D01*
X112467858Y-74585819D02*
X113086905Y-74585819D01*
X113086905Y-74585819D02*
X112753572Y-74966771D01*
X112753572Y-74966771D02*
X112896429Y-74966771D01*
X112896429Y-74966771D02*
X112991667Y-75014390D01*
X112991667Y-75014390D02*
X113039286Y-75062009D01*
X113039286Y-75062009D02*
X113086905Y-75157247D01*
X113086905Y-75157247D02*
X113086905Y-75395342D01*
X113086905Y-75395342D02*
X113039286Y-75490580D01*
X113039286Y-75490580D02*
X112991667Y-75538200D01*
X112991667Y-75538200D02*
X112896429Y-75585819D01*
X112896429Y-75585819D02*
X112610715Y-75585819D01*
X112610715Y-75585819D02*
X112515477Y-75538200D01*
X112515477Y-75538200D02*
X112467858Y-75490580D01*
X133234642Y-118489819D02*
X132901309Y-118013628D01*
X132663214Y-118489819D02*
X132663214Y-117489819D01*
X132663214Y-117489819D02*
X133044166Y-117489819D01*
X133044166Y-117489819D02*
X133139404Y-117537438D01*
X133139404Y-117537438D02*
X133187023Y-117585057D01*
X133187023Y-117585057D02*
X133234642Y-117680295D01*
X133234642Y-117680295D02*
X133234642Y-117823152D01*
X133234642Y-117823152D02*
X133187023Y-117918390D01*
X133187023Y-117918390D02*
X133139404Y-117966009D01*
X133139404Y-117966009D02*
X133044166Y-118013628D01*
X133044166Y-118013628D02*
X132663214Y-118013628D01*
X134091785Y-117823152D02*
X134091785Y-118489819D01*
X133853690Y-117442200D02*
X133615595Y-118156485D01*
X133615595Y-118156485D02*
X134234642Y-118156485D01*
X134663214Y-118489819D02*
X134853690Y-118489819D01*
X134853690Y-118489819D02*
X134948928Y-118442200D01*
X134948928Y-118442200D02*
X134996547Y-118394580D01*
X134996547Y-118394580D02*
X135091785Y-118251723D01*
X135091785Y-118251723D02*
X135139404Y-118061247D01*
X135139404Y-118061247D02*
X135139404Y-117680295D01*
X135139404Y-117680295D02*
X135091785Y-117585057D01*
X135091785Y-117585057D02*
X135044166Y-117537438D01*
X135044166Y-117537438D02*
X134948928Y-117489819D01*
X134948928Y-117489819D02*
X134758452Y-117489819D01*
X134758452Y-117489819D02*
X134663214Y-117537438D01*
X134663214Y-117537438D02*
X134615595Y-117585057D01*
X134615595Y-117585057D02*
X134567976Y-117680295D01*
X134567976Y-117680295D02*
X134567976Y-117918390D01*
X134567976Y-117918390D02*
X134615595Y-118013628D01*
X134615595Y-118013628D02*
X134663214Y-118061247D01*
X134663214Y-118061247D02*
X134758452Y-118108866D01*
X134758452Y-118108866D02*
X134948928Y-118108866D01*
X134948928Y-118108866D02*
X135044166Y-118061247D01*
X135044166Y-118061247D02*
X135091785Y-118013628D01*
X135091785Y-118013628D02*
X135139404Y-117918390D01*
X136608333Y-89084819D02*
X136275000Y-88608628D01*
X136036905Y-89084819D02*
X136036905Y-88084819D01*
X136036905Y-88084819D02*
X136417857Y-88084819D01*
X136417857Y-88084819D02*
X136513095Y-88132438D01*
X136513095Y-88132438D02*
X136560714Y-88180057D01*
X136560714Y-88180057D02*
X136608333Y-88275295D01*
X136608333Y-88275295D02*
X136608333Y-88418152D01*
X136608333Y-88418152D02*
X136560714Y-88513390D01*
X136560714Y-88513390D02*
X136513095Y-88561009D01*
X136513095Y-88561009D02*
X136417857Y-88608628D01*
X136417857Y-88608628D02*
X136036905Y-88608628D01*
X137465476Y-88418152D02*
X137465476Y-89084819D01*
X137227381Y-88037200D02*
X136989286Y-88751485D01*
X136989286Y-88751485D02*
X137608333Y-88751485D01*
D12*
X135445270Y-122870952D02*
X135384794Y-122991904D01*
X135384794Y-122991904D02*
X135263842Y-123112857D01*
X135263842Y-123112857D02*
X135082413Y-123294285D01*
X135082413Y-123294285D02*
X135021937Y-123415238D01*
X135021937Y-123415238D02*
X135021937Y-123536190D01*
X135324318Y-123475714D02*
X135263842Y-123596666D01*
X135263842Y-123596666D02*
X135142889Y-123717619D01*
X135142889Y-123717619D02*
X134900984Y-123778095D01*
X134900984Y-123778095D02*
X134477651Y-123778095D01*
X134477651Y-123778095D02*
X134235746Y-123717619D01*
X134235746Y-123717619D02*
X134114794Y-123596666D01*
X134114794Y-123596666D02*
X134054318Y-123475714D01*
X134054318Y-123475714D02*
X134054318Y-123233809D01*
X134054318Y-123233809D02*
X134114794Y-123112857D01*
X134114794Y-123112857D02*
X134235746Y-122991904D01*
X134235746Y-122991904D02*
X134477651Y-122931428D01*
X134477651Y-122931428D02*
X134900984Y-122931428D01*
X134900984Y-122931428D02*
X135142889Y-122991904D01*
X135142889Y-122991904D02*
X135263842Y-123112857D01*
X135263842Y-123112857D02*
X135324318Y-123233809D01*
X135324318Y-123233809D02*
X135324318Y-123475714D01*
X134054318Y-121842857D02*
X134054318Y-122084762D01*
X134054318Y-122084762D02*
X134114794Y-122205714D01*
X134114794Y-122205714D02*
X134175270Y-122266190D01*
X134175270Y-122266190D02*
X134356699Y-122387143D01*
X134356699Y-122387143D02*
X134598603Y-122447619D01*
X134598603Y-122447619D02*
X135082413Y-122447619D01*
X135082413Y-122447619D02*
X135203365Y-122387143D01*
X135203365Y-122387143D02*
X135263842Y-122326666D01*
X135263842Y-122326666D02*
X135324318Y-122205714D01*
X135324318Y-122205714D02*
X135324318Y-121963809D01*
X135324318Y-121963809D02*
X135263842Y-121842857D01*
X135263842Y-121842857D02*
X135203365Y-121782381D01*
X135203365Y-121782381D02*
X135082413Y-121721904D01*
X135082413Y-121721904D02*
X134780032Y-121721904D01*
X134780032Y-121721904D02*
X134659080Y-121782381D01*
X134659080Y-121782381D02*
X134598603Y-121842857D01*
X134598603Y-121842857D02*
X134538127Y-121963809D01*
X134538127Y-121963809D02*
X134538127Y-122205714D01*
X134538127Y-122205714D02*
X134598603Y-122326666D01*
X134598603Y-122326666D02*
X134659080Y-122387143D01*
X134659080Y-122387143D02*
X134780032Y-122447619D01*
X130797856Y-132824318D02*
X130797856Y-131554318D01*
X130797856Y-131554318D02*
X131100237Y-131554318D01*
X131100237Y-131554318D02*
X131281666Y-131614794D01*
X131281666Y-131614794D02*
X131402618Y-131735746D01*
X131402618Y-131735746D02*
X131463095Y-131856699D01*
X131463095Y-131856699D02*
X131523571Y-132098603D01*
X131523571Y-132098603D02*
X131523571Y-132280032D01*
X131523571Y-132280032D02*
X131463095Y-132521937D01*
X131463095Y-132521937D02*
X131402618Y-132642889D01*
X131402618Y-132642889D02*
X131281666Y-132763842D01*
X131281666Y-132763842D02*
X131100237Y-132824318D01*
X131100237Y-132824318D02*
X130797856Y-132824318D01*
X132733095Y-132824318D02*
X132007380Y-132824318D01*
X132370237Y-132824318D02*
X132370237Y-131554318D01*
X132370237Y-131554318D02*
X132249285Y-131735746D01*
X132249285Y-131735746D02*
X132128333Y-131856699D01*
X132128333Y-131856699D02*
X132007380Y-131917175D01*
X133216904Y-131675270D02*
X133277380Y-131614794D01*
X133277380Y-131614794D02*
X133398333Y-131554318D01*
X133398333Y-131554318D02*
X133700714Y-131554318D01*
X133700714Y-131554318D02*
X133821666Y-131614794D01*
X133821666Y-131614794D02*
X133882142Y-131675270D01*
X133882142Y-131675270D02*
X133942619Y-131796222D01*
X133942619Y-131796222D02*
X133942619Y-131917175D01*
X133942619Y-131917175D02*
X133882142Y-132098603D01*
X133882142Y-132098603D02*
X133156428Y-132824318D01*
X133156428Y-132824318D02*
X133942619Y-132824318D01*
X173654318Y-87673332D02*
X174561461Y-87673332D01*
X174561461Y-87673332D02*
X174742889Y-87733809D01*
X174742889Y-87733809D02*
X174863842Y-87854761D01*
X174863842Y-87854761D02*
X174924318Y-88036190D01*
X174924318Y-88036190D02*
X174924318Y-88157142D01*
X173654318Y-87189523D02*
X173654318Y-86342856D01*
X173654318Y-86342856D02*
X174924318Y-86887142D01*
D11*
X158519580Y-76486666D02*
X158567200Y-76534285D01*
X158567200Y-76534285D02*
X158614819Y-76677142D01*
X158614819Y-76677142D02*
X158614819Y-76772380D01*
X158614819Y-76772380D02*
X158567200Y-76915237D01*
X158567200Y-76915237D02*
X158471961Y-77010475D01*
X158471961Y-77010475D02*
X158376723Y-77058094D01*
X158376723Y-77058094D02*
X158186247Y-77105713D01*
X158186247Y-77105713D02*
X158043390Y-77105713D01*
X158043390Y-77105713D02*
X157852914Y-77058094D01*
X157852914Y-77058094D02*
X157757676Y-77010475D01*
X157757676Y-77010475D02*
X157662438Y-76915237D01*
X157662438Y-76915237D02*
X157614819Y-76772380D01*
X157614819Y-76772380D02*
X157614819Y-76677142D01*
X157614819Y-76677142D02*
X157662438Y-76534285D01*
X157662438Y-76534285D02*
X157710057Y-76486666D01*
X157614819Y-75629523D02*
X157614819Y-75819999D01*
X157614819Y-75819999D02*
X157662438Y-75915237D01*
X157662438Y-75915237D02*
X157710057Y-75962856D01*
X157710057Y-75962856D02*
X157852914Y-76058094D01*
X157852914Y-76058094D02*
X158043390Y-76105713D01*
X158043390Y-76105713D02*
X158424342Y-76105713D01*
X158424342Y-76105713D02*
X158519580Y-76058094D01*
X158519580Y-76058094D02*
X158567200Y-76010475D01*
X158567200Y-76010475D02*
X158614819Y-75915237D01*
X158614819Y-75915237D02*
X158614819Y-75724761D01*
X158614819Y-75724761D02*
X158567200Y-75629523D01*
X158567200Y-75629523D02*
X158519580Y-75581904D01*
X158519580Y-75581904D02*
X158424342Y-75534285D01*
X158424342Y-75534285D02*
X158186247Y-75534285D01*
X158186247Y-75534285D02*
X158091009Y-75581904D01*
X158091009Y-75581904D02*
X158043390Y-75629523D01*
X158043390Y-75629523D02*
X157995771Y-75724761D01*
X157995771Y-75724761D02*
X157995771Y-75915237D01*
X157995771Y-75915237D02*
X158043390Y-76010475D01*
X158043390Y-76010475D02*
X158091009Y-76058094D01*
X158091009Y-76058094D02*
X158186247Y-76105713D01*
X139594819Y-120132857D02*
X139118628Y-120466190D01*
X139594819Y-120704285D02*
X138594819Y-120704285D01*
X138594819Y-120704285D02*
X138594819Y-120323333D01*
X138594819Y-120323333D02*
X138642438Y-120228095D01*
X138642438Y-120228095D02*
X138690057Y-120180476D01*
X138690057Y-120180476D02*
X138785295Y-120132857D01*
X138785295Y-120132857D02*
X138928152Y-120132857D01*
X138928152Y-120132857D02*
X139023390Y-120180476D01*
X139023390Y-120180476D02*
X139071009Y-120228095D01*
X139071009Y-120228095D02*
X139118628Y-120323333D01*
X139118628Y-120323333D02*
X139118628Y-120704285D01*
X138928152Y-119275714D02*
X139594819Y-119275714D01*
X138547200Y-119513809D02*
X139261485Y-119751904D01*
X139261485Y-119751904D02*
X139261485Y-119132857D01*
X138594819Y-118275714D02*
X138594819Y-118751904D01*
X138594819Y-118751904D02*
X139071009Y-118799523D01*
X139071009Y-118799523D02*
X139023390Y-118751904D01*
X139023390Y-118751904D02*
X138975771Y-118656666D01*
X138975771Y-118656666D02*
X138975771Y-118418571D01*
X138975771Y-118418571D02*
X139023390Y-118323333D01*
X139023390Y-118323333D02*
X139071009Y-118275714D01*
X139071009Y-118275714D02*
X139166247Y-118228095D01*
X139166247Y-118228095D02*
X139404342Y-118228095D01*
X139404342Y-118228095D02*
X139499580Y-118275714D01*
X139499580Y-118275714D02*
X139547200Y-118323333D01*
X139547200Y-118323333D02*
X139594819Y-118418571D01*
X139594819Y-118418571D02*
X139594819Y-118656666D01*
X139594819Y-118656666D02*
X139547200Y-118751904D01*
X139547200Y-118751904D02*
X139499580Y-118799523D01*
X142066666Y-133505818D02*
X142066666Y-134220103D01*
X142066666Y-134220103D02*
X142019047Y-134362960D01*
X142019047Y-134362960D02*
X141923809Y-134458199D01*
X141923809Y-134458199D02*
X141780952Y-134505818D01*
X141780952Y-134505818D02*
X141685714Y-134505818D01*
X143066666Y-134505818D02*
X142495238Y-134505818D01*
X142780952Y-134505818D02*
X142780952Y-133505818D01*
X142780952Y-133505818D02*
X142685714Y-133648675D01*
X142685714Y-133648675D02*
X142590476Y-133743913D01*
X142590476Y-133743913D02*
X142495238Y-133791532D01*
X116932141Y-106219580D02*
X116884522Y-106267200D01*
X116884522Y-106267200D02*
X116741665Y-106314819D01*
X116741665Y-106314819D02*
X116646427Y-106314819D01*
X116646427Y-106314819D02*
X116503570Y-106267200D01*
X116503570Y-106267200D02*
X116408332Y-106171961D01*
X116408332Y-106171961D02*
X116360713Y-106076723D01*
X116360713Y-106076723D02*
X116313094Y-105886247D01*
X116313094Y-105886247D02*
X116313094Y-105743390D01*
X116313094Y-105743390D02*
X116360713Y-105552914D01*
X116360713Y-105552914D02*
X116408332Y-105457676D01*
X116408332Y-105457676D02*
X116503570Y-105362438D01*
X116503570Y-105362438D02*
X116646427Y-105314819D01*
X116646427Y-105314819D02*
X116741665Y-105314819D01*
X116741665Y-105314819D02*
X116884522Y-105362438D01*
X116884522Y-105362438D02*
X116932141Y-105410057D01*
X117265475Y-105314819D02*
X117884522Y-105314819D01*
X117884522Y-105314819D02*
X117551189Y-105695771D01*
X117551189Y-105695771D02*
X117694046Y-105695771D01*
X117694046Y-105695771D02*
X117789284Y-105743390D01*
X117789284Y-105743390D02*
X117836903Y-105791009D01*
X117836903Y-105791009D02*
X117884522Y-105886247D01*
X117884522Y-105886247D02*
X117884522Y-106124342D01*
X117884522Y-106124342D02*
X117836903Y-106219580D01*
X117836903Y-106219580D02*
X117789284Y-106267200D01*
X117789284Y-106267200D02*
X117694046Y-106314819D01*
X117694046Y-106314819D02*
X117408332Y-106314819D01*
X117408332Y-106314819D02*
X117313094Y-106267200D01*
X117313094Y-106267200D02*
X117265475Y-106219580D01*
X118741665Y-105648152D02*
X118741665Y-106314819D01*
X118503570Y-105267200D02*
X118265475Y-105981485D01*
X118265475Y-105981485D02*
X118884522Y-105981485D01*
X174384819Y-75741666D02*
X173908628Y-76074999D01*
X174384819Y-76313094D02*
X173384819Y-76313094D01*
X173384819Y-76313094D02*
X173384819Y-75932142D01*
X173384819Y-75932142D02*
X173432438Y-75836904D01*
X173432438Y-75836904D02*
X173480057Y-75789285D01*
X173480057Y-75789285D02*
X173575295Y-75741666D01*
X173575295Y-75741666D02*
X173718152Y-75741666D01*
X173718152Y-75741666D02*
X173813390Y-75789285D01*
X173813390Y-75789285D02*
X173861009Y-75836904D01*
X173861009Y-75836904D02*
X173908628Y-75932142D01*
X173908628Y-75932142D02*
X173908628Y-76313094D01*
X173384819Y-75408332D02*
X173384819Y-74741666D01*
X173384819Y-74741666D02*
X174384819Y-75170237D01*
X173158333Y-73884819D02*
X172825000Y-73408628D01*
X172586905Y-73884819D02*
X172586905Y-72884819D01*
X172586905Y-72884819D02*
X172967857Y-72884819D01*
X172967857Y-72884819D02*
X173063095Y-72932438D01*
X173063095Y-72932438D02*
X173110714Y-72980057D01*
X173110714Y-72980057D02*
X173158333Y-73075295D01*
X173158333Y-73075295D02*
X173158333Y-73218152D01*
X173158333Y-73218152D02*
X173110714Y-73313390D01*
X173110714Y-73313390D02*
X173063095Y-73361009D01*
X173063095Y-73361009D02*
X172967857Y-73408628D01*
X172967857Y-73408628D02*
X172586905Y-73408628D01*
X173491667Y-72884819D02*
X174110714Y-72884819D01*
X174110714Y-72884819D02*
X173777381Y-73265771D01*
X173777381Y-73265771D02*
X173920238Y-73265771D01*
X173920238Y-73265771D02*
X174015476Y-73313390D01*
X174015476Y-73313390D02*
X174063095Y-73361009D01*
X174063095Y-73361009D02*
X174110714Y-73456247D01*
X174110714Y-73456247D02*
X174110714Y-73694342D01*
X174110714Y-73694342D02*
X174063095Y-73789580D01*
X174063095Y-73789580D02*
X174015476Y-73837200D01*
X174015476Y-73837200D02*
X173920238Y-73884819D01*
X173920238Y-73884819D02*
X173634524Y-73884819D01*
X173634524Y-73884819D02*
X173539286Y-73837200D01*
X173539286Y-73837200D02*
X173491667Y-73789580D01*
X167084818Y-120107857D02*
X166608627Y-120441190D01*
X167084818Y-120679285D02*
X166084818Y-120679285D01*
X166084818Y-120679285D02*
X166084818Y-120298333D01*
X166084818Y-120298333D02*
X166132437Y-120203095D01*
X166132437Y-120203095D02*
X166180056Y-120155476D01*
X166180056Y-120155476D02*
X166275294Y-120107857D01*
X166275294Y-120107857D02*
X166418151Y-120107857D01*
X166418151Y-120107857D02*
X166513389Y-120155476D01*
X166513389Y-120155476D02*
X166561008Y-120203095D01*
X166561008Y-120203095D02*
X166608627Y-120298333D01*
X166608627Y-120298333D02*
X166608627Y-120679285D01*
X166180056Y-119726904D02*
X166132437Y-119679285D01*
X166132437Y-119679285D02*
X166084818Y-119584047D01*
X166084818Y-119584047D02*
X166084818Y-119345952D01*
X166084818Y-119345952D02*
X166132437Y-119250714D01*
X166132437Y-119250714D02*
X166180056Y-119203095D01*
X166180056Y-119203095D02*
X166275294Y-119155476D01*
X166275294Y-119155476D02*
X166370532Y-119155476D01*
X166370532Y-119155476D02*
X166513389Y-119203095D01*
X166513389Y-119203095D02*
X167084818Y-119774523D01*
X167084818Y-119774523D02*
X167084818Y-119155476D01*
X166084818Y-118298333D02*
X166084818Y-118488809D01*
X166084818Y-118488809D02*
X166132437Y-118584047D01*
X166132437Y-118584047D02*
X166180056Y-118631666D01*
X166180056Y-118631666D02*
X166322913Y-118726904D01*
X166322913Y-118726904D02*
X166513389Y-118774523D01*
X166513389Y-118774523D02*
X166894341Y-118774523D01*
X166894341Y-118774523D02*
X166989579Y-118726904D01*
X166989579Y-118726904D02*
X167037199Y-118679285D01*
X167037199Y-118679285D02*
X167084818Y-118584047D01*
X167084818Y-118584047D02*
X167084818Y-118393571D01*
X167084818Y-118393571D02*
X167037199Y-118298333D01*
X167037199Y-118298333D02*
X166989579Y-118250714D01*
X166989579Y-118250714D02*
X166894341Y-118203095D01*
X166894341Y-118203095D02*
X166656246Y-118203095D01*
X166656246Y-118203095D02*
X166561008Y-118250714D01*
X166561008Y-118250714D02*
X166513389Y-118298333D01*
X166513389Y-118298333D02*
X166465770Y-118393571D01*
X166465770Y-118393571D02*
X166465770Y-118584047D01*
X166465770Y-118584047D02*
X166513389Y-118679285D01*
X166513389Y-118679285D02*
X166561008Y-118726904D01*
X166561008Y-118726904D02*
X166656246Y-118774523D01*
X121199579Y-107987857D02*
X121247199Y-108035476D01*
X121247199Y-108035476D02*
X121294818Y-108178333D01*
X121294818Y-108178333D02*
X121294818Y-108273571D01*
X121294818Y-108273571D02*
X121247199Y-108416428D01*
X121247199Y-108416428D02*
X121151960Y-108511666D01*
X121151960Y-108511666D02*
X121056722Y-108559285D01*
X121056722Y-108559285D02*
X120866246Y-108606904D01*
X120866246Y-108606904D02*
X120723389Y-108606904D01*
X120723389Y-108606904D02*
X120532913Y-108559285D01*
X120532913Y-108559285D02*
X120437675Y-108511666D01*
X120437675Y-108511666D02*
X120342437Y-108416428D01*
X120342437Y-108416428D02*
X120294818Y-108273571D01*
X120294818Y-108273571D02*
X120294818Y-108178333D01*
X120294818Y-108178333D02*
X120342437Y-108035476D01*
X120342437Y-108035476D02*
X120390056Y-107987857D01*
X120294818Y-107654523D02*
X120294818Y-107035476D01*
X120294818Y-107035476D02*
X120675770Y-107368809D01*
X120675770Y-107368809D02*
X120675770Y-107225952D01*
X120675770Y-107225952D02*
X120723389Y-107130714D01*
X120723389Y-107130714D02*
X120771008Y-107083095D01*
X120771008Y-107083095D02*
X120866246Y-107035476D01*
X120866246Y-107035476D02*
X121104341Y-107035476D01*
X121104341Y-107035476D02*
X121199579Y-107083095D01*
X121199579Y-107083095D02*
X121247199Y-107130714D01*
X121247199Y-107130714D02*
X121294818Y-107225952D01*
X121294818Y-107225952D02*
X121294818Y-107511666D01*
X121294818Y-107511666D02*
X121247199Y-107606904D01*
X121247199Y-107606904D02*
X121199579Y-107654523D01*
X120294818Y-106702142D02*
X120294818Y-106035476D01*
X120294818Y-106035476D02*
X121294818Y-106464047D01*
X173238095Y-132654819D02*
X173238095Y-131654819D01*
X173238095Y-132131009D02*
X173809523Y-132131009D01*
X173809523Y-132654819D02*
X173809523Y-131654819D01*
X174809523Y-132654819D02*
X174238095Y-132654819D01*
X174523809Y-132654819D02*
X174523809Y-131654819D01*
X174523809Y-131654819D02*
X174428571Y-131797676D01*
X174428571Y-131797676D02*
X174333333Y-131892914D01*
X174333333Y-131892914D02*
X174238095Y-131940533D01*
X166524819Y-84067857D02*
X166048628Y-84401190D01*
X166524819Y-84639285D02*
X165524819Y-84639285D01*
X165524819Y-84639285D02*
X165524819Y-84258333D01*
X165524819Y-84258333D02*
X165572438Y-84163095D01*
X165572438Y-84163095D02*
X165620057Y-84115476D01*
X165620057Y-84115476D02*
X165715295Y-84067857D01*
X165715295Y-84067857D02*
X165858152Y-84067857D01*
X165858152Y-84067857D02*
X165953390Y-84115476D01*
X165953390Y-84115476D02*
X166001009Y-84163095D01*
X166001009Y-84163095D02*
X166048628Y-84258333D01*
X166048628Y-84258333D02*
X166048628Y-84639285D01*
X166524819Y-83115476D02*
X166524819Y-83686904D01*
X166524819Y-83401190D02*
X165524819Y-83401190D01*
X165524819Y-83401190D02*
X165667676Y-83496428D01*
X165667676Y-83496428D02*
X165762914Y-83591666D01*
X165762914Y-83591666D02*
X165810533Y-83686904D01*
X165524819Y-82210714D02*
X165524819Y-82686904D01*
X165524819Y-82686904D02*
X166001009Y-82734523D01*
X166001009Y-82734523D02*
X165953390Y-82686904D01*
X165953390Y-82686904D02*
X165905771Y-82591666D01*
X165905771Y-82591666D02*
X165905771Y-82353571D01*
X165905771Y-82353571D02*
X165953390Y-82258333D01*
X165953390Y-82258333D02*
X166001009Y-82210714D01*
X166001009Y-82210714D02*
X166096247Y-82163095D01*
X166096247Y-82163095D02*
X166334342Y-82163095D01*
X166334342Y-82163095D02*
X166429580Y-82210714D01*
X166429580Y-82210714D02*
X166477200Y-82258333D01*
X166477200Y-82258333D02*
X166524819Y-82353571D01*
X166524819Y-82353571D02*
X166524819Y-82591666D01*
X166524819Y-82591666D02*
X166477200Y-82686904D01*
X166477200Y-82686904D02*
X166429580Y-82734523D01*
X114854818Y-120132857D02*
X114378627Y-120466190D01*
X114854818Y-120704285D02*
X113854818Y-120704285D01*
X113854818Y-120704285D02*
X113854818Y-120323333D01*
X113854818Y-120323333D02*
X113902437Y-120228095D01*
X113902437Y-120228095D02*
X113950056Y-120180476D01*
X113950056Y-120180476D02*
X114045294Y-120132857D01*
X114045294Y-120132857D02*
X114188151Y-120132857D01*
X114188151Y-120132857D02*
X114283389Y-120180476D01*
X114283389Y-120180476D02*
X114331008Y-120228095D01*
X114331008Y-120228095D02*
X114378627Y-120323333D01*
X114378627Y-120323333D02*
X114378627Y-120704285D01*
X113854818Y-119799523D02*
X113854818Y-119180476D01*
X113854818Y-119180476D02*
X114235770Y-119513809D01*
X114235770Y-119513809D02*
X114235770Y-119370952D01*
X114235770Y-119370952D02*
X114283389Y-119275714D01*
X114283389Y-119275714D02*
X114331008Y-119228095D01*
X114331008Y-119228095D02*
X114426246Y-119180476D01*
X114426246Y-119180476D02*
X114664341Y-119180476D01*
X114664341Y-119180476D02*
X114759579Y-119228095D01*
X114759579Y-119228095D02*
X114807199Y-119275714D01*
X114807199Y-119275714D02*
X114854818Y-119370952D01*
X114854818Y-119370952D02*
X114854818Y-119656666D01*
X114854818Y-119656666D02*
X114807199Y-119751904D01*
X114807199Y-119751904D02*
X114759579Y-119799523D01*
X113854818Y-118847142D02*
X113854818Y-118228095D01*
X113854818Y-118228095D02*
X114235770Y-118561428D01*
X114235770Y-118561428D02*
X114235770Y-118418571D01*
X114235770Y-118418571D02*
X114283389Y-118323333D01*
X114283389Y-118323333D02*
X114331008Y-118275714D01*
X114331008Y-118275714D02*
X114426246Y-118228095D01*
X114426246Y-118228095D02*
X114664341Y-118228095D01*
X114664341Y-118228095D02*
X114759579Y-118275714D01*
X114759579Y-118275714D02*
X114807199Y-118323333D01*
X114807199Y-118323333D02*
X114854818Y-118418571D01*
X114854818Y-118418571D02*
X114854818Y-118704285D01*
X114854818Y-118704285D02*
X114807199Y-118799523D01*
X114807199Y-118799523D02*
X114759579Y-118847142D01*
D12*
X115469317Y-113841762D02*
X114199317Y-113841762D01*
X115348364Y-112511285D02*
X115408841Y-112571761D01*
X115408841Y-112571761D02*
X115469317Y-112753190D01*
X115469317Y-112753190D02*
X115469317Y-112874142D01*
X115469317Y-112874142D02*
X115408841Y-113055571D01*
X115408841Y-113055571D02*
X115287888Y-113176523D01*
X115287888Y-113176523D02*
X115166936Y-113237000D01*
X115166936Y-113237000D02*
X114925031Y-113297476D01*
X114925031Y-113297476D02*
X114743602Y-113297476D01*
X114743602Y-113297476D02*
X114501698Y-113237000D01*
X114501698Y-113237000D02*
X114380745Y-113176523D01*
X114380745Y-113176523D02*
X114259793Y-113055571D01*
X114259793Y-113055571D02*
X114199317Y-112874142D01*
X114199317Y-112874142D02*
X114199317Y-112753190D01*
X114199317Y-112753190D02*
X114259793Y-112571761D01*
X114259793Y-112571761D02*
X114320269Y-112511285D01*
X114199317Y-111362238D02*
X114199317Y-111967000D01*
X114199317Y-111967000D02*
X114804079Y-112027476D01*
X114804079Y-112027476D02*
X114743602Y-111967000D01*
X114743602Y-111967000D02*
X114683126Y-111846047D01*
X114683126Y-111846047D02*
X114683126Y-111543666D01*
X114683126Y-111543666D02*
X114743602Y-111422714D01*
X114743602Y-111422714D02*
X114804079Y-111362238D01*
X114804079Y-111362238D02*
X114925031Y-111301761D01*
X114925031Y-111301761D02*
X115227412Y-111301761D01*
X115227412Y-111301761D02*
X115348364Y-111362238D01*
X115348364Y-111362238D02*
X115408841Y-111422714D01*
X115408841Y-111422714D02*
X115469317Y-111543666D01*
X115469317Y-111543666D02*
X115469317Y-111846047D01*
X115469317Y-111846047D02*
X115408841Y-111967000D01*
X115408841Y-111967000D02*
X115348364Y-112027476D01*
D11*
X146149579Y-111932857D02*
X146197199Y-111980476D01*
X146197199Y-111980476D02*
X146244818Y-112123333D01*
X146244818Y-112123333D02*
X146244818Y-112218571D01*
X146244818Y-112218571D02*
X146197199Y-112361428D01*
X146197199Y-112361428D02*
X146101960Y-112456666D01*
X146101960Y-112456666D02*
X146006722Y-112504285D01*
X146006722Y-112504285D02*
X145816246Y-112551904D01*
X145816246Y-112551904D02*
X145673389Y-112551904D01*
X145673389Y-112551904D02*
X145482913Y-112504285D01*
X145482913Y-112504285D02*
X145387675Y-112456666D01*
X145387675Y-112456666D02*
X145292437Y-112361428D01*
X145292437Y-112361428D02*
X145244818Y-112218571D01*
X145244818Y-112218571D02*
X145244818Y-112123333D01*
X145244818Y-112123333D02*
X145292437Y-111980476D01*
X145292437Y-111980476D02*
X145340056Y-111932857D01*
X145578151Y-111075714D02*
X146244818Y-111075714D01*
X145197199Y-111313809D02*
X145911484Y-111551904D01*
X145911484Y-111551904D02*
X145911484Y-110932857D01*
X145244818Y-110647142D02*
X145244818Y-109980476D01*
X145244818Y-109980476D02*
X146244818Y-110409047D01*
D12*
X155112618Y-56324318D02*
X155112618Y-55054318D01*
X155112618Y-55054318D02*
X155414999Y-55054318D01*
X155414999Y-55054318D02*
X155596428Y-55114794D01*
X155596428Y-55114794D02*
X155717380Y-55235746D01*
X155717380Y-55235746D02*
X155777857Y-55356699D01*
X155777857Y-55356699D02*
X155838333Y-55598603D01*
X155838333Y-55598603D02*
X155838333Y-55780032D01*
X155838333Y-55780032D02*
X155777857Y-56021937D01*
X155777857Y-56021937D02*
X155717380Y-56142889D01*
X155717380Y-56142889D02*
X155596428Y-56263842D01*
X155596428Y-56263842D02*
X155414999Y-56324318D01*
X155414999Y-56324318D02*
X155112618Y-56324318D01*
X156322142Y-55175270D02*
X156382618Y-55114794D01*
X156382618Y-55114794D02*
X156503571Y-55054318D01*
X156503571Y-55054318D02*
X156805952Y-55054318D01*
X156805952Y-55054318D02*
X156926904Y-55114794D01*
X156926904Y-55114794D02*
X156987380Y-55175270D01*
X156987380Y-55175270D02*
X157047857Y-55296222D01*
X157047857Y-55296222D02*
X157047857Y-55417175D01*
X157047857Y-55417175D02*
X156987380Y-55598603D01*
X156987380Y-55598603D02*
X156261666Y-56324318D01*
X156261666Y-56324318D02*
X157047857Y-56324318D01*
D11*
X141672141Y-106219580D02*
X141624522Y-106267200D01*
X141624522Y-106267200D02*
X141481665Y-106314819D01*
X141481665Y-106314819D02*
X141386427Y-106314819D01*
X141386427Y-106314819D02*
X141243570Y-106267200D01*
X141243570Y-106267200D02*
X141148332Y-106171961D01*
X141148332Y-106171961D02*
X141100713Y-106076723D01*
X141100713Y-106076723D02*
X141053094Y-105886247D01*
X141053094Y-105886247D02*
X141053094Y-105743390D01*
X141053094Y-105743390D02*
X141100713Y-105552914D01*
X141100713Y-105552914D02*
X141148332Y-105457676D01*
X141148332Y-105457676D02*
X141243570Y-105362438D01*
X141243570Y-105362438D02*
X141386427Y-105314819D01*
X141386427Y-105314819D02*
X141481665Y-105314819D01*
X141481665Y-105314819D02*
X141624522Y-105362438D01*
X141624522Y-105362438D02*
X141672141Y-105410057D01*
X142529284Y-105648152D02*
X142529284Y-106314819D01*
X142291189Y-105267200D02*
X142053094Y-105981485D01*
X142053094Y-105981485D02*
X142672141Y-105981485D01*
X143529284Y-105314819D02*
X143053094Y-105314819D01*
X143053094Y-105314819D02*
X143005475Y-105791009D01*
X143005475Y-105791009D02*
X143053094Y-105743390D01*
X143053094Y-105743390D02*
X143148332Y-105695771D01*
X143148332Y-105695771D02*
X143386427Y-105695771D01*
X143386427Y-105695771D02*
X143481665Y-105743390D01*
X143481665Y-105743390D02*
X143529284Y-105791009D01*
X143529284Y-105791009D02*
X143576903Y-105886247D01*
X143576903Y-105886247D02*
X143576903Y-106124342D01*
X143576903Y-106124342D02*
X143529284Y-106219580D01*
X143529284Y-106219580D02*
X143481665Y-106267200D01*
X143481665Y-106267200D02*
X143386427Y-106314819D01*
X143386427Y-106314819D02*
X143148332Y-106314819D01*
X143148332Y-106314819D02*
X143053094Y-106267200D01*
X143053094Y-106267200D02*
X143005475Y-106219580D01*
X110892857Y-77531009D02*
X111035714Y-77578628D01*
X111035714Y-77578628D02*
X111083333Y-77626247D01*
X111083333Y-77626247D02*
X111130952Y-77721485D01*
X111130952Y-77721485D02*
X111130952Y-77864342D01*
X111130952Y-77864342D02*
X111083333Y-77959580D01*
X111083333Y-77959580D02*
X111035714Y-78007200D01*
X111035714Y-78007200D02*
X110940476Y-78054819D01*
X110940476Y-78054819D02*
X110559524Y-78054819D01*
X110559524Y-78054819D02*
X110559524Y-77054819D01*
X110559524Y-77054819D02*
X110892857Y-77054819D01*
X110892857Y-77054819D02*
X110988095Y-77102438D01*
X110988095Y-77102438D02*
X111035714Y-77150057D01*
X111035714Y-77150057D02*
X111083333Y-77245295D01*
X111083333Y-77245295D02*
X111083333Y-77340533D01*
X111083333Y-77340533D02*
X111035714Y-77435771D01*
X111035714Y-77435771D02*
X110988095Y-77483390D01*
X110988095Y-77483390D02*
X110892857Y-77531009D01*
X110892857Y-77531009D02*
X110559524Y-77531009D01*
X111750000Y-77054819D02*
X111845238Y-77054819D01*
X111845238Y-77054819D02*
X111940476Y-77102438D01*
X111940476Y-77102438D02*
X111988095Y-77150057D01*
X111988095Y-77150057D02*
X112035714Y-77245295D01*
X112035714Y-77245295D02*
X112083333Y-77435771D01*
X112083333Y-77435771D02*
X112083333Y-77673866D01*
X112083333Y-77673866D02*
X112035714Y-77864342D01*
X112035714Y-77864342D02*
X111988095Y-77959580D01*
X111988095Y-77959580D02*
X111940476Y-78007200D01*
X111940476Y-78007200D02*
X111845238Y-78054819D01*
X111845238Y-78054819D02*
X111750000Y-78054819D01*
X111750000Y-78054819D02*
X111654762Y-78007200D01*
X111654762Y-78007200D02*
X111607143Y-77959580D01*
X111607143Y-77959580D02*
X111559524Y-77864342D01*
X111559524Y-77864342D02*
X111511905Y-77673866D01*
X111511905Y-77673866D02*
X111511905Y-77435771D01*
X111511905Y-77435771D02*
X111559524Y-77245295D01*
X111559524Y-77245295D02*
X111607143Y-77150057D01*
X111607143Y-77150057D02*
X111654762Y-77102438D01*
X111654762Y-77102438D02*
X111750000Y-77054819D01*
X112511905Y-77673866D02*
X113273810Y-77673866D01*
X114321428Y-78054819D02*
X113988095Y-77578628D01*
X113750000Y-78054819D02*
X113750000Y-77054819D01*
X113750000Y-77054819D02*
X114130952Y-77054819D01*
X114130952Y-77054819D02*
X114226190Y-77102438D01*
X114226190Y-77102438D02*
X114273809Y-77150057D01*
X114273809Y-77150057D02*
X114321428Y-77245295D01*
X114321428Y-77245295D02*
X114321428Y-77388152D01*
X114321428Y-77388152D02*
X114273809Y-77483390D01*
X114273809Y-77483390D02*
X114226190Y-77531009D01*
X114226190Y-77531009D02*
X114130952Y-77578628D01*
X114130952Y-77578628D02*
X113750000Y-77578628D01*
X114702381Y-78007200D02*
X114845238Y-78054819D01*
X114845238Y-78054819D02*
X115083333Y-78054819D01*
X115083333Y-78054819D02*
X115178571Y-78007200D01*
X115178571Y-78007200D02*
X115226190Y-77959580D01*
X115226190Y-77959580D02*
X115273809Y-77864342D01*
X115273809Y-77864342D02*
X115273809Y-77769104D01*
X115273809Y-77769104D02*
X115226190Y-77673866D01*
X115226190Y-77673866D02*
X115178571Y-77626247D01*
X115178571Y-77626247D02*
X115083333Y-77578628D01*
X115083333Y-77578628D02*
X114892857Y-77531009D01*
X114892857Y-77531009D02*
X114797619Y-77483390D01*
X114797619Y-77483390D02*
X114750000Y-77435771D01*
X114750000Y-77435771D02*
X114702381Y-77340533D01*
X114702381Y-77340533D02*
X114702381Y-77245295D01*
X114702381Y-77245295D02*
X114750000Y-77150057D01*
X114750000Y-77150057D02*
X114797619Y-77102438D01*
X114797619Y-77102438D02*
X114892857Y-77054819D01*
X114892857Y-77054819D02*
X115130952Y-77054819D01*
X115130952Y-77054819D02*
X115273809Y-77102438D01*
X115559524Y-77054819D02*
X116130952Y-77054819D01*
X115845238Y-78054819D02*
X115845238Y-77054819D01*
X116988095Y-78054819D02*
X116416667Y-78054819D01*
X116702381Y-78054819D02*
X116702381Y-77054819D01*
X116702381Y-77054819D02*
X116607143Y-77197676D01*
X116607143Y-77197676D02*
X116511905Y-77292914D01*
X116511905Y-77292914D02*
X116416667Y-77340533D01*
X135866666Y-133454819D02*
X135866666Y-134169104D01*
X135866666Y-134169104D02*
X135819047Y-134311961D01*
X135819047Y-134311961D02*
X135723809Y-134407200D01*
X135723809Y-134407200D02*
X135580952Y-134454819D01*
X135580952Y-134454819D02*
X135485714Y-134454819D01*
X136247619Y-133454819D02*
X136866666Y-133454819D01*
X136866666Y-133454819D02*
X136533333Y-133835771D01*
X136533333Y-133835771D02*
X136676190Y-133835771D01*
X136676190Y-133835771D02*
X136771428Y-133883390D01*
X136771428Y-133883390D02*
X136819047Y-133931009D01*
X136819047Y-133931009D02*
X136866666Y-134026247D01*
X136866666Y-134026247D02*
X136866666Y-134264342D01*
X136866666Y-134264342D02*
X136819047Y-134359580D01*
X136819047Y-134359580D02*
X136771428Y-134407200D01*
X136771428Y-134407200D02*
X136676190Y-134454819D01*
X136676190Y-134454819D02*
X136390476Y-134454819D01*
X136390476Y-134454819D02*
X136295238Y-134407200D01*
X136295238Y-134407200D02*
X136247619Y-134359580D01*
D12*
X161826667Y-68804318D02*
X161826667Y-69711461D01*
X161826667Y-69711461D02*
X161766190Y-69892889D01*
X161766190Y-69892889D02*
X161645238Y-70013842D01*
X161645238Y-70013842D02*
X161463809Y-70074318D01*
X161463809Y-70074318D02*
X161342857Y-70074318D01*
X162975714Y-69227651D02*
X162975714Y-70074318D01*
X162673333Y-68743842D02*
X162370952Y-69650984D01*
X162370952Y-69650984D02*
X163157143Y-69650984D01*
X178195270Y-125120952D02*
X178134794Y-125241904D01*
X178134794Y-125241904D02*
X178013842Y-125362857D01*
X178013842Y-125362857D02*
X177832413Y-125544285D01*
X177832413Y-125544285D02*
X177771937Y-125665238D01*
X177771937Y-125665238D02*
X177771937Y-125786190D01*
X178074318Y-125725714D02*
X178013842Y-125846666D01*
X178013842Y-125846666D02*
X177892889Y-125967619D01*
X177892889Y-125967619D02*
X177650984Y-126028095D01*
X177650984Y-126028095D02*
X177227651Y-126028095D01*
X177227651Y-126028095D02*
X176985746Y-125967619D01*
X176985746Y-125967619D02*
X176864794Y-125846666D01*
X176864794Y-125846666D02*
X176804318Y-125725714D01*
X176804318Y-125725714D02*
X176804318Y-125483809D01*
X176804318Y-125483809D02*
X176864794Y-125362857D01*
X176864794Y-125362857D02*
X176985746Y-125241904D01*
X176985746Y-125241904D02*
X177227651Y-125181428D01*
X177227651Y-125181428D02*
X177650984Y-125181428D01*
X177650984Y-125181428D02*
X177892889Y-125241904D01*
X177892889Y-125241904D02*
X178013842Y-125362857D01*
X178013842Y-125362857D02*
X178074318Y-125483809D01*
X178074318Y-125483809D02*
X178074318Y-125725714D01*
X178074318Y-123971904D02*
X178074318Y-124697619D01*
X178074318Y-124334762D02*
X176804318Y-124334762D01*
X176804318Y-124334762D02*
X176985746Y-124455714D01*
X176985746Y-124455714D02*
X177106699Y-124576666D01*
X177106699Y-124576666D02*
X177167175Y-124697619D01*
D11*
X108494641Y-118489819D02*
X108161308Y-118013628D01*
X107923213Y-118489819D02*
X107923213Y-117489819D01*
X107923213Y-117489819D02*
X108304165Y-117489819D01*
X108304165Y-117489819D02*
X108399403Y-117537438D01*
X108399403Y-117537438D02*
X108447022Y-117585057D01*
X108447022Y-117585057D02*
X108494641Y-117680295D01*
X108494641Y-117680295D02*
X108494641Y-117823152D01*
X108494641Y-117823152D02*
X108447022Y-117918390D01*
X108447022Y-117918390D02*
X108399403Y-117966009D01*
X108399403Y-117966009D02*
X108304165Y-118013628D01*
X108304165Y-118013628D02*
X107923213Y-118013628D01*
X108827975Y-117489819D02*
X109447022Y-117489819D01*
X109447022Y-117489819D02*
X109113689Y-117870771D01*
X109113689Y-117870771D02*
X109256546Y-117870771D01*
X109256546Y-117870771D02*
X109351784Y-117918390D01*
X109351784Y-117918390D02*
X109399403Y-117966009D01*
X109399403Y-117966009D02*
X109447022Y-118061247D01*
X109447022Y-118061247D02*
X109447022Y-118299342D01*
X109447022Y-118299342D02*
X109399403Y-118394580D01*
X109399403Y-118394580D02*
X109351784Y-118442200D01*
X109351784Y-118442200D02*
X109256546Y-118489819D01*
X109256546Y-118489819D02*
X108970832Y-118489819D01*
X108970832Y-118489819D02*
X108875594Y-118442200D01*
X108875594Y-118442200D02*
X108827975Y-118394580D01*
X109780356Y-117489819D02*
X110447022Y-117489819D01*
X110447022Y-117489819D02*
X110018451Y-118489819D01*
D12*
X119445270Y-131120952D02*
X119384794Y-131241904D01*
X119384794Y-131241904D02*
X119263842Y-131362857D01*
X119263842Y-131362857D02*
X119082413Y-131544285D01*
X119082413Y-131544285D02*
X119021937Y-131665238D01*
X119021937Y-131665238D02*
X119021937Y-131786190D01*
X119324318Y-131725714D02*
X119263842Y-131846666D01*
X119263842Y-131846666D02*
X119142889Y-131967619D01*
X119142889Y-131967619D02*
X118900984Y-132028095D01*
X118900984Y-132028095D02*
X118477651Y-132028095D01*
X118477651Y-132028095D02*
X118235746Y-131967619D01*
X118235746Y-131967619D02*
X118114794Y-131846666D01*
X118114794Y-131846666D02*
X118054318Y-131725714D01*
X118054318Y-131725714D02*
X118054318Y-131483809D01*
X118054318Y-131483809D02*
X118114794Y-131362857D01*
X118114794Y-131362857D02*
X118235746Y-131241904D01*
X118235746Y-131241904D02*
X118477651Y-131181428D01*
X118477651Y-131181428D02*
X118900984Y-131181428D01*
X118900984Y-131181428D02*
X119142889Y-131241904D01*
X119142889Y-131241904D02*
X119263842Y-131362857D01*
X119263842Y-131362857D02*
X119324318Y-131483809D01*
X119324318Y-131483809D02*
X119324318Y-131725714D01*
X118477651Y-130092857D02*
X119324318Y-130092857D01*
X117993842Y-130395238D02*
X118900984Y-130697619D01*
X118900984Y-130697619D02*
X118900984Y-129911428D01*
D11*
X108532142Y-79874819D02*
X108198809Y-79398628D01*
X107960714Y-79874819D02*
X107960714Y-78874819D01*
X107960714Y-78874819D02*
X108341666Y-78874819D01*
X108341666Y-78874819D02*
X108436904Y-78922438D01*
X108436904Y-78922438D02*
X108484523Y-78970057D01*
X108484523Y-78970057D02*
X108532142Y-79065295D01*
X108532142Y-79065295D02*
X108532142Y-79208152D01*
X108532142Y-79208152D02*
X108484523Y-79303390D01*
X108484523Y-79303390D02*
X108436904Y-79351009D01*
X108436904Y-79351009D02*
X108341666Y-79398628D01*
X108341666Y-79398628D02*
X107960714Y-79398628D01*
X109484523Y-79874819D02*
X108913095Y-79874819D01*
X109198809Y-79874819D02*
X109198809Y-78874819D01*
X109198809Y-78874819D02*
X109103571Y-79017676D01*
X109103571Y-79017676D02*
X109008333Y-79112914D01*
X109008333Y-79112914D02*
X108913095Y-79160533D01*
X110055952Y-79303390D02*
X109960714Y-79255771D01*
X109960714Y-79255771D02*
X109913095Y-79208152D01*
X109913095Y-79208152D02*
X109865476Y-79112914D01*
X109865476Y-79112914D02*
X109865476Y-79065295D01*
X109865476Y-79065295D02*
X109913095Y-78970057D01*
X109913095Y-78970057D02*
X109960714Y-78922438D01*
X109960714Y-78922438D02*
X110055952Y-78874819D01*
X110055952Y-78874819D02*
X110246428Y-78874819D01*
X110246428Y-78874819D02*
X110341666Y-78922438D01*
X110341666Y-78922438D02*
X110389285Y-78970057D01*
X110389285Y-78970057D02*
X110436904Y-79065295D01*
X110436904Y-79065295D02*
X110436904Y-79112914D01*
X110436904Y-79112914D02*
X110389285Y-79208152D01*
X110389285Y-79208152D02*
X110341666Y-79255771D01*
X110341666Y-79255771D02*
X110246428Y-79303390D01*
X110246428Y-79303390D02*
X110055952Y-79303390D01*
X110055952Y-79303390D02*
X109960714Y-79351009D01*
X109960714Y-79351009D02*
X109913095Y-79398628D01*
X109913095Y-79398628D02*
X109865476Y-79493866D01*
X109865476Y-79493866D02*
X109865476Y-79684342D01*
X109865476Y-79684342D02*
X109913095Y-79779580D01*
X109913095Y-79779580D02*
X109960714Y-79827200D01*
X109960714Y-79827200D02*
X110055952Y-79874819D01*
X110055952Y-79874819D02*
X110246428Y-79874819D01*
X110246428Y-79874819D02*
X110341666Y-79827200D01*
X110341666Y-79827200D02*
X110389285Y-79779580D01*
X110389285Y-79779580D02*
X110436904Y-79684342D01*
X110436904Y-79684342D02*
X110436904Y-79493866D01*
X110436904Y-79493866D02*
X110389285Y-79398628D01*
X110389285Y-79398628D02*
X110341666Y-79351009D01*
X110341666Y-79351009D02*
X110246428Y-79303390D01*
X163274819Y-76241666D02*
X162798628Y-76574999D01*
X163274819Y-76813094D02*
X162274819Y-76813094D01*
X162274819Y-76813094D02*
X162274819Y-76432142D01*
X162274819Y-76432142D02*
X162322438Y-76336904D01*
X162322438Y-76336904D02*
X162370057Y-76289285D01*
X162370057Y-76289285D02*
X162465295Y-76241666D01*
X162465295Y-76241666D02*
X162608152Y-76241666D01*
X162608152Y-76241666D02*
X162703390Y-76289285D01*
X162703390Y-76289285D02*
X162751009Y-76336904D01*
X162751009Y-76336904D02*
X162798628Y-76432142D01*
X162798628Y-76432142D02*
X162798628Y-76813094D01*
X162274819Y-75336904D02*
X162274819Y-75813094D01*
X162274819Y-75813094D02*
X162751009Y-75860713D01*
X162751009Y-75860713D02*
X162703390Y-75813094D01*
X162703390Y-75813094D02*
X162655771Y-75717856D01*
X162655771Y-75717856D02*
X162655771Y-75479761D01*
X162655771Y-75479761D02*
X162703390Y-75384523D01*
X162703390Y-75384523D02*
X162751009Y-75336904D01*
X162751009Y-75336904D02*
X162846247Y-75289285D01*
X162846247Y-75289285D02*
X163084342Y-75289285D01*
X163084342Y-75289285D02*
X163179580Y-75336904D01*
X163179580Y-75336904D02*
X163227200Y-75384523D01*
X163227200Y-75384523D02*
X163274819Y-75479761D01*
X163274819Y-75479761D02*
X163274819Y-75717856D01*
X163274819Y-75717856D02*
X163227200Y-75813094D01*
X163227200Y-75813094D02*
X163179580Y-75860713D01*
X128632141Y-75585819D02*
X128298808Y-75109628D01*
X128060713Y-75585819D02*
X128060713Y-74585819D01*
X128060713Y-74585819D02*
X128441665Y-74585819D01*
X128441665Y-74585819D02*
X128536903Y-74633438D01*
X128536903Y-74633438D02*
X128584522Y-74681057D01*
X128584522Y-74681057D02*
X128632141Y-74776295D01*
X128632141Y-74776295D02*
X128632141Y-74919152D01*
X128632141Y-74919152D02*
X128584522Y-75014390D01*
X128584522Y-75014390D02*
X128536903Y-75062009D01*
X128536903Y-75062009D02*
X128441665Y-75109628D01*
X128441665Y-75109628D02*
X128060713Y-75109628D01*
X129013094Y-74681057D02*
X129060713Y-74633438D01*
X129060713Y-74633438D02*
X129155951Y-74585819D01*
X129155951Y-74585819D02*
X129394046Y-74585819D01*
X129394046Y-74585819D02*
X129489284Y-74633438D01*
X129489284Y-74633438D02*
X129536903Y-74681057D01*
X129536903Y-74681057D02*
X129584522Y-74776295D01*
X129584522Y-74776295D02*
X129584522Y-74871533D01*
X129584522Y-74871533D02*
X129536903Y-75014390D01*
X129536903Y-75014390D02*
X128965475Y-75585819D01*
X128965475Y-75585819D02*
X129584522Y-75585819D01*
X130536903Y-75585819D02*
X129965475Y-75585819D01*
X130251189Y-75585819D02*
X130251189Y-74585819D01*
X130251189Y-74585819D02*
X130155951Y-74728676D01*
X130155951Y-74728676D02*
X130060713Y-74823914D01*
X130060713Y-74823914D02*
X129965475Y-74871533D01*
X125684818Y-107867857D02*
X125208627Y-108201190D01*
X125684818Y-108439285D02*
X124684818Y-108439285D01*
X124684818Y-108439285D02*
X124684818Y-108058333D01*
X124684818Y-108058333D02*
X124732437Y-107963095D01*
X124732437Y-107963095D02*
X124780056Y-107915476D01*
X124780056Y-107915476D02*
X124875294Y-107867857D01*
X124875294Y-107867857D02*
X125018151Y-107867857D01*
X125018151Y-107867857D02*
X125113389Y-107915476D01*
X125113389Y-107915476D02*
X125161008Y-107963095D01*
X125161008Y-107963095D02*
X125208627Y-108058333D01*
X125208627Y-108058333D02*
X125208627Y-108439285D01*
X124684818Y-107534523D02*
X124684818Y-106915476D01*
X124684818Y-106915476D02*
X125065770Y-107248809D01*
X125065770Y-107248809D02*
X125065770Y-107105952D01*
X125065770Y-107105952D02*
X125113389Y-107010714D01*
X125113389Y-107010714D02*
X125161008Y-106963095D01*
X125161008Y-106963095D02*
X125256246Y-106915476D01*
X125256246Y-106915476D02*
X125494341Y-106915476D01*
X125494341Y-106915476D02*
X125589579Y-106963095D01*
X125589579Y-106963095D02*
X125637199Y-107010714D01*
X125637199Y-107010714D02*
X125684818Y-107105952D01*
X125684818Y-107105952D02*
X125684818Y-107391666D01*
X125684818Y-107391666D02*
X125637199Y-107486904D01*
X125637199Y-107486904D02*
X125589579Y-107534523D01*
X124684818Y-106010714D02*
X124684818Y-106486904D01*
X124684818Y-106486904D02*
X125161008Y-106534523D01*
X125161008Y-106534523D02*
X125113389Y-106486904D01*
X125113389Y-106486904D02*
X125065770Y-106391666D01*
X125065770Y-106391666D02*
X125065770Y-106153571D01*
X125065770Y-106153571D02*
X125113389Y-106058333D01*
X125113389Y-106058333D02*
X125161008Y-106010714D01*
X125161008Y-106010714D02*
X125256246Y-105963095D01*
X125256246Y-105963095D02*
X125494341Y-105963095D01*
X125494341Y-105963095D02*
X125589579Y-106010714D01*
X125589579Y-106010714D02*
X125637199Y-106058333D01*
X125637199Y-106058333D02*
X125684818Y-106153571D01*
X125684818Y-106153571D02*
X125684818Y-106391666D01*
X125684818Y-106391666D02*
X125637199Y-106486904D01*
X125637199Y-106486904D02*
X125589579Y-106534523D01*
X125684818Y-111242857D02*
X125208627Y-111576190D01*
X125684818Y-111814285D02*
X124684818Y-111814285D01*
X124684818Y-111814285D02*
X124684818Y-111433333D01*
X124684818Y-111433333D02*
X124732437Y-111338095D01*
X124732437Y-111338095D02*
X124780056Y-111290476D01*
X124780056Y-111290476D02*
X124875294Y-111242857D01*
X124875294Y-111242857D02*
X125018151Y-111242857D01*
X125018151Y-111242857D02*
X125113389Y-111290476D01*
X125113389Y-111290476D02*
X125161008Y-111338095D01*
X125161008Y-111338095D02*
X125208627Y-111433333D01*
X125208627Y-111433333D02*
X125208627Y-111814285D01*
X124684818Y-110909523D02*
X124684818Y-110290476D01*
X124684818Y-110290476D02*
X125065770Y-110623809D01*
X125065770Y-110623809D02*
X125065770Y-110480952D01*
X125065770Y-110480952D02*
X125113389Y-110385714D01*
X125113389Y-110385714D02*
X125161008Y-110338095D01*
X125161008Y-110338095D02*
X125256246Y-110290476D01*
X125256246Y-110290476D02*
X125494341Y-110290476D01*
X125494341Y-110290476D02*
X125589579Y-110338095D01*
X125589579Y-110338095D02*
X125637199Y-110385714D01*
X125637199Y-110385714D02*
X125684818Y-110480952D01*
X125684818Y-110480952D02*
X125684818Y-110766666D01*
X125684818Y-110766666D02*
X125637199Y-110861904D01*
X125637199Y-110861904D02*
X125589579Y-110909523D01*
X125018151Y-109433333D02*
X125684818Y-109433333D01*
X124637199Y-109671428D02*
X125351484Y-109909523D01*
X125351484Y-109909523D02*
X125351484Y-109290476D01*
D12*
X147538333Y-81824318D02*
X146933571Y-81824318D01*
X146933571Y-81824318D02*
X146933571Y-80554318D01*
X147901190Y-80675270D02*
X147961666Y-80614794D01*
X147961666Y-80614794D02*
X148082619Y-80554318D01*
X148082619Y-80554318D02*
X148385000Y-80554318D01*
X148385000Y-80554318D02*
X148505952Y-80614794D01*
X148505952Y-80614794D02*
X148566428Y-80675270D01*
X148566428Y-80675270D02*
X148626905Y-80796222D01*
X148626905Y-80796222D02*
X148626905Y-80917175D01*
X148626905Y-80917175D02*
X148566428Y-81098603D01*
X148566428Y-81098603D02*
X147840714Y-81824318D01*
X147840714Y-81824318D02*
X148626905Y-81824318D01*
X140209318Y-113841762D02*
X138939318Y-113841762D01*
X140088365Y-112511285D02*
X140148842Y-112571761D01*
X140148842Y-112571761D02*
X140209318Y-112753190D01*
X140209318Y-112753190D02*
X140209318Y-112874142D01*
X140209318Y-112874142D02*
X140148842Y-113055571D01*
X140148842Y-113055571D02*
X140027889Y-113176523D01*
X140027889Y-113176523D02*
X139906937Y-113237000D01*
X139906937Y-113237000D02*
X139665032Y-113297476D01*
X139665032Y-113297476D02*
X139483603Y-113297476D01*
X139483603Y-113297476D02*
X139241699Y-113237000D01*
X139241699Y-113237000D02*
X139120746Y-113176523D01*
X139120746Y-113176523D02*
X138999794Y-113055571D01*
X138999794Y-113055571D02*
X138939318Y-112874142D01*
X138939318Y-112874142D02*
X138939318Y-112753190D01*
X138939318Y-112753190D02*
X138999794Y-112571761D01*
X138999794Y-112571761D02*
X139060270Y-112511285D01*
X139483603Y-111785571D02*
X139423127Y-111906523D01*
X139423127Y-111906523D02*
X139362651Y-111967000D01*
X139362651Y-111967000D02*
X139241699Y-112027476D01*
X139241699Y-112027476D02*
X139181222Y-112027476D01*
X139181222Y-112027476D02*
X139060270Y-111967000D01*
X139060270Y-111967000D02*
X138999794Y-111906523D01*
X138999794Y-111906523D02*
X138939318Y-111785571D01*
X138939318Y-111785571D02*
X138939318Y-111543666D01*
X138939318Y-111543666D02*
X138999794Y-111422714D01*
X138999794Y-111422714D02*
X139060270Y-111362238D01*
X139060270Y-111362238D02*
X139181222Y-111301761D01*
X139181222Y-111301761D02*
X139241699Y-111301761D01*
X139241699Y-111301761D02*
X139362651Y-111362238D01*
X139362651Y-111362238D02*
X139423127Y-111422714D01*
X139423127Y-111422714D02*
X139483603Y-111543666D01*
X139483603Y-111543666D02*
X139483603Y-111785571D01*
X139483603Y-111785571D02*
X139544080Y-111906523D01*
X139544080Y-111906523D02*
X139604556Y-111967000D01*
X139604556Y-111967000D02*
X139725508Y-112027476D01*
X139725508Y-112027476D02*
X139967413Y-112027476D01*
X139967413Y-112027476D02*
X140088365Y-111967000D01*
X140088365Y-111967000D02*
X140148842Y-111906523D01*
X140148842Y-111906523D02*
X140209318Y-111785571D01*
X140209318Y-111785571D02*
X140209318Y-111543666D01*
X140209318Y-111543666D02*
X140148842Y-111422714D01*
X140148842Y-111422714D02*
X140088365Y-111362238D01*
X140088365Y-111362238D02*
X139967413Y-111301761D01*
X139967413Y-111301761D02*
X139725508Y-111301761D01*
X139725508Y-111301761D02*
X139604556Y-111362238D01*
X139604556Y-111362238D02*
X139544080Y-111422714D01*
X139544080Y-111422714D02*
X139483603Y-111543666D01*
D11*
X117684818Y-120107857D02*
X117208627Y-120441190D01*
X117684818Y-120679285D02*
X116684818Y-120679285D01*
X116684818Y-120679285D02*
X116684818Y-120298333D01*
X116684818Y-120298333D02*
X116732437Y-120203095D01*
X116732437Y-120203095D02*
X116780056Y-120155476D01*
X116780056Y-120155476D02*
X116875294Y-120107857D01*
X116875294Y-120107857D02*
X117018151Y-120107857D01*
X117018151Y-120107857D02*
X117113389Y-120155476D01*
X117113389Y-120155476D02*
X117161008Y-120203095D01*
X117161008Y-120203095D02*
X117208627Y-120298333D01*
X117208627Y-120298333D02*
X117208627Y-120679285D01*
X116684818Y-119774523D02*
X116684818Y-119155476D01*
X116684818Y-119155476D02*
X117065770Y-119488809D01*
X117065770Y-119488809D02*
X117065770Y-119345952D01*
X117065770Y-119345952D02*
X117113389Y-119250714D01*
X117113389Y-119250714D02*
X117161008Y-119203095D01*
X117161008Y-119203095D02*
X117256246Y-119155476D01*
X117256246Y-119155476D02*
X117494341Y-119155476D01*
X117494341Y-119155476D02*
X117589579Y-119203095D01*
X117589579Y-119203095D02*
X117637199Y-119250714D01*
X117637199Y-119250714D02*
X117684818Y-119345952D01*
X117684818Y-119345952D02*
X117684818Y-119631666D01*
X117684818Y-119631666D02*
X117637199Y-119726904D01*
X117637199Y-119726904D02*
X117589579Y-119774523D01*
X116780056Y-118774523D02*
X116732437Y-118726904D01*
X116732437Y-118726904D02*
X116684818Y-118631666D01*
X116684818Y-118631666D02*
X116684818Y-118393571D01*
X116684818Y-118393571D02*
X116732437Y-118298333D01*
X116732437Y-118298333D02*
X116780056Y-118250714D01*
X116780056Y-118250714D02*
X116875294Y-118203095D01*
X116875294Y-118203095D02*
X116970532Y-118203095D01*
X116970532Y-118203095D02*
X117113389Y-118250714D01*
X117113389Y-118250714D02*
X117684818Y-118822142D01*
X117684818Y-118822142D02*
X117684818Y-118203095D01*
X135585580Y-80441666D02*
X135633200Y-80489285D01*
X135633200Y-80489285D02*
X135680819Y-80632142D01*
X135680819Y-80632142D02*
X135680819Y-80727380D01*
X135680819Y-80727380D02*
X135633200Y-80870237D01*
X135633200Y-80870237D02*
X135537961Y-80965475D01*
X135537961Y-80965475D02*
X135442723Y-81013094D01*
X135442723Y-81013094D02*
X135252247Y-81060713D01*
X135252247Y-81060713D02*
X135109390Y-81060713D01*
X135109390Y-81060713D02*
X134918914Y-81013094D01*
X134918914Y-81013094D02*
X134823676Y-80965475D01*
X134823676Y-80965475D02*
X134728438Y-80870237D01*
X134728438Y-80870237D02*
X134680819Y-80727380D01*
X134680819Y-80727380D02*
X134680819Y-80632142D01*
X134680819Y-80632142D02*
X134728438Y-80489285D01*
X134728438Y-80489285D02*
X134776057Y-80441666D01*
X134776057Y-80060713D02*
X134728438Y-80013094D01*
X134728438Y-80013094D02*
X134680819Y-79917856D01*
X134680819Y-79917856D02*
X134680819Y-79679761D01*
X134680819Y-79679761D02*
X134728438Y-79584523D01*
X134728438Y-79584523D02*
X134776057Y-79536904D01*
X134776057Y-79536904D02*
X134871295Y-79489285D01*
X134871295Y-79489285D02*
X134966533Y-79489285D01*
X134966533Y-79489285D02*
X135109390Y-79536904D01*
X135109390Y-79536904D02*
X135680819Y-80108332D01*
X135680819Y-80108332D02*
X135680819Y-79489285D01*
X168538095Y-53254819D02*
X168538095Y-52254819D01*
X168538095Y-52731009D02*
X169109523Y-52731009D01*
X169109523Y-53254819D02*
X169109523Y-52254819D01*
X169538095Y-52350057D02*
X169585714Y-52302438D01*
X169585714Y-52302438D02*
X169680952Y-52254819D01*
X169680952Y-52254819D02*
X169919047Y-52254819D01*
X169919047Y-52254819D02*
X170014285Y-52302438D01*
X170014285Y-52302438D02*
X170061904Y-52350057D01*
X170061904Y-52350057D02*
X170109523Y-52445295D01*
X170109523Y-52445295D02*
X170109523Y-52540533D01*
X170109523Y-52540533D02*
X170061904Y-52683390D01*
X170061904Y-52683390D02*
X169490476Y-53254819D01*
X169490476Y-53254819D02*
X170109523Y-53254819D01*
X170109580Y-77936666D02*
X170157200Y-77984285D01*
X170157200Y-77984285D02*
X170204819Y-78127142D01*
X170204819Y-78127142D02*
X170204819Y-78222380D01*
X170204819Y-78222380D02*
X170157200Y-78365237D01*
X170157200Y-78365237D02*
X170061961Y-78460475D01*
X170061961Y-78460475D02*
X169966723Y-78508094D01*
X169966723Y-78508094D02*
X169776247Y-78555713D01*
X169776247Y-78555713D02*
X169633390Y-78555713D01*
X169633390Y-78555713D02*
X169442914Y-78508094D01*
X169442914Y-78508094D02*
X169347676Y-78460475D01*
X169347676Y-78460475D02*
X169252438Y-78365237D01*
X169252438Y-78365237D02*
X169204819Y-78222380D01*
X169204819Y-78222380D02*
X169204819Y-78127142D01*
X169204819Y-78127142D02*
X169252438Y-77984285D01*
X169252438Y-77984285D02*
X169300057Y-77936666D01*
X170204819Y-76984285D02*
X170204819Y-77555713D01*
X170204819Y-77269999D02*
X169204819Y-77269999D01*
X169204819Y-77269999D02*
X169347676Y-77365237D01*
X169347676Y-77365237D02*
X169442914Y-77460475D01*
X169442914Y-77460475D02*
X169490533Y-77555713D01*
X120589579Y-116707857D02*
X120637199Y-116755476D01*
X120637199Y-116755476D02*
X120684818Y-116898333D01*
X120684818Y-116898333D02*
X120684818Y-116993571D01*
X120684818Y-116993571D02*
X120637199Y-117136428D01*
X120637199Y-117136428D02*
X120541960Y-117231666D01*
X120541960Y-117231666D02*
X120446722Y-117279285D01*
X120446722Y-117279285D02*
X120256246Y-117326904D01*
X120256246Y-117326904D02*
X120113389Y-117326904D01*
X120113389Y-117326904D02*
X119922913Y-117279285D01*
X119922913Y-117279285D02*
X119827675Y-117231666D01*
X119827675Y-117231666D02*
X119732437Y-117136428D01*
X119732437Y-117136428D02*
X119684818Y-116993571D01*
X119684818Y-116993571D02*
X119684818Y-116898333D01*
X119684818Y-116898333D02*
X119732437Y-116755476D01*
X119732437Y-116755476D02*
X119780056Y-116707857D01*
X119684818Y-116374523D02*
X119684818Y-115755476D01*
X119684818Y-115755476D02*
X120065770Y-116088809D01*
X120065770Y-116088809D02*
X120065770Y-115945952D01*
X120065770Y-115945952D02*
X120113389Y-115850714D01*
X120113389Y-115850714D02*
X120161008Y-115803095D01*
X120161008Y-115803095D02*
X120256246Y-115755476D01*
X120256246Y-115755476D02*
X120494341Y-115755476D01*
X120494341Y-115755476D02*
X120589579Y-115803095D01*
X120589579Y-115803095D02*
X120637199Y-115850714D01*
X120637199Y-115850714D02*
X120684818Y-115945952D01*
X120684818Y-115945952D02*
X120684818Y-116231666D01*
X120684818Y-116231666D02*
X120637199Y-116326904D01*
X120637199Y-116326904D02*
X120589579Y-116374523D01*
X119684818Y-114850714D02*
X119684818Y-115326904D01*
X119684818Y-115326904D02*
X120161008Y-115374523D01*
X120161008Y-115374523D02*
X120113389Y-115326904D01*
X120113389Y-115326904D02*
X120065770Y-115231666D01*
X120065770Y-115231666D02*
X120065770Y-114993571D01*
X120065770Y-114993571D02*
X120113389Y-114898333D01*
X120113389Y-114898333D02*
X120161008Y-114850714D01*
X120161008Y-114850714D02*
X120256246Y-114803095D01*
X120256246Y-114803095D02*
X120494341Y-114803095D01*
X120494341Y-114803095D02*
X120589579Y-114850714D01*
X120589579Y-114850714D02*
X120637199Y-114898333D01*
X120637199Y-114898333D02*
X120684818Y-114993571D01*
X120684818Y-114993571D02*
X120684818Y-115231666D01*
X120684818Y-115231666D02*
X120637199Y-115326904D01*
X120637199Y-115326904D02*
X120589579Y-115374523D01*
X150424818Y-111242857D02*
X149948627Y-111576190D01*
X150424818Y-111814285D02*
X149424818Y-111814285D01*
X149424818Y-111814285D02*
X149424818Y-111433333D01*
X149424818Y-111433333D02*
X149472437Y-111338095D01*
X149472437Y-111338095D02*
X149520056Y-111290476D01*
X149520056Y-111290476D02*
X149615294Y-111242857D01*
X149615294Y-111242857D02*
X149758151Y-111242857D01*
X149758151Y-111242857D02*
X149853389Y-111290476D01*
X149853389Y-111290476D02*
X149901008Y-111338095D01*
X149901008Y-111338095D02*
X149948627Y-111433333D01*
X149948627Y-111433333D02*
X149948627Y-111814285D01*
X149758151Y-110385714D02*
X150424818Y-110385714D01*
X149377199Y-110623809D02*
X150091484Y-110861904D01*
X150091484Y-110861904D02*
X150091484Y-110242857D01*
X149424818Y-109433333D02*
X149424818Y-109623809D01*
X149424818Y-109623809D02*
X149472437Y-109719047D01*
X149472437Y-109719047D02*
X149520056Y-109766666D01*
X149520056Y-109766666D02*
X149662913Y-109861904D01*
X149662913Y-109861904D02*
X149853389Y-109909523D01*
X149853389Y-109909523D02*
X150234341Y-109909523D01*
X150234341Y-109909523D02*
X150329579Y-109861904D01*
X150329579Y-109861904D02*
X150377199Y-109814285D01*
X150377199Y-109814285D02*
X150424818Y-109719047D01*
X150424818Y-109719047D02*
X150424818Y-109528571D01*
X150424818Y-109528571D02*
X150377199Y-109433333D01*
X150377199Y-109433333D02*
X150329579Y-109385714D01*
X150329579Y-109385714D02*
X150234341Y-109338095D01*
X150234341Y-109338095D02*
X149996246Y-109338095D01*
X149996246Y-109338095D02*
X149901008Y-109385714D01*
X149901008Y-109385714D02*
X149853389Y-109433333D01*
X149853389Y-109433333D02*
X149805770Y-109528571D01*
X149805770Y-109528571D02*
X149805770Y-109719047D01*
X149805770Y-109719047D02*
X149853389Y-109814285D01*
X149853389Y-109814285D02*
X149901008Y-109861904D01*
X149901008Y-109861904D02*
X149996246Y-109909523D01*
X132699580Y-110507857D02*
X132747200Y-110555476D01*
X132747200Y-110555476D02*
X132794819Y-110698333D01*
X132794819Y-110698333D02*
X132794819Y-110793571D01*
X132794819Y-110793571D02*
X132747200Y-110936428D01*
X132747200Y-110936428D02*
X132651961Y-111031666D01*
X132651961Y-111031666D02*
X132556723Y-111079285D01*
X132556723Y-111079285D02*
X132366247Y-111126904D01*
X132366247Y-111126904D02*
X132223390Y-111126904D01*
X132223390Y-111126904D02*
X132032914Y-111079285D01*
X132032914Y-111079285D02*
X131937676Y-111031666D01*
X131937676Y-111031666D02*
X131842438Y-110936428D01*
X131842438Y-110936428D02*
X131794819Y-110793571D01*
X131794819Y-110793571D02*
X131794819Y-110698333D01*
X131794819Y-110698333D02*
X131842438Y-110555476D01*
X131842438Y-110555476D02*
X131890057Y-110507857D01*
X131794819Y-109603095D02*
X131794819Y-110079285D01*
X131794819Y-110079285D02*
X132271009Y-110126904D01*
X132271009Y-110126904D02*
X132223390Y-110079285D01*
X132223390Y-110079285D02*
X132175771Y-109984047D01*
X132175771Y-109984047D02*
X132175771Y-109745952D01*
X132175771Y-109745952D02*
X132223390Y-109650714D01*
X132223390Y-109650714D02*
X132271009Y-109603095D01*
X132271009Y-109603095D02*
X132366247Y-109555476D01*
X132366247Y-109555476D02*
X132604342Y-109555476D01*
X132604342Y-109555476D02*
X132699580Y-109603095D01*
X132699580Y-109603095D02*
X132747200Y-109650714D01*
X132747200Y-109650714D02*
X132794819Y-109745952D01*
X132794819Y-109745952D02*
X132794819Y-109984047D01*
X132794819Y-109984047D02*
X132747200Y-110079285D01*
X132747200Y-110079285D02*
X132699580Y-110126904D01*
X131794819Y-108936428D02*
X131794819Y-108841190D01*
X131794819Y-108841190D02*
X131842438Y-108745952D01*
X131842438Y-108745952D02*
X131890057Y-108698333D01*
X131890057Y-108698333D02*
X131985295Y-108650714D01*
X131985295Y-108650714D02*
X132175771Y-108603095D01*
X132175771Y-108603095D02*
X132413866Y-108603095D01*
X132413866Y-108603095D02*
X132604342Y-108650714D01*
X132604342Y-108650714D02*
X132699580Y-108698333D01*
X132699580Y-108698333D02*
X132747200Y-108745952D01*
X132747200Y-108745952D02*
X132794819Y-108841190D01*
X132794819Y-108841190D02*
X132794819Y-108936428D01*
X132794819Y-108936428D02*
X132747200Y-109031666D01*
X132747200Y-109031666D02*
X132699580Y-109079285D01*
X132699580Y-109079285D02*
X132604342Y-109126904D01*
X132604342Y-109126904D02*
X132413866Y-109174523D01*
X132413866Y-109174523D02*
X132175771Y-109174523D01*
X132175771Y-109174523D02*
X131985295Y-109126904D01*
X131985295Y-109126904D02*
X131890057Y-109079285D01*
X131890057Y-109079285D02*
X131842438Y-109031666D01*
X131842438Y-109031666D02*
X131794819Y-108936428D01*
X114632143Y-75585819D02*
X114298810Y-75109628D01*
X114060715Y-75585819D02*
X114060715Y-74585819D01*
X114060715Y-74585819D02*
X114441667Y-74585819D01*
X114441667Y-74585819D02*
X114536905Y-74633438D01*
X114536905Y-74633438D02*
X114584524Y-74681057D01*
X114584524Y-74681057D02*
X114632143Y-74776295D01*
X114632143Y-74776295D02*
X114632143Y-74919152D01*
X114632143Y-74919152D02*
X114584524Y-75014390D01*
X114584524Y-75014390D02*
X114536905Y-75062009D01*
X114536905Y-75062009D02*
X114441667Y-75109628D01*
X114441667Y-75109628D02*
X114060715Y-75109628D01*
X115536905Y-74585819D02*
X115060715Y-74585819D01*
X115060715Y-74585819D02*
X115013096Y-75062009D01*
X115013096Y-75062009D02*
X115060715Y-75014390D01*
X115060715Y-75014390D02*
X115155953Y-74966771D01*
X115155953Y-74966771D02*
X115394048Y-74966771D01*
X115394048Y-74966771D02*
X115489286Y-75014390D01*
X115489286Y-75014390D02*
X115536905Y-75062009D01*
X115536905Y-75062009D02*
X115584524Y-75157247D01*
X115584524Y-75157247D02*
X115584524Y-75395342D01*
X115584524Y-75395342D02*
X115536905Y-75490580D01*
X115536905Y-75490580D02*
X115489286Y-75538200D01*
X115489286Y-75538200D02*
X115394048Y-75585819D01*
X115394048Y-75585819D02*
X115155953Y-75585819D01*
X115155953Y-75585819D02*
X115060715Y-75538200D01*
X115060715Y-75538200D02*
X115013096Y-75490580D01*
X116536905Y-75585819D02*
X115965477Y-75585819D01*
X116251191Y-75585819D02*
X116251191Y-74585819D01*
X116251191Y-74585819D02*
X116155953Y-74728676D01*
X116155953Y-74728676D02*
X116060715Y-74823914D01*
X116060715Y-74823914D02*
X115965477Y-74871533D01*
X107959579Y-110507857D02*
X108007199Y-110555476D01*
X108007199Y-110555476D02*
X108054818Y-110698333D01*
X108054818Y-110698333D02*
X108054818Y-110793571D01*
X108054818Y-110793571D02*
X108007199Y-110936428D01*
X108007199Y-110936428D02*
X107911960Y-111031666D01*
X107911960Y-111031666D02*
X107816722Y-111079285D01*
X107816722Y-111079285D02*
X107626246Y-111126904D01*
X107626246Y-111126904D02*
X107483389Y-111126904D01*
X107483389Y-111126904D02*
X107292913Y-111079285D01*
X107292913Y-111079285D02*
X107197675Y-111031666D01*
X107197675Y-111031666D02*
X107102437Y-110936428D01*
X107102437Y-110936428D02*
X107054818Y-110793571D01*
X107054818Y-110793571D02*
X107054818Y-110698333D01*
X107054818Y-110698333D02*
X107102437Y-110555476D01*
X107102437Y-110555476D02*
X107150056Y-110507857D01*
X107054818Y-110174523D02*
X107054818Y-109555476D01*
X107054818Y-109555476D02*
X107435770Y-109888809D01*
X107435770Y-109888809D02*
X107435770Y-109745952D01*
X107435770Y-109745952D02*
X107483389Y-109650714D01*
X107483389Y-109650714D02*
X107531008Y-109603095D01*
X107531008Y-109603095D02*
X107626246Y-109555476D01*
X107626246Y-109555476D02*
X107864341Y-109555476D01*
X107864341Y-109555476D02*
X107959579Y-109603095D01*
X107959579Y-109603095D02*
X108007199Y-109650714D01*
X108007199Y-109650714D02*
X108054818Y-109745952D01*
X108054818Y-109745952D02*
X108054818Y-110031666D01*
X108054818Y-110031666D02*
X108007199Y-110126904D01*
X108007199Y-110126904D02*
X107959579Y-110174523D01*
X108054818Y-109079285D02*
X108054818Y-108888809D01*
X108054818Y-108888809D02*
X108007199Y-108793571D01*
X108007199Y-108793571D02*
X107959579Y-108745952D01*
X107959579Y-108745952D02*
X107816722Y-108650714D01*
X107816722Y-108650714D02*
X107626246Y-108603095D01*
X107626246Y-108603095D02*
X107245294Y-108603095D01*
X107245294Y-108603095D02*
X107150056Y-108650714D01*
X107150056Y-108650714D02*
X107102437Y-108698333D01*
X107102437Y-108698333D02*
X107054818Y-108793571D01*
X107054818Y-108793571D02*
X107054818Y-108984047D01*
X107054818Y-108984047D02*
X107102437Y-109079285D01*
X107102437Y-109079285D02*
X107150056Y-109126904D01*
X107150056Y-109126904D02*
X107245294Y-109174523D01*
X107245294Y-109174523D02*
X107483389Y-109174523D01*
X107483389Y-109174523D02*
X107578627Y-109126904D01*
X107578627Y-109126904D02*
X107626246Y-109079285D01*
X107626246Y-109079285D02*
X107673865Y-108984047D01*
X107673865Y-108984047D02*
X107673865Y-108793571D01*
X107673865Y-108793571D02*
X107626246Y-108698333D01*
X107626246Y-108698333D02*
X107578627Y-108650714D01*
X107578627Y-108650714D02*
X107483389Y-108603095D01*
X158083333Y-62949580D02*
X158035714Y-62997200D01*
X158035714Y-62997200D02*
X157892857Y-63044819D01*
X157892857Y-63044819D02*
X157797619Y-63044819D01*
X157797619Y-63044819D02*
X157654762Y-62997200D01*
X157654762Y-62997200D02*
X157559524Y-62901961D01*
X157559524Y-62901961D02*
X157511905Y-62806723D01*
X157511905Y-62806723D02*
X157464286Y-62616247D01*
X157464286Y-62616247D02*
X157464286Y-62473390D01*
X157464286Y-62473390D02*
X157511905Y-62282914D01*
X157511905Y-62282914D02*
X157559524Y-62187676D01*
X157559524Y-62187676D02*
X157654762Y-62092438D01*
X157654762Y-62092438D02*
X157797619Y-62044819D01*
X157797619Y-62044819D02*
X157892857Y-62044819D01*
X157892857Y-62044819D02*
X158035714Y-62092438D01*
X158035714Y-62092438D02*
X158083333Y-62140057D01*
X158416667Y-62044819D02*
X159035714Y-62044819D01*
X159035714Y-62044819D02*
X158702381Y-62425771D01*
X158702381Y-62425771D02*
X158845238Y-62425771D01*
X158845238Y-62425771D02*
X158940476Y-62473390D01*
X158940476Y-62473390D02*
X158988095Y-62521009D01*
X158988095Y-62521009D02*
X159035714Y-62616247D01*
X159035714Y-62616247D02*
X159035714Y-62854342D01*
X159035714Y-62854342D02*
X158988095Y-62949580D01*
X158988095Y-62949580D02*
X158940476Y-62997200D01*
X158940476Y-62997200D02*
X158845238Y-63044819D01*
X158845238Y-63044819D02*
X158559524Y-63044819D01*
X158559524Y-63044819D02*
X158464286Y-62997200D01*
X158464286Y-62997200D02*
X158416667Y-62949580D01*
X157359580Y-110507857D02*
X157407200Y-110555476D01*
X157407200Y-110555476D02*
X157454819Y-110698333D01*
X157454819Y-110698333D02*
X157454819Y-110793571D01*
X157454819Y-110793571D02*
X157407200Y-110936428D01*
X157407200Y-110936428D02*
X157311961Y-111031666D01*
X157311961Y-111031666D02*
X157216723Y-111079285D01*
X157216723Y-111079285D02*
X157026247Y-111126904D01*
X157026247Y-111126904D02*
X156883390Y-111126904D01*
X156883390Y-111126904D02*
X156692914Y-111079285D01*
X156692914Y-111079285D02*
X156597676Y-111031666D01*
X156597676Y-111031666D02*
X156502438Y-110936428D01*
X156502438Y-110936428D02*
X156454819Y-110793571D01*
X156454819Y-110793571D02*
X156454819Y-110698333D01*
X156454819Y-110698333D02*
X156502438Y-110555476D01*
X156502438Y-110555476D02*
X156550057Y-110507857D01*
X156454819Y-110174523D02*
X156454819Y-109555476D01*
X156454819Y-109555476D02*
X156835771Y-109888809D01*
X156835771Y-109888809D02*
X156835771Y-109745952D01*
X156835771Y-109745952D02*
X156883390Y-109650714D01*
X156883390Y-109650714D02*
X156931009Y-109603095D01*
X156931009Y-109603095D02*
X157026247Y-109555476D01*
X157026247Y-109555476D02*
X157264342Y-109555476D01*
X157264342Y-109555476D02*
X157359580Y-109603095D01*
X157359580Y-109603095D02*
X157407200Y-109650714D01*
X157407200Y-109650714D02*
X157454819Y-109745952D01*
X157454819Y-109745952D02*
X157454819Y-110031666D01*
X157454819Y-110031666D02*
X157407200Y-110126904D01*
X157407200Y-110126904D02*
X157359580Y-110174523D01*
X156454819Y-109222142D02*
X156454819Y-108603095D01*
X156454819Y-108603095D02*
X156835771Y-108936428D01*
X156835771Y-108936428D02*
X156835771Y-108793571D01*
X156835771Y-108793571D02*
X156883390Y-108698333D01*
X156883390Y-108698333D02*
X156931009Y-108650714D01*
X156931009Y-108650714D02*
X157026247Y-108603095D01*
X157026247Y-108603095D02*
X157264342Y-108603095D01*
X157264342Y-108603095D02*
X157359580Y-108650714D01*
X157359580Y-108650714D02*
X157407200Y-108698333D01*
X157407200Y-108698333D02*
X157454819Y-108793571D01*
X157454819Y-108793571D02*
X157454819Y-109079285D01*
X157454819Y-109079285D02*
X157407200Y-109174523D01*
X157407200Y-109174523D02*
X157359580Y-109222142D01*
X157894642Y-118489819D02*
X157561309Y-118013628D01*
X157323214Y-118489819D02*
X157323214Y-117489819D01*
X157323214Y-117489819D02*
X157704166Y-117489819D01*
X157704166Y-117489819D02*
X157799404Y-117537438D01*
X157799404Y-117537438D02*
X157847023Y-117585057D01*
X157847023Y-117585057D02*
X157894642Y-117680295D01*
X157894642Y-117680295D02*
X157894642Y-117823152D01*
X157894642Y-117823152D02*
X157847023Y-117918390D01*
X157847023Y-117918390D02*
X157799404Y-117966009D01*
X157799404Y-117966009D02*
X157704166Y-118013628D01*
X157704166Y-118013628D02*
X157323214Y-118013628D01*
X158227976Y-117489819D02*
X158847023Y-117489819D01*
X158847023Y-117489819D02*
X158513690Y-117870771D01*
X158513690Y-117870771D02*
X158656547Y-117870771D01*
X158656547Y-117870771D02*
X158751785Y-117918390D01*
X158751785Y-117918390D02*
X158799404Y-117966009D01*
X158799404Y-117966009D02*
X158847023Y-118061247D01*
X158847023Y-118061247D02*
X158847023Y-118299342D01*
X158847023Y-118299342D02*
X158799404Y-118394580D01*
X158799404Y-118394580D02*
X158751785Y-118442200D01*
X158751785Y-118442200D02*
X158656547Y-118489819D01*
X158656547Y-118489819D02*
X158370833Y-118489819D01*
X158370833Y-118489819D02*
X158275595Y-118442200D01*
X158275595Y-118442200D02*
X158227976Y-118394580D01*
X159799404Y-118489819D02*
X159227976Y-118489819D01*
X159513690Y-118489819D02*
X159513690Y-117489819D01*
X159513690Y-117489819D02*
X159418452Y-117632676D01*
X159418452Y-117632676D02*
X159323214Y-117727914D01*
X159323214Y-117727914D02*
X159227976Y-117775533D01*
X155159580Y-114187857D02*
X155207200Y-114235476D01*
X155207200Y-114235476D02*
X155254819Y-114378333D01*
X155254819Y-114378333D02*
X155254819Y-114473571D01*
X155254819Y-114473571D02*
X155207200Y-114616428D01*
X155207200Y-114616428D02*
X155111961Y-114711666D01*
X155111961Y-114711666D02*
X155016723Y-114759285D01*
X155016723Y-114759285D02*
X154826247Y-114806904D01*
X154826247Y-114806904D02*
X154683390Y-114806904D01*
X154683390Y-114806904D02*
X154492914Y-114759285D01*
X154492914Y-114759285D02*
X154397676Y-114711666D01*
X154397676Y-114711666D02*
X154302438Y-114616428D01*
X154302438Y-114616428D02*
X154254819Y-114473571D01*
X154254819Y-114473571D02*
X154254819Y-114378333D01*
X154254819Y-114378333D02*
X154302438Y-114235476D01*
X154302438Y-114235476D02*
X154350057Y-114187857D01*
X154254819Y-113854523D02*
X154254819Y-113235476D01*
X154254819Y-113235476D02*
X154635771Y-113568809D01*
X154635771Y-113568809D02*
X154635771Y-113425952D01*
X154635771Y-113425952D02*
X154683390Y-113330714D01*
X154683390Y-113330714D02*
X154731009Y-113283095D01*
X154731009Y-113283095D02*
X154826247Y-113235476D01*
X154826247Y-113235476D02*
X155064342Y-113235476D01*
X155064342Y-113235476D02*
X155159580Y-113283095D01*
X155159580Y-113283095D02*
X155207200Y-113330714D01*
X155207200Y-113330714D02*
X155254819Y-113425952D01*
X155254819Y-113425952D02*
X155254819Y-113711666D01*
X155254819Y-113711666D02*
X155207200Y-113806904D01*
X155207200Y-113806904D02*
X155159580Y-113854523D01*
X154350057Y-112854523D02*
X154302438Y-112806904D01*
X154302438Y-112806904D02*
X154254819Y-112711666D01*
X154254819Y-112711666D02*
X154254819Y-112473571D01*
X154254819Y-112473571D02*
X154302438Y-112378333D01*
X154302438Y-112378333D02*
X154350057Y-112330714D01*
X154350057Y-112330714D02*
X154445295Y-112283095D01*
X154445295Y-112283095D02*
X154540533Y-112283095D01*
X154540533Y-112283095D02*
X154683390Y-112330714D01*
X154683390Y-112330714D02*
X155254819Y-112902142D01*
X155254819Y-112902142D02*
X155254819Y-112283095D01*
D12*
X152324318Y-120937381D02*
X151054318Y-120937381D01*
X151054318Y-120937381D02*
X151054318Y-120635000D01*
X151054318Y-120635000D02*
X151114794Y-120453571D01*
X151114794Y-120453571D02*
X151235746Y-120332619D01*
X151235746Y-120332619D02*
X151356699Y-120272142D01*
X151356699Y-120272142D02*
X151598603Y-120211666D01*
X151598603Y-120211666D02*
X151780032Y-120211666D01*
X151780032Y-120211666D02*
X152021937Y-120272142D01*
X152021937Y-120272142D02*
X152142889Y-120332619D01*
X152142889Y-120332619D02*
X152263842Y-120453571D01*
X152263842Y-120453571D02*
X152324318Y-120635000D01*
X152324318Y-120635000D02*
X152324318Y-120937381D01*
X152324318Y-119606904D02*
X152324318Y-119365000D01*
X152324318Y-119365000D02*
X152263842Y-119244047D01*
X152263842Y-119244047D02*
X152203365Y-119183571D01*
X152203365Y-119183571D02*
X152021937Y-119062619D01*
X152021937Y-119062619D02*
X151780032Y-119002142D01*
X151780032Y-119002142D02*
X151296222Y-119002142D01*
X151296222Y-119002142D02*
X151175270Y-119062619D01*
X151175270Y-119062619D02*
X151114794Y-119123095D01*
X151114794Y-119123095D02*
X151054318Y-119244047D01*
X151054318Y-119244047D02*
X151054318Y-119485952D01*
X151054318Y-119485952D02*
X151114794Y-119606904D01*
X151114794Y-119606904D02*
X151175270Y-119667381D01*
X151175270Y-119667381D02*
X151296222Y-119727857D01*
X151296222Y-119727857D02*
X151598603Y-119727857D01*
X151598603Y-119727857D02*
X151719556Y-119667381D01*
X151719556Y-119667381D02*
X151780032Y-119606904D01*
X151780032Y-119606904D02*
X151840508Y-119485952D01*
X151840508Y-119485952D02*
X151840508Y-119244047D01*
X151840508Y-119244047D02*
X151780032Y-119123095D01*
X151780032Y-119123095D02*
X151719556Y-119062619D01*
X151719556Y-119062619D02*
X151598603Y-119002142D01*
D11*
X105759579Y-114187857D02*
X105807199Y-114235476D01*
X105807199Y-114235476D02*
X105854818Y-114378333D01*
X105854818Y-114378333D02*
X105854818Y-114473571D01*
X105854818Y-114473571D02*
X105807199Y-114616428D01*
X105807199Y-114616428D02*
X105711960Y-114711666D01*
X105711960Y-114711666D02*
X105616722Y-114759285D01*
X105616722Y-114759285D02*
X105426246Y-114806904D01*
X105426246Y-114806904D02*
X105283389Y-114806904D01*
X105283389Y-114806904D02*
X105092913Y-114759285D01*
X105092913Y-114759285D02*
X104997675Y-114711666D01*
X104997675Y-114711666D02*
X104902437Y-114616428D01*
X104902437Y-114616428D02*
X104854818Y-114473571D01*
X104854818Y-114473571D02*
X104854818Y-114378333D01*
X104854818Y-114378333D02*
X104902437Y-114235476D01*
X104902437Y-114235476D02*
X104950056Y-114187857D01*
X104854818Y-113854523D02*
X104854818Y-113235476D01*
X104854818Y-113235476D02*
X105235770Y-113568809D01*
X105235770Y-113568809D02*
X105235770Y-113425952D01*
X105235770Y-113425952D02*
X105283389Y-113330714D01*
X105283389Y-113330714D02*
X105331008Y-113283095D01*
X105331008Y-113283095D02*
X105426246Y-113235476D01*
X105426246Y-113235476D02*
X105664341Y-113235476D01*
X105664341Y-113235476D02*
X105759579Y-113283095D01*
X105759579Y-113283095D02*
X105807199Y-113330714D01*
X105807199Y-113330714D02*
X105854818Y-113425952D01*
X105854818Y-113425952D02*
X105854818Y-113711666D01*
X105854818Y-113711666D02*
X105807199Y-113806904D01*
X105807199Y-113806904D02*
X105759579Y-113854523D01*
X105283389Y-112664047D02*
X105235770Y-112759285D01*
X105235770Y-112759285D02*
X105188151Y-112806904D01*
X105188151Y-112806904D02*
X105092913Y-112854523D01*
X105092913Y-112854523D02*
X105045294Y-112854523D01*
X105045294Y-112854523D02*
X104950056Y-112806904D01*
X104950056Y-112806904D02*
X104902437Y-112759285D01*
X104902437Y-112759285D02*
X104854818Y-112664047D01*
X104854818Y-112664047D02*
X104854818Y-112473571D01*
X104854818Y-112473571D02*
X104902437Y-112378333D01*
X104902437Y-112378333D02*
X104950056Y-112330714D01*
X104950056Y-112330714D02*
X105045294Y-112283095D01*
X105045294Y-112283095D02*
X105092913Y-112283095D01*
X105092913Y-112283095D02*
X105188151Y-112330714D01*
X105188151Y-112330714D02*
X105235770Y-112378333D01*
X105235770Y-112378333D02*
X105283389Y-112473571D01*
X105283389Y-112473571D02*
X105283389Y-112664047D01*
X105283389Y-112664047D02*
X105331008Y-112759285D01*
X105331008Y-112759285D02*
X105378627Y-112806904D01*
X105378627Y-112806904D02*
X105473865Y-112854523D01*
X105473865Y-112854523D02*
X105664341Y-112854523D01*
X105664341Y-112854523D02*
X105759579Y-112806904D01*
X105759579Y-112806904D02*
X105807199Y-112759285D01*
X105807199Y-112759285D02*
X105854818Y-112664047D01*
X105854818Y-112664047D02*
X105854818Y-112473571D01*
X105854818Y-112473571D02*
X105807199Y-112378333D01*
X105807199Y-112378333D02*
X105759579Y-112330714D01*
X105759579Y-112330714D02*
X105664341Y-112283095D01*
X105664341Y-112283095D02*
X105473865Y-112283095D01*
X105473865Y-112283095D02*
X105378627Y-112330714D01*
X105378627Y-112330714D02*
X105331008Y-112378333D01*
X105331008Y-112378333D02*
X105283389Y-112473571D01*
X170599579Y-107987857D02*
X170647199Y-108035476D01*
X170647199Y-108035476D02*
X170694818Y-108178333D01*
X170694818Y-108178333D02*
X170694818Y-108273571D01*
X170694818Y-108273571D02*
X170647199Y-108416428D01*
X170647199Y-108416428D02*
X170551960Y-108511666D01*
X170551960Y-108511666D02*
X170456722Y-108559285D01*
X170456722Y-108559285D02*
X170266246Y-108606904D01*
X170266246Y-108606904D02*
X170123389Y-108606904D01*
X170123389Y-108606904D02*
X169932913Y-108559285D01*
X169932913Y-108559285D02*
X169837675Y-108511666D01*
X169837675Y-108511666D02*
X169742437Y-108416428D01*
X169742437Y-108416428D02*
X169694818Y-108273571D01*
X169694818Y-108273571D02*
X169694818Y-108178333D01*
X169694818Y-108178333D02*
X169742437Y-108035476D01*
X169742437Y-108035476D02*
X169790056Y-107987857D01*
X169694818Y-107654523D02*
X169694818Y-107035476D01*
X169694818Y-107035476D02*
X170075770Y-107368809D01*
X170075770Y-107368809D02*
X170075770Y-107225952D01*
X170075770Y-107225952D02*
X170123389Y-107130714D01*
X170123389Y-107130714D02*
X170171008Y-107083095D01*
X170171008Y-107083095D02*
X170266246Y-107035476D01*
X170266246Y-107035476D02*
X170504341Y-107035476D01*
X170504341Y-107035476D02*
X170599579Y-107083095D01*
X170599579Y-107083095D02*
X170647199Y-107130714D01*
X170647199Y-107130714D02*
X170694818Y-107225952D01*
X170694818Y-107225952D02*
X170694818Y-107511666D01*
X170694818Y-107511666D02*
X170647199Y-107606904D01*
X170647199Y-107606904D02*
X170599579Y-107654523D01*
X170694818Y-106083095D02*
X170694818Y-106654523D01*
X170694818Y-106368809D02*
X169694818Y-106368809D01*
X169694818Y-106368809D02*
X169837675Y-106464047D01*
X169837675Y-106464047D02*
X169932913Y-106559285D01*
X169932913Y-106559285D02*
X169980532Y-106654523D01*
X175084818Y-107867857D02*
X174608627Y-108201190D01*
X175084818Y-108439285D02*
X174084818Y-108439285D01*
X174084818Y-108439285D02*
X174084818Y-108058333D01*
X174084818Y-108058333D02*
X174132437Y-107963095D01*
X174132437Y-107963095D02*
X174180056Y-107915476D01*
X174180056Y-107915476D02*
X174275294Y-107867857D01*
X174275294Y-107867857D02*
X174418151Y-107867857D01*
X174418151Y-107867857D02*
X174513389Y-107915476D01*
X174513389Y-107915476D02*
X174561008Y-107963095D01*
X174561008Y-107963095D02*
X174608627Y-108058333D01*
X174608627Y-108058333D02*
X174608627Y-108439285D01*
X174180056Y-107486904D02*
X174132437Y-107439285D01*
X174132437Y-107439285D02*
X174084818Y-107344047D01*
X174084818Y-107344047D02*
X174084818Y-107105952D01*
X174084818Y-107105952D02*
X174132437Y-107010714D01*
X174132437Y-107010714D02*
X174180056Y-106963095D01*
X174180056Y-106963095D02*
X174275294Y-106915476D01*
X174275294Y-106915476D02*
X174370532Y-106915476D01*
X174370532Y-106915476D02*
X174513389Y-106963095D01*
X174513389Y-106963095D02*
X175084818Y-107534523D01*
X175084818Y-107534523D02*
X175084818Y-106915476D01*
X175084818Y-106439285D02*
X175084818Y-106248809D01*
X175084818Y-106248809D02*
X175037199Y-106153571D01*
X175037199Y-106153571D02*
X174989579Y-106105952D01*
X174989579Y-106105952D02*
X174846722Y-106010714D01*
X174846722Y-106010714D02*
X174656246Y-105963095D01*
X174656246Y-105963095D02*
X174275294Y-105963095D01*
X174275294Y-105963095D02*
X174180056Y-106010714D01*
X174180056Y-106010714D02*
X174132437Y-106058333D01*
X174132437Y-106058333D02*
X174084818Y-106153571D01*
X174084818Y-106153571D02*
X174084818Y-106344047D01*
X174084818Y-106344047D02*
X174132437Y-106439285D01*
X174132437Y-106439285D02*
X174180056Y-106486904D01*
X174180056Y-106486904D02*
X174275294Y-106534523D01*
X174275294Y-106534523D02*
X174513389Y-106534523D01*
X174513389Y-106534523D02*
X174608627Y-106486904D01*
X174608627Y-106486904D02*
X174656246Y-106439285D01*
X174656246Y-106439285D02*
X174703865Y-106344047D01*
X174703865Y-106344047D02*
X174703865Y-106153571D01*
X174703865Y-106153571D02*
X174656246Y-106058333D01*
X174656246Y-106058333D02*
X174608627Y-106010714D01*
X174608627Y-106010714D02*
X174513389Y-105963095D01*
X161404819Y-88974404D02*
X162214342Y-88974404D01*
X162214342Y-88974404D02*
X162309580Y-88926785D01*
X162309580Y-88926785D02*
X162357200Y-88879166D01*
X162357200Y-88879166D02*
X162404819Y-88783928D01*
X162404819Y-88783928D02*
X162404819Y-88593452D01*
X162404819Y-88593452D02*
X162357200Y-88498214D01*
X162357200Y-88498214D02*
X162309580Y-88450595D01*
X162309580Y-88450595D02*
X162214342Y-88402976D01*
X162214342Y-88402976D02*
X161404819Y-88402976D01*
X161500057Y-87974404D02*
X161452438Y-87926785D01*
X161452438Y-87926785D02*
X161404819Y-87831547D01*
X161404819Y-87831547D02*
X161404819Y-87593452D01*
X161404819Y-87593452D02*
X161452438Y-87498214D01*
X161452438Y-87498214D02*
X161500057Y-87450595D01*
X161500057Y-87450595D02*
X161595295Y-87402976D01*
X161595295Y-87402976D02*
X161690533Y-87402976D01*
X161690533Y-87402976D02*
X161833390Y-87450595D01*
X161833390Y-87450595D02*
X162404819Y-88022023D01*
X162404819Y-88022023D02*
X162404819Y-87402976D01*
D12*
X153707856Y-133074318D02*
X153707856Y-131804318D01*
X153707856Y-131804318D02*
X154010237Y-131804318D01*
X154010237Y-131804318D02*
X154191666Y-131864794D01*
X154191666Y-131864794D02*
X154312618Y-131985746D01*
X154312618Y-131985746D02*
X154373095Y-132106699D01*
X154373095Y-132106699D02*
X154433571Y-132348603D01*
X154433571Y-132348603D02*
X154433571Y-132530032D01*
X154433571Y-132530032D02*
X154373095Y-132771937D01*
X154373095Y-132771937D02*
X154312618Y-132892889D01*
X154312618Y-132892889D02*
X154191666Y-133013842D01*
X154191666Y-133013842D02*
X154010237Y-133074318D01*
X154010237Y-133074318D02*
X153707856Y-133074318D01*
X155643095Y-133074318D02*
X154917380Y-133074318D01*
X155280237Y-133074318D02*
X155280237Y-131804318D01*
X155280237Y-131804318D02*
X155159285Y-131985746D01*
X155159285Y-131985746D02*
X155038333Y-132106699D01*
X155038333Y-132106699D02*
X154917380Y-132167175D01*
X156429285Y-131804318D02*
X156550238Y-131804318D01*
X156550238Y-131804318D02*
X156671190Y-131864794D01*
X156671190Y-131864794D02*
X156731666Y-131925270D01*
X156731666Y-131925270D02*
X156792142Y-132046222D01*
X156792142Y-132046222D02*
X156852619Y-132288127D01*
X156852619Y-132288127D02*
X156852619Y-132590508D01*
X156852619Y-132590508D02*
X156792142Y-132832413D01*
X156792142Y-132832413D02*
X156731666Y-132953365D01*
X156731666Y-132953365D02*
X156671190Y-133013842D01*
X156671190Y-133013842D02*
X156550238Y-133074318D01*
X156550238Y-133074318D02*
X156429285Y-133074318D01*
X156429285Y-133074318D02*
X156308333Y-133013842D01*
X156308333Y-133013842D02*
X156247857Y-132953365D01*
X156247857Y-132953365D02*
X156187380Y-132832413D01*
X156187380Y-132832413D02*
X156126904Y-132590508D01*
X156126904Y-132590508D02*
X156126904Y-132288127D01*
X156126904Y-132288127D02*
X156187380Y-132046222D01*
X156187380Y-132046222D02*
X156247857Y-131925270D01*
X156247857Y-131925270D02*
X156308333Y-131864794D01*
X156308333Y-131864794D02*
X156429285Y-131804318D01*
D11*
X123488095Y-83704819D02*
X123488095Y-84514342D01*
X123488095Y-84514342D02*
X123535714Y-84609580D01*
X123535714Y-84609580D02*
X123583333Y-84657200D01*
X123583333Y-84657200D02*
X123678571Y-84704819D01*
X123678571Y-84704819D02*
X123869047Y-84704819D01*
X123869047Y-84704819D02*
X123964285Y-84657200D01*
X123964285Y-84657200D02*
X124011904Y-84609580D01*
X124011904Y-84609580D02*
X124059523Y-84514342D01*
X124059523Y-84514342D02*
X124059523Y-83704819D01*
X125059523Y-84704819D02*
X124488095Y-84704819D01*
X124773809Y-84704819D02*
X124773809Y-83704819D01*
X124773809Y-83704819D02*
X124678571Y-83847676D01*
X124678571Y-83847676D02*
X124583333Y-83942914D01*
X124583333Y-83942914D02*
X124488095Y-83990533D01*
D12*
X162445270Y-131370952D02*
X162384794Y-131491904D01*
X162384794Y-131491904D02*
X162263842Y-131612857D01*
X162263842Y-131612857D02*
X162082413Y-131794285D01*
X162082413Y-131794285D02*
X162021937Y-131915238D01*
X162021937Y-131915238D02*
X162021937Y-132036190D01*
X162324318Y-131975714D02*
X162263842Y-132096666D01*
X162263842Y-132096666D02*
X162142889Y-132217619D01*
X162142889Y-132217619D02*
X161900984Y-132278095D01*
X161900984Y-132278095D02*
X161477651Y-132278095D01*
X161477651Y-132278095D02*
X161235746Y-132217619D01*
X161235746Y-132217619D02*
X161114794Y-132096666D01*
X161114794Y-132096666D02*
X161054318Y-131975714D01*
X161054318Y-131975714D02*
X161054318Y-131733809D01*
X161054318Y-131733809D02*
X161114794Y-131612857D01*
X161114794Y-131612857D02*
X161235746Y-131491904D01*
X161235746Y-131491904D02*
X161477651Y-131431428D01*
X161477651Y-131431428D02*
X161900984Y-131431428D01*
X161900984Y-131431428D02*
X162142889Y-131491904D01*
X162142889Y-131491904D02*
X162263842Y-131612857D01*
X162263842Y-131612857D02*
X162324318Y-131733809D01*
X162324318Y-131733809D02*
X162324318Y-131975714D01*
X161175270Y-130947619D02*
X161114794Y-130887143D01*
X161114794Y-130887143D02*
X161054318Y-130766190D01*
X161054318Y-130766190D02*
X161054318Y-130463809D01*
X161054318Y-130463809D02*
X161114794Y-130342857D01*
X161114794Y-130342857D02*
X161175270Y-130282381D01*
X161175270Y-130282381D02*
X161296222Y-130221904D01*
X161296222Y-130221904D02*
X161417175Y-130221904D01*
X161417175Y-130221904D02*
X161598603Y-130282381D01*
X161598603Y-130282381D02*
X162324318Y-131008095D01*
X162324318Y-131008095D02*
X162324318Y-130221904D01*
D11*
X145329579Y-116707857D02*
X145377199Y-116755476D01*
X145377199Y-116755476D02*
X145424818Y-116898333D01*
X145424818Y-116898333D02*
X145424818Y-116993571D01*
X145424818Y-116993571D02*
X145377199Y-117136428D01*
X145377199Y-117136428D02*
X145281960Y-117231666D01*
X145281960Y-117231666D02*
X145186722Y-117279285D01*
X145186722Y-117279285D02*
X144996246Y-117326904D01*
X144996246Y-117326904D02*
X144853389Y-117326904D01*
X144853389Y-117326904D02*
X144662913Y-117279285D01*
X144662913Y-117279285D02*
X144567675Y-117231666D01*
X144567675Y-117231666D02*
X144472437Y-117136428D01*
X144472437Y-117136428D02*
X144424818Y-116993571D01*
X144424818Y-116993571D02*
X144424818Y-116898333D01*
X144424818Y-116898333D02*
X144472437Y-116755476D01*
X144472437Y-116755476D02*
X144520056Y-116707857D01*
X144758151Y-115850714D02*
X145424818Y-115850714D01*
X144377199Y-116088809D02*
X145091484Y-116326904D01*
X145091484Y-116326904D02*
X145091484Y-115707857D01*
X144424818Y-114898333D02*
X144424818Y-115088809D01*
X144424818Y-115088809D02*
X144472437Y-115184047D01*
X144472437Y-115184047D02*
X144520056Y-115231666D01*
X144520056Y-115231666D02*
X144662913Y-115326904D01*
X144662913Y-115326904D02*
X144853389Y-115374523D01*
X144853389Y-115374523D02*
X145234341Y-115374523D01*
X145234341Y-115374523D02*
X145329579Y-115326904D01*
X145329579Y-115326904D02*
X145377199Y-115279285D01*
X145377199Y-115279285D02*
X145424818Y-115184047D01*
X145424818Y-115184047D02*
X145424818Y-114993571D01*
X145424818Y-114993571D02*
X145377199Y-114898333D01*
X145377199Y-114898333D02*
X145329579Y-114850714D01*
X145329579Y-114850714D02*
X145234341Y-114803095D01*
X145234341Y-114803095D02*
X144996246Y-114803095D01*
X144996246Y-114803095D02*
X144901008Y-114850714D01*
X144901008Y-114850714D02*
X144853389Y-114898333D01*
X144853389Y-114898333D02*
X144805770Y-114993571D01*
X144805770Y-114993571D02*
X144805770Y-115184047D01*
X144805770Y-115184047D02*
X144853389Y-115279285D01*
X144853389Y-115279285D02*
X144901008Y-115326904D01*
X144901008Y-115326904D02*
X144996246Y-115374523D01*
X130499580Y-114187857D02*
X130547200Y-114235476D01*
X130547200Y-114235476D02*
X130594819Y-114378333D01*
X130594819Y-114378333D02*
X130594819Y-114473571D01*
X130594819Y-114473571D02*
X130547200Y-114616428D01*
X130547200Y-114616428D02*
X130451961Y-114711666D01*
X130451961Y-114711666D02*
X130356723Y-114759285D01*
X130356723Y-114759285D02*
X130166247Y-114806904D01*
X130166247Y-114806904D02*
X130023390Y-114806904D01*
X130023390Y-114806904D02*
X129832914Y-114759285D01*
X129832914Y-114759285D02*
X129737676Y-114711666D01*
X129737676Y-114711666D02*
X129642438Y-114616428D01*
X129642438Y-114616428D02*
X129594819Y-114473571D01*
X129594819Y-114473571D02*
X129594819Y-114378333D01*
X129594819Y-114378333D02*
X129642438Y-114235476D01*
X129642438Y-114235476D02*
X129690057Y-114187857D01*
X129928152Y-113330714D02*
X130594819Y-113330714D01*
X129547200Y-113568809D02*
X130261485Y-113806904D01*
X130261485Y-113806904D02*
X130261485Y-113187857D01*
X130594819Y-112759285D02*
X130594819Y-112568809D01*
X130594819Y-112568809D02*
X130547200Y-112473571D01*
X130547200Y-112473571D02*
X130499580Y-112425952D01*
X130499580Y-112425952D02*
X130356723Y-112330714D01*
X130356723Y-112330714D02*
X130166247Y-112283095D01*
X130166247Y-112283095D02*
X129785295Y-112283095D01*
X129785295Y-112283095D02*
X129690057Y-112330714D01*
X129690057Y-112330714D02*
X129642438Y-112378333D01*
X129642438Y-112378333D02*
X129594819Y-112473571D01*
X129594819Y-112473571D02*
X129594819Y-112664047D01*
X129594819Y-112664047D02*
X129642438Y-112759285D01*
X129642438Y-112759285D02*
X129690057Y-112806904D01*
X129690057Y-112806904D02*
X129785295Y-112854523D01*
X129785295Y-112854523D02*
X130023390Y-112854523D01*
X130023390Y-112854523D02*
X130118628Y-112806904D01*
X130118628Y-112806904D02*
X130166247Y-112759285D01*
X130166247Y-112759285D02*
X130213866Y-112664047D01*
X130213866Y-112664047D02*
X130213866Y-112473571D01*
X130213866Y-112473571D02*
X130166247Y-112378333D01*
X130166247Y-112378333D02*
X130118628Y-112330714D01*
X130118628Y-112330714D02*
X130023390Y-112283095D01*
X170809579Y-111932857D02*
X170857199Y-111980476D01*
X170857199Y-111980476D02*
X170904818Y-112123333D01*
X170904818Y-112123333D02*
X170904818Y-112218571D01*
X170904818Y-112218571D02*
X170857199Y-112361428D01*
X170857199Y-112361428D02*
X170761960Y-112456666D01*
X170761960Y-112456666D02*
X170666722Y-112504285D01*
X170666722Y-112504285D02*
X170476246Y-112551904D01*
X170476246Y-112551904D02*
X170333389Y-112551904D01*
X170333389Y-112551904D02*
X170142913Y-112504285D01*
X170142913Y-112504285D02*
X170047675Y-112456666D01*
X170047675Y-112456666D02*
X169952437Y-112361428D01*
X169952437Y-112361428D02*
X169904818Y-112218571D01*
X169904818Y-112218571D02*
X169904818Y-112123333D01*
X169904818Y-112123333D02*
X169952437Y-111980476D01*
X169952437Y-111980476D02*
X170000056Y-111932857D01*
X169904818Y-111599523D02*
X169904818Y-110980476D01*
X169904818Y-110980476D02*
X170285770Y-111313809D01*
X170285770Y-111313809D02*
X170285770Y-111170952D01*
X170285770Y-111170952D02*
X170333389Y-111075714D01*
X170333389Y-111075714D02*
X170381008Y-111028095D01*
X170381008Y-111028095D02*
X170476246Y-110980476D01*
X170476246Y-110980476D02*
X170714341Y-110980476D01*
X170714341Y-110980476D02*
X170809579Y-111028095D01*
X170809579Y-111028095D02*
X170857199Y-111075714D01*
X170857199Y-111075714D02*
X170904818Y-111170952D01*
X170904818Y-111170952D02*
X170904818Y-111456666D01*
X170904818Y-111456666D02*
X170857199Y-111551904D01*
X170857199Y-111551904D02*
X170809579Y-111599523D01*
X169904818Y-110361428D02*
X169904818Y-110266190D01*
X169904818Y-110266190D02*
X169952437Y-110170952D01*
X169952437Y-110170952D02*
X170000056Y-110123333D01*
X170000056Y-110123333D02*
X170095294Y-110075714D01*
X170095294Y-110075714D02*
X170285770Y-110028095D01*
X170285770Y-110028095D02*
X170523865Y-110028095D01*
X170523865Y-110028095D02*
X170714341Y-110075714D01*
X170714341Y-110075714D02*
X170809579Y-110123333D01*
X170809579Y-110123333D02*
X170857199Y-110170952D01*
X170857199Y-110170952D02*
X170904818Y-110266190D01*
X170904818Y-110266190D02*
X170904818Y-110361428D01*
X170904818Y-110361428D02*
X170857199Y-110456666D01*
X170857199Y-110456666D02*
X170809579Y-110504285D01*
X170809579Y-110504285D02*
X170714341Y-110551904D01*
X170714341Y-110551904D02*
X170523865Y-110599523D01*
X170523865Y-110599523D02*
X170285770Y-110599523D01*
X170285770Y-110599523D02*
X170095294Y-110551904D01*
X170095294Y-110551904D02*
X170000056Y-110504285D01*
X170000056Y-110504285D02*
X169952437Y-110456666D01*
X169952437Y-110456666D02*
X169904818Y-110361428D01*
X166332141Y-106219580D02*
X166284522Y-106267200D01*
X166284522Y-106267200D02*
X166141665Y-106314819D01*
X166141665Y-106314819D02*
X166046427Y-106314819D01*
X166046427Y-106314819D02*
X165903570Y-106267200D01*
X165903570Y-106267200D02*
X165808332Y-106171961D01*
X165808332Y-106171961D02*
X165760713Y-106076723D01*
X165760713Y-106076723D02*
X165713094Y-105886247D01*
X165713094Y-105886247D02*
X165713094Y-105743390D01*
X165713094Y-105743390D02*
X165760713Y-105552914D01*
X165760713Y-105552914D02*
X165808332Y-105457676D01*
X165808332Y-105457676D02*
X165903570Y-105362438D01*
X165903570Y-105362438D02*
X166046427Y-105314819D01*
X166046427Y-105314819D02*
X166141665Y-105314819D01*
X166141665Y-105314819D02*
X166284522Y-105362438D01*
X166284522Y-105362438D02*
X166332141Y-105410057D01*
X166713094Y-105410057D02*
X166760713Y-105362438D01*
X166760713Y-105362438D02*
X166855951Y-105314819D01*
X166855951Y-105314819D02*
X167094046Y-105314819D01*
X167094046Y-105314819D02*
X167189284Y-105362438D01*
X167189284Y-105362438D02*
X167236903Y-105410057D01*
X167236903Y-105410057D02*
X167284522Y-105505295D01*
X167284522Y-105505295D02*
X167284522Y-105600533D01*
X167284522Y-105600533D02*
X167236903Y-105743390D01*
X167236903Y-105743390D02*
X166665475Y-106314819D01*
X166665475Y-106314819D02*
X167284522Y-106314819D01*
X167855951Y-105743390D02*
X167760713Y-105695771D01*
X167760713Y-105695771D02*
X167713094Y-105648152D01*
X167713094Y-105648152D02*
X167665475Y-105552914D01*
X167665475Y-105552914D02*
X167665475Y-105505295D01*
X167665475Y-105505295D02*
X167713094Y-105410057D01*
X167713094Y-105410057D02*
X167760713Y-105362438D01*
X167760713Y-105362438D02*
X167855951Y-105314819D01*
X167855951Y-105314819D02*
X168046427Y-105314819D01*
X168046427Y-105314819D02*
X168141665Y-105362438D01*
X168141665Y-105362438D02*
X168189284Y-105410057D01*
X168189284Y-105410057D02*
X168236903Y-105505295D01*
X168236903Y-105505295D02*
X168236903Y-105552914D01*
X168236903Y-105552914D02*
X168189284Y-105648152D01*
X168189284Y-105648152D02*
X168141665Y-105695771D01*
X168141665Y-105695771D02*
X168046427Y-105743390D01*
X168046427Y-105743390D02*
X167855951Y-105743390D01*
X167855951Y-105743390D02*
X167760713Y-105791009D01*
X167760713Y-105791009D02*
X167713094Y-105838628D01*
X167713094Y-105838628D02*
X167665475Y-105933866D01*
X167665475Y-105933866D02*
X167665475Y-106124342D01*
X167665475Y-106124342D02*
X167713094Y-106219580D01*
X167713094Y-106219580D02*
X167760713Y-106267200D01*
X167760713Y-106267200D02*
X167855951Y-106314819D01*
X167855951Y-106314819D02*
X168046427Y-106314819D01*
X168046427Y-106314819D02*
X168141665Y-106267200D01*
X168141665Y-106267200D02*
X168189284Y-106219580D01*
X168189284Y-106219580D02*
X168236903Y-106124342D01*
X168236903Y-106124342D02*
X168236903Y-105933866D01*
X168236903Y-105933866D02*
X168189284Y-105838628D01*
X168189284Y-105838628D02*
X168141665Y-105791009D01*
X168141665Y-105791009D02*
X168046427Y-105743390D01*
X175084818Y-111242857D02*
X174608627Y-111576190D01*
X175084818Y-111814285D02*
X174084818Y-111814285D01*
X174084818Y-111814285D02*
X174084818Y-111433333D01*
X174084818Y-111433333D02*
X174132437Y-111338095D01*
X174132437Y-111338095D02*
X174180056Y-111290476D01*
X174180056Y-111290476D02*
X174275294Y-111242857D01*
X174275294Y-111242857D02*
X174418151Y-111242857D01*
X174418151Y-111242857D02*
X174513389Y-111290476D01*
X174513389Y-111290476D02*
X174561008Y-111338095D01*
X174561008Y-111338095D02*
X174608627Y-111433333D01*
X174608627Y-111433333D02*
X174608627Y-111814285D01*
X174180056Y-110861904D02*
X174132437Y-110814285D01*
X174132437Y-110814285D02*
X174084818Y-110719047D01*
X174084818Y-110719047D02*
X174084818Y-110480952D01*
X174084818Y-110480952D02*
X174132437Y-110385714D01*
X174132437Y-110385714D02*
X174180056Y-110338095D01*
X174180056Y-110338095D02*
X174275294Y-110290476D01*
X174275294Y-110290476D02*
X174370532Y-110290476D01*
X174370532Y-110290476D02*
X174513389Y-110338095D01*
X174513389Y-110338095D02*
X175084818Y-110909523D01*
X175084818Y-110909523D02*
X175084818Y-110290476D01*
X174513389Y-109719047D02*
X174465770Y-109814285D01*
X174465770Y-109814285D02*
X174418151Y-109861904D01*
X174418151Y-109861904D02*
X174322913Y-109909523D01*
X174322913Y-109909523D02*
X174275294Y-109909523D01*
X174275294Y-109909523D02*
X174180056Y-109861904D01*
X174180056Y-109861904D02*
X174132437Y-109814285D01*
X174132437Y-109814285D02*
X174084818Y-109719047D01*
X174084818Y-109719047D02*
X174084818Y-109528571D01*
X174084818Y-109528571D02*
X174132437Y-109433333D01*
X174132437Y-109433333D02*
X174180056Y-109385714D01*
X174180056Y-109385714D02*
X174275294Y-109338095D01*
X174275294Y-109338095D02*
X174322913Y-109338095D01*
X174322913Y-109338095D02*
X174418151Y-109385714D01*
X174418151Y-109385714D02*
X174465770Y-109433333D01*
X174465770Y-109433333D02*
X174513389Y-109528571D01*
X174513389Y-109528571D02*
X174513389Y-109719047D01*
X174513389Y-109719047D02*
X174561008Y-109814285D01*
X174561008Y-109814285D02*
X174608627Y-109861904D01*
X174608627Y-109861904D02*
X174703865Y-109909523D01*
X174703865Y-109909523D02*
X174894341Y-109909523D01*
X174894341Y-109909523D02*
X174989579Y-109861904D01*
X174989579Y-109861904D02*
X175037199Y-109814285D01*
X175037199Y-109814285D02*
X175084818Y-109719047D01*
X175084818Y-109719047D02*
X175084818Y-109528571D01*
X175084818Y-109528571D02*
X175037199Y-109433333D01*
X175037199Y-109433333D02*
X174989579Y-109385714D01*
X174989579Y-109385714D02*
X174894341Y-109338095D01*
X174894341Y-109338095D02*
X174703865Y-109338095D01*
X174703865Y-109338095D02*
X174608627Y-109385714D01*
X174608627Y-109385714D02*
X174561008Y-109433333D01*
X174561008Y-109433333D02*
X174513389Y-109528571D01*
X129666666Y-133505818D02*
X129666666Y-134220103D01*
X129666666Y-134220103D02*
X129619047Y-134362960D01*
X129619047Y-134362960D02*
X129523809Y-134458199D01*
X129523809Y-134458199D02*
X129380952Y-134505818D01*
X129380952Y-134505818D02*
X129285714Y-134505818D01*
X130095238Y-133601056D02*
X130142857Y-133553437D01*
X130142857Y-133553437D02*
X130238095Y-133505818D01*
X130238095Y-133505818D02*
X130476190Y-133505818D01*
X130476190Y-133505818D02*
X130571428Y-133553437D01*
X130571428Y-133553437D02*
X130619047Y-133601056D01*
X130619047Y-133601056D02*
X130666666Y-133696294D01*
X130666666Y-133696294D02*
X130666666Y-133791532D01*
X130666666Y-133791532D02*
X130619047Y-133934389D01*
X130619047Y-133934389D02*
X130047619Y-134505818D01*
X130047619Y-134505818D02*
X130666666Y-134505818D01*
X170454819Y-79622856D02*
X170454819Y-79051428D01*
X171454819Y-79337142D02*
X170454819Y-79337142D01*
X171454819Y-78718094D02*
X170454819Y-78718094D01*
X170454819Y-78718094D02*
X170454819Y-78337142D01*
X170454819Y-78337142D02*
X170502438Y-78241904D01*
X170502438Y-78241904D02*
X170550057Y-78194285D01*
X170550057Y-78194285D02*
X170645295Y-78146666D01*
X170645295Y-78146666D02*
X170788152Y-78146666D01*
X170788152Y-78146666D02*
X170883390Y-78194285D01*
X170883390Y-78194285D02*
X170931009Y-78241904D01*
X170931009Y-78241904D02*
X170978628Y-78337142D01*
X170978628Y-78337142D02*
X170978628Y-78718094D01*
X170454819Y-77289523D02*
X170454819Y-77479999D01*
X170454819Y-77479999D02*
X170502438Y-77575237D01*
X170502438Y-77575237D02*
X170550057Y-77622856D01*
X170550057Y-77622856D02*
X170692914Y-77718094D01*
X170692914Y-77718094D02*
X170883390Y-77765713D01*
X170883390Y-77765713D02*
X171264342Y-77765713D01*
X171264342Y-77765713D02*
X171359580Y-77718094D01*
X171359580Y-77718094D02*
X171407200Y-77670475D01*
X171407200Y-77670475D02*
X171454819Y-77575237D01*
X171454819Y-77575237D02*
X171454819Y-77384761D01*
X171454819Y-77384761D02*
X171407200Y-77289523D01*
X171407200Y-77289523D02*
X171359580Y-77241904D01*
X171359580Y-77241904D02*
X171264342Y-77194285D01*
X171264342Y-77194285D02*
X171026247Y-77194285D01*
X171026247Y-77194285D02*
X170931009Y-77241904D01*
X170931009Y-77241904D02*
X170883390Y-77289523D01*
X170883390Y-77289523D02*
X170835771Y-77384761D01*
X170835771Y-77384761D02*
X170835771Y-77575237D01*
X170835771Y-77575237D02*
X170883390Y-77670475D01*
X170883390Y-77670475D02*
X170931009Y-77718094D01*
X170931009Y-77718094D02*
X171026247Y-77765713D01*
X170883390Y-76622856D02*
X170835771Y-76718094D01*
X170835771Y-76718094D02*
X170788152Y-76765713D01*
X170788152Y-76765713D02*
X170692914Y-76813332D01*
X170692914Y-76813332D02*
X170645295Y-76813332D01*
X170645295Y-76813332D02*
X170550057Y-76765713D01*
X170550057Y-76765713D02*
X170502438Y-76718094D01*
X170502438Y-76718094D02*
X170454819Y-76622856D01*
X170454819Y-76622856D02*
X170454819Y-76432380D01*
X170454819Y-76432380D02*
X170502438Y-76337142D01*
X170502438Y-76337142D02*
X170550057Y-76289523D01*
X170550057Y-76289523D02*
X170645295Y-76241904D01*
X170645295Y-76241904D02*
X170692914Y-76241904D01*
X170692914Y-76241904D02*
X170788152Y-76289523D01*
X170788152Y-76289523D02*
X170835771Y-76337142D01*
X170835771Y-76337142D02*
X170883390Y-76432380D01*
X170883390Y-76432380D02*
X170883390Y-76622856D01*
X170883390Y-76622856D02*
X170931009Y-76718094D01*
X170931009Y-76718094D02*
X170978628Y-76765713D01*
X170978628Y-76765713D02*
X171073866Y-76813332D01*
X171073866Y-76813332D02*
X171264342Y-76813332D01*
X171264342Y-76813332D02*
X171359580Y-76765713D01*
X171359580Y-76765713D02*
X171407200Y-76718094D01*
X171407200Y-76718094D02*
X171454819Y-76622856D01*
X171454819Y-76622856D02*
X171454819Y-76432380D01*
X171454819Y-76432380D02*
X171407200Y-76337142D01*
X171407200Y-76337142D02*
X171359580Y-76289523D01*
X171359580Y-76289523D02*
X171264342Y-76241904D01*
X171264342Y-76241904D02*
X171073866Y-76241904D01*
X171073866Y-76241904D02*
X170978628Y-76289523D01*
X170978628Y-76289523D02*
X170931009Y-76337142D01*
X170931009Y-76337142D02*
X170883390Y-76432380D01*
X170788152Y-75384761D02*
X171454819Y-75384761D01*
X170407200Y-75622856D02*
X171121485Y-75860951D01*
X171121485Y-75860951D02*
X171121485Y-75241904D01*
X171454819Y-74337142D02*
X171454819Y-74908570D01*
X171454819Y-74622856D02*
X170454819Y-74622856D01*
X170454819Y-74622856D02*
X170597676Y-74718094D01*
X170597676Y-74718094D02*
X170692914Y-74813332D01*
X170692914Y-74813332D02*
X170740533Y-74908570D01*
X171407200Y-73956189D02*
X171454819Y-73813332D01*
X171454819Y-73813332D02*
X171454819Y-73575237D01*
X171454819Y-73575237D02*
X171407200Y-73479999D01*
X171407200Y-73479999D02*
X171359580Y-73432380D01*
X171359580Y-73432380D02*
X171264342Y-73384761D01*
X171264342Y-73384761D02*
X171169104Y-73384761D01*
X171169104Y-73384761D02*
X171073866Y-73432380D01*
X171073866Y-73432380D02*
X171026247Y-73479999D01*
X171026247Y-73479999D02*
X170978628Y-73575237D01*
X170978628Y-73575237D02*
X170931009Y-73765713D01*
X170931009Y-73765713D02*
X170883390Y-73860951D01*
X170883390Y-73860951D02*
X170835771Y-73908570D01*
X170835771Y-73908570D02*
X170740533Y-73956189D01*
X170740533Y-73956189D02*
X170645295Y-73956189D01*
X170645295Y-73956189D02*
X170550057Y-73908570D01*
X170550057Y-73908570D02*
X170502438Y-73860951D01*
X170502438Y-73860951D02*
X170454819Y-73765713D01*
X170454819Y-73765713D02*
X170454819Y-73527618D01*
X170454819Y-73527618D02*
X170502438Y-73384761D01*
X171454819Y-72432380D02*
X171454819Y-73003808D01*
X171454819Y-72718094D02*
X170454819Y-72718094D01*
X170454819Y-72718094D02*
X170597676Y-72813332D01*
X170597676Y-72813332D02*
X170692914Y-72908570D01*
X170692914Y-72908570D02*
X170740533Y-73003808D01*
D12*
X177574318Y-118937381D02*
X176304318Y-118937381D01*
X176304318Y-118937381D02*
X176304318Y-118635000D01*
X176304318Y-118635000D02*
X176364794Y-118453571D01*
X176364794Y-118453571D02*
X176485746Y-118332619D01*
X176485746Y-118332619D02*
X176606699Y-118272142D01*
X176606699Y-118272142D02*
X176848603Y-118211666D01*
X176848603Y-118211666D02*
X177030032Y-118211666D01*
X177030032Y-118211666D02*
X177271937Y-118272142D01*
X177271937Y-118272142D02*
X177392889Y-118332619D01*
X177392889Y-118332619D02*
X177513842Y-118453571D01*
X177513842Y-118453571D02*
X177574318Y-118635000D01*
X177574318Y-118635000D02*
X177574318Y-118937381D01*
X176304318Y-117062619D02*
X176304318Y-117667381D01*
X176304318Y-117667381D02*
X176909080Y-117727857D01*
X176909080Y-117727857D02*
X176848603Y-117667381D01*
X176848603Y-117667381D02*
X176788127Y-117546428D01*
X176788127Y-117546428D02*
X176788127Y-117244047D01*
X176788127Y-117244047D02*
X176848603Y-117123095D01*
X176848603Y-117123095D02*
X176909080Y-117062619D01*
X176909080Y-117062619D02*
X177030032Y-117002142D01*
X177030032Y-117002142D02*
X177332413Y-117002142D01*
X177332413Y-117002142D02*
X177453365Y-117062619D01*
X177453365Y-117062619D02*
X177513842Y-117123095D01*
X177513842Y-117123095D02*
X177574318Y-117244047D01*
X177574318Y-117244047D02*
X177574318Y-117546428D01*
X177574318Y-117546428D02*
X177513842Y-117667381D01*
X177513842Y-117667381D02*
X177453365Y-117727857D01*
D11*
X150424818Y-107867857D02*
X149948627Y-108201190D01*
X150424818Y-108439285D02*
X149424818Y-108439285D01*
X149424818Y-108439285D02*
X149424818Y-108058333D01*
X149424818Y-108058333D02*
X149472437Y-107963095D01*
X149472437Y-107963095D02*
X149520056Y-107915476D01*
X149520056Y-107915476D02*
X149615294Y-107867857D01*
X149615294Y-107867857D02*
X149758151Y-107867857D01*
X149758151Y-107867857D02*
X149853389Y-107915476D01*
X149853389Y-107915476D02*
X149901008Y-107963095D01*
X149901008Y-107963095D02*
X149948627Y-108058333D01*
X149948627Y-108058333D02*
X149948627Y-108439285D01*
X149758151Y-107010714D02*
X150424818Y-107010714D01*
X149377199Y-107248809D02*
X150091484Y-107486904D01*
X150091484Y-107486904D02*
X150091484Y-106867857D01*
X149424818Y-106582142D02*
X149424818Y-105915476D01*
X149424818Y-105915476D02*
X150424818Y-106344047D01*
X105438095Y-57854819D02*
X105438095Y-56854819D01*
X105438095Y-57331009D02*
X106009523Y-57331009D01*
X106009523Y-57854819D02*
X106009523Y-56854819D01*
X106390476Y-56854819D02*
X107009523Y-56854819D01*
X107009523Y-56854819D02*
X106676190Y-57235771D01*
X106676190Y-57235771D02*
X106819047Y-57235771D01*
X106819047Y-57235771D02*
X106914285Y-57283390D01*
X106914285Y-57283390D02*
X106961904Y-57331009D01*
X106961904Y-57331009D02*
X107009523Y-57426247D01*
X107009523Y-57426247D02*
X107009523Y-57664342D01*
X107009523Y-57664342D02*
X106961904Y-57759580D01*
X106961904Y-57759580D02*
X106914285Y-57807200D01*
X106914285Y-57807200D02*
X106819047Y-57854819D01*
X106819047Y-57854819D02*
X106533333Y-57854819D01*
X106533333Y-57854819D02*
X106438095Y-57807200D01*
X106438095Y-57807200D02*
X106390476Y-57759580D01*
X142424818Y-120107857D02*
X141948627Y-120441190D01*
X142424818Y-120679285D02*
X141424818Y-120679285D01*
X141424818Y-120679285D02*
X141424818Y-120298333D01*
X141424818Y-120298333D02*
X141472437Y-120203095D01*
X141472437Y-120203095D02*
X141520056Y-120155476D01*
X141520056Y-120155476D02*
X141615294Y-120107857D01*
X141615294Y-120107857D02*
X141758151Y-120107857D01*
X141758151Y-120107857D02*
X141853389Y-120155476D01*
X141853389Y-120155476D02*
X141901008Y-120203095D01*
X141901008Y-120203095D02*
X141948627Y-120298333D01*
X141948627Y-120298333D02*
X141948627Y-120679285D01*
X141758151Y-119250714D02*
X142424818Y-119250714D01*
X141377199Y-119488809D02*
X142091484Y-119726904D01*
X142091484Y-119726904D02*
X142091484Y-119107857D01*
X141758151Y-118298333D02*
X142424818Y-118298333D01*
X141377199Y-118536428D02*
X142091484Y-118774523D01*
X142091484Y-118774523D02*
X142091484Y-118155476D01*
X145939579Y-107987857D02*
X145987199Y-108035476D01*
X145987199Y-108035476D02*
X146034818Y-108178333D01*
X146034818Y-108178333D02*
X146034818Y-108273571D01*
X146034818Y-108273571D02*
X145987199Y-108416428D01*
X145987199Y-108416428D02*
X145891960Y-108511666D01*
X145891960Y-108511666D02*
X145796722Y-108559285D01*
X145796722Y-108559285D02*
X145606246Y-108606904D01*
X145606246Y-108606904D02*
X145463389Y-108606904D01*
X145463389Y-108606904D02*
X145272913Y-108559285D01*
X145272913Y-108559285D02*
X145177675Y-108511666D01*
X145177675Y-108511666D02*
X145082437Y-108416428D01*
X145082437Y-108416428D02*
X145034818Y-108273571D01*
X145034818Y-108273571D02*
X145034818Y-108178333D01*
X145034818Y-108178333D02*
X145082437Y-108035476D01*
X145082437Y-108035476D02*
X145130056Y-107987857D01*
X145368151Y-107130714D02*
X146034818Y-107130714D01*
X144987199Y-107368809D02*
X145701484Y-107606904D01*
X145701484Y-107606904D02*
X145701484Y-106987857D01*
X145463389Y-106464047D02*
X145415770Y-106559285D01*
X145415770Y-106559285D02*
X145368151Y-106606904D01*
X145368151Y-106606904D02*
X145272913Y-106654523D01*
X145272913Y-106654523D02*
X145225294Y-106654523D01*
X145225294Y-106654523D02*
X145130056Y-106606904D01*
X145130056Y-106606904D02*
X145082437Y-106559285D01*
X145082437Y-106559285D02*
X145034818Y-106464047D01*
X145034818Y-106464047D02*
X145034818Y-106273571D01*
X145034818Y-106273571D02*
X145082437Y-106178333D01*
X145082437Y-106178333D02*
X145130056Y-106130714D01*
X145130056Y-106130714D02*
X145225294Y-106083095D01*
X145225294Y-106083095D02*
X145272913Y-106083095D01*
X145272913Y-106083095D02*
X145368151Y-106130714D01*
X145368151Y-106130714D02*
X145415770Y-106178333D01*
X145415770Y-106178333D02*
X145463389Y-106273571D01*
X145463389Y-106273571D02*
X145463389Y-106464047D01*
X145463389Y-106464047D02*
X145511008Y-106559285D01*
X145511008Y-106559285D02*
X145558627Y-106606904D01*
X145558627Y-106606904D02*
X145653865Y-106654523D01*
X145653865Y-106654523D02*
X145844341Y-106654523D01*
X145844341Y-106654523D02*
X145939579Y-106606904D01*
X145939579Y-106606904D02*
X145987199Y-106559285D01*
X145987199Y-106559285D02*
X146034818Y-106464047D01*
X146034818Y-106464047D02*
X146034818Y-106273571D01*
X146034818Y-106273571D02*
X145987199Y-106178333D01*
X145987199Y-106178333D02*
X145939579Y-106130714D01*
X145939579Y-106130714D02*
X145844341Y-106083095D01*
X145844341Y-106083095D02*
X145653865Y-106083095D01*
X145653865Y-106083095D02*
X145558627Y-106130714D01*
X145558627Y-106130714D02*
X145511008Y-106178333D01*
X145511008Y-106178333D02*
X145463389Y-106273571D01*
D12*
X164869318Y-113841762D02*
X163599318Y-113841762D01*
X164748365Y-112511285D02*
X164808842Y-112571761D01*
X164808842Y-112571761D02*
X164869318Y-112753190D01*
X164869318Y-112753190D02*
X164869318Y-112874142D01*
X164869318Y-112874142D02*
X164808842Y-113055571D01*
X164808842Y-113055571D02*
X164687889Y-113176523D01*
X164687889Y-113176523D02*
X164566937Y-113237000D01*
X164566937Y-113237000D02*
X164325032Y-113297476D01*
X164325032Y-113297476D02*
X164143603Y-113297476D01*
X164143603Y-113297476D02*
X163901699Y-113237000D01*
X163901699Y-113237000D02*
X163780746Y-113176523D01*
X163780746Y-113176523D02*
X163659794Y-113055571D01*
X163659794Y-113055571D02*
X163599318Y-112874142D01*
X163599318Y-112874142D02*
X163599318Y-112753190D01*
X163599318Y-112753190D02*
X163659794Y-112571761D01*
X163659794Y-112571761D02*
X163720270Y-112511285D01*
X163599318Y-112087952D02*
X163599318Y-111301761D01*
X163599318Y-111301761D02*
X164083127Y-111725095D01*
X164083127Y-111725095D02*
X164083127Y-111543666D01*
X164083127Y-111543666D02*
X164143603Y-111422714D01*
X164143603Y-111422714D02*
X164204080Y-111362238D01*
X164204080Y-111362238D02*
X164325032Y-111301761D01*
X164325032Y-111301761D02*
X164627413Y-111301761D01*
X164627413Y-111301761D02*
X164748365Y-111362238D01*
X164748365Y-111362238D02*
X164808842Y-111422714D01*
X164808842Y-111422714D02*
X164869318Y-111543666D01*
X164869318Y-111543666D02*
X164869318Y-111906523D01*
X164869318Y-111906523D02*
X164808842Y-112027476D01*
X164808842Y-112027476D02*
X164748365Y-112087952D01*
X128945270Y-124870952D02*
X128884794Y-124991904D01*
X128884794Y-124991904D02*
X128763842Y-125112857D01*
X128763842Y-125112857D02*
X128582413Y-125294285D01*
X128582413Y-125294285D02*
X128521937Y-125415238D01*
X128521937Y-125415238D02*
X128521937Y-125536190D01*
X128824318Y-125475714D02*
X128763842Y-125596666D01*
X128763842Y-125596666D02*
X128642889Y-125717619D01*
X128642889Y-125717619D02*
X128400984Y-125778095D01*
X128400984Y-125778095D02*
X127977651Y-125778095D01*
X127977651Y-125778095D02*
X127735746Y-125717619D01*
X127735746Y-125717619D02*
X127614794Y-125596666D01*
X127614794Y-125596666D02*
X127554318Y-125475714D01*
X127554318Y-125475714D02*
X127554318Y-125233809D01*
X127554318Y-125233809D02*
X127614794Y-125112857D01*
X127614794Y-125112857D02*
X127735746Y-124991904D01*
X127735746Y-124991904D02*
X127977651Y-124931428D01*
X127977651Y-124931428D02*
X128400984Y-124931428D01*
X128400984Y-124931428D02*
X128642889Y-124991904D01*
X128642889Y-124991904D02*
X128763842Y-125112857D01*
X128763842Y-125112857D02*
X128824318Y-125233809D01*
X128824318Y-125233809D02*
X128824318Y-125475714D01*
X127554318Y-124508095D02*
X127554318Y-123721904D01*
X127554318Y-123721904D02*
X128038127Y-124145238D01*
X128038127Y-124145238D02*
X128038127Y-123963809D01*
X128038127Y-123963809D02*
X128098603Y-123842857D01*
X128098603Y-123842857D02*
X128159080Y-123782381D01*
X128159080Y-123782381D02*
X128280032Y-123721904D01*
X128280032Y-123721904D02*
X128582413Y-123721904D01*
X128582413Y-123721904D02*
X128703365Y-123782381D01*
X128703365Y-123782381D02*
X128763842Y-123842857D01*
X128763842Y-123842857D02*
X128824318Y-123963809D01*
X128824318Y-123963809D02*
X128824318Y-124326666D01*
X128824318Y-124326666D02*
X128763842Y-124447619D01*
X128763842Y-124447619D02*
X128703365Y-124508095D01*
D11*
X154083333Y-69609580D02*
X154035714Y-69657200D01*
X154035714Y-69657200D02*
X153892857Y-69704819D01*
X153892857Y-69704819D02*
X153797619Y-69704819D01*
X153797619Y-69704819D02*
X153654762Y-69657200D01*
X153654762Y-69657200D02*
X153559524Y-69561961D01*
X153559524Y-69561961D02*
X153511905Y-69466723D01*
X153511905Y-69466723D02*
X153464286Y-69276247D01*
X153464286Y-69276247D02*
X153464286Y-69133390D01*
X153464286Y-69133390D02*
X153511905Y-68942914D01*
X153511905Y-68942914D02*
X153559524Y-68847676D01*
X153559524Y-68847676D02*
X153654762Y-68752438D01*
X153654762Y-68752438D02*
X153797619Y-68704819D01*
X153797619Y-68704819D02*
X153892857Y-68704819D01*
X153892857Y-68704819D02*
X154035714Y-68752438D01*
X154035714Y-68752438D02*
X154083333Y-68800057D01*
X154988095Y-68704819D02*
X154511905Y-68704819D01*
X154511905Y-68704819D02*
X154464286Y-69181009D01*
X154464286Y-69181009D02*
X154511905Y-69133390D01*
X154511905Y-69133390D02*
X154607143Y-69085771D01*
X154607143Y-69085771D02*
X154845238Y-69085771D01*
X154845238Y-69085771D02*
X154940476Y-69133390D01*
X154940476Y-69133390D02*
X154988095Y-69181009D01*
X154988095Y-69181009D02*
X155035714Y-69276247D01*
X155035714Y-69276247D02*
X155035714Y-69514342D01*
X155035714Y-69514342D02*
X154988095Y-69609580D01*
X154988095Y-69609580D02*
X154940476Y-69657200D01*
X154940476Y-69657200D02*
X154845238Y-69704819D01*
X154845238Y-69704819D02*
X154607143Y-69704819D01*
X154607143Y-69704819D02*
X154511905Y-69657200D01*
X154511905Y-69657200D02*
X154464286Y-69609580D01*
X109529580Y-69118858D02*
X109577200Y-69166477D01*
X109577200Y-69166477D02*
X109624819Y-69309334D01*
X109624819Y-69309334D02*
X109624819Y-69404572D01*
X109624819Y-69404572D02*
X109577200Y-69547429D01*
X109577200Y-69547429D02*
X109481961Y-69642667D01*
X109481961Y-69642667D02*
X109386723Y-69690286D01*
X109386723Y-69690286D02*
X109196247Y-69737905D01*
X109196247Y-69737905D02*
X109053390Y-69737905D01*
X109053390Y-69737905D02*
X108862914Y-69690286D01*
X108862914Y-69690286D02*
X108767676Y-69642667D01*
X108767676Y-69642667D02*
X108672438Y-69547429D01*
X108672438Y-69547429D02*
X108624819Y-69404572D01*
X108624819Y-69404572D02*
X108624819Y-69309334D01*
X108624819Y-69309334D02*
X108672438Y-69166477D01*
X108672438Y-69166477D02*
X108720057Y-69118858D01*
X108624819Y-68214096D02*
X108624819Y-68690286D01*
X108624819Y-68690286D02*
X109101009Y-68737905D01*
X109101009Y-68737905D02*
X109053390Y-68690286D01*
X109053390Y-68690286D02*
X109005771Y-68595048D01*
X109005771Y-68595048D02*
X109005771Y-68356953D01*
X109005771Y-68356953D02*
X109053390Y-68261715D01*
X109053390Y-68261715D02*
X109101009Y-68214096D01*
X109101009Y-68214096D02*
X109196247Y-68166477D01*
X109196247Y-68166477D02*
X109434342Y-68166477D01*
X109434342Y-68166477D02*
X109529580Y-68214096D01*
X109529580Y-68214096D02*
X109577200Y-68261715D01*
X109577200Y-68261715D02*
X109624819Y-68356953D01*
X109624819Y-68356953D02*
X109624819Y-68595048D01*
X109624819Y-68595048D02*
X109577200Y-68690286D01*
X109577200Y-68690286D02*
X109529580Y-68737905D01*
X108624819Y-67261715D02*
X108624819Y-67737905D01*
X108624819Y-67737905D02*
X109101009Y-67785524D01*
X109101009Y-67785524D02*
X109053390Y-67737905D01*
X109053390Y-67737905D02*
X109005771Y-67642667D01*
X109005771Y-67642667D02*
X109005771Y-67404572D01*
X109005771Y-67404572D02*
X109053390Y-67309334D01*
X109053390Y-67309334D02*
X109101009Y-67261715D01*
X109101009Y-67261715D02*
X109196247Y-67214096D01*
X109196247Y-67214096D02*
X109434342Y-67214096D01*
X109434342Y-67214096D02*
X109529580Y-67261715D01*
X109529580Y-67261715D02*
X109577200Y-67309334D01*
X109577200Y-67309334D02*
X109624819Y-67404572D01*
X109624819Y-67404572D02*
X109624819Y-67642667D01*
X109624819Y-67642667D02*
X109577200Y-67737905D01*
X109577200Y-67737905D02*
X109529580Y-67785524D01*
X125182141Y-75490580D02*
X125134522Y-75538200D01*
X125134522Y-75538200D02*
X124991665Y-75585819D01*
X124991665Y-75585819D02*
X124896427Y-75585819D01*
X124896427Y-75585819D02*
X124753570Y-75538200D01*
X124753570Y-75538200D02*
X124658332Y-75442961D01*
X124658332Y-75442961D02*
X124610713Y-75347723D01*
X124610713Y-75347723D02*
X124563094Y-75157247D01*
X124563094Y-75157247D02*
X124563094Y-75014390D01*
X124563094Y-75014390D02*
X124610713Y-74823914D01*
X124610713Y-74823914D02*
X124658332Y-74728676D01*
X124658332Y-74728676D02*
X124753570Y-74633438D01*
X124753570Y-74633438D02*
X124896427Y-74585819D01*
X124896427Y-74585819D02*
X124991665Y-74585819D01*
X124991665Y-74585819D02*
X125134522Y-74633438D01*
X125134522Y-74633438D02*
X125182141Y-74681057D01*
X125563094Y-74681057D02*
X125610713Y-74633438D01*
X125610713Y-74633438D02*
X125705951Y-74585819D01*
X125705951Y-74585819D02*
X125944046Y-74585819D01*
X125944046Y-74585819D02*
X126039284Y-74633438D01*
X126039284Y-74633438D02*
X126086903Y-74681057D01*
X126086903Y-74681057D02*
X126134522Y-74776295D01*
X126134522Y-74776295D02*
X126134522Y-74871533D01*
X126134522Y-74871533D02*
X126086903Y-75014390D01*
X126086903Y-75014390D02*
X125515475Y-75585819D01*
X125515475Y-75585819D02*
X126134522Y-75585819D01*
X127039284Y-74585819D02*
X126563094Y-74585819D01*
X126563094Y-74585819D02*
X126515475Y-75062009D01*
X126515475Y-75062009D02*
X126563094Y-75014390D01*
X126563094Y-75014390D02*
X126658332Y-74966771D01*
X126658332Y-74966771D02*
X126896427Y-74966771D01*
X126896427Y-74966771D02*
X126991665Y-75014390D01*
X126991665Y-75014390D02*
X127039284Y-75062009D01*
X127039284Y-75062009D02*
X127086903Y-75157247D01*
X127086903Y-75157247D02*
X127086903Y-75395342D01*
X127086903Y-75395342D02*
X127039284Y-75490580D01*
X127039284Y-75490580D02*
X126991665Y-75538200D01*
X126991665Y-75538200D02*
X126896427Y-75585819D01*
X126896427Y-75585819D02*
X126658332Y-75585819D01*
X126658332Y-75585819D02*
X126563094Y-75538200D01*
X126563094Y-75538200D02*
X126515475Y-75490580D01*
D12*
X102457856Y-125574318D02*
X102457856Y-124304318D01*
X102457856Y-124304318D02*
X102760237Y-124304318D01*
X102760237Y-124304318D02*
X102941666Y-124364794D01*
X102941666Y-124364794D02*
X103062618Y-124485746D01*
X103062618Y-124485746D02*
X103123095Y-124606699D01*
X103123095Y-124606699D02*
X103183571Y-124848603D01*
X103183571Y-124848603D02*
X103183571Y-125030032D01*
X103183571Y-125030032D02*
X103123095Y-125271937D01*
X103123095Y-125271937D02*
X103062618Y-125392889D01*
X103062618Y-125392889D02*
X102941666Y-125513842D01*
X102941666Y-125513842D02*
X102760237Y-125574318D01*
X102760237Y-125574318D02*
X102457856Y-125574318D01*
X104393095Y-125574318D02*
X103667380Y-125574318D01*
X104030237Y-125574318D02*
X104030237Y-124304318D01*
X104030237Y-124304318D02*
X103909285Y-124485746D01*
X103909285Y-124485746D02*
X103788333Y-124606699D01*
X103788333Y-124606699D02*
X103667380Y-124667175D01*
X105602619Y-125574318D02*
X104876904Y-125574318D01*
X105239761Y-125574318D02*
X105239761Y-124304318D01*
X105239761Y-124304318D02*
X105118809Y-124485746D01*
X105118809Y-124485746D02*
X104997857Y-124606699D01*
X104997857Y-124606699D02*
X104876904Y-124667175D01*
D13*
%TO.C,C18*%
X127390000Y-91512164D02*
X127390000Y-91727836D01*
X128110000Y-91512164D02*
X128110000Y-91727836D01*
%TO.C,R16*%
X164977500Y-88587742D02*
X164977500Y-89062258D01*
X166022500Y-88587742D02*
X166022500Y-89062258D01*
D14*
%TO.C,D7*%
X121389999Y-114817000D02*
X121389999Y-120740000D01*
X125009999Y-120113000D02*
X125009999Y-114817000D01*
D13*
%TO.C,R9*%
X105162258Y-92827500D02*
X104687742Y-92827500D01*
X105162258Y-93872500D02*
X104687742Y-93872500D01*
%TO.C,R1*%
X156477500Y-72737742D02*
X156477500Y-73212258D01*
X157522500Y-72737742D02*
X157522500Y-73212258D01*
%TO.C,C36*%
X118289999Y-110578748D02*
X118289999Y-112001252D01*
X120109999Y-110578748D02*
X120109999Y-112001252D01*
%TO.C,C20*%
X117392164Y-85240000D02*
X117607836Y-85240000D01*
X117392164Y-85960000D02*
X117607836Y-85960000D01*
D14*
%TO.C,IC10*%
X114075000Y-68051000D02*
X117075000Y-68051000D01*
X114075000Y-70351000D02*
X114075000Y-68051000D01*
X117075000Y-68051000D02*
X117075000Y-70351000D01*
X117075000Y-70351000D02*
X114075000Y-70351000D01*
X117125000Y-66251000D02*
X117125000Y-67701000D01*
D13*
%TO.C,R27*%
X161877500Y-119727258D02*
X161877500Y-119252742D01*
X162922500Y-119727258D02*
X162922500Y-119252742D01*
%TO.C,C4*%
X158087836Y-66640000D02*
X157872164Y-66640000D01*
X158087836Y-67360000D02*
X157872164Y-67360000D01*
%TO.C,R2*%
X165812258Y-78727500D02*
X165337742Y-78727500D01*
X165812258Y-79772500D02*
X165337742Y-79772500D01*
%TO.C,C29*%
X167689999Y-115924420D02*
X167689999Y-116205580D01*
X168709999Y-115924420D02*
X168709999Y-116205580D01*
D15*
%TO.C,Q5*%
X145765000Y-129109999D02*
X145765000Y-123219999D01*
D14*
X146215000Y-130064999D02*
X146215000Y-130064999D01*
X146415000Y-130064999D02*
X146415000Y-130064999D01*
D15*
X150665000Y-129109999D02*
X150665000Y-123219999D01*
D14*
X146215000Y-130064999D02*
G75*
G02*
X146415000Y-130064999I100000J0D01*
G01*
X146415000Y-130064999D02*
G75*
G02*
X146215000Y-130064999I-100000J0D01*
G01*
D13*
%TO.C,R6*%
X153727500Y-72637742D02*
X153727500Y-73112258D01*
X154772500Y-72637742D02*
X154772500Y-73112258D01*
%TO.C,D3*%
X106827500Y-82115000D02*
X106827500Y-83585000D01*
X106827500Y-83585000D02*
X109112500Y-83585000D01*
X109112500Y-82115000D02*
X106827500Y-82115000D01*
%TO.C,R36*%
X109877499Y-110527258D02*
X109877499Y-110052742D01*
X110922499Y-110527258D02*
X110922499Y-110052742D01*
D14*
%TO.C,IC7*%
X142075004Y-68050000D02*
X145075004Y-68050000D01*
X142075004Y-70350000D02*
X142075004Y-68050000D01*
X145075004Y-68050000D02*
X145075004Y-70350000D01*
X145075004Y-70350000D02*
X142075004Y-70350000D01*
X145125004Y-66250000D02*
X145125004Y-67700000D01*
D13*
%TO.C,C53*%
X111965581Y-73191000D02*
X111684421Y-73191000D01*
X111965581Y-74211000D02*
X111684421Y-74211000D01*
%TO.C,C52*%
X121734423Y-63791000D02*
X122015583Y-63791000D01*
X121734423Y-64811000D02*
X122015583Y-64811000D01*
%TO.C,R49*%
X133150436Y-118955000D02*
X134604564Y-118955000D01*
X133150436Y-120775000D02*
X134604564Y-120775000D01*
%TO.C,C27*%
X124089998Y-68616581D02*
X124089998Y-68335421D01*
X125109998Y-68616581D02*
X125109998Y-68335421D01*
%TO.C,C24*%
X135734421Y-63791000D02*
X136015581Y-63791000D01*
X135734421Y-64811000D02*
X136015581Y-64811000D01*
%TO.C,R20*%
X132112742Y-63778500D02*
X132587258Y-63778500D01*
X132112742Y-64823500D02*
X132587258Y-64823500D01*
%TO.C,R50*%
X118112744Y-63778500D02*
X118587260Y-63778500D01*
X118112744Y-64823500D02*
X118587260Y-64823500D01*
%TO.C,R4*%
X137012258Y-86677500D02*
X136537742Y-86677500D01*
X137012258Y-87722500D02*
X136537742Y-87722500D01*
D15*
%TO.C,Q6*%
X137985000Y-129020000D02*
X137985000Y-123130000D01*
D14*
X138435000Y-129975000D02*
X138435000Y-129975000D01*
X138635000Y-129975000D02*
X138635000Y-129975000D01*
D15*
X142885000Y-129020000D02*
X142885000Y-123130000D01*
D14*
X138435000Y-129975000D02*
G75*
G02*
X138635000Y-129975000I100000J0D01*
G01*
X138635000Y-129975000D02*
G75*
G02*
X138435000Y-129975000I-100000J0D01*
G01*
%TO.C,D12*%
X129692000Y-130810000D02*
X135615000Y-130810000D01*
X134988000Y-127190000D02*
X129692000Y-127190000D01*
D15*
%TO.C,J7*%
X170000000Y-90450000D02*
X170000000Y-90450000D01*
X170100000Y-90450000D02*
X170100000Y-90450000D01*
D14*
X173000000Y-82780000D02*
X174800000Y-82780000D01*
X173000000Y-91720000D02*
X174800000Y-91720000D01*
X177400000Y-82780000D02*
X178250000Y-82780000D01*
X178250000Y-82780000D02*
X178250000Y-91720000D01*
X178250000Y-91720000D02*
X177400000Y-91720000D01*
D15*
X170000000Y-90450000D02*
G75*
G02*
X170100000Y-90450000I50000J0D01*
G01*
X170100000Y-90450000D02*
G75*
G02*
X170000000Y-90450000I-50000J0D01*
G01*
D13*
%TO.C,C6*%
X156640000Y-76212164D02*
X156640000Y-76427836D01*
X157360000Y-76212164D02*
X157360000Y-76427836D01*
%TO.C,R45*%
X137217500Y-119727258D02*
X137217500Y-119252742D01*
X138262500Y-119727258D02*
X138262500Y-119252742D01*
%TO.C,R25*%
X126077498Y-67763259D02*
X126077498Y-67288743D01*
X127122498Y-67763259D02*
X127122498Y-67288743D01*
%TO.C,C17*%
X127390000Y-89687836D02*
X127390000Y-89472164D01*
X128110000Y-89687836D02*
X128110000Y-89472164D01*
%TO.C,C34*%
X117434419Y-106780000D02*
X117715579Y-106780000D01*
X117434419Y-107800000D02*
X117715579Y-107800000D01*
%TO.C,C42*%
X139965584Y-73190000D02*
X139684424Y-73190000D01*
X139965584Y-74210000D02*
X139684424Y-74210000D01*
D14*
%TO.C,IC2*%
X128074998Y-68051000D02*
X131074998Y-68051000D01*
X128074998Y-70351000D02*
X128074998Y-68051000D01*
X131074998Y-68051000D02*
X131074998Y-70351000D01*
X131074998Y-70351000D02*
X128074998Y-70351000D01*
X131124998Y-66251000D02*
X131124998Y-67701000D01*
%TO.C,IC6*%
X107849999Y-116165000D02*
X107849999Y-114965000D01*
X107899999Y-114015000D02*
X110799999Y-114015000D01*
X107899999Y-114615000D02*
X107899999Y-114015000D01*
X110799999Y-114015000D02*
X110799999Y-114615000D01*
X110799999Y-114615000D02*
X107899999Y-114615000D01*
D13*
%TO.C,R7*%
X171977500Y-75337742D02*
X171977500Y-75812258D01*
X173022500Y-75337742D02*
X173022500Y-75812258D01*
%TO.C,R38*%
X146112749Y-63777500D02*
X146587265Y-63777500D01*
X146112749Y-64822500D02*
X146587265Y-64822500D01*
%TO.C,R3*%
X173562258Y-71477500D02*
X173087742Y-71477500D01*
X173562258Y-72522500D02*
X173087742Y-72522500D01*
%TO.C,FSENS2*%
X138540007Y-50340000D02*
X138540007Y-62060000D01*
X138540007Y-62060000D02*
X139960007Y-62060000D01*
X139960007Y-62060000D02*
X139960007Y-57560000D01*
X140850007Y-50950000D02*
X140850007Y-56450000D01*
X140850007Y-56450000D02*
X141350007Y-56450000D01*
X141350007Y-50950000D02*
X140850007Y-50950000D01*
X141350007Y-56450000D02*
X141350007Y-50950000D01*
X143350007Y-50950000D02*
X143350007Y-56450000D01*
X143350007Y-56450000D02*
X143850007Y-56450000D01*
X143850007Y-50950000D02*
X143350007Y-50950000D01*
X143850007Y-56450000D02*
X143850007Y-50950000D01*
X144850007Y-50340000D02*
X138540007Y-50340000D01*
X144850007Y-50340000D02*
X151160007Y-50340000D01*
X145850007Y-50950000D02*
X145850007Y-56450000D01*
X145850007Y-56450000D02*
X146350007Y-56450000D01*
X146350007Y-50950000D02*
X145850007Y-50950000D01*
X146350007Y-56450000D02*
X146350007Y-50950000D01*
X148300007Y-60150000D02*
X148600007Y-59550000D01*
X148350007Y-50950000D02*
X148350007Y-56450000D01*
X148350007Y-56450000D02*
X148850007Y-56450000D01*
X148600007Y-59550000D02*
X148900007Y-60150000D01*
X148850007Y-50950000D02*
X148350007Y-50950000D01*
X148850007Y-56450000D02*
X148850007Y-50950000D01*
X148900007Y-60150000D02*
X148300007Y-60150000D01*
X149740007Y-62060000D02*
X149740007Y-57560000D01*
X151160007Y-50340000D02*
X151160007Y-62060000D01*
X151160007Y-62060000D02*
X149740007Y-62060000D01*
%TO.C,R52*%
X118077496Y-67863258D02*
X118077496Y-67388742D01*
X119122496Y-67863258D02*
X119122496Y-67388742D01*
%TO.C,C13*%
X144090000Y-93384420D02*
X144090000Y-93665580D01*
X145110000Y-93384420D02*
X145110000Y-93665580D01*
%TO.C,C22*%
X107907836Y-87490000D02*
X107692164Y-87490000D01*
X107907836Y-88210000D02*
X107692164Y-88210000D01*
%TO.C,C57*%
X120240000Y-101459420D02*
X120240000Y-101740580D01*
X121260000Y-101459420D02*
X121260000Y-101740580D01*
%TO.C,C58*%
X122127836Y-76990000D02*
X121912164Y-76990000D01*
X122127836Y-77710000D02*
X121912164Y-77710000D01*
%TO.C,R26*%
X164677499Y-119227742D02*
X164677499Y-119702258D01*
X165722499Y-119227742D02*
X165722499Y-119702258D01*
%TO.C,C37*%
X121639999Y-107452836D02*
X121639999Y-107237164D01*
X122359999Y-107452836D02*
X122359999Y-107237164D01*
%TO.C,R53*%
X114537745Y-63853500D02*
X115012261Y-63853500D01*
X114537745Y-64898500D02*
X115012261Y-64898500D01*
%TO.C,R15*%
X166977500Y-83662258D02*
X166977500Y-83187742D01*
X168022500Y-83662258D02*
X168022500Y-83187742D01*
%TO.C,J6*%
X122480000Y-79330000D02*
X123115000Y-79330000D01*
X123115000Y-79330000D02*
X123115000Y-79965000D01*
%TO.C,R55*%
X112077500Y-67763259D02*
X112077500Y-67288743D01*
X113122500Y-67763259D02*
X113122500Y-67288743D01*
%TO.C,R33*%
X112477499Y-119727258D02*
X112477499Y-119252742D01*
X113522499Y-119727258D02*
X113522499Y-119252742D01*
D14*
%TO.C,FB1*%
X158150000Y-65350000D02*
X158150000Y-65650000D01*
D13*
%TO.C,C56*%
X118890000Y-101262164D02*
X118890000Y-101477836D01*
X119610000Y-101262164D02*
X119610000Y-101477836D01*
D14*
%TO.C,IC5*%
X112444999Y-111002000D02*
X117344999Y-111002000D01*
X112444999Y-114202000D02*
X112444999Y-111002000D01*
X117344999Y-111002000D02*
X117344999Y-114202000D01*
X117344999Y-114202000D02*
X112444999Y-114202000D01*
X117499999Y-109127000D02*
X117499999Y-110652000D01*
%TO.C,Y1*%
X108825000Y-88875000D02*
X108825000Y-88875000D01*
X108925000Y-88875000D02*
X108925000Y-88875000D01*
X108925000Y-88875000D02*
X108925000Y-88875000D01*
X108825000Y-88875000D02*
G75*
G02*
X108925000Y-88875000I50000J0D01*
G01*
X108825000Y-88875000D02*
G75*
G02*
X108925000Y-88875000I50000J0D01*
G01*
X108925000Y-88875000D02*
G75*
G02*
X108825000Y-88875000I-50000J0D01*
G01*
D13*
%TO.C,C47*%
X143029999Y-110578748D02*
X143029999Y-112001252D01*
X144849999Y-110578748D02*
X144849999Y-112001252D01*
D14*
%TO.C,D2*%
X153350000Y-60810000D02*
X158750000Y-60810000D01*
X158750000Y-57190000D02*
X152775000Y-57190000D01*
D13*
%TO.C,R41*%
X142537749Y-63852500D02*
X143012265Y-63852500D01*
X142537749Y-64897500D02*
X143012265Y-64897500D01*
%TO.C,C23*%
X132089998Y-71116579D02*
X132089998Y-70835419D01*
X133109998Y-71116579D02*
X133109998Y-70835419D01*
%TO.C,C45*%
X142174419Y-106780000D02*
X142455579Y-106780000D01*
X142174419Y-107800000D02*
X142455579Y-107800000D01*
%TO.C,B0-RST1*%
X112100000Y-79700000D02*
X112100000Y-80000000D01*
X112100000Y-82500000D02*
X112100000Y-82200000D01*
X115400000Y-79700000D02*
X112100000Y-79700000D01*
X115400000Y-80000000D02*
X115400000Y-79700000D01*
X115400000Y-82200000D02*
X115400000Y-82500000D01*
X115400000Y-82500000D02*
X112100000Y-82500000D01*
%TO.C,R13*%
X133677500Y-93337258D02*
X133677500Y-92862742D01*
X134722500Y-93337258D02*
X134722500Y-92862742D01*
%TO.C,R17*%
X108662258Y-84327500D02*
X108187742Y-84327500D01*
X108662258Y-85372500D02*
X108187742Y-85372500D01*
%TO.C,C15*%
X122140000Y-101512164D02*
X122140000Y-101727836D01*
X122860000Y-101512164D02*
X122860000Y-101727836D01*
%TO.C,R10*%
X142077500Y-99937742D02*
X142077500Y-100412258D01*
X143122500Y-99937742D02*
X143122500Y-100412258D01*
%TO.C,C7*%
X112240000Y-85265580D02*
X112240000Y-84984420D01*
X113260000Y-85265580D02*
X113260000Y-84984420D01*
D14*
%TO.C,J4*%
X162300000Y-68100000D02*
X162300000Y-68100000D01*
X162400000Y-68100000D02*
X162400000Y-68100000D01*
X162400000Y-68100000D02*
X162400000Y-68100000D01*
D15*
X163850000Y-60500000D02*
X163850000Y-60500000D01*
X163850000Y-60500000D02*
X163850000Y-60500000D01*
X163850000Y-60500000D02*
X163850000Y-61750000D01*
X163850000Y-60500000D02*
X164500000Y-60500000D01*
X163850000Y-61750000D02*
X163850000Y-60500000D01*
X163850000Y-61750000D02*
X163850000Y-61750000D01*
X163850000Y-68250000D02*
X163850000Y-68250000D01*
X163850000Y-68250000D02*
X163850000Y-69500000D01*
X163850000Y-69500000D02*
X163850000Y-68250000D01*
X163850000Y-69500000D02*
X163850000Y-69500000D01*
X163850000Y-69500000D02*
X163850000Y-69500000D01*
X163850000Y-69500000D02*
X178250000Y-69500000D01*
X164500000Y-60500000D02*
X163850000Y-60500000D01*
X164500000Y-60500000D02*
X164500000Y-60500000D01*
X170500000Y-60500000D02*
X170500000Y-60500000D01*
X170500000Y-60500000D02*
X178250000Y-60500000D01*
X178250000Y-60500000D02*
X170500000Y-60500000D01*
X178250000Y-60500000D02*
X178250000Y-60500000D01*
X178250000Y-60500000D02*
X178250000Y-60500000D01*
X178250000Y-60500000D02*
X178250000Y-69500000D01*
X178250000Y-69500000D02*
X163850000Y-69500000D01*
X178250000Y-69500000D02*
X178250000Y-60500000D01*
X178250000Y-69500000D02*
X178250000Y-69500000D01*
X178250000Y-69500000D02*
X178250000Y-69500000D01*
D14*
X162300000Y-68100000D02*
G75*
G02*
X162400000Y-68100000I50000J0D01*
G01*
X162300000Y-68100000D02*
G75*
G02*
X162400000Y-68100000I50000J0D01*
G01*
X162400000Y-68100000D02*
G75*
G02*
X162300000Y-68100000I-50000J0D01*
G01*
D13*
%TO.C,C8*%
X124640000Y-101727836D02*
X124640000Y-101512164D01*
X125360000Y-101727836D02*
X125360000Y-101512164D01*
D15*
%TO.C,Q1*%
X170425000Y-129109999D02*
X170425000Y-123219999D01*
D14*
X170875000Y-130064999D02*
X170875000Y-130064999D01*
X171075000Y-130064999D02*
X171075000Y-130064999D01*
D15*
X175325000Y-129109999D02*
X175325000Y-123219999D01*
D14*
X170875000Y-130064999D02*
G75*
G02*
X171075000Y-130064999I100000J0D01*
G01*
X171075000Y-130064999D02*
G75*
G02*
X170875000Y-130064999I-100000J0D01*
G01*
D13*
%TO.C,R37*%
X108410435Y-118955000D02*
X109864563Y-118955000D01*
X108410435Y-120775000D02*
X109864563Y-120775000D01*
%TO.C,C26*%
X125515581Y-63791000D02*
X125234421Y-63791000D01*
X125515581Y-64811000D02*
X125234421Y-64811000D01*
%TO.C,C21*%
X104690000Y-90437836D02*
X104690000Y-90222164D01*
X105410000Y-90437836D02*
X105410000Y-90222164D01*
%TO.C,R19*%
X116162258Y-83327500D02*
X115687742Y-83327500D01*
X116162258Y-84372500D02*
X115687742Y-84372500D01*
%TO.C,R22*%
X132077494Y-67863258D02*
X132077494Y-67388742D01*
X133122494Y-67863258D02*
X133122494Y-67388742D01*
D15*
%TO.C,Q4*%
X113244999Y-129020000D02*
X113244999Y-123130000D01*
D14*
X113694999Y-129975000D02*
X113694999Y-129975000D01*
X113894999Y-129975000D02*
X113894999Y-129975000D01*
D15*
X118144999Y-129020000D02*
X118144999Y-123130000D01*
D14*
X113694999Y-129975000D02*
G75*
G02*
X113894999Y-129975000I100000J0D01*
G01*
X113894999Y-129975000D02*
G75*
G02*
X113694999Y-129975000I-100000J0D01*
G01*
D13*
%TO.C,R18*%
X108937742Y-80327500D02*
X109412258Y-80327500D01*
X108937742Y-81372500D02*
X109412258Y-81372500D01*
%TO.C,C12*%
X124142164Y-98490000D02*
X124357836Y-98490000D01*
X124142164Y-99210000D02*
X124357836Y-99210000D01*
%TO.C,R5*%
X163727500Y-76312258D02*
X163727500Y-75837742D01*
X164772500Y-76312258D02*
X164772500Y-75837742D01*
%TO.C,R48*%
X134617500Y-110527258D02*
X134617500Y-110052742D01*
X135662500Y-110527258D02*
X135662500Y-110052742D01*
%TO.C,R21*%
X129512257Y-73178500D02*
X129037741Y-73178500D01*
X129512257Y-74223500D02*
X129037741Y-74223500D01*
%TO.C,R8*%
X142827500Y-97187258D02*
X142827500Y-96712742D01*
X143872500Y-97187258D02*
X143872500Y-96712742D01*
%TO.C,FSENS1*%
X124540000Y-50341000D02*
X124540000Y-62061000D01*
X124540000Y-62061000D02*
X125960000Y-62061000D01*
X125960000Y-62061000D02*
X125960000Y-57561000D01*
X126850000Y-50951000D02*
X126850000Y-56451000D01*
X126850000Y-56451000D02*
X127350000Y-56451000D01*
X127350000Y-50951000D02*
X126850000Y-50951000D01*
X127350000Y-56451000D02*
X127350000Y-50951000D01*
X129350000Y-50951000D02*
X129350000Y-56451000D01*
X129350000Y-56451000D02*
X129850000Y-56451000D01*
X129850000Y-50951000D02*
X129350000Y-50951000D01*
X129850000Y-56451000D02*
X129850000Y-50951000D01*
X130850000Y-50341000D02*
X124540000Y-50341000D01*
X130850000Y-50341000D02*
X137160000Y-50341000D01*
X131850000Y-50951000D02*
X131850000Y-56451000D01*
X131850000Y-56451000D02*
X132350000Y-56451000D01*
X132350000Y-50951000D02*
X131850000Y-50951000D01*
X132350000Y-56451000D02*
X132350000Y-50951000D01*
X134300000Y-60151000D02*
X134600000Y-59551000D01*
X134350000Y-50951000D02*
X134350000Y-56451000D01*
X134350000Y-56451000D02*
X134850000Y-56451000D01*
X134600000Y-59551000D02*
X134900000Y-60151000D01*
X134850000Y-50951000D02*
X134350000Y-50951000D01*
X134850000Y-56451000D02*
X134850000Y-50951000D01*
X134900000Y-60151000D02*
X134300000Y-60151000D01*
X135740000Y-62061000D02*
X135740000Y-57561000D01*
X137160000Y-50341000D02*
X137160000Y-62061000D01*
X137160000Y-62061000D02*
X135740000Y-62061000D01*
%TO.C,R35*%
X123277499Y-106987742D02*
X123277499Y-107462258D01*
X124322499Y-106987742D02*
X124322499Y-107462258D01*
%TO.C,C41*%
X149734427Y-63790000D02*
X150015587Y-63790000D01*
X149734427Y-64810000D02*
X150015587Y-64810000D01*
%TO.C,R34*%
X123277499Y-110362742D02*
X123277499Y-110837258D01*
X124322499Y-110362742D02*
X124322499Y-110837258D01*
%TO.C,C16*%
X112390000Y-87937836D02*
X112390000Y-87722164D01*
X113110000Y-87937836D02*
X113110000Y-87722164D01*
D14*
%TO.C,IC9*%
X132590000Y-116165000D02*
X132590000Y-114965000D01*
X132640000Y-114015000D02*
X135540000Y-114015000D01*
X132640000Y-114615000D02*
X132640000Y-114015000D01*
X135540000Y-114015000D02*
X135540000Y-114615000D01*
X135540000Y-114615000D02*
X132640000Y-114615000D01*
%TO.C,L2*%
X141000000Y-87550000D02*
X154500000Y-87550000D01*
X154500000Y-74950000D02*
X141000000Y-74950000D01*
D13*
%TO.C,C14*%
X108607836Y-92740000D02*
X108392164Y-92740000D01*
X108607836Y-93460000D02*
X108392164Y-93460000D01*
D14*
%TO.C,IC8*%
X137185000Y-111002000D02*
X142085000Y-111002000D01*
X137185000Y-114202000D02*
X137185000Y-111002000D01*
X142085000Y-111002000D02*
X142085000Y-114202000D01*
X142085000Y-114202000D02*
X137185000Y-114202000D01*
X142240000Y-109127000D02*
X142240000Y-110652000D01*
D13*
%TO.C,R32*%
X115277499Y-119227742D02*
X115277499Y-119702258D01*
X116322499Y-119227742D02*
X116322499Y-119702258D01*
%TO.C,C2*%
X136166000Y-80986252D02*
X136166000Y-79563748D01*
X137986000Y-80986252D02*
X137986000Y-79563748D01*
%TO.C,R12*%
X136537742Y-97252500D02*
X137012258Y-97252500D01*
X136537742Y-98297500D02*
X137012258Y-98297500D01*
%TO.C,C43*%
X139515587Y-63790000D02*
X139234427Y-63790000D01*
X139515587Y-64810000D02*
X139234427Y-64810000D01*
%TO.C,C1*%
X169390000Y-75642164D02*
X169390000Y-75857836D01*
X170110000Y-75642164D02*
X170110000Y-75857836D01*
%TO.C,C35*%
X118289999Y-115924420D02*
X118289999Y-116205580D01*
X119309999Y-115924420D02*
X119309999Y-116205580D01*
%TO.C,R46*%
X148017499Y-110362742D02*
X148017499Y-110837258D01*
X149062499Y-110362742D02*
X149062499Y-110837258D01*
%TO.C,C50*%
X133180000Y-109757164D02*
X133180000Y-109972836D01*
X133900000Y-109757164D02*
X133900000Y-109972836D01*
%TO.C,C11*%
X124890000Y-87937836D02*
X124890000Y-87722164D01*
X125610000Y-87937836D02*
X125610000Y-87722164D01*
%TO.C,R23*%
X128537743Y-63853500D02*
X129012259Y-63853500D01*
X128537743Y-64898500D02*
X129012259Y-64898500D01*
%TO.C,R24*%
X126077498Y-71113258D02*
X126077498Y-70638742D01*
X127122498Y-71113258D02*
X127122498Y-70638742D01*
%TO.C,R51*%
X115512259Y-73178500D02*
X115037743Y-73178500D01*
X115512259Y-74223500D02*
X115037743Y-74223500D01*
%TO.C,C39*%
X108439999Y-109757164D02*
X108439999Y-109972836D01*
X109159999Y-109757164D02*
X109159999Y-109972836D01*
%TO.C,R42*%
X140077504Y-71112258D02*
X140077504Y-70637742D01*
X141122504Y-71112258D02*
X141122504Y-70637742D01*
%TO.C,C3*%
X158142164Y-63390000D02*
X158357836Y-63390000D01*
X158142164Y-64110000D02*
X158357836Y-64110000D01*
D14*
%TO.C,IC4*%
X157250000Y-116165000D02*
X157250000Y-114965000D01*
X157300000Y-114015000D02*
X160200000Y-114015000D01*
X157300000Y-114615000D02*
X157300000Y-114015000D01*
X160200000Y-114015000D02*
X160200000Y-114615000D01*
X160200000Y-114615000D02*
X157300000Y-114615000D01*
D13*
%TO.C,C33*%
X157840000Y-109757164D02*
X157840000Y-109972836D01*
X158560000Y-109757164D02*
X158560000Y-109972836D01*
%TO.C,C44*%
X138090004Y-68615580D02*
X138090004Y-68334420D01*
X139110004Y-68615580D02*
X139110004Y-68334420D01*
%TO.C,R43*%
X140077504Y-67762258D02*
X140077504Y-67287742D01*
X141122504Y-67762258D02*
X141122504Y-67287742D01*
%TO.C,C9*%
X113890000Y-86937836D02*
X113890000Y-86722164D01*
X114610000Y-86937836D02*
X114610000Y-86722164D01*
%TO.C,R31*%
X157810436Y-118955000D02*
X159264564Y-118955000D01*
X157810436Y-120775000D02*
X159264564Y-120775000D01*
%TO.C,R30*%
X159277500Y-110527258D02*
X159277500Y-110052742D01*
X160322500Y-110527258D02*
X160322500Y-110052742D01*
%TO.C,R11*%
X140077500Y-100112742D02*
X140077500Y-100587258D01*
X141122500Y-100112742D02*
X141122500Y-100587258D01*
%TO.C,C32*%
X155840000Y-113437164D02*
X155840000Y-113652836D01*
X156560000Y-113437164D02*
X156560000Y-113652836D01*
%TO.C,C51*%
X118090000Y-71116579D02*
X118090000Y-70835419D01*
X119110000Y-71116579D02*
X119110000Y-70835419D01*
D14*
%TO.C,D9*%
X146129999Y-114817000D02*
X146129999Y-120740000D01*
X149749999Y-120113000D02*
X149749999Y-114817000D01*
D13*
%TO.C,C38*%
X106439999Y-113437164D02*
X106439999Y-113652836D01*
X107159999Y-113437164D02*
X107159999Y-113652836D01*
%TO.C,C31*%
X171039999Y-107452836D02*
X171039999Y-107237164D01*
X171759999Y-107452836D02*
X171759999Y-107237164D01*
%TO.C,R54*%
X112077500Y-71113258D02*
X112077500Y-70638742D01*
X113122500Y-71113258D02*
X113122500Y-70638742D01*
%TO.C,R29*%
X172677499Y-106987742D02*
X172677499Y-107462258D01*
X173722499Y-106987742D02*
X173722499Y-107462258D01*
%TO.C,C10*%
X112890000Y-98242164D02*
X112890000Y-98457836D01*
X113610000Y-98242164D02*
X113610000Y-98457836D01*
%TO.C,U2*%
X157990000Y-88212500D02*
X157990000Y-87412500D01*
X157990000Y-88212500D02*
X157990000Y-89012500D01*
X161110000Y-88212500D02*
X161110000Y-87412500D01*
X161110000Y-88212500D02*
X161110000Y-89012500D01*
X161390000Y-87152500D02*
X161060000Y-86912500D01*
X161390000Y-86672500D01*
X161390000Y-87152500D01*
G36*
X161390000Y-87152500D02*
G01*
X161060000Y-86912500D01*
X161390000Y-86672500D01*
X161390000Y-87152500D01*
G37*
D14*
%TO.C,D10*%
X154352000Y-130810000D02*
X160275000Y-130810000D01*
X159648000Y-127190000D02*
X154352000Y-127190000D01*
D13*
%TO.C,U1*%
X113965000Y-87990000D02*
X113965000Y-88940000D01*
X113965000Y-98210000D02*
X113965000Y-97260000D01*
X114915000Y-87990000D02*
X113965000Y-87990000D01*
X114915000Y-98210000D02*
X113965000Y-98210000D01*
X123235000Y-87990000D02*
X124185000Y-87990000D01*
X123235000Y-98210000D02*
X124185000Y-98210000D01*
X124185000Y-87990000D02*
X124185000Y-88940000D01*
X124185000Y-98210000D02*
X124185000Y-97260000D01*
X113350000Y-88940000D02*
X113010000Y-88470000D01*
X113690000Y-88470000D01*
X113350000Y-88940000D01*
G36*
X113350000Y-88940000D02*
G01*
X113010000Y-88470000D01*
X113690000Y-88470000D01*
X113350000Y-88940000D01*
G37*
D14*
%TO.C,FB2*%
X123900000Y-101700000D02*
X123600000Y-101700000D01*
D15*
%TO.C,Q2*%
X162645000Y-129020000D02*
X162645000Y-123130000D01*
D14*
X163095000Y-129975000D02*
X163095000Y-129975000D01*
X163295000Y-129975000D02*
X163295000Y-129975000D01*
D15*
X167545000Y-129020000D02*
X167545000Y-123130000D01*
D14*
X163095000Y-129975000D02*
G75*
G02*
X163295000Y-129975000I100000J0D01*
G01*
X163295000Y-129975000D02*
G75*
G02*
X163095000Y-129975000I-100000J0D01*
G01*
D13*
%TO.C,C46*%
X143029999Y-115924420D02*
X143029999Y-116205580D01*
X144049999Y-115924420D02*
X144049999Y-116205580D01*
%TO.C,C49*%
X131180000Y-113437164D02*
X131180000Y-113652836D01*
X131900000Y-113437164D02*
X131900000Y-113652836D01*
%TO.C,C40*%
X146090004Y-71115580D02*
X146090004Y-70834420D01*
X147110004Y-71115580D02*
X147110004Y-70834420D01*
%TO.C,R40*%
X146077500Y-67862258D02*
X146077500Y-67387742D01*
X147122500Y-67862258D02*
X147122500Y-67387742D01*
%TO.C,R14*%
X135577500Y-92837742D02*
X135577500Y-93312258D01*
X136622500Y-92837742D02*
X136622500Y-93312258D01*
%TO.C,C30*%
X167689999Y-110578748D02*
X167689999Y-112001252D01*
X169509999Y-110578748D02*
X169509999Y-112001252D01*
%TO.C,C28*%
X166834419Y-106780000D02*
X167115579Y-106780000D01*
X166834419Y-107800000D02*
X167115579Y-107800000D01*
%TO.C,R28*%
X172677499Y-110362742D02*
X172677499Y-110837258D01*
X173722499Y-110362742D02*
X173722499Y-110837258D01*
%TO.C,TP6841S1*%
X165640000Y-75862500D02*
X165640000Y-75062500D01*
X165640000Y-75862500D02*
X165640000Y-76662500D01*
X168760000Y-75862500D02*
X168760000Y-75062500D01*
X168760000Y-75862500D02*
X168760000Y-76662500D01*
X169040000Y-74802500D02*
X168710000Y-74562500D01*
X169040000Y-74322500D01*
X169040000Y-74802500D01*
G36*
X169040000Y-74802500D02*
G01*
X168710000Y-74562500D01*
X169040000Y-74322500D01*
X169040000Y-74802500D01*
G37*
D14*
%TO.C,D5*%
X170789999Y-114817000D02*
X170789999Y-120740000D01*
X174409999Y-120113000D02*
X174409999Y-114817000D01*
D13*
%TO.C,R39*%
X143512262Y-73177500D02*
X143037746Y-73177500D01*
X143512262Y-74222500D02*
X143037746Y-74222500D01*
%TO.C,R47*%
X148017499Y-106987742D02*
X148017499Y-107462258D01*
X149062499Y-106987742D02*
X149062499Y-107462258D01*
%TO.C,R44*%
X140017499Y-119227742D02*
X140017499Y-119702258D01*
X141062499Y-119227742D02*
X141062499Y-119702258D01*
%TO.C,C48*%
X146379999Y-107452836D02*
X146379999Y-107237164D01*
X147099999Y-107452836D02*
X147099999Y-107237164D01*
%TO.C,FSENS3*%
X110540002Y-50341000D02*
X110540002Y-62061000D01*
X110540002Y-62061000D02*
X111960002Y-62061000D01*
X111960002Y-62061000D02*
X111960002Y-57561000D01*
X112850002Y-50951000D02*
X112850002Y-56451000D01*
X112850002Y-56451000D02*
X113350002Y-56451000D01*
X113350002Y-50951000D02*
X112850002Y-50951000D01*
X113350002Y-56451000D02*
X113350002Y-50951000D01*
X115350002Y-50951000D02*
X115350002Y-56451000D01*
X115350002Y-56451000D02*
X115850002Y-56451000D01*
X115850002Y-50951000D02*
X115350002Y-50951000D01*
X115850002Y-56451000D02*
X115850002Y-50951000D01*
X116850002Y-50341000D02*
X110540002Y-50341000D01*
X116850002Y-50341000D02*
X123160002Y-50341000D01*
X117850002Y-50951000D02*
X117850002Y-56451000D01*
X117850002Y-56451000D02*
X118350002Y-56451000D01*
X118350002Y-50951000D02*
X117850002Y-50951000D01*
X118350002Y-56451000D02*
X118350002Y-50951000D01*
X120300002Y-60151000D02*
X120600002Y-59551000D01*
X120350002Y-50951000D02*
X120350002Y-56451000D01*
X120350002Y-56451000D02*
X120850002Y-56451000D01*
X120600002Y-59551000D02*
X120900002Y-60151000D01*
X120850002Y-50951000D02*
X120350002Y-50951000D01*
X120850002Y-56451000D02*
X120850002Y-50951000D01*
X120900002Y-60151000D02*
X120300002Y-60151000D01*
X121740002Y-62061000D02*
X121740002Y-57561000D01*
X123160002Y-50341000D02*
X123160002Y-62061000D01*
X123160002Y-62061000D02*
X121740002Y-62061000D01*
D14*
%TO.C,IC3*%
X161845000Y-111002000D02*
X166745000Y-111002000D01*
X161845000Y-114202000D02*
X161845000Y-111002000D01*
X166745000Y-111002000D02*
X166745000Y-114202000D01*
X166745000Y-114202000D02*
X161845000Y-114202000D01*
X166900000Y-109127000D02*
X166900000Y-110652000D01*
D15*
%TO.C,Q3*%
X121024999Y-129110000D02*
X121024999Y-123220000D01*
D14*
X121474999Y-130065000D02*
X121474999Y-130065000D01*
X121674999Y-130065000D02*
X121674999Y-130065000D01*
D15*
X125924999Y-129110000D02*
X125924999Y-123220000D01*
D14*
X121474999Y-130065000D02*
G75*
G02*
X121674999Y-130065000I100000J0D01*
G01*
X121674999Y-130065000D02*
G75*
G02*
X121474999Y-130065000I-100000J0D01*
G01*
D13*
%TO.C,C19*%
X164290000Y-92984420D02*
X164290000Y-93265580D01*
X165310000Y-92984420D02*
X165310000Y-93265580D01*
%TO.C,C5*%
X158686252Y-68340000D02*
X157263748Y-68340000D01*
X158686252Y-70160000D02*
X157263748Y-70160000D01*
%TO.C,C55*%
X110090000Y-68616581D02*
X110090000Y-68335421D01*
X111110000Y-68616581D02*
X111110000Y-68335421D01*
%TO.C,D1*%
X135987500Y-85935000D02*
X138272500Y-85935000D01*
X138272500Y-84465000D02*
X135987500Y-84465000D01*
X138272500Y-85935000D02*
X138272500Y-84465000D01*
%TO.C,C54*%
X111515583Y-63791000D02*
X111234423Y-63791000D01*
X111515583Y-64811000D02*
X111234423Y-64811000D01*
%TO.C,C25*%
X125965579Y-73191000D02*
X125684419Y-73191000D01*
X125965579Y-74211000D02*
X125684419Y-74211000D01*
D14*
%TO.C,D11*%
X104951999Y-130810000D02*
X110874999Y-130810000D01*
X110247999Y-127190000D02*
X104951999Y-127190000D01*
%TD*%
M02*
