%TF.GenerationSoftware,KiCad,Pcbnew,9.0.1*%
%TF.CreationDate,2025-06-03T11:42:51+02:00*%
%TF.ProjectId,esc,6573632e-6b69-4636-9164-5f7063625858,rev?*%
%TF.SameCoordinates,Original*%
%TF.FileFunction,Copper,L4,Bot*%
%TF.FilePolarity,Positive*%
%FSLAX46Y46*%
G04 Gerber Fmt 4.6, Leading zero omitted, Abs format (unit mm)*
G04 Created by KiCad (PCBNEW 9.0.1) date 2025-06-03 11:42:51*
%MOMM*%
%LPD*%
G01*
G04 APERTURE LIST*
G04 Aperture macros list*
%AMRoundRect*
0 Rectangle with rounded corners*
0 $1 Rounding radius*
0 $2 $3 $4 $5 $6 $7 $8 $9 X,Y pos of 4 corners*
0 Add a 4 corners polygon primitive as box body*
4,1,4,$2,$3,$4,$5,$6,$7,$8,$9,$2,$3,0*
0 Add four circle primitives for the rounded corners*
1,1,$1+$1,$2,$3*
1,1,$1+$1,$4,$5*
1,1,$1+$1,$6,$7*
1,1,$1+$1,$8,$9*
0 Add four rect primitives between the rounded corners*
20,1,$1+$1,$2,$3,$4,$5,0*
20,1,$1+$1,$4,$5,$6,$7,0*
20,1,$1+$1,$6,$7,$8,$9,0*
20,1,$1+$1,$8,$9,$2,$3,0*%
G04 Aperture macros list end*
%TA.AperFunction,ComponentPad*%
%ADD10C,2.280000*%
%TD*%
%TA.AperFunction,ComponentPad*%
%ADD11C,2.850000*%
%TD*%
%TA.AperFunction,ComponentPad*%
%ADD12RoundRect,0.250002X-1.699998X-1.699998X1.699998X-1.699998X1.699998X1.699998X-1.699998X1.699998X0*%
%TD*%
%TA.AperFunction,ComponentPad*%
%ADD13RoundRect,0.250000X0.600000X0.725000X-0.600000X0.725000X-0.600000X-0.725000X0.600000X-0.725000X0*%
%TD*%
%TA.AperFunction,ComponentPad*%
%ADD14O,1.700000X1.950000*%
%TD*%
%TA.AperFunction,ComponentPad*%
%ADD15C,5.460000*%
%TD*%
%TA.AperFunction,ComponentPad*%
%ADD16C,4.743000*%
%TD*%
%TA.AperFunction,ComponentPad*%
%ADD17C,4.656000*%
%TD*%
%TA.AperFunction,SMDPad,CuDef*%
%ADD18R,0.300000X0.800000*%
%TD*%
%TA.AperFunction,SMDPad,CuDef*%
%ADD19R,0.800000X0.300000*%
%TD*%
%TA.AperFunction,SMDPad,CuDef*%
%ADD20R,1.800000X1.800000*%
%TD*%
%TA.AperFunction,ViaPad*%
%ADD21C,0.700000*%
%TD*%
%TA.AperFunction,ViaPad*%
%ADD22C,0.900000*%
%TD*%
%TA.AperFunction,ViaPad*%
%ADD23C,0.800000*%
%TD*%
%TA.AperFunction,Conductor*%
%ADD24C,0.300000*%
%TD*%
%TA.AperFunction,Conductor*%
%ADD25C,0.250000*%
%TD*%
%TA.AperFunction,Conductor*%
%ADD26C,1.000000*%
%TD*%
G04 APERTURE END LIST*
D10*
%TO.P,J7,MH1,MH1*%
%TO.N,GND*%
X172150000Y-92870000D03*
D11*
%TO.P,J7,MH2,MH2*%
X176150000Y-92870000D03*
%TO.P,J7,MH3,MH3*%
X176150000Y-81630000D03*
D10*
%TO.P,J7,MH4,MH4*%
X172150000Y-81630000D03*
%TD*%
D12*
%TO.P,J1,1,Pin_1*%
%TO.N,/VPH_A*%
X142400000Y-137200999D03*
%TD*%
D13*
%TO.P,FSENS2,1,Pin_1*%
%TO.N,GND*%
X148600007Y-58050000D03*
D14*
%TO.P,FSENS2,2,Pin_2*%
%TO.N,/Amplifier/IN_R-*%
X146100007Y-58050000D03*
%TO.P,FSENS2,3,Pin_3*%
%TO.N,/Amplifier/IN_R+*%
X143600007Y-58050000D03*
%TO.P,FSENS2,4,Pin_4*%
%TO.N,3V3*%
X141100007Y-58050000D03*
%TD*%
D12*
%TO.P,J3,1,Pin_1*%
%TO.N,/VPH_C*%
X136200000Y-137200999D03*
%TD*%
D15*
%TO.P,J4,1,1*%
%TO.N,VCC*%
X164500000Y-65000000D03*
D16*
%TO.P,J4,2,2*%
%TO.N,GND*%
X170750000Y-65000000D03*
D17*
%TO.P,J4,3,3*%
%TO.N,unconnected-(J4-Pad3)*%
X167500000Y-60200000D03*
%TD*%
D13*
%TO.P,FSENS1,1,Pin_1*%
%TO.N,GND*%
X134600000Y-58051000D03*
D14*
%TO.P,FSENS1,2,Pin_2*%
%TO.N,/Amplifier1/IN_R-*%
X132100000Y-58051000D03*
%TO.P,FSENS1,3,Pin_3*%
%TO.N,/Amplifier1/IN_R+*%
X129600000Y-58051000D03*
%TO.P,FSENS1,4,Pin_4*%
%TO.N,3V3*%
X127100000Y-58051000D03*
%TD*%
D12*
%TO.P,J2,1,Pin_1*%
%TO.N,/VPH_B*%
X130000000Y-137200999D03*
%TD*%
D13*
%TO.P,FSENS3,1,Pin_1*%
%TO.N,GND*%
X120600002Y-58051000D03*
D14*
%TO.P,FSENS3,2,Pin_2*%
%TO.N,/Amplifier2/IN_R-*%
X118100002Y-58051000D03*
%TO.P,FSENS3,3,Pin_3*%
%TO.N,/Amplifier2/IN_R+*%
X115600002Y-58051000D03*
%TO.P,FSENS3,4,Pin_4*%
%TO.N,3V3*%
X113100002Y-58051000D03*
%TD*%
D18*
%TO.P,IC1,1,SSD*%
%TO.N,/SSD*%
X140850000Y-96200000D03*
%TO.P,IC1,2,A*%
%TO.N,/MG_A*%
X140350000Y-96200000D03*
%TO.P,IC1,3,Z*%
%TO.N,/MG_Z*%
X139850000Y-96200000D03*
%TO.P,IC1,4,MOSI*%
%TO.N,/MGH_SPI1_MOSI*%
X139350000Y-96200000D03*
D19*
%TO.P,IC1,5,CS*%
%TO.N,/MGH_SPI1_NSS*%
X138600000Y-95450000D03*
%TO.P,IC1,6,B*%
%TO.N,/MG_B*%
X138600000Y-94950000D03*
%TO.P,IC1,7,MISO*%
%TO.N,/MGH_SPI1_MISO*%
X138600000Y-94450000D03*
%TO.P,IC1,8,GND_1*%
%TO.N,GND*%
X138600000Y-93950000D03*
D18*
%TO.P,IC1,9,PWM*%
%TO.N,/MG_PWM*%
X139350000Y-93200000D03*
%TO.P,IC1,10,TEST*%
%TO.N,GND*%
X139850000Y-93200000D03*
%TO.P,IC1,11,MGL*%
%TO.N,/MGH_MGL*%
X140350000Y-93200000D03*
%TO.P,IC1,12,SCLK*%
%TO.N,/MGH_SPI1_SCK*%
X140850000Y-93200000D03*
D19*
%TO.P,IC1,13,VDD*%
%TO.N,3V3*%
X141600000Y-93950000D03*
%TO.P,IC1,14,NC*%
%TO.N,unconnected-(IC1-NC-Pad14)*%
X141600000Y-94450000D03*
%TO.P,IC1,15,SSCK*%
%TO.N,/SSCK*%
X141600000Y-94950000D03*
%TO.P,IC1,16,MGH*%
%TO.N,/MGH_MGH*%
X141600000Y-95450000D03*
D20*
%TO.P,IC1,17,GND_2*%
%TO.N,GND*%
X140100000Y-94700000D03*
%TD*%
D21*
%TO.N,/VSENSE_B*%
X110000000Y-95300000D03*
D22*
X111400000Y-101000000D03*
%TO.N,/VSENSE_C*%
X116400000Y-91200000D03*
X115400000Y-94200000D03*
D21*
X123200000Y-97300000D03*
X136500000Y-107100000D03*
X146800000Y-108600000D03*
X130300000Y-101400000D03*
D22*
%TO.N,/VSENSE_A*%
X116600000Y-93650000D03*
X117400000Y-90000000D03*
X122400000Y-88851415D03*
X171200000Y-104200000D03*
D23*
%TO.N,GND*%
X164000000Y-89000000D03*
D21*
X133849998Y-69726000D03*
X145000000Y-89750000D03*
X152750000Y-89750000D03*
D22*
X123399999Y-105200000D03*
X106999999Y-125600000D03*
D21*
X115750000Y-85350000D03*
X124349998Y-65476000D03*
X119150000Y-103100000D03*
X139100004Y-72475000D03*
D22*
X144800000Y-97600000D03*
D23*
X169000000Y-91500000D03*
D21*
X121850000Y-65476000D03*
X129750000Y-89750000D03*
X124250000Y-87100000D03*
X110350000Y-65476000D03*
X122250000Y-103100000D03*
D22*
X133140000Y-111465000D03*
D21*
X135000000Y-96500000D03*
D22*
X146000000Y-105800999D03*
X137500000Y-92750000D03*
D21*
X105750000Y-87850000D03*
D22*
X163000000Y-74400000D03*
X131740000Y-125600000D03*
D21*
X149850004Y-65475000D03*
D22*
X120199999Y-114000000D03*
X171800000Y-105600999D03*
D21*
X138600004Y-66475000D03*
D22*
X134140000Y-117265000D03*
D21*
X120290000Y-76850000D03*
X118250000Y-84600000D03*
D22*
X159800000Y-63600000D03*
X108399999Y-111465000D03*
X156400000Y-125600000D03*
X156000000Y-115265000D03*
D21*
X107050000Y-87100000D03*
D22*
X158250000Y-77500000D03*
D21*
X127500000Y-88100000D03*
X123250000Y-90000000D03*
D22*
X109399999Y-117265000D03*
D21*
X146000000Y-94500000D03*
X113750000Y-100100000D03*
D22*
X133000000Y-93700000D03*
X139600000Y-100400000D03*
X157800000Y-111465000D03*
X161500000Y-94000000D03*
D21*
X119850000Y-69726000D03*
X138350004Y-65475000D03*
X139500000Y-89750000D03*
D22*
X106599999Y-115265000D03*
D21*
X124599998Y-66476000D03*
D22*
X152250000Y-73750000D03*
D21*
X111500000Y-84100000D03*
X111000000Y-91100000D03*
X117000000Y-80600000D03*
D23*
X169000000Y-83000000D03*
D22*
X173200000Y-105400999D03*
D21*
X133750000Y-89750000D03*
X121250000Y-103850000D03*
D22*
X173000000Y-77400000D03*
X156200000Y-67000000D03*
D21*
X111100000Y-72476000D03*
X111750000Y-99250000D03*
X110250000Y-85100000D03*
D22*
X147600000Y-105400999D03*
X137540000Y-108000000D03*
D23*
X122000000Y-97000000D03*
D22*
X143800000Y-100000000D03*
D23*
X165750000Y-83000000D03*
D22*
X153400000Y-62400000D03*
X167600000Y-73200000D03*
X169000000Y-106800000D03*
X144940000Y-114000000D03*
D21*
X125250000Y-97850000D03*
D22*
X169600000Y-114000000D03*
D21*
X147850004Y-69725000D03*
X110600000Y-66476000D03*
D22*
X158800000Y-117265000D03*
X119599999Y-106800000D03*
X136600000Y-77000000D03*
D21*
X129750000Y-91500000D03*
D22*
X165200000Y-71200000D03*
X122199999Y-105200000D03*
X163300000Y-94000000D03*
D21*
X107000000Y-93100000D03*
D22*
X135000000Y-86000000D03*
D21*
X112000000Y-86850000D03*
X125099998Y-72476000D03*
D23*
X162500000Y-87500000D03*
D22*
X162200000Y-108000000D03*
D21*
X114500000Y-85600000D03*
D22*
X144340000Y-106800000D03*
D21*
X135849998Y-65476000D03*
D22*
X112799999Y-108000000D03*
X158200000Y-70800000D03*
X131340000Y-115265000D03*
D21*
X149250000Y-89750000D03*
X105300000Y-88850000D03*
X129000000Y-92600000D03*
X124750000Y-100100000D03*
D22*
%TO.N,/SG_1*%
X120600000Y-94600000D03*
X125600000Y-77200000D03*
%TO.N,/SG_2*%
X119200000Y-95800000D03*
X118400000Y-77200000D03*
%TO.N,/SG_3*%
X118400000Y-96800000D03*
X117200000Y-77200000D03*
D21*
%TO.N,3V3*%
X139000005Y-71300000D03*
X124000000Y-103350000D03*
X143200000Y-92900000D03*
D22*
X156000000Y-111665000D03*
D21*
X114000000Y-84850000D03*
X126250000Y-88100000D03*
X118250001Y-73051000D03*
X123750000Y-77350000D03*
X125499999Y-63051000D03*
X102500000Y-92850000D03*
X132249999Y-73051000D03*
D22*
X131340000Y-111665000D03*
D21*
X111750000Y-97850000D03*
X146250005Y-73050000D03*
D22*
X139076000Y-83750000D03*
X106599999Y-111665000D03*
D21*
X124999999Y-71301000D03*
X107000000Y-80600000D03*
X111000001Y-71301000D03*
X123750000Y-99850000D03*
X111500001Y-63051000D03*
X175750000Y-71750000D03*
X139500005Y-63050000D03*
%TO.N,/SSD*%
X141850000Y-98025000D03*
D22*
%TO.N,/VPH_A*%
X164000000Y-117000000D03*
X168000000Y-118800000D03*
X174800000Y-111600000D03*
D21*
%TO.N,/HIN_B*%
X127100000Y-103000000D03*
X128700000Y-105899000D03*
X115530999Y-108200000D03*
X128800000Y-108500000D03*
X130400000Y-96800000D03*
X128700000Y-99100000D03*
D22*
%TO.N,/VISENSE_A*%
X159800000Y-108000000D03*
X122600000Y-92600000D03*
%TO.N,/VCC_SENSE*%
X121600000Y-92000000D03*
X124200000Y-85600000D03*
%TO.N,/VPH_B*%
X118599999Y-118800000D03*
X125399999Y-111600000D03*
X114599999Y-117000000D03*
%TO.N,/VPH_C*%
X139340000Y-117000000D03*
X143340000Y-118800000D03*
X150140000Y-111600000D03*
D21*
%TO.N,/MG_Z*%
X138850000Y-97775000D03*
%TO.N,/MG_PWM*%
X132900000Y-92200000D03*
%TO.N,/SSCK*%
X143100000Y-95025000D03*
D22*
%TO.N,Net-(Q2-G)*%
X161000000Y-123200000D03*
X165000000Y-131800000D03*
%TO.N,Net-(Q4-G)*%
X115599999Y-131800000D03*
X111599999Y-123200000D03*
%TO.N,Net-(Q6-G)*%
X140340000Y-131800000D03*
X136340000Y-123200000D03*
%TO.N,VCC*%
X164200000Y-106400000D03*
X125275999Y-117341000D03*
X153250000Y-117000000D03*
X139400000Y-105600000D03*
D21*
%TO.N,/MG_B*%
X136100000Y-94900000D03*
%TO.N,/MGH_SPI1_MISO*%
X140300000Y-102600000D03*
X137400000Y-94200000D03*
X116700000Y-97200000D03*
%TO.N,/LIN_B*%
X127800000Y-104400000D03*
X114600000Y-108400000D03*
X129300000Y-100500000D03*
X127600000Y-108400000D03*
X127200000Y-105800000D03*
X132700000Y-99900000D03*
D22*
%TO.N,/LIN_C*%
X127600000Y-97200000D03*
X129000000Y-96200000D03*
D21*
%TO.N,/MGH_SPI1_NSS*%
X134800000Y-101900000D03*
X117600000Y-103800000D03*
X133800000Y-100600000D03*
%TO.N,/MGH_SPI1_SCK*%
X116800000Y-101900000D03*
%TO.N,/MGH_SPI1_MOSI*%
X117899000Y-101801000D03*
%TO.N,/MGH_MGH*%
X133700000Y-99400000D03*
X120700000Y-96000000D03*
X135655025Y-101244975D03*
%TO.N,VBUS*%
X158300000Y-90600000D03*
X163300000Y-92350000D03*
%TO.N,/MGH_MGL*%
X122400000Y-94200000D03*
D22*
%TO.N,/Phase_A/VHO_R*%
X166400000Y-120800000D03*
X177200000Y-128800000D03*
%TO.N,/Phase_B/VHO_R*%
X127799999Y-128800000D03*
X116999999Y-120800000D03*
%TO.N,/Phase_C/VHO_R*%
X152540000Y-128800000D03*
X141740000Y-120800000D03*
D21*
%TO.N,/MG_A*%
X140350000Y-98525000D03*
%TD*%
D24*
%TO.N,/VSENSE_B*%
X109700000Y-99300000D02*
X109700000Y-95600000D01*
X111400000Y-101000000D02*
X109700000Y-99300000D01*
X109700000Y-95600000D02*
X110000000Y-95300000D01*
%TO.N,/VSENSE_C*%
X142907214Y-107100000D02*
X144407214Y-108600000D01*
X115400000Y-92200000D02*
X116400000Y-91200000D01*
X123200000Y-97300000D02*
X127300000Y-101400000D01*
X115400000Y-94200000D02*
X115400000Y-92200000D01*
X136500000Y-107100000D02*
X142907214Y-107100000D01*
X144407214Y-108600000D02*
X146800000Y-108600000D01*
X127300000Y-101400000D02*
X130300000Y-101400000D01*
%TO.N,/VSENSE_A*%
X122401415Y-88850000D02*
X123750000Y-88850000D01*
X122400000Y-88851415D02*
X122401415Y-88850000D01*
X165499000Y-92731786D02*
X165968214Y-93201000D01*
X165968214Y-93201000D02*
X166601000Y-93201000D01*
X164250000Y-90000000D02*
X165499000Y-91249000D01*
X158000000Y-89500000D02*
X158191364Y-89500000D01*
X124100000Y-88500000D02*
X125658636Y-88500000D01*
X128092365Y-88499000D02*
X155407521Y-88499000D01*
X158691364Y-90000000D02*
X164250000Y-90000000D01*
X155408520Y-88500000D02*
X157000000Y-88500000D01*
X166601000Y-93201000D02*
X171200000Y-97800000D01*
X116600000Y-93650000D02*
X117400000Y-92850000D01*
X125959636Y-88801000D02*
X127790365Y-88801000D01*
X125658636Y-88500000D02*
X125959636Y-88801000D01*
X157000000Y-88500000D02*
X158000000Y-89500000D01*
X158191364Y-89500000D02*
X158691364Y-90000000D01*
X171200000Y-97800000D02*
X171200000Y-104200000D01*
X127790365Y-88801000D02*
X128092365Y-88499000D01*
X117400000Y-92850000D02*
X117400000Y-90000000D01*
X123750000Y-88850000D02*
X124100000Y-88500000D01*
X155407521Y-88499000D02*
X155408520Y-88500000D01*
X165499000Y-91249000D02*
X165499000Y-92731786D01*
%TO.N,GND*%
X138600000Y-93950000D02*
X139350000Y-93950000D01*
X139850000Y-94450000D02*
X140100000Y-94700000D01*
X139350000Y-93950000D02*
X140100000Y-94700000D01*
D25*
X137500000Y-92850000D02*
X137500000Y-92750000D01*
D24*
X139850000Y-93200000D02*
X139850000Y-94450000D01*
D25*
X138600000Y-93950000D02*
X137500000Y-92850000D01*
D24*
%TO.N,/SG_1*%
X120600000Y-82200000D02*
X120600000Y-94600000D01*
X125600000Y-77200000D02*
X120600000Y-82200000D01*
%TO.N,/SG_2*%
X119800000Y-78600000D02*
X119800000Y-95200000D01*
X118400000Y-77200000D02*
X119800000Y-78600000D01*
X119800000Y-95200000D02*
X119200000Y-95800000D01*
%TO.N,/SG_3*%
X116095682Y-84704318D02*
X118400000Y-87008636D01*
X117200000Y-77200000D02*
X116095682Y-78304318D01*
X116095682Y-78304318D02*
X116095682Y-84704318D01*
X118400000Y-87008636D02*
X118400000Y-96800000D01*
%TO.N,3V3*%
X142150000Y-93950000D02*
X143200000Y-92900000D01*
X141600000Y-93950000D02*
X142150000Y-93950000D01*
%TO.N,/SSD*%
X140850000Y-96200000D02*
X140850000Y-97025000D01*
X140850000Y-97025000D02*
X141850000Y-98025000D01*
D26*
%TO.N,/VPH_A*%
X174800000Y-112000000D02*
X174800000Y-111600000D01*
X166200000Y-117000000D02*
X168000000Y-118800000D01*
X168000000Y-118800000D02*
X174800000Y-112000000D01*
X164000000Y-117000000D02*
X166200000Y-117000000D01*
D24*
%TO.N,/HIN_B*%
X128700000Y-99100000D02*
X130400000Y-97400000D01*
X128199000Y-109101000D02*
X128800000Y-108500000D01*
X116431999Y-109101000D02*
X128199000Y-109101000D01*
X130400000Y-97400000D02*
X130400000Y-96800000D01*
X127391364Y-103000000D02*
X127100000Y-103000000D01*
X128700000Y-105899000D02*
X128700000Y-104308636D01*
X128700000Y-104308636D02*
X127391364Y-103000000D01*
X115530999Y-108200000D02*
X116431999Y-109101000D01*
%TO.N,/VISENSE_A*%
X127997885Y-89302000D02*
X128299885Y-89000000D01*
X125898000Y-89302000D02*
X127997885Y-89302000D01*
X159800000Y-93600000D02*
X159800000Y-108000000D01*
X122600000Y-92600000D02*
X125898000Y-89302000D01*
X155200000Y-89000000D02*
X159800000Y-93600000D01*
X128299885Y-89000000D02*
X155200000Y-89000000D01*
%TO.N,/VCC_SENSE*%
X121600000Y-88200000D02*
X121600000Y-92000000D01*
X123200000Y-86600000D02*
X121600000Y-88200000D01*
X124200000Y-85600000D02*
X123200000Y-86600000D01*
D26*
%TO.N,/VPH_B*%
X114599999Y-117000000D02*
X116799999Y-117000000D01*
X116799999Y-117000000D02*
X118599999Y-118800000D01*
X125399999Y-112000000D02*
X125399999Y-111600000D01*
X118599999Y-118800000D02*
X125399999Y-112000000D01*
%TO.N,/VPH_C*%
X150140000Y-112000000D02*
X150140000Y-111600000D01*
X141540000Y-117000000D02*
X143340000Y-118800000D01*
X139340000Y-117000000D02*
X141540000Y-117000000D01*
X143340000Y-118800000D02*
X150140000Y-112000000D01*
D24*
%TO.N,/MG_Z*%
X139850000Y-96775000D02*
X138850000Y-97775000D01*
X139850000Y-96200000D02*
X139850000Y-96775000D01*
%TO.N,/MG_PWM*%
X138531786Y-91199000D02*
X133901000Y-91199000D01*
X139350000Y-93200000D02*
X139350000Y-92017214D01*
X139350000Y-92017214D02*
X138531786Y-91199000D01*
X133901000Y-91199000D02*
X132900000Y-92200000D01*
%TO.N,/SSCK*%
X141600000Y-94950000D02*
X143025000Y-94950000D01*
X143025000Y-94950000D02*
X143100000Y-95025000D01*
D26*
%TO.N,Net-(Q2-G)*%
X165000000Y-127200000D02*
X165000000Y-131800000D01*
X161000000Y-123200000D02*
X165000000Y-127200000D01*
%TO.N,Net-(Q4-G)*%
X115599999Y-127200000D02*
X115599999Y-131800000D01*
X111599999Y-123200000D02*
X115599999Y-127200000D01*
%TO.N,Net-(Q6-G)*%
X140340000Y-127200000D02*
X140340000Y-131800000D01*
X136340000Y-123200000D02*
X140340000Y-127200000D01*
%TO.N,VCC*%
X125275999Y-115474001D02*
X125275999Y-117341000D01*
X141050001Y-103949999D02*
X139400000Y-105600000D01*
X164200000Y-109117024D02*
X164200000Y-106400000D01*
X150449999Y-103949999D02*
X141050001Y-103949999D01*
X153250000Y-117000000D02*
X152250000Y-116000000D01*
X135150000Y-105600000D02*
X125275999Y-115474001D01*
X152250000Y-116000000D02*
X152250000Y-105750000D01*
X156317024Y-117000000D02*
X164200000Y-109117024D01*
X153250000Y-117000000D02*
X156317024Y-117000000D01*
X139400000Y-105600000D02*
X135150000Y-105600000D01*
X152250000Y-105750000D02*
X150449999Y-103949999D01*
D24*
%TO.N,/MG_B*%
X136150000Y-94950000D02*
X136100000Y-94900000D01*
X137275000Y-94950000D02*
X136150000Y-94950000D01*
X138600000Y-94950000D02*
X137275000Y-94950000D01*
%TO.N,/MGH_SPI1_MISO*%
X138600000Y-94450000D02*
X137650000Y-94450000D01*
X115200000Y-98050000D02*
X115200000Y-103532787D01*
X130299000Y-107601000D02*
X130500000Y-107400000D01*
X131600000Y-107400000D02*
X136400000Y-102600000D01*
X115200000Y-103532787D02*
X119268213Y-107601000D01*
X116700000Y-97200000D02*
X116050000Y-97200000D01*
X136400000Y-102600000D02*
X140300000Y-102600000D01*
X130500000Y-107400000D02*
X131600000Y-107400000D01*
X119268213Y-107601000D02*
X130299000Y-107601000D01*
X116050000Y-97200000D02*
X115200000Y-98050000D01*
X137650000Y-94450000D02*
X137400000Y-94200000D01*
%TO.N,/LIN_B*%
X114600000Y-107979637D02*
X114750000Y-107829637D01*
X132700000Y-99900000D02*
X132100000Y-100500000D01*
X117400000Y-106700000D02*
X119100000Y-108400000D01*
X119100000Y-108400000D02*
X127600000Y-108400000D01*
X114750000Y-106700000D02*
X117400000Y-106700000D01*
X127200000Y-105800000D02*
X127200000Y-105000000D01*
X132100000Y-100500000D02*
X129300000Y-100500000D01*
X127200000Y-105000000D02*
X127800000Y-104400000D01*
X114600000Y-108400000D02*
X114600000Y-107979637D01*
X114750000Y-107829637D02*
X114750000Y-106700000D01*
%TO.N,/LIN_C*%
X127600000Y-97200000D02*
X128000000Y-97200000D01*
X128000000Y-97200000D02*
X129000000Y-96200000D01*
%TO.N,/MGH_SPI1_NSS*%
X133800000Y-100600000D02*
X138600000Y-95800000D01*
X130084960Y-106398000D02*
X130302000Y-106398000D01*
X126178318Y-106599000D02*
X129883960Y-106599000D01*
X129883960Y-106599000D02*
X130084960Y-106398000D01*
X122091364Y-104000000D02*
X123579318Y-104000000D01*
X130302000Y-106398000D02*
X134800000Y-101900000D01*
X138600000Y-95800000D02*
X138600000Y-95450000D01*
X118351000Y-104551000D02*
X121540364Y-104551000D01*
X123579318Y-104000000D02*
X126178318Y-106599000D01*
X121540364Y-104551000D02*
X122091364Y-104000000D01*
X117600000Y-103800000D02*
X118351000Y-104551000D01*
%TO.N,/MGH_SPI1_SCK*%
X116800000Y-101900000D02*
X116800000Y-103991364D01*
X147000000Y-92250000D02*
X146750000Y-92000000D01*
X121398999Y-105531786D02*
X122967213Y-107100000D01*
X136141364Y-101750000D02*
X144950000Y-101750000D01*
X144950000Y-101750000D02*
X147000000Y-99700000D01*
X118340422Y-105531786D02*
X121398999Y-105531786D01*
X146750000Y-92000000D02*
X142050000Y-92000000D01*
X130992364Y-106899000D02*
X136141364Y-101750000D01*
X142050000Y-92000000D02*
X140850000Y-93200000D01*
X130091479Y-107100000D02*
X130292480Y-106899000D01*
X130292480Y-106899000D02*
X130992364Y-106899000D01*
X116800000Y-103991364D02*
X118340422Y-105531786D01*
X147000000Y-99700000D02*
X147000000Y-92250000D01*
X122967213Y-107100000D02*
X130091479Y-107100000D01*
%TO.N,/MGH_SPI1_MOSI*%
X139350000Y-96200000D02*
X133350000Y-102200000D01*
X133350000Y-102200000D02*
X118298000Y-102200000D01*
X118298000Y-102200000D02*
X117899000Y-101801000D01*
X117899000Y-101801000D02*
X117900000Y-101800000D01*
%TO.N,/MGH_MGH*%
X122690364Y-94901000D02*
X122109636Y-94901000D01*
X142600000Y-98532786D02*
X139887811Y-101244975D01*
X139887811Y-101244975D02*
X135655025Y-101244975D01*
X122809362Y-94782002D02*
X122690364Y-94901000D01*
X132600000Y-94400000D02*
X128000000Y-94400000D01*
X127700000Y-94700000D02*
X123881311Y-94700000D01*
X141600000Y-95450000D02*
X142600000Y-96450000D01*
X121000000Y-96000000D02*
X120700000Y-96000000D01*
X122109636Y-94901000D02*
X122104318Y-94895682D01*
X123799308Y-94782002D02*
X122809362Y-94782002D01*
X123881311Y-94700000D02*
X123799308Y-94782002D01*
X122104318Y-94895682D02*
X121000000Y-96000000D01*
X133700000Y-99400000D02*
X133700000Y-95500000D01*
X142600000Y-96450000D02*
X142600000Y-98532786D01*
X133700000Y-95500000D02*
X132600000Y-94400000D01*
X128000000Y-94400000D02*
X127700000Y-94700000D01*
%TO.N,VBUS*%
X160050000Y-92350000D02*
X163300000Y-92350000D01*
X158300000Y-90600000D02*
X160050000Y-92350000D01*
%TO.N,/MGH_MGL*%
X127691479Y-94000000D02*
X122600000Y-94000000D01*
X133250000Y-90500000D02*
X129851000Y-93899000D01*
X129851000Y-93899000D02*
X127792480Y-93899000D01*
X138541306Y-90500000D02*
X133250000Y-90500000D01*
X122600000Y-94000000D02*
X122400000Y-94200000D01*
X140350000Y-93200000D02*
X140350000Y-92308694D01*
X127792480Y-93899000D02*
X127691479Y-94000000D01*
X140350000Y-92308694D02*
X138541306Y-90500000D01*
D26*
%TO.N,/Phase_A/VHO_R*%
X166400000Y-120800000D02*
X171600000Y-126000000D01*
X175600000Y-127200000D02*
X177200000Y-128800000D01*
X171600000Y-126000000D02*
X175600000Y-126000000D01*
X175600000Y-126000000D02*
X175600000Y-127200000D01*
%TO.N,/Phase_B/VHO_R*%
X122199999Y-126000000D02*
X126199999Y-126000000D01*
X116999999Y-120800000D02*
X122199999Y-126000000D01*
X126199999Y-127200000D02*
X127799999Y-128800000D01*
X126199999Y-126000000D02*
X126199999Y-127200000D01*
%TO.N,/Phase_C/VHO_R*%
X150940000Y-127200000D02*
X152540000Y-128800000D01*
X146940000Y-126000000D02*
X150940000Y-126000000D01*
X141740000Y-120800000D02*
X146940000Y-126000000D01*
X150940000Y-126000000D02*
X150940000Y-127200000D01*
D24*
%TO.N,/MG_A*%
X140350000Y-96200000D02*
X140350000Y-98525000D01*
%TD*%
M02*
